<svg viewBox="0 0 2495.13 2499.64" xmlns="http://www.w3.org/2000/svg"><circle cx="1275.6" cy="1249.82" fill="#000091" r="1158.8"/><path d="m1843.42 939.05h-57.82v-133.03c0-281.21-228.79-510-510-510s-510 228.79-510 510v133.03h-57.81c-27.75 0-50.23 22.49-50.23 50.23v633.4c6.29 89.56 31.48 173.89 71.81 248.93 104.55 194.54 309.93 326.83 546.24 326.83s441.7-132.3 546.25-326.84c40.33-75.04 65.51-159.37 71.8-248.93v-633.4c0-27.74-22.49-50.23-50.24-50.23zm-455.66 812.82h-224.33l61.4-233.41c-42.04-19.27-71.24-61.68-71.24-110.94 0-67.39 54.62-122.01 122.01-122.01s122.01 54.62 122.01 122.01c0 49.26-29.21 91.67-71.25 110.94zm-391.6-900.21h.11v-26.49c0-154.02 125.3-279.32 279.32-279.32s279.32 125.3 279.32 279.32v27.58h-.61v105.45h-558.14v-106.53z" fill="#fff"/></svg>