<svg viewBox="0 0 902.37 737.13" xmlns="http://www.w3.org/2000/svg"><path d="m80.75 424.89c9.2 43.21 51.84 70.87 95.04 61.67 43.21-9.2 70.87-51.84 61.67-95.04-9.2-43.21-51.84-70.87-95.04-61.67-43.21 9.2-70.87 51.84-61.67 95.04zm68.87-61.25c24.61-5.24 48.81 10.46 54.05 35.07s-10.46 48.81-35.07 54.05-48.81-10.46-54.05-35.07 10.46-48.81 35.07-54.05z" fill="#edf7f8"/><path d="m17.33 348.02 24.91 20.85c-3.69 10.93-5.88 22.46-6.36 34.28l-30.71 10.56c-3.67 1.26-5.82 5.06-5.01 8.86l7.94 37.28c.81 3.8 4.32 6.39 8.19 6.05l32.34-2.87c5.25 10.6 11.94 20.24 19.77 28.71l-14.26 29.19c-1.7 3.49-.54 7.7 2.72 9.81l31.98 20.75c3.26 2.11 7.58 1.46 10.07-1.51l20.85-24.91c10.93 3.69 22.46 5.88 34.28 6.36l10.56 30.71c1.26 3.67 5.06 5.82 8.86 5.01l37.28-7.94c3.8-.81 6.39-4.32 6.05-8.19l-2.87-32.34c10.6-5.25 20.24-11.94 28.71-19.77l29.19 14.26c3.49 1.7 7.7.54 9.81-2.72l20.75-31.98c2.11-3.26 1.46-7.58-1.51-10.07l-24.91-20.85c3.69-10.93 5.88-22.46 6.36-34.28l30.71-10.56c3.67-1.26 5.82-5.06 5.01-8.86l-7.94-37.28c-.81-3.8-4.32-6.39-8.19-6.05l-32.34 2.87c-5.25-10.6-11.94-20.23-19.77-28.71l14.26-29.19c1.7-3.49.54-7.7-2.72-9.81l-31.98-20.75c-3.26-2.11-7.58-1.46-10.07 1.51l-20.85 24.91c-10.93-3.69-22.46-5.88-34.28-6.36l-10.56-30.71c-1.26-3.67-5.06-5.82-8.86-5.01l-37.28 7.94c-3.8.81-6.39 4.32-6.05 8.19l2.87 32.34c-10.6 5.25-20.23 11.94-28.71 19.77l-29.19-14.26c-3.49-1.7-7.7-.54-9.81 2.72l-20.75 31.98c-2.11 3.26-1.46 7.58 1.51 10.07zm122.69-29.43c49.5-10.54 98.17 21.04 108.71 70.54s-21.04 98.17-70.54 108.71-98.17-21.04-108.71-70.54 21.04-98.17 70.54-108.71z" fill="#edf7f8"/><path d="m439.87 364.16c-3.94 75.64 54.39 140.39 130.03 144.33s140.39-54.39 144.33-130.03-54.39-140.39-130.03-144.33-140.39 54.39-144.33 130.03zm141.24-70.86c43.09 2.25 76.19 38.99 73.95 82.08-2.25 43.08-38.99 76.19-82.08 73.95s-76.19-38.99-73.95-82.08c2.25-43.09 38.99-76.19 82.08-73.95z" fill="#edf7f8"/><path d="m307.45 324.54-3.4 65.27c-.35 6.65 4.32 12.51 10.88 13.65l54.84 9.6c3.99 19.89 10.8 38.81 20 56.33l-36.57 42.02c-4.37 5.02-4.3 12.51.15 17.46l43.75 48.56c4.45 4.94 11.9 5.79 17.35 1.96l45.59-32c16.47 10.97 34.58 19.7 53.95 25.74l3.85 55.54c.46 6.64 5.8 11.89 12.45 12.24l65.27 3.4c6.65.35 12.51-4.32 13.65-10.88l9.6-54.84c19.89-3.99 38.81-10.8 56.33-20l42.02 36.57c5.02 4.37 12.51 4.3 17.46-.15l48.56-43.75c4.94-4.45 5.79-11.9 1.96-17.35l-32-45.59c10.97-16.47 19.7-34.58 25.74-53.95l55.54-3.85c6.64-.46 11.89-5.8 12.24-12.45l3.4-65.27c.35-6.65-4.32-12.51-10.88-13.65l-54.84-9.6c-3.99-19.89-10.8-38.81-19.99-56.33l36.57-42.02c4.37-5.02 4.3-12.51-.15-17.46l-43.75-48.56c-4.45-4.94-11.9-5.79-17.35-1.96l-45.59 32c-16.47-10.97-34.58-19.7-53.95-25.74l-3.85-55.54c-.46-6.64-5.8-11.89-12.45-12.24l-65.27-3.4c-6.65-.35-12.51 4.32-13.65 10.88l-9.6 54.84c-19.89 3.99-38.81 10.8-56.33 20l-42.02-36.57c-5.02-4.37-12.51-4.31-17.46.15l-48.56 43.75c-4.94 4.45-5.79 11.9-1.96 17.35l32 45.59c-10.97 16.47-19.7 34.58-25.74 53.95l-55.54 3.85c-6.64.46-11.89 5.8-12.24 12.45zm277.77-110.13c86.65 4.52 153.24 78.42 148.73 165.08-4.52 86.65-78.42 153.24-165.08 148.73-86.65-4.52-153.24-78.42-148.73-165.08 4.52-86.65 78.42-153.24 165.08-148.73z" fill="#edf7f8"/><path d="m222.57 101.17c-24.61 17.98-30 52.63-12.02 77.23 17.98 24.61 52.63 30 77.23 12.02 24.61-17.98 30-52.63 12.02-77.23-17.98-24.61-52.63-30-77.23-12.02zm14.06 19.25c14.02-10.24 33.68-7.18 43.92 6.84s7.18 33.68-6.84 43.92-33.68 7.18-43.92-6.84-7.18-33.68 6.84-43.92z" fill="#edf7f8"/><path d="m149.19 115.99-4.04 25.98c-.41 2.65 1.22 5.18 3.79 5.91l21.57 6.1c.76 7.92 2.63 15.8 5.67 23.37l-16.36 15.31c-1.96 1.83-2.24 4.83-.66 6.99l15.51 21.23c1.58 2.16 4.52 2.81 6.86 1.5l19.55-10.93c6.3 5.19 13.23 9.37 20.55 12.5l-.74 22.4c-.09 2.68 1.83 5 4.48 5.41l25.98 4.04c2.65.41 5.18-1.22 5.91-3.79l6.1-21.57c7.92-.76 15.8-2.63 23.37-5.67l15.31 16.36c1.83 1.96 4.83 2.24 6.99.66l21.23-15.51c2.16-1.58 2.81-4.52 1.5-6.86l-10.93-19.55c5.19-6.3 9.37-13.23 12.5-20.55l22.4.74c2.68.09 5-1.83 5.41-4.48l4.04-25.98c.41-2.65-1.22-5.18-3.79-5.91l-21.57-6.1c-.76-7.92-2.63-15.8-5.67-23.37l16.36-15.31c1.96-1.83 2.24-4.83.66-6.99l-15.51-21.23c-1.58-2.16-4.52-2.81-6.86-1.5l-19.55 10.93c-6.3-5.19-13.23-9.37-20.55-12.5l.74-22.4c.09-2.68-1.83-5-4.48-5.41l-25.98-4.04c-2.65-.41-5.18 1.22-5.91 3.79l-6.1 21.57c-7.92.76-15.8 2.63-23.37 5.67l-15.31-16.36c-1.83-1.95-4.83-2.24-6.99-.66l-21.23 15.51c-2.16 1.58-2.81 4.52-1.5 6.86l10.93 19.55c-5.19 6.3-9.37 13.23-12.5 20.55l-22.4-.74c-2.68-.09-5 1.83-5.41 4.48zm68.69-21.24c28.19-20.6 67.74-14.44 88.34 13.75s14.44 67.74-13.75 88.34-67.74 14.44-88.34-13.75-14.44-67.74 13.75-88.34z" fill="#edf7f8"/><path d="m880.05 51.49-52.14 13.31 13.48 9.5-.91 14.41 9.1-8.48 12.58 8.84z" fill="#c8e2e3"/><path d="m841.39 74.3-.91 14.41 9.1-8.48z" fill="#a4cfd1"/><path d="m841.81 74.62-.89 12.55 4.84-9.64 28.82-22.06z" fill="#7b9b9d"/><path d="m736.09 117.89.07-2.87c1.98.13 3.84.24 5.7.32l-.12 2.86c-1.89-.08-3.77-.19-5.65-.31zm-5.85-.45c-1.91-.17-3.82-.35-5.72-.55l.3-2.85c1.89.2 3.78.38 5.68.54l-.25 2.85zm-11.44-1.19c-1.9-.23-3.8-.47-5.7-.72l.38-2.84c1.88.25 3.77.49 5.66.71l-.34 2.84zm28.7 2.13.05-2.86c1.89.03 3.79.04 5.69.02l.03 2.86c-1.93.02-3.85 0-5.77-.02zm-40.09-3.63c-1.89-.27-3.79-.55-5.68-.84l.43-2.83c1.88.29 3.77.56 5.65.83l-.41 2.83zm51.62 3.52-.11-2.86c1.89-.07 3.79-.17 5.68-.3l.19 2.86c-1.92.13-3.84.23-5.76.3zm-62.97-5.24c-1.89-.3-3.77-.6-5.66-.91l.46-2.83c1.88.3 3.77.61 5.65.9l-.45 2.83zm-11.32-1.83-5.65-.92.46-2.83 5.65.92zm85.8 6.28-.28-2.85c1.88-.19 3.77-.4 5.64-.65l.38 2.84c-1.88.25-3.81.47-5.74.66zm-97.1-8.12c-1.88-.3-3.77-.6-5.65-.89l.44-2.83c1.89.29 3.78.59 5.66.89zm-11.3-1.75c-1.88-.28-3.77-.55-5.66-.81l.39-2.84c1.9.26 3.79.53 5.68.82l-.42 2.83zm119.86 8.35-.48-2.82c1.87-.32 3.75-.67 5.57-1.05l.58 2.8c-1.86.39-3.77.74-5.68 1.07zm-131.18-9.92c-1.89-.24-3.78-.47-5.67-.68l.32-2.85c1.9.21 3.8.44 5.71.69zm-28.39-2.43.09-2.86c1.92.06 3.84.15 5.75.26l-.17 2.86c-1.89-.11-3.78-.2-5.68-.26zm17.05 1.15c-1.89-.18-3.78-.35-5.68-.5l.22-2.85c1.91.15 3.82.32 5.73.5l-.28 2.85zm153.83 8.84-.69-2.78c1.83-.46 3.67-.96 5.46-1.49l.81 2.75c-1.83.54-3.71 1.05-5.58 1.52zm11.1-3.28-.93-2.71c1.79-.62 3.58-1.28 5.3-1.97l1.06 2.66c-1.77.7-3.59 1.38-5.43 2.02zm10.76-4.3-1.19-2.6c1.71-.79 3.42-1.62 5.07-2.49l1.33 2.54c-1.7.89-3.45 1.75-5.21 2.56zm10.27-5.4-1.47-2.46c1.61-.96 3.21-1.98 4.76-3.03l1.61 2.37c-1.59 1.08-3.24 2.13-4.9 3.12zm9.61-6.54-1.75-2.27c1.49-1.15 2.95-2.35 4.36-3.58l1.89 2.16c-1.45 1.27-2.96 2.51-4.49 3.69z" fill="#1b888c"/><g fill="#33b9b1"><path d="m182.74 293.06c.64 2.26 2.74 3.84 5.09 3.84.46 0 .93-.06 1.29-.16l.14-.03c2.78-.74 4.5-3.6 3.82-6.38l-8.11-33.31c-.65-2.69-3.05-4.58-5.82-4.58-.52 0-1.04.07-1.61.22-1.57.41-2.87 1.42-3.68 2.83-.8 1.41-1 3.05-.55 4.61l9.42 32.97z"/><path d="m56.36 395.71 27.32 6.96c.66.17 1.34.25 2.02.25 3.65 0 6.91-2.45 7.92-5.96l.07-.24c1.24-4.3-1.12-8.75-5.38-10.12l-26.84-8.63c-.91-.29-1.85-.44-2.79-.44-4.06 0-7.67 2.7-8.78 6.56l-.08.27c-.68 2.38-.38 4.87.86 7.02 1.25 2.17 3.27 3.71 5.69 4.32z"/><path d="m50.93 473.67c.35 0 .7-.02 1.05-.06l28.02-3.17c4.45-.5 7.65-4.4 7.28-8.86l-.02-.25c-.36-4.38-4.18-7.79-8.63-7.55l-28.16 1.46c-2.5.13-4.78 1.24-6.43 3.12-1.63 1.87-2.42 4.25-2.22 6.71l.02.26c.39 4.68 4.38 8.34 9.09 8.35z"/><path d="m64.07 370.68 26.23 10.31c.96.38 1.97.57 2.99.57 3.31 0 6.29-1.97 7.65-5.12 1.78-4.13 0-8.85-4.05-10.75l-25.51-11.98c-1.23-.58-2.53-.87-3.88-.87-3.66 0-6.95 2.15-8.44 5.6l-.07.17c-.98 2.27-.99 4.79-.03 7.08.96 2.31 2.78 4.09 5.11 5.01z"/><path d="m51.77 421.44 27.96 3.61c.35.05.7.07 1.05.07 4.07 0 7.49-2.91 8.14-6.96l.04-.25c.71-4.42-2.18-8.55-6.58-9.39l-27.69-5.28c-.56-.11-1.14-.16-1.71-.16-4.52 0-8.32 3.21-9.04 7.67l-.03.22c-.39 2.44.22 4.88 1.7 6.87 1.5 2 3.69 3.28 6.17 3.6z"/><path d="m50.32 447.52 28.18.24h.06c4.45 0 8.07-3.47 8.23-7.9v-.29c.19-4.48-3.18-8.23-7.65-8.54l-28.12-1.93c-5.21-.36-9.58 3.63-9.78 8.77v.14c-.1 2.49.8 4.86 2.52 6.66 1.73 1.81 4.05 2.82 6.55 2.84z"/><path d="m161.54 298.65c1.35 2.83 4.14 4.6 7.29 4.6 1.11 0 2.19-.22 3.32-.7 4.03-1.71 5.99-6.24 4.46-10.31l-9.91-26.31c-1.37-3.63-4.88-6.07-8.74-6.08-1.25 0-2.46.25-3.62.74l-.13.06c-2.34 1-4.12 2.86-5.03 5.25-.9 2.38-.79 5.07.3 7.37l12.07 25.39z"/><path d="m75.04 346.81 24.58 13.62c1.21.67 2.57 1.02 3.94 1.03 2.88 0 5.6-1.54 7.14-4.11 2.3-3.83 1.18-8.72-2.54-11.14l-23.58-15.29c-1.51-.98-3.25-1.49-5.04-1.5-3.28 0-6.24 1.66-7.92 4.46l-.07.12c-1.29 2.15-1.64 4.67-.99 7.11.66 2.45 2.25 4.48 4.47 5.72z"/><path d="m142.75 310.12c1.5 2.15 3.97 3.43 6.6 3.44 1.57 0 3.1-.44 4.52-1.35 3.69-2.36 4.87-7.15 2.68-10.91l-14.15-24.29c-1.67-2.87-4.78-4.66-8.1-4.67-1.77 0-3.49.5-4.98 1.45l-.12.08c-2.14 1.37-3.59 3.5-4.09 6.01-.49 2.5.06 5.13 1.52 7.21z"/><path d="m125.98 324.52c1.53 1.58 3.59 2.44 5.79 2.45 2.03 0 3.98-.75 5.57-2.18 3.28-2.94 3.65-7.88.86-11.25l-17.99-21.7c-1.77-2.13-4.37-3.36-7.14-3.36-2.27 0-4.45.83-6.13 2.33l-.23.21c-1.87 1.68-2.94 4-3.02 6.52-.08 2.51.88 4.99 2.63 6.79l19.66 20.2z"/><path d="m89.1 324.48 22.48 17c1.41 1.07 3.09 1.63 4.86 1.64 2.47 0 4.78-1.1 6.35-3.02l.12-.14c2.79-3.42 2.4-8.36-.89-11.26l-21.16-18.62c-1.69-1.49-3.87-2.31-6.12-2.32-2.79 0-5.39 1.22-7.14 3.37l-.14.17c-1.58 1.95-2.29 4.4-1.99 6.9.3 2.49 1.62 4.79 3.62 6.3z"/><path d="m54.69 499.6c.73 0 1.46-.09 2.18-.26l27.35-6.63c4.37-1.06 7.08-5.34 6.16-9.72l-.03-.14c-.8-3.82-4.2-6.6-8.09-6.6-.49 0-.97.04-1.46.13l-27.71 4.89c-2.46.43-4.6 1.82-6 3.89-1.39 2.06-1.88 4.52-1.37 6.96l.05.26c.88 4.18 4.63 7.22 8.92 7.23z"/><path d="m181.26 594.26-.22-.09c-1.03-.44-2.12-.67-3.24-.67-3.18 0-6.1 1.85-7.44 4.72l-11.96 25.7c-1.04 2.24-1.13 4.75-.25 7.06.88 2.29 2.6 4.08 4.85 5.05l.44.19c1.11.47 2.29.72 3.49.72 3.69 0 7.08-2.31 8.43-5.76l10.33-26.4c1.62-4.14-.33-8.77-4.45-10.52z"/><path d="m91.36 514.13c4.15-1.6 6.25-6.17 4.77-10.39l-.05-.15c-1.15-3.31-4.27-5.54-7.75-5.55-.83 0-1.65.12-2.45.37l-26.86 8.37c-2.42.75-4.38 2.41-5.51 4.68-1.13 2.24-1.3 4.77-.48 7.13l.05.13c1.28 3.67 4.77 6.15 8.69 6.15 1.15 0 2.27-.21 3.35-.62l26.25-10.13z"/><path d="m162.03 584.56-.16-.09c-1.27-.75-2.72-1.15-4.2-1.16-2.82 0-5.4 1.41-6.91 3.77l-15.13 23.72c-1.36 2.14-1.79 4.68-1.2 7.14.58 2.44 2.09 4.49 4.24 5.76l.12.07c1.4.83 3 1.27 4.63 1.27 3.39 0 6.51-1.84 8.14-4.82l13.5-24.69c2.13-3.9.79-8.72-3.04-10.98z"/><path d="m245.27 609.58c-4.61-.42-8.62 2.95-9.12 7.48l-3.07 27.94c-.27 2.45.44 4.84 2 6.73 1.55 1.89 3.75 3.05 6.19 3.27h.14c.26.04.52.05.78.05 4.75 0 8.72-3.71 9.03-8.46l1.84-28.04c.3-4.54-3.15-8.56-7.8-8.96z"/><path d="m223.4 606.67-.5-.09c-.48-.09-.98-.13-1.47-.13-3.85 0-7.22 2.73-8.01 6.51l-5.77 27.68c-.51 2.43-.02 4.91 1.37 6.97 1.38 2.05 3.47 3.42 6.02 3.88.53.1 1.07.15 1.61.15 4.44 0 8.3-3.31 8.99-7.71l4.38-27.93c.69-4.42-2.22-8.52-6.63-9.32z"/><path d="m201.86 601.62-.4-.12c-.75-.22-1.53-.33-2.3-.34-3.56 0-6.69 2.27-7.79 5.65l-8.72 26.85c-.77 2.38-.56 4.91.61 7.12 1.16 2.2 3.1 3.79 5.44 4.48l.17.05c.83.24 1.68.37 2.54.37 4.15 0 7.79-2.8 8.86-6.83l7.21-27.29c1.14-4.32-1.33-8.68-5.62-9.94z"/><path d="m115.38 541.55c-1.54-2.2-4.06-3.52-6.73-3.53-1.58 0-3.11.45-4.44 1.31l-23.59 15.29c-2.11 1.36-3.59 3.56-4.07 6.02-.48 2.48.04 4.97 1.48 7.03l.08.11c1.71 2.45 4.53 3.91 7.54 3.92 2.04 0 3.98-.65 5.61-1.88l22.45-16.93c3.53-2.67 4.3-7.61 1.68-11.35z"/><path d="m144.46 572.49-.12-.09c-1.46-1.16-3.28-1.8-5.14-1.81-2.4 0-4.66 1.04-6.22 2.85l-18.3 21.37c-1.63 1.9-2.43 4.42-2.19 6.91.24 2.5 1.45 4.74 3.4 6.3l.15.12c1.63 1.3 3.6 1.98 5.68 1.99 2.93 0 5.72-1.4 7.47-3.76l16.74-22.61c2.64-3.56 1.97-8.53-1.49-11.28z"/><path d="m101.18 534.34c3.89-2.15 5.35-6.95 3.28-11.03-1.41-2.79-4.22-4.52-7.33-4.53-1.2 0-2.37.26-3.46.77l-25.5 11.87c-2.3 1.07-4.02 2.98-4.85 5.37-.82 2.37-.65 4.91.47 7.12l.09.17c1.57 3.08 4.71 5 8.19 5.01 1.56 0 3.11-.4 4.49-1.16l24.63-13.6z"/><path d="m128.75 558.02c-1.55-1.65-3.74-2.6-6-2.61-1.98 0-3.89.71-5.37 2.01l-21.17 18.5c-1.89 1.65-3.05 4.04-3.17 6.55-.12 2.52.75 4.92 2.46 6.73l.12.12c1.75 1.86 4.12 2.88 6.69 2.89 2.51 0 4.86-.98 6.63-2.76l19.78-19.98c3.11-3.14 3.16-8.14.04-11.46z"/><path d="m265.22 610.59c-2.97 0-5.45 2.4-5.52 5.37l-.82 34.24c-.04 1.57.54 3.06 1.63 4.19s2.54 1.76 4.17 1.79h.07c3.2 0 5.82-2.6 5.83-5.81l.19-34.25c.02-3.01-2.42-5.49-5.56-5.53z"/></g><path d="m31.51 19.49 44.33 30.52-15.94 4.25-4.12 13.84-5.61-11.11-14.87 3.95z" fill="#c8e2e3"/><path d="m59.9 54.26-4.12 13.84-5.61-11.11z" fill="#a4cfd1"/><path d="m59.4 54.41-3.51 12.09-1.21-10.72-19.41-30.67z" fill="#7b9b9d"/><path d="m232.85 226.03c-1.91-.28-3.85-.67-5.75-1.16l.71-2.78c1.81.46 3.65.83 5.47 1.1l-.42 2.83zm-11.36-2.88c-1.82-.66-3.64-1.42-5.4-2.26l1.23-2.59c1.68.8 3.42 1.53 5.16 2.16l-.98 2.69zm-10.57-5.02c-1.65-.98-3.3-2.05-4.9-3.19l1.67-2.33c1.53 1.09 3.11 2.12 4.69 3.06l-1.46 2.47zm-9.51-6.78c-1.47-1.25-2.92-2.57-4.3-3.95l2.02-2.03c1.33 1.32 2.72 2.59 4.14 3.79l-1.85 2.18zm-8.29-8.21c-1.26-1.45-2.49-2.98-3.65-4.55l2.3-1.71c1.12 1.51 2.3 2.98 3.52 4.38l-2.16 1.88zm-6.96-9.35c-1.04-1.63-2.03-3.33-2.95-5.03l2.52-1.36c.88 1.65 1.84 3.28 2.84 4.85l-2.42 1.54zm-5.53-10.26c-.79-1.78-1.53-3.6-2.19-5.41l2.69-.97c.63 1.75 1.34 3.5 2.11 5.21zm-3.96-10.97c-.49-1.76-.92-3.55-1.27-5.32l-.07-.36 2.81-.56.07.36c.34 1.7.75 3.42 1.22 5.11zm-2.27-11.43c-.24-1.89-.42-3.82-.55-5.75l2.86-.23v.05c.12 1.86.3 3.73.53 5.56l-2.84.36zm2.14-11.61h-2.86c0-1.91.06-3.86.17-5.81l2.86.17c-.11 1.89-.17 3.79-.17 5.64zm.67-11.26-2.84-.33c.22-1.9.5-3.83.84-5.75l2.82.49c-.32 1.86-.6 3.74-.81 5.59zm-2.91-10.58-.2-2.86c.9-.06 1.79-.13 2.68-.21.31-1.25.63-2.5.98-3.74l2.76.77c-.26.94-.51 1.88-.75 2.82l.28 2.72c-1.92.19-3.83.36-5.75.49zm-5.77.3c-1.93.07-3.87.1-5.78.1v-2.86c1.87 0 3.78-.03 5.68-.1zm17.25-1.46-.38-2.84c1.88-.25 3.75-.53 5.62-.84l.47 2.83c-1.9.31-3.8.6-5.71.85zm-28.81 1.45c-1.93-.07-3.87-.18-5.77-.32l.21-2.86c1.87.14 3.77.25 5.66.32l-.11 2.86zm40.2-3.33-.55-2.81c1.86-.36 3.72-.75 5.56-1.17l.63 2.79c-1.88.42-3.76.82-5.64 1.19zm-51.73 2.46c-1.92-.22-3.85-.48-5.73-.77l.44-2.83c1.85.29 3.74.54 5.62.76l-.33 2.85zm62.98-4.99-.71-2.78c1.84-.47 3.67-.96 5.49-1.48l.78 2.76c-1.85.52-3.7 1.02-5.57 1.5zm-74.41 3.21c-1.57-.31-3.14-.65-4.7-1.02l-.95-.23.68-2.78.93.22c1.53.36 3.06.69 4.6 1zm85.5-6.35-.85-2.73c.63-.2 1.26-.39 1.88-.59 1.17-.38 2.35-.77 3.52-1.17l.94 2.71c-1.19.41-2.39.81-3.58 1.19-.63.2-1.27.4-1.91.6zm-96.76 3.61c-1.85-.54-3.71-1.13-5.52-1.76l.93-2.71c1.77.61 3.59 1.19 5.4 1.71l-.81 2.75zm107.67-7.41-1.05-2.66c1.81-.71 3.55-1.46 5.2-2.22l1.2 2.6c-1.69.78-3.49 1.54-5.34 2.28zm-48.25 1.07-2.72-.9c.6-1.81 1.26-3.65 1.95-5.46l2.67 1.02c-.68 1.77-1.32 3.56-1.9 5.33zm-70.38 2.59c-1.79-.71-3.59-1.47-5.34-2.25l1.18-2.61c1.71.77 3.46 1.51 5.21 2.2zm129.18-8.54-1.37-2.52c1.69-.92 3.31-1.89 4.82-2.87l1.57 2.4c-1.57 1.03-3.26 2.04-5.02 2.99zm-139.74 3.78c-1.72-.88-3.44-1.8-5.1-2.75l1.42-2.49c1.62.92 3.3 1.83 4.98 2.68l-1.3 2.55zm149.51-10.22-1.8-2.23c1.47-1.19 2.86-2.44 4.12-3.73l2.04 2.01c-1.34 1.36-2.81 2.69-4.37 3.95zm-64.52 1.81-2.63-1.14c.76-1.75 1.57-3.52 2.41-5.26l2.58 1.25c-.83 1.71-1.62 3.44-2.36 5.15zm-95.05 2.68c-1.63-1.04-3.25-2.12-4.82-3.23l1.65-2.34c1.52 1.08 3.1 2.14 4.7 3.15l-1.54 2.42zm167.8-12.92-2.29-1.72c.93-1.25 1.79-2.55 2.55-3.87.14-.25.28-.5.42-.76l2.53 1.35c-.15.28-.3.56-.46.84-.82 1.42-1.74 2.82-2.74 4.16zm-67.81.04-2.52-1.35c.9-1.69 1.86-3.39 2.83-5.05l2.47 1.45c-.95 1.63-1.89 3.29-2.77 4.95zm-109.45 6.19c-1.52-1.2-3.02-2.44-4.47-3.7l1.89-2.15c1.4 1.23 2.87 2.44 4.35 3.61l-1.77 2.25zm182.74-16.78-2.74-.82c.52-1.72.88-3.52 1.09-5.36l2.84.32c-.23 2-.63 3.97-1.19 5.85zm-191.47 9.14c-1.39-1.35-2.75-2.75-4.04-4.17l2.11-1.94c1.26 1.37 2.58 2.74 3.93 4.05l-2 2.05zm123.92-8.33-2.41-1.54c.56-.88 1.14-1.76 1.72-2.63.49-.73.98-1.46 1.49-2.18l2.35 1.63c-.49.71-.98 1.42-1.46 2.14-.57.85-1.13 1.71-1.69 2.58zm67.48-12.55-1.44-.03c-.12-1.87-.37-3.62-.77-5.31l2.79-.65c.43 1.84.71 3.75.83 5.68l-1.42.31zm-199.25 12.32c-1.22-1.5-2.42-3.05-3.54-4.6l2.32-1.68c1.09 1.51 2.25 3.02 3.44 4.47zm138.25-9.08-2.28-1.73c1.2-1.58 2.42-3.1 3.62-4.53l2.19 1.85c-1.17 1.39-2.36 2.88-3.53 4.42zm7.29-8.62-2.08-1.97c1.36-1.43 2.76-2.81 4.15-4.09l1.94 2.11c-1.34 1.23-2.69 2.56-4.01 3.95zm-152.34 8.29c-1.04-1.64-2.04-3.32-2.96-5l2.51-1.38c.9 1.63 1.87 3.26 2.87 4.85l-2.42 1.54zm202.11-13.4c-.76-1.69-1.69-3.25-2.75-4.64l2.28-1.74c1.19 1.56 2.23 3.31 3.08 5.19l-2.61 1.18zm-41.49-2.49-1.77-2.25c1.49-1.17 3.02-2.28 4.55-3.29l.19-.13 1.57 2.39-.18.12c-1.47.97-2.93 2.03-4.36 3.15zm34.98-5.92c-1.42-1.08-2.97-1.93-4.63-2.55l1-2.68c1.92.71 3.72 1.71 5.36 2.95zm-25.62-.13-1.28-2.56c1.83-.91 3.67-1.68 5.47-2.28l.91 2.72c-1.68.56-3.39 1.27-5.1 2.12zm15.79-3.57c-1.74-.15-3.57-.09-5.39.17l-.4-2.84c2.03-.29 4.08-.36 6.04-.19l-.25 2.85z" fill="#1b888c"/><path d="m644.94 590.13c.28.36.66.84 1.13 1.42 5.78 6.97 25.98 28.16 62.72 34.59 2.15.39 4.36.71 6.63.98.3.04.6.07.9.11 1.38.16 2.82.24 4.35.33.43.03.86.05 1.32.08 6.15.42 12.66.38 19.4-.14.86-.06 1.73-.13 2.61-.22.66-.06 1.32-.13 1.98-.2h.15c.37-.05.73-.09 1.1-.13 1.11-.11 2.16-.22 3.22-.36h.04c.34-.04.66-.08.99-.11l.46-.04.42-.03c.38-.04.79-.08 1.21-.15 4.28-.67 8.65-1.56 13.28-2.71 1.05-.26 2.11-.53 3.19-.82.23-.06.45-.13.67-.19.42-.12.84-.25 1.26-.37.59-.17 1.18-.34 1.77-.51 5.37-1.57 10.14-3.19 14.5-4.94.77-.3 1.53-.61 2.28-.93.37-.16.73-.32 1.1-.49.15-.07.32-.14.47-.22.53-.25 1.08-.5 1.66-.75 4.31-1.97 8.54-4.15 12.88-6.67.5-.28 1-.57 1.5-.87.5-.31.99-.58 1.46-.85.05-.03.1-.06.14-.08.46-.25.88-.5 1.24-.72 3.83-2.41 7.57-5.04 11.73-8.24.29-.22.58-.44.87-.68.46-.38.92-.73 1.37-1.07.1-.08.21-.16.31-.24.29-.22.56-.44.82-.64 3.77-3.07 7.35-6.31 10.65-9.62.14-.14.29-.29.43-.43.3-.3.6-.6.9-.9.3-.31.61-.61.9-.91.12-.13.25-.26.37-.38 3.56-3.74 6.78-7.44 9.57-11 .02-.03.04-.05.06-.08.36-.46.7-.91 1.03-1.36.26-.36.53-.71.8-1.06.01-.02.03-.04.05-.07 2.72-3.63 4.78-6.99 6.16-9.46.36-.63.67-1.2.94-1.7-.41-.41-.88-.86-1.42-1.37-2.1-1.97-5.13-4.6-8.89-7.29-.01 0-.02-.02-.04-.02-.57-.41-1.19-.83-1.84-1.27l-.64-.43s-.07-.04-.1-.07c-3.85-2.65-8.05-5.21-12.45-7.6h-.01l-.02-.02c-.14-.08-.29-.16-.44-.24-.27-.15-.54-.29-.82-.44-.48-.26-.96-.51-1.45-.78-.17-.09-.34-.17-.51-.25-4.13-2.1-8.53-4.08-13.08-5.9-.31-.12-.63-.25-.96-.38-.6-.24-1.25-.48-1.93-.72h-.02l-.02-.02c-.37-.14-.74-.27-1.1-.4-4.71-1.73-9.18-3.14-13.64-4.27h-.04c-.5-.14-1.03-.26-1.6-.38-.1-.02-.21-.04-.31-.07-.43-.1-.87-.19-1.29-.29-.57-.13-1.13-.26-1.69-.38-4.96-1.11-9.69-1.91-14.39-2.45h-.04c-.79-.1-1.54-.2-2.26-.28-.4-.05-.8-.09-1.19-.14-.8-.08-1.61-.14-2.43-.2-4.65-.34-9.69-.45-15.34-.33-.55.02-1.1.03-1.65.04-.53 0-1.03.02-1.53.03-.22 0-.44.02-.65.03-1.16.06-2.27.12-3.35.19-1.72.11-3.36.24-4.95.38-2.89.27-5.59.59-8.22 1-.53.08-1.06.21-1.63.33-.54.12-1.1.25-1.72.36h-.07c-1.01.17-2 .38-3.05.6-.39.08-.79.17-1.18.24-.04.01-.07.01-.11.02-1.51.31-3.01.65-4.49 1-6.56 1.56-12.81 3.5-18.63 5.79h-.02l-.02.02c-.36.14-.73.27-1.09.41-1.41.53-2.87 1.08-4.17 1.67-.26.12-.53.23-.79.36-2.09.94-4.1 1.93-6.04 2.95-32.9 17.2-45.7 43.4-49.08 51.75-.28.68-.49 1.24-.65 1.67z" fill="#569c98"/><path d="m644.94 590.13c.28.36.66.84 1.13 1.42l12.82-1.98 49.9 36.57c2.15.39 4.36.71 6.63.98l-52.15-38.22 21-3.24 57.11 41.84c.86-.06 1.73-.13 2.61-.22.66-.06 1.32-.13 1.98-.2h.15l-57.47-42.12 21.06-3.25 57.14 41.83c1.05-.26 2.11-.53 3.19-.82.23-.06.45-.13.67-.19l-56.62-41.48 21.05-3.25 53.1 38.91c.77-.3 1.53-.61 2.28-.93.37-.16.73-.32 1.1-.49l-52.1-38.17 21-3.25 46.11 33.77c.5-.28 1-.57 1.5-.87.5-.31.99-.58 1.46-.85l-44.69-32.73 21.05-3.23 36.76 26.91c.29-.22.58-.44.87-.68.46-.38.92-.73 1.37-1.07.1-.08.21-.16.31-.24l-34.92-25.61 21.03-3.25 25.37 18.59c.14-.14.29-.29.43-.43.3-.3.6-.6.9-.9.3-.31.61-.61.9-.91l-23.25-17.01 21.06-3.25 12.13 8.89s.04-.05.06-.08c.36-.46.7-.91 1.03-1.36.26-.36.53-.71.8-1.06l-9.67-7.08 15.88-2.45c.36-.63.67-1.2.94-1.7-.41-.41-.88-.86-1.42-1.37l-16.1 2.47 7.17-9.78c-.57-.41-1.19-.83-1.84-1.27l-.64-.43s-.07-.04-.1-.07l-8.98 12.24-21.06 3.25 17.11-23.36c-.27-.15-.54-.29-.82-.44-.48-.26-.96-.51-1.45-.78-.17-.09-.34-.17-.51-.25l-18.7 25.49-21.03 3.25 25.69-35.02c-.6-.24-1.25-.48-1.93-.72h-.02l-.02-.02c-.37-.14-.74-.27-1.1-.4l-27 36.85-21.04 3.23 32.78-44.73c-.1-.02-.21-.04-.31-.07-.43-.1-.87-.19-1.29-.29-.57-.13-1.13-.26-1.69-.38l-33.84 46.15-21.05 3.25 38.2-52.13c-.4-.05-.8-.09-1.19-.14-.8-.08-1.61-.14-2.43-.2l-38.98 53.16-21.03 3.25 41.49-56.67c-.22 0-.44.02-.65.03-1.16.06-2.27.12-3.35.19l-41.84 57.1-21.03 3.26 42.06-57.44s-.07.01-.11.02c-1.51.31-3.01.65-4.49 1l-41.86 57.1-21.02 3.23 38.16-52.08c-2.09.94-4.1 1.93-6.04 2.95l-36.48 49.81-12.61 1.95c-.28.68-.49 1.24-.65 1.67z" fill="#9bb8c2"/><path d="m619.87 575.08c.55.2 1.29.44 2.19.74 11 3.46 47.24 12.12 90.96-6.41 2.57-1.07 5.16-2.26 7.76-3.54.35-.16.7-.34 1.04-.51 1.59-.79 3.19-1.69 4.88-2.65.48-.27.95-.54 1.46-.82 6.86-3.8 13.8-8.36 20.64-13.57.88-.66 1.76-1.34 2.64-2.03.66-.52 1.32-1.05 1.98-1.58l.15-.12c.36-.3.73-.59 1.09-.88 1.11-.88 2.15-1.73 3.19-2.61l.04-.03c.34-.28.66-.54.98-.8l.46-.37.43-.33c.38-.3.79-.63 1.19-1 4.11-3.68 8.16-7.66 12.32-12.09.95-1 1.89-2.03 2.84-3.08.2-.22.39-.45.59-.67.36-.42.72-.85 1.09-1.27.52-.59 1.02-1.18 1.53-1.77 4.66-5.39 8.63-10.43 12.08-15.31.62-.86 1.21-1.72 1.8-2.57.29-.42.56-.85.84-1.29.11-.18.24-.37.36-.56.4-.63.81-1.28 1.26-1.95 3.25-5.09 6.25-10.35 9.15-16.04.34-.65.67-1.3 1-1.97.32-.67.65-1.31.97-1.92.03-.07.06-.13.1-.19.31-.59.6-1.15.83-1.63 2.43-5.22 4.61-10.63 6.84-16.93.16-.43.31-.88.47-1.33.23-.73.48-1.42.72-2.09.06-.15.11-.32.17-.47.16-.43.3-.85.43-1.26 1.9-5.89 3.49-11.83 4.73-17.65.05-.25.11-.51.16-.76.11-.53.22-1.06.34-1.58.11-.54.23-1.07.34-1.59.04-.22.09-.45.13-.66 1.22-6.46 2.1-12.65 2.62-18.38 0-.04.01-.09 0-.13.07-.74.12-1.45.16-2.16.03-.56.07-1.13.13-1.69 0-.03 0-.07 0-.1.39-5.76.27-10.77.05-14.37-.05-.92-.11-1.74-.18-2.47-.72-.15-1.54-.31-2.46-.48-3.61-.65-8.67-1.37-14.54-1.65-.02 0-.04 0-.06 0-.89-.04-1.84-.06-2.85-.09l-.98-.02s-.1 0-.15 0c-5.95-.17-12.2 0-18.56.48h-.06c-.21.01-.42.02-.64.05-.39.03-.78.06-1.18.1-.69.06-1.39.12-2.09.17-.24.02-.48.05-.72.08-5.87.61-11.93 1.53-18.07 2.74-.41.08-.84.17-1.29.26-.81.16-1.67.35-2.56.56h-.06c-.49.12-.98.23-1.45.34-6.24 1.41-11.99 3-17.53 4.87h-.04c-.62.22-1.28.45-1.96.72-.13.05-.25.1-.38.15-.53.2-1.05.4-1.58.58-.7.25-1.39.51-2.07.76-6.07 2.25-11.67 4.66-17.08 7.33h-.03l-.02.03c-.91.44-1.78.86-2.61 1.27-.47.22-.91.45-1.37.68-.91.47-1.81.96-2.73 1.47-5.21 2.85-10.68 6.22-16.62 10.25-.58.4-1.16.79-1.74 1.18-.56.37-1.09.74-1.61 1.09-.23.16-.45.32-.68.48-1.2.86-2.34 1.7-3.45 2.53-1.77 1.3-3.43 2.58-5.02 3.83-2.9 2.29-5.56 4.5-8.1 6.75-.5.45-.99.96-1.51 1.48-.5.5-1.01 1.02-1.59 1.57l-.03.03-.03.03c-.97.86-1.88 1.78-2.85 2.74-.36.35-.72.72-1.09 1.07-.04.04-.07.07-.11.1-1.4 1.38-2.76 2.77-4.1 4.17-5.93 6.21-11.27 12.6-15.91 19.07v.02l-.03.02c-.29.4-.59.8-.88 1.19-1.14 1.55-2.32 3.14-3.3 4.67-.2.31-.4.61-.59.93-1.58 2.45-3.05 4.9-4.42 7.33-23.27 41.14-18.83 78-16.66 89.26.17.92.34 1.67.46 2.23z" fill="#72d0cb"/><path d="m619.87 575.08c.55.2 1.29.44 2.19.74l12.34-10.98 78.63 4.57c2.57-1.07 5.16-2.26 7.76-3.54l-82.17-4.78 20.21-17.99 89.98 5.22c.88-.66 1.76-1.34 2.64-2.03.66-.52 1.32-1.05 1.98-1.58l.15-.12-90.55-5.25 20.26-18.04 90 5.19c.95-1 1.89-2.03 2.84-3.08.2-.22.39-.45.59-.67l-89.21-5.18 20.25-18.03 83.67 4.86c.62-.86 1.21-1.72 1.8-2.57.29-.42.56-.85.84-1.29l-82.08-4.76 20.2-18 72.64 4.21c.34-.65.67-1.3 1-1.97.32-.67.65-1.31.97-1.92l-70.4-4.07 20.26-18.01 57.9 3.34c.16-.43.31-.88.47-1.33.23-.73.48-1.42.72-2.09.06-.15.11-.32.17-.47l-55.04-3.21 20.23-18.02 39.97 2.32c.05-.25.11-.51.16-.76.11-.53.22-1.06.34-1.58.11-.54.23-1.07.34-1.59l-36.61-2.1 20.26-18.04 19.12 1.11s.01-.09 0-.13c.07-.74.12-1.45.16-2.16.03-.56.07-1.13.13-1.69l-15.23-.88 15.28-13.6c-.05-.92-.11-1.74-.18-2.47-.72-.15-1.54-.31-2.46-.48l-15.5 13.77.9-15.42c-.89-.04-1.84-.06-2.85-.09l-.98-.02s-.1 0-.15 0l-1.13 19.29-20.26 18.04 2.13-36.8c-.39.03-.78.06-1.18.1-.69.06-1.39.12-2.09.17-.24.02-.48.05-.72.08l-2.36 40.18-20.24 18.02 3.24-55.2c-.81.16-1.67.35-2.56.56h-.06c-.49.12-.98.23-1.45.34l-3.38 58.06-20.26 18.01 4.1-70.48c-.13.05-.25.1-.38.15-.53.2-1.05.4-1.58.58-.7.25-1.39.51-2.07.76l-4.26 72.73-20.26 18.04 4.77-82.14c-.47.22-.91.45-1.37.68-.91.47-1.81.96-2.73 1.47l-4.89 83.77-20.24 18.02 5.15-89.27c-.23.16-.45.32-.68.48-1.2.86-2.34 1.7-3.45 2.53l-5.22 89.96-20.23 18.03 5.23-90.49s-.07.07-.11.1c-1.4 1.38-2.76 2.77-4.1 4.17l-5.24 89.98-20.24 17.99 4.76-82.06c-1.58 2.45-3.05 4.9-4.42 7.33l-4.53 78.47-12.13 10.8c.17.92.34 1.67.46 2.23z" fill="#adddef"/><path d="m589.64 536.66c.46-.02 1.07-.06 1.81-.12 9.02-.78 37.94-5.34 64.14-31.89 1.54-1.55 3.07-3.19 4.58-4.89.2-.22.4-.45.6-.68.92-1.05 1.81-2.18 2.75-3.39.27-.34.53-.68.82-1.03 3.84-4.81 7.52-10.2 10.92-16.03.44-.74.88-1.5 1.31-2.27.32-.58.64-1.16.96-1.74l.07-.13c.17-.32.35-.64.53-.97.54-.97 1.05-1.9 1.53-2.85l.02-.04c.16-.3.32-.59.48-.87l.23-.4.21-.36c.19-.33.38-.69.57-1.08 1.88-3.9 3.64-8 5.33-12.46.39-1.01.77-2.04 1.14-3.09.08-.22.15-.45.22-.66.14-.41.27-.83.41-1.25.2-.59.39-1.17.58-1.74 1.77-5.31 3.14-10.16 4.19-14.74.19-.81.37-1.61.53-2.41.08-.39.15-.78.22-1.19.03-.16.07-.34.09-.51.1-.58.2-1.17.33-1.79.84-4.67 1.44-9.39 1.84-14.39.06-.57.1-1.15.14-1.73.03-.58.08-1.14.13-1.69 0-.06 0-.11.01-.16.05-.52.09-1.01.12-1.43.2-4.52.16-9.1-.1-14.34-.02-.36-.03-.73-.06-1.1-.05-.6-.07-1.18-.1-1.73 0-.13-.01-.27-.02-.39-.02-.36-.04-.71-.06-1.04-.38-4.85-1.01-9.63-1.85-14.24l-.11-.6c-.08-.42-.15-.84-.23-1.25-.08-.42-.16-.85-.23-1.26-.03-.18-.07-.35-.1-.52-1.05-5.06-2.26-9.81-3.6-14.13-.01-.03-.02-.06-.03-.1-.17-.56-.35-1.09-.53-1.62-.15-.42-.29-.84-.41-1.27-.01-.02-.02-.05-.03-.08-1.44-4.3-3.03-7.91-4.27-10.45-.31-.65-.6-1.23-.87-1.74-.57.1-1.21.23-1.93.39-2.81.61-6.7 1.6-11.05 3.16-.01 0-.03 0-.04.02-.66.24-1.36.5-2.1.79l-.72.28s-.07.03-.11.04c-4.38 1.66-8.86 3.66-13.34 5.91h-.02l-.02.02c-.15.07-.3.14-.45.23-.27.14-.55.28-.83.43-.49.25-.97.5-1.47.75-.17.09-.34.18-.5.27-4.08 2.2-8.21 4.69-12.3 7.4-.27.18-.56.37-.86.57-.54.36-1.11.75-1.69 1.17h-.02l-.02.03c-.32.23-.64.45-.96.67-4.11 2.89-7.81 5.77-11.27 8.78h-.01l-.02.02c-.39.33-.79.7-1.21 1.1-.08.07-.15.15-.23.22-.33.3-.65.61-.97.9-.43.39-.86.79-1.28 1.17-3.73 3.45-7.08 6.88-10.21 10.44h-.02v.03c-.54.59-1.04 1.15-1.52 1.7-.27.3-.53.6-.79.9-.52.62-1.03 1.24-1.54 1.88-2.93 3.63-5.89 7.71-9 12.42-.3.46-.6.92-.91 1.38-.29.44-.57.86-.84 1.28-.12.18-.23.37-.35.55-.61.99-1.19 1.93-1.75 2.87-.89 1.48-1.72 2.9-2.5 4.29-1.42 2.53-2.69 4.93-3.86 7.33-.23.48-.43.99-.65 1.52-.21.51-.42 1.04-.68 1.62l-.02.03v.03c-.46.92-.84 1.85-1.26 2.84-.16.36-.31.74-.47 1.1-.01.04-.03.07-.04.11-.6 1.42-1.18 2.84-1.73 4.26-2.45 6.29-4.41 12.52-5.84 18.61v.04c-.1.38-.2.75-.29 1.13-.36 1.46-.74 2.98-1 4.38-.05.28-.11.57-.15.85-.42 2.25-.75 4.47-1.01 6.65-4.58 36.84 9.68 62.28 14.63 69.81.4.61.75 1.11 1 1.48z" fill="#62cdbd"/><path d="m589.64 536.66c.46-.02 1.07-.06 1.81-.12l5.67-11.67 58.47-20.22c1.54-1.55 3.07-3.19 4.58-4.89l-61.1 21.13 9.29-19.11 66.91-23.15c.44-.74.88-1.5 1.31-2.27.32-.58.64-1.16.96-1.74l.07-.13-67.32 23.3 9.31-19.16 66.91-23.18c.39-1.01.77-2.04 1.14-3.09.08-.22.15-.45.22-.66l-66.33 22.95 9.3-19.16 62.21-21.53c.19-.81.37-1.61.53-2.41.08-.39.15-.78.22-1.19l-61.03 21.12 9.28-19.12 54.01-18.7c.06-.57.1-1.15.14-1.73.03-.58.08-1.14.13-1.69l-52.34 18.12 9.32-19.15 43.05-14.91c-.02-.36-.03-.73-.06-1.1-.05-.6-.07-1.18-.1-1.73 0-.13-.01-.27-.02-.39l-40.93 14.15 9.29-19.14 29.72-10.29-.11-.6c-.08-.42-.15-.84-.23-1.25-.08-.42-.16-.85-.23-1.26l-27.22 9.44 9.31-19.16 14.21-4.92s-.02-.06-.03-.1c-.17-.56-.35-1.09-.53-1.62-.15-.42-.29-.84-.41-1.27l-11.32 3.92 7.02-14.45c-.31-.65-.6-1.23-.87-1.74-.57.1-1.21.23-1.93.39l-7.13 14.64-3.96-11.47c-.66.24-1.36.5-2.1.79l-.72.28s-.07.03-.11.04l4.95 14.35-9.31 19.16-9.47-27.36c-.27.14-.55.28-.83.43-.49.25-.97.5-1.47.75-.17.09-.34.18-.5.27l10.32 29.88-9.3 19.15-14.18-41.06c-.54.36-1.11.75-1.69 1.17h-.02l-.02.03c-.32.23-.64.45-.96.67l14.93 43.17-9.32 19.14-18.13-52.41c-.08.07-.15.15-.23.22-.33.3-.65.61-.97.9-.43.39-.86.79-1.28 1.17l18.69 54.09-9.31 19.16-21.13-61.08c-.27.3-.53.6-.79.9-.52.62-1.03 1.24-1.54 1.88l21.53 62.3-9.3 19.15-22.99-66.37c-.12.18-.23.37-.35.55-.61.99-1.19 1.93-1.75 2.87l23.15 66.89-9.29 19.15-23.3-67.28s-.03.07-.04.11c-.6 1.42-1.18 2.84-1.73 4.26l23.14 66.91-9.31 19.12-21.11-61.02c-.42 2.25-.75 4.47-1.01 6.65l20.2 58.34-5.57 11.47c.4.61.75 1.11 1 1.48z" fill="#76dac6"/><path d="m258.43 680.08v7.83c0 2.3 1.87 4.17 4.17 4.17h42.78c2.3 0 4.17-1.87 4.17-4.17v-7.83h-51.11z" fill="#231f20"/><path d="m598.43 680.08v7.83c0 2.3 1.87 4.17 4.17 4.17h42.78c2.3 0 4.17-1.87 4.17-4.17v-7.83h-51.11z" fill="#231f20"/><path d="m316.68 324.93 2.52-60.5c.23-5.57 4.81-9.96 10.38-9.96h27.96c5.74 0 10.39 4.65 10.39 10.39v25.84c0 14.17 11.49 25.67 25.67 25.67h120.78c14.18 0 25.67-11.49 25.67-25.67v-25.84c0-5.74 4.65-10.39 10.39-10.39h27.96c5.57 0 10.15 4.39 10.38 9.96l2.52 60.5c3.99 95.85 36.05 188.42 92.18 266.22h-458.98c56.13-77.8 88.19-170.37 92.18-266.22z" fill="#33b9b1"/><path d="m683.47 591.15v78.51c0 6.67-5.41 12.08-12.08 12.08h-434.82c-6.67 0-12.08-5.41-12.08-12.08v-78.51h458.97z" fill="#00a79d"/><path d="m453.98 360.54c-51.48 0-93.22 41.74-93.22 93.22s41.74 93.22 93.22 93.22 93.22-41.74 93.22-93.22-41.74-93.22-93.22-93.22zm-83.99 93.22c0-10.82 8.77-19.59 19.59-19.59s19.59 8.77 19.59 19.59-8.77 19.59-19.59 19.59-19.59-8.77-19.59-19.59zm52.3 59.39c-7.65 7.65-20.05 7.65-27.7 0s-7.65-20.05 0-27.7 20.05-7.65 27.7 0 7.65 20.05 0 27.7zm0-91.08c-7.65 7.65-20.05 7.65-27.7 0s-7.65-20.05 0-27.7 20.05-7.65 27.7 0 7.65 20.05 0 27.7zm31.69 115.68c-10.82 0-19.59-8.77-19.59-19.59s8.77-19.59 19.59-19.59 19.59 8.77 19.59 19.59-8.77 19.59-19.59 19.59zm0-128.81c-10.82 0-19.59-8.77-19.59-19.59s8.77-19.59 19.59-19.59 19.59 8.77 19.59 19.59-8.77 19.59-19.59 19.59zm31.69-14.57c7.65-7.65 20.05-7.65 27.7 0s7.65 20.05 0 27.7-20.05 7.65-27.7 0-7.65-20.05 0-27.7zm32.71 78.98c-10.82 0-19.59-8.77-19.59-19.59s8.77-19.59 19.59-19.59 19.59 8.77 19.59 19.59-8.77 19.59-19.59 19.59z" fill="#f1f2f2"/><circle cx="453.98" cy="453.76" fill="#007d76" r="30.18"/><path d="m529.71 512.12-33.54-27.75c-2.32-1.95-6.6-.93-9.69 2.16s-4.11 7.37-2.17 9.7l28.09 33.23c.82.97 2.28 1.03 3.18.13l14.28-14.28c.9-.9.83-2.38-.15-3.19z" fill="#d1d3d4"/><path d="m189.81 566.11-51.01-14.29 22.53-43.09 52.65 2.72z" fill="#e6e7e8"/><path d="m161.04 536.85-1.72 4.23-8.91-2.28 1.43-3.31c5.13-5.57 8.25-9.04 9.35-10.4 1.1-1.35 1.81-2.42 2.14-3.21.25-.6.36-1.06.33-1.37s-.2-.48-.51-.51-.61.11-.89.41c-.29.31-.63.94-1.04 1.91l-.89 2.1-3.52-.48.34-.79c.52-1.21.97-2.14 1.36-2.82.38-.68.89-1.33 1.53-1.96s1.31-1.09 2.03-1.38 1.49-.41 2.32-.34c1.64.13 2.68.77 3.11 1.94.43 1.18.3 2.64-.39 4.36-.53 1.32-1.35 2.69-2.45 4.1s-3.84 4.35-8.19 8.77l4.59 1.02z" fill="#01666c"/><path d="m179.74 518.36-6.12 16.28 1.44.27-1.68 4.53-1.44-.32-1.78 4.73-4.85-1.24 1.78-4.57-5.38-1.19 1.68-4.16 10.01-14.85 6.35.53zm-10.98 15.35 4.05-10.41-6.1 10.02z" fill="#01666c"/><path d="m192.19 518.89-16.51 26.98-3.98-1.03 16.26-26.28 4.22.34z" fill="#01666c"/><path d="m204.2 520.39-1.9 6.12-11.56 22.61-6.19-1.58 12.17-22.77-5.95-.66 1.61-4.7 11.83.98z" fill="#01666c"/><path d="m149.5 706.22s-3.5 10.9-.79 10.89h25c4.62-.48-16.06-10.89-16.06-10.89z" fill="#414042"/><path d="m102.13 717.1h26.39c4.52-.82-16.59-10.89-16.59-10.89h-7.76s-4.75 10.59-2.03 10.89z" fill="#414042"/><path d="m118.68 656.11c2.21-15.97-15.91-53.46.52-66.94 7.77-6.38 32.67-9 36.76 0 7.72 16.99 9.26 50.79 9.55 66.94.23 13.17-7.86 50.1-7.86 50.1h-8.17s2.23-35.52.08-48.53c-1.81-10.95-14.58-46.9-14.58-46.9s1.51 40.16-1.27 50.74c-3.55 13.48-21.79 44.7-21.79 44.7h-7.76s12.68-36.79 14.52-50.1z" fill="#093c5f"/><path d="m155.6 510.4c.92-4.88-1.23-15.61-9.03-17.69-5.95-1.59-12.34 1.25-15.17 6.72-1.4 2.7-1.78 5.61-1.32 8.32 1.14 6.78 1.21 13.7.85 20.56l-.02.42 12.95 3.41-1.94-13.33c5.27 2.91 11.66 2.32 13.69-8.42z" fill="#fbc897"/><path d="m135.7 507.59s-.51-4.32-3.04-5.31c-2.53-.98-5.88 8.88 1.18 8.23z" fill="#fbc897"/><circle cx="131.66" cy="508.55" fill="#121f55" r="11.9"/><circle cx="145.49" cy="498.96" fill="#121f55" r="10.92"/><path d="m119.57 526.65c.79-1.46 2.33-2.35 3.98-2.4l5.76-.17 15.78-1.16.77-.06c2.86-.21 5.6 1.2 7.06 3.66 8.51 14.34 8.41 60.32 3.04 62.65-6.66 2.89-30.37 3.14-36.76 0-4.75-2.33-7.47-48.14.37-62.52z" fill="#f7a60f"/><circle cx="137.31" cy="498.19" fill="#121f55" r="11.06"/><circle cx="124.43" cy="521.35" fill="#121f55" r="14.41"/><path d="m171.19 553.86c-6.36-1.81-11.65-29.92-21.6-29.64-17.97.5 6.28 39.81 14.36 43.96 11.29 5.8 31.78-18.86 31.78-18.86l-5.87-7.78s-13.3 13.86-18.68 12.33z" fill="#f9b83f"/><path d="m206.25 543.27c1.09-.62 1.72-1.83 1.61-3.08l-.48-5.37c-.2-2.18-2.46-3.53-4.47-2.66 0 0-6.95 2.31-8.84 3.8-1.37 1.08-4.2 5.59-4.2 5.59l5.87 7.79 10.51-6.05z" fill="#fbc897"/><path d="m738.49 646.55c.85-15.19 11.18-52 17.07-58.39 7.88-8.54 31.5-8.59 39.27 0 5.18 5.73.63 46.88 2.15 62.43 1.26 12.89 8.12 50.23 8.12 50.23l-9.47-.56c-2.51-8.68-13.54-25.34-17.47-48.67-1.73-10.29-6.32-41.27-6.32-41.27s-16.14 29.41-17.84 40.29c-1.96 12.53-.24 50.45-.24 50.45l-9.31-.2s-6.73-40.67-5.97-54.3z" fill="#093c5f"/><path d="m753.76 701.05s2.84 11.18.03 11.41c-7.76.66-21.39.84-28.55-.35-4.87-.81 19.23-11.26 19.23-11.26l9.31.2z" fill="#414042"/><path d="m805.44 711.82c-5.88 1.34-16.76 1.01-27.43.13-5.08-.42 17.62-11.7 17.62-11.7l9.48.56s2.93 10.41.32 11.01z" fill="#414042"/><path d="m767.4 517.82c6.57 5.37.14 14.66-8.14 22.13l-10.9-13.81c6.6-6.46 14.13-12.34 19.04-8.32z" fill="#f7a60f"/><path d="m723.22 522.51s12.83 13.85 15.63 14.11c2.25.21 4.63-5.69 9.51-10.47l10.9 13.81c-5.98 5.39-12.92 9.82-16.67 11.14-10.66 3.76-27.33-22.26-27.33-22.26l7.96-6.32z" fill="#fbc897"/><path d="m706.24 519.97c-.94-.91-1.26-2.29-.82-3.53l1.89-5.3c.77-2.14 3.4-2.92 5.2-1.52 0 0 6.41 4.15 7.93 6.14 1.1 1.45 2.78 6.73 2.78 6.73l-7.96 6.32-9.03-8.86z" fill="#fbc897"/><path d="m757.02 502.47c.06-4.58 3.98-13.89 11.41-14.34 5.67-.34 10.94 3.4 12.49 8.86.59 2.08.62 4.16.18 6.09-1.48 6.55-1.19 13.38.23 19.95l.16.72-12.34.7-1.29-11.86c-5.3 1.67-10.98-.05-10.84-10.13z" fill="#fbc897"/><path d="m783.36 489.89c-2.21-5.41-7.7-6.98-12.29-6.35-4.31.59-8.71.5-12.99-.25-2.49-.44-4.74 1.61-4.54 4.14.12 1.56.75 3.11 1.78 4.28 2.21 2.49 5.75 3.43 9.07 3.3 2.6-.1 5.69-.6 7.37 1.38 1.13 1.33 1.26 3.48 2.77 4.34.75.43 1.69.43 2.44.87 1.76 1.04 1.41 3.6 1.39 5.64-.03 2.3.66 4.6 1.96 6.5 5.67.66 3.61-22.42 3.03-23.84z" fill="#0b1a50"/><path d="m774.3 502.17s.76-5.22 3.72-4.24c2.38.79 3.69 9.12-2.57 7.22z" fill="#fbc897"/><path d="m763.31 516.63 2.31.18 1.39.11 15.11 1.19.89.07 2.65.45c7.08 1.19 12.74 6.56 14.28 13.57 4.49 20.45-.69 49.31-5.12 55.94-3.24 4.85-35.74 3.75-39.27 0-9.2-9.78 1.91-71.98 7.75-71.52z" fill="#f9b83f"/><path d="m711.86 493.64 22.12 64.74c.91 2.67-.51 5.57-3.18 6.48s-5.57-.51-6.48-3.18l-22.12-64.74z" fill="#032d46"/><path d="m662.13 442.84c6.73-12.17 19.04-19.3 31.98-19.97 6.6-.34 13.36 1 19.63 4.21.37.19.74.38 1.1.58 5.79 3.2 10.44 7.67 13.8 12.87 7.51 11.62 8.54 26.89 1.38 39.84-6.73 12.17-19.04 19.3-31.98 19.97-6.6.34-13.36-1-19.63-4.21-.37-.19-.74-.38-1.1-.58-5.79-3.2-10.44-7.67-13.8-12.87-7.51-11.62-8.54-26.89-1.38-39.84z" fill="#d6e8f7" opacity=".4"/><path d="m700.57 435.17c.71-.59 2.33-.9 4.74-.24 2.38.65 5.6 2.2 8.74 5.07 8.89 8.13 11.24 18.61 10.9 20.65-.37 2.33-1.77 3.18-3.3 2.9-1.56-.26-3.26-1.63-4.8-3.35-2.93-3.39-4.79-6.54-6.42-9.33-.84-1.47-1.66-2.99-2.72-4.69-.06-.1-.13-.2-.19-.3-1.01-1.59-2.17-3.12-3.32-4.45-2.53-2.98-5.12-4.86-3.62-6.27z" fill="#d6e8f7" opacity=".5"/><path d="m678.36 493.91c17.81 9.85 40.23 3.39 50.08-14.42s3.39-40.23-14.42-50.08-40.23-3.39-50.08 14.42-3.39 40.23 14.42 50.08zm-9.38-47.33c8.31-15.04 27.31-20.51 42.34-12.19 15.04 8.31 20.51 27.31 12.19 42.34-8.31 15.04-27.31 20.51-42.34 12.19-15.04-8.31-20.51-27.31-12.19-42.34z" fill="#231f20" opacity=".15"/><path d="m677.33 495.77c18.84 10.41 42.55 3.58 52.96-15.25 10.41-18.84 3.58-42.55-15.25-52.96-18.84-10.41-42.55-3.58-52.96 15.25-10.41 18.84-3.58 42.55 15.25 52.96zm-9.93-50.06c8.79-15.9 28.88-21.69 44.78-12.9s21.69 28.88 12.9 44.78-28.88 21.69-44.78 12.9-21.69-28.88-12.9-44.78z" fill="#043c5d"/><path d="m789.28 524.56c7.7 3.56 3.81 14.16-2.35 23.46l-14.01-10.64c4.77-7.91 10.59-15.48 16.36-12.82z" fill="#f7a60f"/><path d="m741.16 551.12s19.47 4.69 23.33.32c1.94-2.2 4.9-8.22 8.43-14.07l14.01 10.64c-4.44 6.71-10.06 12.74-13.35 14.95-9.38 6.3-33.19-1.72-33.19-1.72l.78-10.13z" fill="#fcd3ac"/><path d="m727.75 561.85c-1.31.07-2.54-.64-3.14-1.8l-2.59-4.99c-1.05-2.02.18-4.48 2.42-4.85 0 0 7.4-1.88 9.9-1.64 1.81.18 6.83 2.55 6.83 2.55l-.78 10.13-12.64.59z" fill="#fcd3ac"/><path d="m765.63 516.82c1.1 3.66 3.86 4.8 7.19 5.31 4.23.65 9.34-.28 10.21-3.94l-.89-.07-15.11-1.19-1.39-.11z" fill="#fbc897"/><path d="m759.22 514.26c4.54 2.18 8.2-.64 9.12-1.5.58-.54 5.34-8.74 6.43-12.68.21-.75-.78-2.68-1.54-2.86-.57-.14-.13.51-.44 1.01-.84 1.38-2.08 6.93-5.74 7.87-2.03.52-8.67-3.53-10.12-1.28-1.7 2.64-.81 7.96 2.3 9.44z" fill="#0b1a50"/><path d="m543.43 654.19c-.85-15.19-11.18-52-17.07-58.39-7.88-8.54-31.5-8.59-39.27 0-5.18 5.73-.63 46.88-2.15 62.43-1.26 12.89-8.12 50.23-8.12 50.23l11.47-.56c2.51-8.68 12.33-33.82 15.47-48.67 2.16-10.21 6.32-41.27 6.32-41.27s13.59 30.99 15.29 41.88c1.96 12.53-.21 48.86-.21 48.86l12.31-.2s6.73-40.67 5.97-54.3z" fill="#093c5f"/><path d="m525.16 708.69s-2.84 11.18-.03 11.41h31.55c4.87-.81-19.23-11.62-19.23-11.62l-12.31.2h.02z" fill="#414042"/><path d="m476.48 720.1h27.43c5.08-.42-15.62-12.21-15.62-12.21l-11.48.56s-2.93 11.05-.32 11.65z" fill="#414042"/><path d="m510.95 529.85c-1.7 8.31 9.15 11.46 20.29 12.01l-.27-17.59c-9.2-.84-18.75-.64-20.02 5.58z" fill="#f9b83f"/><path d="m560.87 506.83s-7.76 18.46-13.57 18.98c-2.92.26-9.53-.93-16.33-1.55l.27 17.59c8.04.4 16.22-.55 19.96-1.89 10.64-3.82 18.29-27.75 18.29-27.75z" fill="#fbc897"/><path d="m577.46 502.39c.83-1.01.99-2.42.41-3.6l-2.48-5.05c-1-2.04-3.71-2.51-5.34-.92 0 0-5.9 4.85-7.19 7-.93 1.56-2 7.01-2 7.01l8.62 5.38 7.97-9.82z" fill="#fbc897"/><path d="m524.9 510.1c-.06-4.58-3.97-13.89-11.41-14.34-5.67-.34-10.94 3.4-12.49 8.86-.59 2.08-.62 4.16-.18 6.09 1.48 6.55 1.19 13.38-.23 19.95l-.16.72 12.34.7 1.29-11.86c5.3 1.67 10.98-.05 10.84-10.13z" fill="#fbc897"/><path d="m498.56 497.52c2.21-5.41 7.7-6.98 12.29-6.35 4.31.59 8.71.5 12.99-.25 2.49-.44 4.74 1.61 4.54 4.14-.12 1.56-.75 3.11-1.78 4.28-2.21 2.49-5.75 3.43-9.07 3.3-2.6-.1-5.69-.6-7.37 1.38-1.13 1.33-1.26 3.48-2.77 4.34-.75.43-1.69.43-2.44.87-1.76 1.04-1.41 3.6-1.39 5.64.03 2.3-.66 4.6-1.96 6.5-5.67.66-3.61-22.42-3.03-23.84z" fill="#0b1a50"/><path d="m507.62 509.8s-.76-5.22-3.72-4.24c-2.38.79-3.69 9.12 2.57 7.22z" fill="#fbc897"/><path d="m518.61 524.27-2.31.18-1.39.11-15.11 1.19-.89.07-2.65.45c-7.08 1.19-12.74 6.56-14.28 13.57-4.49 20.45.69 49.31 5.12 55.94 3.24 4.85 35.74 3.75 39.27 0 9.2-9.78-1.91-71.98-7.75-71.52z" fill="#f7a60f"/><path d="m539.38 536.91c.46 1.19 1.8 1.77 2.99 1.31s1.77-1.8 1.31-2.99l-3.73-9.54-4.29 1.68 3.73 9.54z" fill="#01646c"/><path d="m556.66 513.13c-.38-.97-1.33-1.55-2.31-1.5l.81 2.08.81 2.08c.76-.63 1.06-1.7.68-2.67z" fill="#01646c"/><path d="m558.9 523.29-2.93-7.49-.81-2.08-.81-2.08-2.93-7.49c-.5-1.27-2.17-1.55-3.05-.52l4.32 11.06 4.32 11.06c1.35.16 2.39-1.18 1.89-2.45z" fill="#0c4547"/><path d="m526.28 525.01c-.32-.81-.46-1.64-.45-2.46l-.32.12c-.64.25-.96.98-.71 1.62l.44 1.12.44 1.12c.25.64.98.96 1.62.71l.32-.12c-.56-.59-1.02-1.3-1.34-2.11z" fill="#01646c"/><path d="m534.75 521.7-2.38-6.09-2.39.93c-2.55 1-4.12 3.43-4.16 6.01-.01.82.13 1.65.45 2.46.32.81.78 1.52 1.34 2.11 1.78 1.87 4.58 2.59 7.13 1.59l2.39-.93-2.38-6.09z" fill="#0c4547"/><path d="m552.69 514.68-4.32-11.06-.32.38c-2.15 2.52-4.68 4.7-7.49 6.47l-8.19 5.14 2.38 6.09 2.38 6.09 9.02-1.69c3.58-.67 7.25-.79 10.86-.36z" fill="#eff7f3"/><path d="m486.11 528.31c-7.6 5.06-3.76 16.43 2.8 26.34l14.64-10.85c-4.7-9.56-10.19-20.32-17.43-15.49z" fill="#f9b83f"/><path d="m529.94 541.28s-12.06 15.99-17.82 15.07c-2.71-.43-5.47-6.22-8.58-12.53l-14.64 10.85c5.65 8.54 13.34 16 17.49 17.4 10.97 3.71 30.58-23.45 30.58-23.45z" fill="#fcd3ac"/><path d="m547.11 541.05c1.05-.78 1.56-2.1 1.29-3.39l-1.16-5.5c-.47-2.23-2.98-3.35-4.95-2.21 0 0-6.91 3.25-8.69 5.02-1.29 1.29-3.66 6.3-3.66 6.3l7.03 7.34z" fill="#fcd3ac"/><path d="m516.29 524.45c-1.1 3.66-3.86 4.8-7.19 5.31-4.23.65-9.34-.28-10.21-3.94l.89-.07 15.11-1.19 1.39-.11z" fill="#fbc897"/><path d="m420.7 338.88c-1.54-.01-2.88 1.04-3.23 2.54l-7.05 29.99-85.86-.53 6.71-28.53c.48-2.06-1.07-4.03-3.18-4.04-1.53 0-2.87 1.04-3.22 2.54l-92.86 394.85-.19.81 6.75.05 7-29.78 85.86.53-7.01 29.78 6.75.05 92.72-394.21c.48-2.06-1.07-4.03-3.18-4.04zm-87.57 361.18-85.86-.54 9.34-39.7 85.85.53zm11.04-46.95-85.85-.53 9.33-39.7 85.86.53zm11.05-46.94-85.86-.55 9.34-39.7 85.85.55zm11.05-46.96-85.86-.53 9.33-39.7 85.86.53zm11.04-46.94-85.85-.53 9.33-39.71 85.85.54zm11.05-46.96-85.86-.53 9.33-39.7 85.86.53zm11.04-46.94-85.85-.53 9.33-39.71 85.86.55-9.34 39.7z" fill="#093c5f"/><path d="m364.22 184.68c1.26 8.39 12.53 7.62 23.18 4.31l-6.3-16.43c-8.93 2.37-17.83 5.84-16.88 12.12z" fill="#f9b83f"/><path d="m403.19 145.92s-.94 20.01-6.22 22.49c-2.65 1.25-9.26 2.4-15.86 4.16l6.3 16.43c7.68-2.39 15.04-6.09 18.09-8.64 8.68-7.24 7.64-32.35 7.64-32.35z" fill="#fbc897"/><path d="m417.25 136.05c.43-1.24.1-2.62-.85-3.52l-4.06-3.89c-1.65-1.57-4.35-1.08-5.33.97 0 0-3.88 6.58-4.34 9.05-.34 1.79.53 7.26.53 7.26l9.95 2.09 4.11-11.96z" fill="#fbc897"/><path d="m396.45 305.99c-.85-15.19-11.18-52-17.07-58.39-7.88-8.54-31.5-8.59-39.27 0-5.18 5.73-.63 46.88-2.15 62.43-1.26 12.89-8.12 50.23-8.12 50.23l11.47-.56c2.51-8.68 9.02-24.81 15.87-46.62 3.13-9.96 6.6-40.05 6.6-40.05s14.46 26.13 16.17 37.02c1.96 12.53-2.76 50.45-2.76 50.45l11.31-.2s8.73-40.67 7.97-54.3z" fill="#093c5f"/><path d="m377.19 360.49s-.84 10.54 1.97 10.77h28.55c4.87-.81-19.23-10.98-19.23-10.98l-11.31.2h.02z" fill="#414042"/><path d="m329.51 371.26h27.43c5.08-.42-15.62-11.57-15.62-11.57l-11.48.56s-2.93 10.41-.32 11.01z" fill="#414042"/><path d="m371.63 176.07-19.71 1.56-2.65.45c-7.08 1.19-12.74 6.56-14.28 13.57-4.49 20.45.69 49.31 5.12 55.94 3.24 4.85 35.74 3.75 39.27 0 9.2-9.78-1.91-71.98-7.75-71.52z" fill="#f7a60f"/><path d="m132.42 211.2c5.61-19.2 19.29-35.03 37.12-44.09 131.31-66.75 270-117.86 413.22-152.28 19.44-4.67 40.13-1.51 56.86 9.46 40.1 26.29 60.99 73.46 53.8 120.58l-2.07 13.39c-1.49 9.94-10.74 16.81-20.75 15.34l-106.61-15.44c-12.12-1.77-19.13-14.73-14-25.86l4.19-9.09c3.2-6.93 1.51-15.78-5.73-20.64-4.76-3.2-10.93-3.47-16.31-1.49-83.91 46.23-174.27 79.6-268.09 99l-1.29.27c-8.54 3.15-12.95 12.7-9.78 21.31 1.52 4.13 4.62 7.53 8.61 9.37l9.09 4.19c11.13 5.14 14.21 19.55 6.13 28.76l-71.09 80.93c-6.6 7.59-18.16 8.38-25.74 1.79l-10.26-8.84c-36.04-31.19-50.76-80.63-37.31-126.65z" fill="#00a79d"/><path d="m270.7 235.21c11.13 5.14 14.21 19.55 6.13 28.76l-71.09 80.93c-6.6 7.59-18.16 8.38-25.74 1.79l-10.26-8.84 100.97-102.64z" fill="#231f20"/><path d="m549.99 132.29 143.43 12.58-2.07 13.39c-1.49 9.94-10.74 16.81-20.75 15.34l-106.61-15.44c-12.12-1.77-19.13-14.73-14-25.86z" fill="#231f20"/><path d="m366.51 148.56c-5.67-.34-10.94 3.4-12.49 8.86-.59 2.08-.62 4.16-.18 6.09.8 3.53.67 9.45.38 14.17-.24 3.9 2.85 5.2 6.76 5.2 4.12 0 7.29-1.65 6.7-5.73l-.59-4.13c5.3 1.67 10.98-.05 10.84-10.13-.06-4.58-3.98-13.89-11.41-14.34z" fill="#fbc897"/><path d="m351.59 150.33c2.21-5.41 7.7-6.98 12.29-6.35 4.31.59 8.71.5 12.99-.25 2.49-.44 4.74 1.61 4.54 4.14-.12 1.56-.75 3.11-1.78 4.28-2.21 2.49-5.75 3.43-9.07 3.3-2.6-.1-5.69-.6-7.37 1.38-1.13 1.33-1.26 3.48-2.77 4.34-.75.43-1.69.43-2.44.87-1.76 1.04-1.41 3.6-1.39 5.64.03 2.3-.66 4.6-1.96 6.5-5.67.66-3.61-22.42-3.03-23.84z" fill="#0b1a50"/><path d="m360.64 162.61s-.76-5.22-3.72-4.24c-2.38.79-3.69 9.12 2.57 7.22z" fill="#fbc897"/><path d="m375.73 174.7c-4.54 2.18-8.2-.64-9.12-1.5-.58-.54-5.34-8.74-6.43-12.68-.21-.75.78-2.68 1.54-2.86.57-.14.13.51.44 1.01.84 1.38 2.08 6.93 5.74 7.87 2.03.52 8.67-3.53 10.12-1.28 1.7 2.64.81 7.96-2.3 9.44z" fill="#0b1a50"/><path d="m341.88 188.18c-.61 8.46 10.56 10.18 21.67 9.29l-2.54-17.41c-9.23.36-18.67 1.79-19.13 8.12z" fill="#f9b83f"/><path d="m388.4 158.9s-5.31 19.31-11 20.58c-2.86.64-9.57.31-16.39.58l2.54 17.41c8.02-.64 16.01-2.65 19.54-4.46 10.05-5.16 14.55-29.89 14.55-29.89l-9.25-4.22z" fill="#fcd3ac"/><path d="m404.28 152.35c.69-1.11.67-2.53-.05-3.62l-3.11-4.68c-1.26-1.9-4.01-2.01-5.42-.22 0 0-5.22 5.57-6.22 7.87-.72 1.67-1.07 7.2-1.07 7.2l9.25 4.22 6.63-10.77z" fill="#fcd3ac"/><path d="m544.26 301.69c.09-13.79-47.76-12.82-49.4-14.59-7.88-8.54-36.12-11.15-39.27 0-11.23 39.81 33.34 25.51 41.01 29.51-1.26 12.89 2.38 51.96 2.38 51.96l9.47-.56c2.51-8.68 5.18-30.44 9.12-53.77l5.62-.38c1.96 12.53 3.69 52.54 3.69 52.54l9.31-.2s7.99-50.86 8.08-64.5z" fill="#093c5f"/><path d="m526.88 366.4s-2.46 9.99-.03 11.41c4 2.34 19.16 8.26 23.88 7.65 4.89-.63-14.56-19.26-14.56-19.26l-9.31.2z" fill="#414042"/><path d="m498.64 379.57c3.54 2.16 16.21 7.75 23.53 7.62 5.09-.09-13.73-19.19-13.73-19.19l-9.48.56s-2.61 9.62-.32 11.01z" fill="#414042"/><path d="m488.02 223.4c-8.38 1.3-7.55 12.57-4.19 23.21l16.39-6.39c-2.42-8.91-5.93-17.8-12.21-16.82z" fill="#f9b83f"/><path d="m526.99 262.17s-20.01-.84-22.52-6.1c-1.26-2.64-2.45-9.25-4.24-15.84l-16.39 6.39c2.43 7.67 6.17 15.01 8.73 18.05 7.29 8.64 32.39 7.47 32.39 7.47l2.04-9.96z" fill="#f9b83f"/><path d="m536.94 276.17c1.24.43 2.62.09 3.52-.87l3.87-4.08c1.57-1.65 1.06-4.35-1-5.33 0 0-6.6-3.84-9.07-4.29-1.79-.33-7.26.57-7.26.57l-2.04 9.96 11.99 4.04z" fill="#fbc897"/><path d="m493.4 209.4c-.06-4.58-3.98-13.89-11.41-14.34-5.67-.34-10.94 3.4-12.49 8.86-.59 2.08-.62 4.16-.18 6.09 1.48 6.55 1.19 13.38-.23 19.95l-.16.72 12.34.7 1.29-11.86c5.3 1.67 10.98-.05 10.84-10.13z" fill="#fbc897"/><path d="m467.06 196.82c2.21-5.41 7.7-6.98 12.29-6.35 4.31.59 8.71.5 12.99-.25 2.49-.44 4.74 1.61 4.54 4.14-.12 1.56-.75 3.11-1.78 4.28-2.21 2.49-5.75 3.43-9.07 3.3-2.6-.1-5.69-.6-7.37 1.38-1.13 1.33-1.26 3.48-2.77 4.34-.75.43-1.69.43-2.44.87-1.76 1.04-1.41 3.6-1.39 5.64.03 2.3-.66 4.6-1.96 6.5-5.67.66-3.61-22.42-3.03-23.84z" fill="#0b1a50"/><path d="m476.12 209.1s-.76-5.22-3.72-4.24c-2.38.79-3.69 9.12 2.57 7.22z" fill="#fbc897"/><path d="m487.11 223.57-2.31.18-1.39.11-15.11 1.19-.89.07-2.65.45c-7.08 1.19-12.74 6.56-14.28 13.57-4.49 20.45.69 41.31 5.12 47.94 3.24 4.85 35.74 3.75 39.27 0 4.16-8.86-1.91-63.98-7.75-63.52z" fill="#f7a60f"/><path d="m517.6 288.42h37.21l9.29-37.39c.27-1.1-.4-2-1.5-2h-33.21c-1.1 0-2.22.9-2.5 2z" fill="#bcbec0"/><path d="m519.1 288.42h37.21l9.29-37.39c.27-1.1-.4-2-1.5-2h-33.21c-1.1 0-2.22.9-2.5 2z" fill="#a7a9ac"/><path d="m556.48 287.77v2.35c0 1.1-.9 2-2 2h-67.81c-1.1 0-2-.9-2-2v-2.35z" fill="#939598"/><path d="m517.9 287.77v2.35c0 1.1-.9 2-2 2h-29.23c-1.1 0-2-.9-2-2v-2.35z" fill="#bcbec0"/><path d="m460.78 233.64c-8.43.9-8.15 12.19-5.3 22.98l16.68-5.59c-1.99-9.02-5.07-18.06-11.38-17.39z" fill="#f9b83f"/><path d="m497.84 274.24s-19.95-1.8-22.2-7.18c-1.13-2.7-2-9.36-3.47-16.03l-16.68 5.59c2.05 7.78 5.44 15.29 7.85 18.45 6.86 8.98 31.99 9.02 31.99 9.02l2.52-9.85z" fill="#f9b83f"/><path d="m507.1 288.7c1.22.48 2.61.21 3.55-.7l4.06-3.89c1.64-1.58 1.27-4.3-.74-5.37 0 0-6.41-4.15-8.85-4.73-1.77-.42-7.28.22-7.28.22l-2.52 9.85z" fill="#fcd3ac"/><path d="m484.8 223.75c-1.1 3.66-3.86 4.8-7.19 5.31-4.23.65-9.34-.28-10.21-3.94l.89-.07 15.11-1.19 1.39-.11z" fill="#fbc897"/><path d="m892.29 273.93c8.31-29.26 5.97-62.68-12.77-86.65-18.74-23.96-52.96-35.77-81.52-25.29-18.32 6.72-32.33 20.8-47.64 32.31-18.21 13.69-35.05 18.01-57.54 19.88-18.48 1.53-44.92-13.11-54.4-34.42-11.17 17-18.46 145.53 105.54 172.53 67.11 14.61 136-35 148.31-78.35z" fill="#72d0cb"/><path d="m705.11 246.43c.22 14.43.44 28.87.67 43.3-4.18-.93-6.22-1.42-10.21-2.47.06-6.78.08-10.18.14-17-5.42-.74-8.05-1.18-13.18-2.18-.26 6.11-.39 9.15-.65 15.2-3.75-1.2-5.59-1.83-9.19-3.14.75-11.05 1.49-22.09 2.24-33.14 3.33.17 5.03.23 8.48.27-.24 5.7-.36 8.53-.6 14.19 5.04.69 7.63.98 12.96 1.41.05-6.31.08-9.48.13-15.82 3.62-.17 5.46-.29 9.21-.62z" fill="#fff"/><path d="m713.43 245.57c10.41-1.27 20.56-3.33 30.79-5.56.45 4.12.67 6.18 1.12 10.3-8.95 1.56-13.24 2.14-21.54 2.97.25 4.26.38 6.4.64 10.66 6.81-.21 10.32-.41 17.57-1.06.36 3.7.55 5.55.91 9.25-7.44.27-11.03.29-17.99.14.29 4.89.44 7.33.73 12.22 9.11.88 13.86 1.17 23.83 1.39.45 4.15.68 6.22 1.14 10.38-11.92-.88-23.79-2.39-35.54-4.59-.56-15.36-1.11-30.72-1.66-46.08z" fill="#fff"/><path d="m762.31 235.14c2.52 16.86 5.05 33.72 7.58 50.58 9.61-.33 14.6-.66 25.04-1.69 1.02 5.11 1.53 7.67 2.55 12.81-13.01.58-26.05.58-39.06-.1-2.43-19.49-4.86-38.97-7.28-58.46 4.39-1.15 6.62-1.78 11.16-3.14z" fill="#fff"/><path d="m790.19 225.54c7.84-3.04 11.87-4.72 20.16-8.42 3.93-1.76 7.19-2.9 9.74-3.3s4.99-.28 7.34.38c3.1.92 5.9 2.72 8.39 5.44s4.51 6.45 6 11.14c1.03 3.24 1.59 6.34 1.67 9.28s-.24 5.73-.99 8.35c-1.11 3.94-2.93 7.16-5.42 9.66-2.49 2.49-6.73 4.46-12.5 5.81-4.37 1.02-6.52 1.5-10.75 2.39 2.34 9.64 4.68 19.29 7.03 28.93-6.38.6-9.48.84-15.54 1.21-5.06-23.62-10.1-47.25-15.13-70.88zm20.47 27.68c3.57-.96 5.38-1.46 9.05-2.52 1.96-.57 3.49-1.26 4.57-2.07s1.9-1.88 2.47-3.14c.53-1.19.86-2.6.92-4.19s-.12-3.11-.52-4.54c-.44-1.55-1.05-2.92-1.82-4.1s-1.67-2.05-2.63-2.62c-1.03-.61-2.2-.96-3.49-1s-2.82.28-4.58.96c-3.56 1.37-5.32 2.02-8.79 3.28 1.92 7.94 2.88 11.93 4.83 19.96z" fill="#fff"/></svg>