<svg viewBox="0 0 2489.95 2494.46" xmlns="http://www.w3.org/2000/svg"><circle cx="1254.05" cy="1247.23" fill="#000091" r="1158.8"/><path d="m1782.7 823c-154.79-128.93-292.11-185.48-451.89-185.48-217.21 0-429.42 128.93-511.81 339.28h851.36l-62.42 165.12h-836.39c-2.5 11.31-4.99 36.19-4.99 56.55 0 22.62 2.5 40.71 4.99 54.28h796.43l-64.91 165.12h-691.57c64.91 194.52 272.13 343.81 486.85 343.81 172.27 0 332.05-67.86 484.35-187.74v246.54c-179.76 99.52-322.07 140.24-489.34 140.24-329.56 0-654.12-212.62-739.01-542.85h-187.25l42.44-165.12h112.35c-2.5-13.57-4.99-33.93-4.99-52.02 0-11.31 2.5-42.98 4.99-58.81h-149.8l42.44-165.12h142.31c94.87-321.19 409.45-538.33 766.47-538.33 182.26 0 309.58 47.5 459.38 131.19v253.33z" fill="#fff"/></svg>