<svg enable-background="new 0 0 368 177.919" height="177.919" viewBox="0 0 368 177.919" width="368" xmlns="http://www.w3.org/2000/svg"><g fill="#b5b5b6"><path d="m255.576 98.99c-5.664-10.114-17.047-18.239-31.377-22.401-.084-.026-.162-.054-.246-.08-22.477-6.972-34.639-19.53-36.809-21.926-1.678-1.895-2.645-3.155-2.645-3.155s-23.332-34.104-77.353-37.126c-.308-.045-40.448-5.958-65.58 14.964-14.668 10.963-25.308 27.241-28.64 46.594-.194 1.126-.327 2.183-.417 3.193-.907 6.17-1.144 13.04-1.143 21.596 0 6.765.688 15.937 1.57 21.852.305 3.227.916 7.65 2.088 10.08 1.991 4.125 2.115 5.25 6.344 7.25 4.23 2 8.211 3 10.077 3.375s3.732 0 3.732 0l.025-13.5c1.861-20.208 17.9-32.717 38.083-32.717 14.639 0 26.557 7.754 33.167 20.038 3.81 8.538 4.934 20.736 4.813 26.712-.009.043-.016.086-.024.129v5.214h45.493v-1.685h.031c0-.018-.018-.524-.031-.925v-1.581c.021-2.37-.047-4.055-.047-6.636 0-22.174 17.287-38.414 38.893-38.414 21.604 0 37.154 19.446 38.373 38.894.184 2.925-.293 3.18 2.832 2.43 14.543-3.743 22.604-13.571 22.715-27.415.458-4.473-.856-9.635-3.924-14.76z"/><circle cx="71.931" cy="134.754" r="29.604"/><path d="m194.947 107.483c-16.176 0-29.287 13.111-29.287 29.285s13.111 29.286 29.287 29.286c16.172 0 29.283-13.112 29.283-29.286s-13.111-29.285-29.283-29.285z"/></g><path d="m306.576 96.99c-5.664-10.114-17.047-18.239-31.377-22.401-.084-.026-.162-.054-.246-.08-22.477-6.972-34.639-19.53-36.809-21.926-1.678-1.895-2.645-3.155-2.645-3.155s-23.332-34.104-77.353-37.126c-.308-.045-40.448-5.958-65.58 14.964-14.668 10.963-25.308 27.241-28.64 46.594-.194 1.126-.327 2.183-.417 3.193-.907 6.17-1.144 13.04-1.143 21.596 0 6.765.688 15.937 1.57 21.852.305 3.227.916 7.65 2.088 10.08 1.991 4.125 2.115 5.25 6.344 7.25 4.23 2 8.211 3 10.077 3.375s3.732 0 3.732 0l.025-13.5c1.861-20.208 17.9-32.717 38.083-32.717 14.639 0 26.557 7.754 33.167 20.038 3.81 8.538 4.934 20.736 4.813 26.712-.009.043-.016.086-.024.129v5.214h45.493v-1.685h.031c0-.018-.018-.524-.031-.925v-1.581c.021-2.37-.047-4.055-.047-6.636 0-22.174 17.287-38.414 38.893-38.414 21.604 0 37.154 19.446 38.373 38.894.184 2.925-.293 3.18 2.832 2.43 14.543-3.743 22.604-13.571 22.715-27.415.458-4.473-.856-9.635-3.924-14.76z" fill="#fff"/><circle cx="122.931" cy="132.754" fill="#fff" r="29.604"/><path d="m245.947 105.483c-16.176 0-29.287 13.111-29.287 29.285s13.111 29.286 29.287 29.286c16.172 0 29.283-13.112 29.283-29.286s-13.111-29.285-29.283-29.285z" fill="#fff"/><path d="m357.957 96.99c-5.663-10.114-17.046-18.239-31.377-22.401-.083-.026-.162-.054-.245-.08-22.478-6.972-34.639-19.53-36.81-21.926-1.678-1.895-2.645-3.155-2.645-3.155s-23.332-34.104-77.353-37.126c-.308-.045-40.448-5.958-65.58 14.964-14.668 10.963-25.308 27.242-28.64 46.595-.194 1.126-.327 2.183-.417 3.193-.907 6.17-1.144 13.04-1.143 21.596 0 6.765.688 15.937 1.57 21.852.305 3.227.916 7.65 2.088 10.08 1.991 4.125 2.115 5.25 6.344 7.25 4.23 2 8.211 3 10.077 3.375s3.732 0 3.732 0l.025-13.5c1.861-20.208 17.9-32.717 38.083-32.717 14.639 0 26.557 7.754 33.167 20.038 3.81 8.538 4.934 20.736 4.813 26.712-.009.043-.016.086-.024.129v5.214h45.492v-1.685h.031c.001-.018-.018-.524-.031-.925v-1.581c.021-2.37-.047-4.055-.047-6.636 0-22.174 17.288-38.414 38.893-38.414s37.154 19.446 38.373 38.894c.184 2.925-.292 3.18 2.833 2.43 14.543-3.743 22.604-13.571 22.715-27.415.459-4.475-.855-9.636-3.924-14.761z" fill="#1ca6a6"/><circle cx="174.313" cy="132.754" fill="#1ca6a6" r="29.604"/><circle cx="297.328" cy="134.768" fill="#1ca6a6" r="29.285"/></svg>