<svg viewBox="0 0 2485.48 2489.98" xmlns="http://www.w3.org/2000/svg"><circle cx="1242.74" cy="1281.27" fill="#000091" r="1158.8"/><g fill="#fff"><path d="m1646.96 1456.27v-13.41c0-44.86 36.37-81.23 81.23-81.23h13.41c78.76 0 127.99-85.26 88.61-153.47l-6.7-11.61c-22.43-38.85-9.12-88.53 29.73-110.96l11.61-6.7c68.21-39.38 68.21-137.83 0-177.22l-11.61-6.7c-38.85-22.43-52.16-72.11-29.73-110.96l6.7-11.61c39.38-68.21-9.85-153.47-88.61-153.47h-13.41c-44.86 0-81.23-36.37-81.23-81.23v-13.41c0-78.76-85.26-127.99-153.47-88.61l-11.61 6.7c-38.85 22.43-88.53 9.12-110.96-29.73l-6.7-11.61c-39.38-68.21-137.83-68.21-177.22 0l-6.7 11.61c-22.43 38.85-72.11 52.16-110.96 29.73l-11.61-6.7c-68.21-39.38-153.47 9.85-153.47 88.61v13.41c0 44.86-36.37 81.23-81.23 81.23h-13.41c-78.76 0-127.99 85.26-88.61 153.47l6.7 11.61c22.43 38.85 9.12 88.53-29.73 110.96l-11.61 6.7c-68.21 39.38-68.21 137.83 0 177.22l11.61 6.7c38.85 22.43 52.16 72.11 29.73 110.96l-6.7 11.61c-39.38 68.21 9.85 153.47 88.61 153.47h13.41c44.86 0 81.23 36.37 81.23 81.23v13.41c0 78.76 85.26 127.99 153.47 88.61l11.61-6.7c38.85-22.43 88.53-9.12 110.96 29.73l6.7 11.61c39.38 68.21 137.83 68.21 177.22 0l6.7-11.61c22.43-38.85 72.11-52.16 110.96-29.73l11.61 6.7c68.21 39.38 153.47-9.85 153.47-88.61zm-371.36 5.86c-260.6 0-471.85-211.25-471.85-471.85s211.25-471.85 471.85-471.85 471.85 211.25 471.85 471.85-211.25 471.85-471.85 471.85z"/><circle cx="1275.6" cy="990.28" r="432.24" transform="matrix(.70710678 -.70710678 .70710678 .70710678 -326.62 1192.03)"/><path d="m2034 1981.4-291.98-460.55c-4.58-7.23-15.53-5.75-18.03 2.43l-11.42 37.34c-7.77 25.39-26.24 46.13-50.57 56.77l-51.73 22.62c-19.52 8.54-41.43 9.96-61.89 4.01l-45.44-26.46c-8.94-5.21-18.95 4.92-13.63 13.8l273.16 456.17c3.27 5.46 11.38 4.79 13.71-1.13l51.89-131.66c3.54-8.99 13.33-13.84 22.63-11.21l174.74 49.35c6.77 1.91 12.33-5.54 8.56-11.49z"/><path d="m1074.34 1626.28-45.44 26.46c-20.46 5.95-42.36 4.53-61.89-4.01l-51.73-22.62c-24.33-10.64-42.8-31.38-50.57-56.77l-11.42-37.34c-2.5-8.18-13.45-9.66-18.03-2.43l-291.98 460.55c-3.77 5.94 1.79 13.4 8.56 11.49l174.74-49.35c9.3-2.63 19.08 2.22 22.63 11.21l51.89 131.66c2.33 5.92 10.44 6.59 13.71 1.13l273.16-456.17c5.32-8.88-4.69-19-13.63-13.8z"/></g></svg>