<?xml version="1.0" encoding="utf-8"?>
<!-- Generator: Adobe Illustrator 16.0.0, SVG Export Plug-In . SVG Version: 6.00 Build 0)  -->
<!DOCTYPE svg PUBLIC "-//W3C//DTD SVG 1.1//EN" "http://www.w3.org/Graphics/SVG/1.1/DTD/svg11.dtd">
<svg version="1.1" id="Calque_1" xmlns="http://www.w3.org/2000/svg" xmlns:xlink="http://www.w3.org/1999/xlink" x="0px" y="0px"
	 width="184.413px" height="69.338px" viewBox="865.871 447.29 184.413 69.338"
	 enable-background="new 865.871 447.29 184.413 69.338" xml:space="preserve">
<g transform="matrix(.13333333 0 0 -.13333333 0 963.62667)">
	<path fill="#F9CA33" d="M7298.412,3701.647v-173.475h-327.067v-175.679h905.807v349.154H7298.412z"/>
	<path fill="#040606" d="M7264.889,3872.532l-15.477-23.368h-28.901l15.996,23.368H7264.889z M7267.767,3728.724v20.702h-41.697
		v26.016h35.427v20.698h-35.427v23.815h41.697v20.702h-66.16v-111.933H7267.767z M7012.166,3701.647l15.472-23.364h28.898
		l-15.993,23.364H7012.166z M6955.114,3793.793h11.44c8.763,0,13.788,4.852,13.788,13.319c0,7.925-5.284,12.843-13.788,12.843
		h-11.44V3793.793z M6955.114,3728.724h-24.467v111.933h34.651c24.756,0,40.137-12.971,40.137-33.86
		c0-13.059-6.083-23.236-17.164-28.802l33.713-49.27h-27.748l-29.374,44.367h-9.749V3728.724z M7266.544,3557.843v20.698h-41.697
		v26.008h35.428v20.706h-35.428v23.818h41.697v20.702h-66.152v-111.933H7266.544z M7119.524,3622.904v26.169h11.437
		c8.511,0,13.795-4.922,13.795-12.847c0-8.467-5.032-13.323-13.795-13.323H7119.524z M7187.486,3557.843l-34.805,49.263
		c11.085,5.574,17.161,15.754,17.161,28.806c0,20.889-15.374,33.864-40.133,33.864h-34.647v-111.933h24.463v44.363h9.752
		l29.308-44.363H7187.486z M7069.379,3557.843v20.698h-41.7v26.008h35.427v20.706h-35.427v23.818h41.7v20.702h-66.167v-111.933
		H7069.379z M6972.666,3557.843v111.933h-24.463v-111.933H6972.666z M6894.934,3557.843v89.502h33.86v22.431h-92.183v-22.431h33.86
		v-89.502H6894.934z M6819.242,3601.891v67.885h-24.463v-69.76c0-13.938-7.852-22.251-21.002-22.251
		c-13.443,0-21.152,8.108-21.152,22.251v69.76h-24.467v-67.885c0-29.099,17.417-47.19,45.465-47.19
		C6801.763,3554.7,6819.242,3572.792,6819.242,3601.891L6819.242,3601.891z M6683.816,3613.807
		c0-20.552-14.688-36.042-34.167-36.042c-19.893,0-34.325,15.154-34.325,36.042s14.432,36.05,34.325,36.05
		C6669.128,3649.857,6683.816,3634.359,6683.816,3613.807z M6708.909,3613.807c0,33.691-25.477,59.099-59.26,59.099
		c-33.875,0-59.418-25.408-59.418-59.099s25.543-59.107,59.418-59.107C6683.432,3554.7,6708.909,3580.116,6708.909,3613.807z
		 M6520.504,3622.904v26.169h11.437c8.503,0,13.788-4.922,13.788-12.847c0-8.467-5.024-13.323-13.788-13.323H6520.504z
		 M6588.462,3557.843l-34.809,49.263c11.082,5.574,17.165,15.754,17.165,28.806c0,20.889-15.377,33.864-40.133,33.864h-34.647
		v-111.933h24.467v44.363h9.745l29.315-44.363H6588.462z M7144.291,3728.724v89.51h33.856v22.423h-92.183v-22.423h33.86v-89.51
		H7144.291z M7063.571,3728.724v111.933h-24.463v-111.933H7063.571z M6900.112,3772.783v67.874h-24.463v-69.76
		c0-13.935-7.852-22.255-21.002-22.255c-13.444,0-21.156,8.112-21.156,22.255v69.76h-24.463v-67.874
		c0-29.11,17.42-47.19,45.461-47.19C6882.629,3725.593,6900.112,3743.673,6900.112,3772.783L6900.112,3772.783z M6789.721,3748.459
		l0.634,0.868l-19.321,14.843l-0.663-0.945c-6.595-9.401-16.465-14.583-27.785-14.583c-19.889,0-34.321,15.165-34.321,36.054
		c0,20.885,14.433,36.05,34.321,36.05c11.32,0,21.186-5.182,27.785-14.583l0.663-0.948l19.332,15.015l-0.655,0.868
		c-10.862,14.425-28.037,22.698-47.125,22.698c-33.871,0-59.41-25.408-59.41-59.099c0-33.699,25.54-59.103,59.41-59.103
		C6761.849,3725.593,6779.028,3733.925,6789.721,3748.459L6789.721,3748.459z M6663.389,3872.532l-15.476-23.368h-28.897
		l15.988,23.368H6663.389z M6666.264,3728.724v20.702h-41.697v26.016h35.427v20.698h-35.427v23.815h41.697v20.702h-66.156v-111.933
		H6666.264z M6573.795,3759.768c0,22.504-17.432,30.095-31.436,36.2c-9.88,4.307-18.413,8.024-18.413,15.685
		c0,6.185,4.896,10.499,11.909,10.499c7.225,0,14.114-4.373,21.072-13.367l0.729-0.938l17.977,16.245l-0.688,0.813
		c-10.591,12.535-23.796,18.889-39.247,18.889c-20.826,0-36.529-14.154-36.529-32.922c0-22.101,17.289-29.703,31.183-35.815
		c10.016-4.402,18.662-8.207,18.662-16.073c0-7.163-4.855-11.437-13.004-11.437c-8.43,0-16.974,4.757-23.427,13.056l-0.736,0.945
		l-17.798-16.417l0.674-0.802c10.711-12.784,23.88-18.735,41.444-18.735C6558.019,3725.593,6573.492,3739.637,6573.795,3759.768
		L6573.795,3759.768z M7805.85,3384.361v20.698h-41.697v26.016h35.428v20.698h-35.428v23.819h41.697v20.698h-66.16v-111.929H7805.85
		z M7720.28,3384.361v22.427h-41.689v89.502h-24.463v-111.929H7720.28z M7578.271,3453.04v22.552h9.404
		c7.859,0,12.378-4.05,12.378-11.125c0-7.273-4.519-11.426-12.378-11.426H7578.271z M7578.271,3405.059v27.268h12.539
		c9.858,0,15.513-4.973,15.513-13.63c0-8.54-5.793-13.638-15.513-13.638H7578.271z M7589.558,3384.361
		c25.811,0,41.857,12.795,41.857,33.391c0,11.294-6.145,20.757-16.948,26.206c6.893,5.171,10.679,12.708,10.679,21.453
		c0,19.05-14.538,30.879-37.939,30.879h-33.398v-111.929H7589.558z M7523.427,3384.361v111.929h-29.48l-26.162-44.993
		l-26.177,44.993h-29.479v-111.929h24.463v75.791l22.72-38.174h16.934l22.727,38.174v-75.791H7523.427z M7386.441,3384.361v20.698
		h-41.697v26.016h35.427v20.698h-35.427v23.819h41.697v20.698h-66.16v-111.929H7386.441z M7297.108,3415.401
		c0,22.5-17.432,30.095-31.436,36.204c-9.88,4.307-18.413,8.027-18.413,15.681c0,6.189,4.9,10.503,11.909,10.503
		c7.222,0,14.122-4.373,21.08-13.367l0.725-0.938l17.974,16.238l-0.688,0.82c-10.591,12.532-23.796,18.889-39.251,18.889
		c-20.822,0-36.519-14.15-36.519-32.922c0-22.105,17.285-29.707,31.18-35.808c10.012-4.409,18.662-8.218,18.662-16.077
		c0-7.17-4.856-11.44-13.008-11.44c-8.438,0-16.971,4.753-23.423,13.052l-0.74,0.945l-17.798-16.414l0.674-0.806
		c10.708-12.781,23.877-18.735,41.448-18.735C7281.332,3381.226,7296.8,3395.281,7297.108,3415.401L7297.108,3415.401z
		 M7197.117,3384.361v111.929h-24.463v-76.531l-47.348,76.531h-30.245v-111.929h24.463v76.545l47.348-76.545H7197.117z
		 M7069.379,3384.361v20.698h-41.7v26.016h35.427v20.698h-35.427v23.819h41.7v20.698h-66.163v-111.929H7069.379z M7834.312,3529.469
		l19.043,49.073h-24.837l-14.934-49.073H7834.312z M7805.85,3557.843v20.698h-41.697v26.008h35.428v20.706h-35.428v23.818h41.697
		v20.702h-66.16v-111.933H7805.85z M7658.837,3622.904v26.169h11.426c8.518,0,13.799-4.922,13.799-12.847
		c0-8.467-5.024-13.323-13.799-13.323H7658.837z M7726.792,3557.843l-34.805,49.263c11.089,5.574,17.161,15.754,17.161,28.806
		c0,20.889-15.374,33.864-40.129,33.864h-34.651v-111.933h24.47v44.363h9.742l29.312-44.363H7726.792z M7575.736,3557.843
		l42.378,111.933h-26.022l-31.685-83.734l-31.692,83.734h-26.023l42.371-111.933H7575.736z M7486.425,3557.843v111.933h-24.456
		v-111.933H7486.425z M7372.665,3557.843l-42.371,111.933h26.023l31.685-83.734l31.685,83.734h26.03l-42.378-111.933H7372.665z"/>
</g>
<rect x="842.712" y="423.867" display="none" fill="#FFFFFF" width="230.996" height="116.186"/>
</svg>
