<?xml version="1.0" encoding="utf-8"?>
<!-- Generator: Adobe Illustrator 16.0.0, SVG Export Plug-In . SVG Version: 6.00 Build 0)  -->
<!DOCTYPE svg PUBLIC "-//W3C//DTD SVG 1.1//EN" "http://www.w3.org/Graphics/SVG/1.1/DTD/svg11.dtd">
<svg version="1.1" id="Calque_1" xmlns="http://www.w3.org/2000/svg" xmlns:xlink="http://www.w3.org/1999/xlink" x="0px" y="0px"
	 width="184.413px" height="100.006px" viewBox="865.871 447.121 184.413 100.006"
	 enable-background="new 865.871 447.121 184.413 100.006" xml:space="preserve">
<g transform="matrix(.13333333 0 0 -.13333333 0 963.62667)">
	<path fill="#F9CA33" d="M7298.412,3702.917v-173.471h-327.067v-175.679h905.807v349.15H7298.412z"/>
	<path fill="#040606" d="M7264.889,3873.803l-15.477-23.368h-28.901l15.996,23.368H7264.889z M7267.767,3729.995v20.702h-41.697
		v26.016h35.427v20.698h-35.427v23.815h41.697v20.702h-66.16v-111.933H7267.767z M7012.166,3702.917l15.472-23.364h28.898
		l-15.993,23.364H7012.166z M6955.114,3795.064h11.44c8.763,0,13.788,4.852,13.788,13.319c0,7.925-5.284,12.843-13.788,12.843
		h-11.44V3795.064z M6955.114,3729.995h-24.467v111.933h34.651c24.756,0,40.137-12.971,40.137-33.86
		c0-13.059-6.083-23.236-17.164-28.802l33.713-49.27h-27.748l-29.374,44.367h-9.749V3729.995z M7266.544,3559.11v20.698h-41.697
		v26.016h35.428v20.698h-35.428v23.822h41.697v20.702h-66.152V3559.11H7266.544z M7119.524,3624.178v26.166h11.437
		c8.511,0,13.795-4.926,13.795-12.85c0-8.467-5.032-13.315-13.795-13.315H7119.524z M7187.486,3559.11l-34.805,49.263
		c11.085,5.581,17.161,15.762,17.161,28.813c0,20.885-15.374,33.86-40.133,33.86h-34.647V3559.11h24.463v44.37h9.752l29.308-44.37
		H7187.486z M7069.379,3559.11v20.698h-41.7v26.016h35.427v20.698h-35.427v23.822h41.7v20.702h-66.167V3559.11H7069.379z
		 M6972.666,3559.11v111.937h-24.463V3559.11H6972.666z M6894.934,3559.11v89.506h33.86v22.431h-92.183v-22.431h33.86v-89.506
		H6894.934z M6819.242,3603.158v67.888h-24.463v-69.763c0-13.931-7.852-22.251-21.002-22.251c-13.443,0-21.152,8.115-21.152,22.251
		v69.763h-24.467v-67.888c0-29.092,17.417-47.183,45.465-47.183C6801.763,3555.975,6819.242,3574.066,6819.242,3603.158
		L6819.242,3603.158z M6683.816,3615.082c0-20.552-14.688-36.05-34.167-36.05c-19.893,0-34.325,15.161-34.325,36.05
		s14.432,36.046,34.325,36.046C6669.128,3651.128,6683.816,3635.633,6683.816,3615.082z M6708.909,3615.082
		c0,33.688-25.477,59.096-59.26,59.096c-33.875,0-59.418-25.408-59.418-59.096c0-33.691,25.543-59.107,59.418-59.107
		C6683.432,3555.975,6708.909,3581.39,6708.909,3615.082z M6520.504,3624.178v26.166h11.437c8.503,0,13.788-4.926,13.788-12.85
		c0-8.467-5.024-13.315-13.788-13.315H6520.504z M6588.462,3559.11l-34.809,49.263c11.082,5.581,17.165,15.762,17.165,28.813
		c0,20.885-15.377,33.86-40.133,33.86h-34.647V3559.11h24.467v44.37h9.745l29.315-44.37H6588.462z M7144.291,3729.995v89.51h33.856
		v22.423h-92.183v-22.423h33.86v-89.51H7144.291z M7063.571,3729.995v111.933h-24.463v-111.933H7063.571z M6900.112,3774.054v67.874
		h-24.463v-69.76c0-13.935-7.852-22.255-21.002-22.255c-13.444,0-21.156,8.112-21.156,22.255v69.76h-24.463v-67.874
		c0-29.11,17.42-47.19,45.461-47.19C6882.629,3726.864,6900.112,3744.944,6900.112,3774.054L6900.112,3774.054z M6789.721,3749.73
		l0.634,0.868l-19.321,14.843l-0.663-0.945c-6.595-9.401-16.465-14.583-27.785-14.583c-19.889,0-34.321,15.165-34.321,36.054
		c0,20.885,14.433,36.05,34.321,36.05c11.32,0,21.186-5.182,27.785-14.583l0.663-0.948l19.332,15.015l-0.655,0.868
		c-10.862,14.425-28.037,22.698-47.125,22.698c-33.871,0-59.41-25.408-59.41-59.099c0-33.699,25.54-59.103,59.41-59.103
		C6761.849,3726.864,6779.028,3735.195,6789.721,3749.73L6789.721,3749.73z M6663.389,3873.803l-15.476-23.368h-28.897
		l15.988,23.368H6663.389z M6666.264,3729.995v20.702h-41.697v26.016h35.427v20.698h-35.427v23.815h41.697v20.702h-66.156v-111.933
		H6666.264z M6573.795,3761.039c0,22.504-17.432,30.095-31.436,36.2c-9.88,4.307-18.413,8.024-18.413,15.685
		c0,6.185,4.896,10.499,11.909,10.499c7.225,0,14.114-4.373,21.072-13.367l0.729-0.938l17.977,16.245l-0.688,0.813
		c-10.591,12.535-23.796,18.889-39.247,18.889c-20.826,0-36.529-14.154-36.529-32.922c0-22.101,17.289-29.703,31.183-35.815
		c10.016-4.402,18.662-8.207,18.662-16.073c0-7.163-4.855-11.437-13.004-11.437c-8.43,0-16.974,4.757-23.427,13.056l-0.736,0.945
		l-17.798-16.417l0.674-0.802c10.711-12.784,23.88-18.735,41.444-18.735C6558.019,3726.864,6573.492,3740.908,6573.795,3761.039
		L6573.795,3761.039z M7805.85,3385.628v20.698h-41.697v26.016h35.428v20.698h-35.428v23.819h41.697v20.698h-66.16v-111.929H7805.85
		z M7720.28,3385.628v22.427h-41.689v89.502h-24.463v-111.929H7720.28z M7578.271,3454.314v22.544h9.404
		c7.859,0,12.378-4.043,12.378-11.118c0-7.281-4.519-11.426-12.378-11.426H7578.271z M7578.271,3406.326v27.275h12.539
		c9.858,0,15.513-4.98,15.513-13.638c0-8.54-5.793-13.638-15.513-13.638H7578.271z M7589.558,3385.628
		c25.811,0,41.857,12.803,41.857,33.398c0,11.294-6.145,20.757-16.948,26.206c6.893,5.171,10.679,12.7,10.679,21.446
		c0,19.058-14.538,30.879-37.939,30.879h-33.398v-111.929H7589.558z M7523.427,3385.628v111.929h-29.48l-26.162-44.986
		l-26.177,44.986h-29.479v-111.929h24.463v75.791l22.72-38.174h16.934l22.727,38.174v-75.791H7523.427z M7386.441,3385.628v20.698
		h-41.697v26.016h35.427v20.698h-35.427v23.819h41.697v20.698h-66.16v-111.929H7386.441z M7297.108,3416.668
		c0,22.5-17.432,30.103-31.436,36.211c-9.88,4.307-18.413,8.027-18.413,15.674c0,6.196,4.9,10.503,11.909,10.503
		c7.222,0,14.122-4.365,21.08-13.359l0.725-0.938l17.974,16.23l-0.688,0.82c-10.591,12.539-23.796,18.896-39.251,18.896
		c-20.822,0-36.519-14.15-36.519-32.93c0-22.105,17.285-29.707,31.18-35.801c10.012-4.409,18.662-8.218,18.662-16.084
		c0-7.163-4.856-11.44-13.008-11.44c-8.438,0-16.971,4.761-23.423,13.052l-0.74,0.952l-17.798-16.421l0.674-0.806
		c10.708-12.773,23.877-18.735,41.448-18.735C7281.332,3382.493,7296.8,3396.556,7297.108,3416.668L7297.108,3416.668z
		 M7197.117,3385.628v111.929h-24.463v-76.524l-47.348,76.524h-30.245v-111.929h24.463v76.553l47.348-76.553H7197.117z
		 M7069.379,3385.628v20.698h-41.7v26.016h35.427v20.698h-35.427v23.819h41.7v20.698h-66.163v-111.929H7069.379z M7834.312,3530.736
		l19.043,49.073h-24.837l-14.934-49.073H7834.312z M7805.85,3559.11v20.698h-41.697v26.016h35.428v20.698h-35.428v23.822h41.697
		v20.702h-66.16V3559.11H7805.85z M7658.837,3624.178v26.166h11.426c8.518,0,13.799-4.926,13.799-12.85
		c0-8.467-5.024-13.315-13.799-13.315H7658.837z M7726.792,3559.11l-34.805,49.263c11.089,5.581,17.161,15.762,17.161,28.813
		c0,20.885-15.374,33.86-40.129,33.86h-34.651V3559.11h24.47v44.37h9.742l29.312-44.37H7726.792z M7575.736,3559.11l42.378,111.937
		h-26.022l-31.685-83.738l-31.692,83.738h-26.023l42.371-111.937H7575.736z M7486.425,3559.11v111.937h-24.456V3559.11H7486.425z
		 M7372.665,3559.11l-42.371,111.937h26.023l31.685-83.738l31.685,83.738h26.03l-42.378-111.937H7372.665z"/>
</g>
<rect x="842.712" y="423.867" display="none" fill="#FFFFFF" width="230.996" height="116.186"/>
</svg>
