<svg viewBox="0 0 2508.09 2512.63" xmlns="http://www.w3.org/2000/svg"><circle cx="1253.56" cy="1247.25" fill="#000091" r="1158.8"/><g fill="#fff"><path d="m1990 1175.98s82.76-41.96 37.97-148.34c-54.07-128.41-599.57-67.69-599.57-67.69s122.57-138.24 122.6-347.86c.03-293.03-184.35-269.65-238.3-254.19-19.78 5.67-33.31 46.56-42.52 96.08-26.48 142.38-96.87 272.92-200.55 374.03-73.52 71.7-134.48 155.24-180.33 247.13l.63 801.69 976.39-.77c131.6-46.74 64.49-176.42 64.49-176.42s75.97-13.33 84.25-133.39c8.28-120.07-39.59-123.3-39.59-123.3s58.1-3.8 61.98-134.02-47.45-132.96-47.45-132.96z"/><path d="m431.83 1093.29h357.39v783.77h-357.39z"/></g></svg>