<?xml version="1.0" encoding="utf-8"?>
<!-- Generator: Adobe Illustrator 16.0.0, SVG Export Plug-In . SVG Version: 6.00 Build 0)  -->
<!DOCTYPE svg PUBLIC "-//W3C//DTD SVG 1.1//EN" "http://www.w3.org/Graphics/SVG/1.1/DTD/svg11.dtd">
<svg version="1.1" id="Calque_1" xmlns="http://www.w3.org/2000/svg" xmlns:xlink="http://www.w3.org/1999/xlink" x="0px" y="0px"
	 width="517.422px" height="370.531px" viewBox="47.843 235.029 517.422 370.531"
	 enable-background="new 47.843 235.029 517.422 370.531" xml:space="preserve">
<path fill="#F5DBDA" d="M163.114,576.468c-33.91-2.065-65.307-22.828-84.436-51.009c-28.785-42.403-40.238-111.22-5.831-153.754
	c33.315-41.181,94.313-45.054,141.465-28.506c33.121,11.625,62.189,36.396,75.511,68.872
	c31.125,75.869-45.338,166.804-123.804,164.527c-0.971-0.028-1.94-0.071-2.907-0.131H163.114z"/>
<g>
	<path fill="#EDBBBB" d="M143.311,345.593c15.293,8.188-16.976-32.681-25.042-40.405c-8.066-7.725-14.5-13.292-14.5-13.292
		S112.215,328.946,143.311,345.593z"/>
	<path fill="#EDBBBB" d="M153.946,351.792c-0.899-5.027-1.528-13.693-0.581-19.124c0.947-5.43-0.309-22.762-4.285-27.702
		c-3.977-4.939-3.293,2.651-1.726,7.631c1.568,4.98,0.19,14.663,0.721,21.996C148.607,341.925,153.946,351.792,153.946,351.792z"/>
	<path fill="#EDBBBB" d="M153.019,352.864c0,0-9.475-2.195-13.105-4.211s-9.213-3.221-17.977-3.926
		c-8.763-0.706-14.385-4.32-15.265-2.581c-0.88,1.74,8.278,6.035,14.728,8.116c6.451,2.078,15.474,1.762,19.723,3.062
		C145.371,354.624,153.019,352.864,153.019,352.864z"/>
	<path fill="#EDBBBB" d="M169.731,364.32c0.208-0.818-7.419-14.542-7.955-21.002c-0.535-6.463,5.676-19.713,7.419-19.705
		c1.742,0.008-0.444,7.739-0.929,13.068c-0.486,5.328-2.36,11.831-0.684,15.53c1.674,3.698,2.15,12.108,2.15,12.108H169.731z"/>
	<path fill="#EDBBBB" d="M175.044,368.292c-7.265-3.159-11.008-3.022-16.286-3.712c-5.277-0.689-13.49,1.58-19.895,1.039
		c-6.405-0.541-12.499-2.312-13.068-0.93c-0.571,1.381,4.945,6.276,10.688,5.995c5.743-0.282,17.027-1.771,20.771-1.907
		s17.79-0.483,17.79-0.483V368.292z"/>
	<path fill="#EDBBBB" d="M188.496,375.427c-7.6-8.698-10.24-14.605-9.907-20.192s3.993-21.666,5.21-18.739
		s-0.204,11.072,1.401,19.334C186.804,364.089,188.496,375.427,188.496,375.427z"/>
	<path fill="#EDBBBB" d="M192.432,377.955c6.672-1.845-10.654-1.841-16.401-0.688c-5.747,1.153-16.381,6.078-16.542,7.564
		s9.691-0.367,14.98-2.291C179.759,380.616,189.148,378.865,192.432,377.955z"/>
	<path fill="#EDBBBB" d="M206.461,381.966c-5.375-13.146-8.468-20.697-7.478-24.589c0.991-3.893,0.632-15.325-0.648-15.435
		c-1.28-0.108-3.525,8.7-3.765,16.49C194.331,366.223,206.461,381.966,206.461,381.966z"/>
	<path fill="#EDBBBB" d="M209.524,384.491c-8.771,1.036-23.521,9.276-22.97,12.251c0.551,2.977,12.368-3.175,16.895-6.383
		C207.975,387.148,209.524,384.491,209.524,384.491z"/>
	<path fill="#EDBBBB" d="M239.667,396.314c-0.077,0.303-0.367,0.509-0.686,0.474c-6.453-0.731-27.217-10.171-30.967-12.043
		c-1.245-0.623-3.084-1.445-5.408-2.487c-5.844-2.618-14.675-6.573-23.726-11.706c-12.493-7.081-34.73-26.641-34.952-26.837
		c-0.258-0.23-0.288-0.629-0.056-0.896c0.234-0.263,0.632-0.285,0.896-0.055c0.22,0.195,22.36,19.671,34.736,26.686
		c9.003,5.104,17.8,9.043,23.623,11.655c2.338,1.046,4.188,1.874,5.454,2.509c4.493,2.243,24.582,11.24,30.545,11.914
		c0.347,0.04,0.597,0.354,0.559,0.701c-0.004,0.03-0.01,0.06-0.016,0.086H239.667z"/>
	<path fill="#EDBBBB" d="M194.727,508.953c2.638-7.366,9.73-14.128,7.984-21.525c-6.966-6.558-15.656-12.139-25.765-15.357
		c-4.223-1.343-8.718-2.461-13.333-3.412c-0.255,0.572-0.503,1.146-0.711,1.706c-2.083,5.641-3.706,12.524,0.067,17.206
		c1.486,1.845,3.65,3.075,5.018,5.01c2.756,3.906,1.542,9.522,0.638,13.801c-0.489,2.32-1.442,4.568-3.062,6.3
		c-6.37,6.812-14.919,0.218-16.393-6.946c-1.223-5.933,0.688-11.993,1.597-17.982c1.078-7.09,0.726-14.389-1.003-21.351
		c-6.972-0.854-13.977-1.332-20.691-1.455c-2.079,4.459-1.996,9.986,0.713,14.132c3.094,4.734,8.748,7.331,11.138,12.727
		c0.931,2.101,1.1,4.563,0.121,6.642c-2.103,4.469-7.388,4.019-10.551,1.496c-2.438-1.942-3.89-4.836-5.198-7.666
		c-3.074-6.641-5.773-13.454-8.082-20.397c-0.755-2.27-1.502-4.602-2.719-6.636c-8.864,0.565-16.474,1.813-21.663,3.648
		c-1.114,5.252,1.128,11.299,5.735,14.241c2.19,1.399,4.754,2.168,6.853,3.7c2.101,1.531,3.709,4.274,2.76,6.694
		c-1.23,3.143-5.747,3.442-8.781,1.964c-6.027-2.936-8.768-9.81-12.319-15.495c-1.649-2.64-3.993-5.173-6.629-6.896
		c-10.238,3.36-17.917,5.741-20.323,7.975c-3.298,3.06-8.169-2.853-11.361,5.941c-3.193,8.791,3.046,12.207,9.669,22.32
		c1.318,2.011,2.606,4.203,3.945,6.535c8.611-3.023,16.96-7.621,26.431-6.335c3.843,0.521,7.398,2.501,9.844,5.511
		c0.739,0.91,1.417,2.012,1.361,3.194c-0.048,1.015-0.628,1.923-1.245,2.729c-5.601,7.311-16.252,10.249-24.81,6.845
		c-1.641-0.654-3.672-1.35-5.468-1.502c3.25,5.258,7.178,10.915,12.42,16.758c2.774,3.093,7.174,4.394,11.105,3.046
		c2.25-0.771,4.441-1.756,6.506-2.83c7.445-3.874,14.74-8.896,23.286-8.835c2.045,0.014,4.128,0.633,5.57,2.081
		c3.972,3.987,0.462,10.135-2.971,14.255c-3.894,4.673-8.483,9.717-14.554,10.103c-2.473,0.157-4.974-0.505-7.418-0.087
		c-1.284,0.22-2.568,0.934-3.422,1.902c6.411,7.424,13.759,13.962,40.231,25.603l0.042-0.004c3.282-2.287,6.343-5.202,9.298-7.828
		c5.495-4.883,11.607-9.072,18.143-12.438c2.079-1.07,4.75-0.876,6.394,0.789c2.802,2.834,0.137,7.005-2.402,9.72
		c-3.107,3.324-6.214,6.647-9.322,9.973c-1.548,1.654-3.131,3.654-4.101,5.733c26.544,5.909,41.91-4.22,45.25-11.902
		c0.292-1.548,0.632-3.082,1.033-4.602c0.612-9.073-5.202-20.462-2.255-25.843c7.638-13.947,18.236-11.094,19.795-27.267
		c0.553-5.747-1.332-12.911-5.21-20.162c-4.078-0.008-8.069,1.845-9.697,5.566c-1.498,3.431-1.278,8.209-4.643,9.85
		c-2.485,1.213-5.672-0.393-6.9-2.87c-1.23-2.477-0.888-5.467,0.043-8.071H194.727z M162.856,554.714
		c-0.174,1.213-0.801,2.314-1.512,3.313c-2.541,3.573-5.929,6.724-9.708,8.949c-2.929,1.727-10.178,4.287-12.959,1.439
		c-0.743-0.764-1.167-1.913-1.102-3.569c0.079-2.016,1.155-3.858,2.384-5.46c3.229-4.209,7.769-7.374,12.798-9.041
		c2.053-0.682,4.98-1.746,7.067-0.89c1.92,0.789,3.325,3.211,3.032,5.254V554.714z M119.105,518.418
		c1.221,1.051,1.118,2.753,0.603,4.178c-1.845,5.103-6.924,8.012-12.112,5.979c-0.824-0.323-1.643-0.767-2.156-1.49
		c-0.862-1.215-0.64-2.921,0.032-4.251c0.824-1.631,2.148-3.518,3.645-4.602C111.057,516.824,116.763,516.404,119.105,518.418z
		 M125.298,506.679c0.002,0.488-0.044,1.001-0.312,1.411c-0.146,0.229-0.353,0.408-0.557,0.587
		c-0.684,0.599-1.365,1.195-2.047,1.793c-0.188,0.167-0.388,0.337-0.63,0.402c-0.228,0.062-0.472,0.024-0.7-0.031
		c-1.437-0.349-2.647-1.367-3.466-2.601c-0.819-1.23-1.278-2.667-1.6-4.109c-0.257-1.157-0.428-2.387-0.071-3.516
		c0.359-1.132,1.381-2.129,2.568-2.099c0.323,0.008,0.64,0.089,0.947,0.186c3.361,1.074,5.844,4.449,5.868,7.979L125.298,506.679z
		 M186.429,517.738c0.622,0.776,1.142,1.667,1.302,2.647c0.18,1.112-0.113,2.239-0.43,3.321c-0.616,2.101-1.334,4.174-2.148,6.207
		c-0.337,0.842-0.733,1.73-1.5,2.214c-1.193,0.753-2.759,0.239-4.017-0.396c-1.304-0.662-2.576-1.465-3.478-2.618
		c-2.11-2.703-1.694-6.562-0.848-9.885c0.543-2.128,1.528-4.536,3.652-5.091c1.031-0.27,2.128-0.022,3.117,0.374
		c1.694,0.68,3.207,1.804,4.348,3.229L186.429,517.738z"/>
</g>
<path fill="#F5DBDA" d="M253.402,573.349c0.036,0.119,0.042,0.252,0.01,0.381c-0.095,0.381-0.482,0.612-0.862,0.518
	c-22.178-5.563-60.281-24.636-88.101-38.562c-13.437-6.726-25.043-12.534-31.405-15.097c-19.368-7.802-77.033-30.513-77.611-30.743
	c-0.367-0.143-0.545-0.557-0.4-0.919c0.143-0.367,0.557-0.545,0.919-0.4c0.581,0.226,58.252,22.94,77.624,30.745
	c6.415,2.584,18.045,8.404,31.508,15.145c27.762,13.896,65.784,32.927,87.809,38.455c0.252,0.063,0.436,0.25,0.507,0.482
	L253.402,573.349z"/>
<path fill="#F9ECD7" d="M404.029,527.097c-40.791-2.482-78.563-27.463-101.574-61.36c-34.627-51.011-48.406-133.796-7.013-184.965
	c40.08-49.542,113.458-54.199,170.181-34.293c39.842,13.983,74.811,43.785,90.838,82.852
	c37.443,91.27-54.543,200.664-148.936,197.924C406.359,527.22,405.193,527.167,404.029,527.097L404.029,527.097z"/>
<path fill="#F5DDB7" d="M447.439,432.212c7.141,3.874,12.955,12.228,20.824,11.609c7.834-6.108,14.941-14.143,19.846-24.006
	c2.049-4.12,3.908-8.555,5.617-13.141c-0.547-0.353-1.096-0.699-1.639-1.001c-5.459-3.032-12.266-5.788-17.668-2.661
	c-2.129,1.232-3.734,3.26-5.938,4.354c-4.445,2.21-10.016,0.071-14.264-1.534c-2.305-0.869-4.459-2.205-5.98-4.142
	c-5.98-7.615,2.143-15.345,9.729-15.723c6.283-0.313,12.201,2.607,18.201,4.492c7.104,2.231,14.652,3.026,22.07,2.356
	c1.984-7.018,3.584-14.134,4.773-21.003c-4.246-2.84-9.93-3.632-14.615-1.51c-5.348,2.424-8.912,7.814-14.826,9.411
	c-2.305,0.622-4.855,0.406-6.836-0.93c-4.252-2.867-2.953-8.218,0.137-11.063c2.381-2.192,5.58-3.225,8.689-4.12
	c7.303-2.101,14.723-3.791,22.215-5.058c2.447-0.414,4.959-0.811,7.24-1.738c0.826-9.186,0.754-17.193-0.307-22.81
	c-5.213-1.976-11.773-0.634-15.525,3.627c-1.783,2.024-2.979,4.534-4.883,6.446s-4.975,3.129-7.309,1.771
	c-3.029-1.762-2.621-6.442-0.625-9.324c3.969-5.719,11.459-7.441,17.855-10.184c2.971-1.274,5.941-3.278,8.131-5.71
	c-1.826-11.038-3.051-19.296-4.961-22.12c-2.615-3.868,4.221-7.931-4.295-12.6c-8.516-4.672-13.01,1.188-24.439,6.383
	c-2.271,1.032-4.727,2.008-7.332,3.013c1.738,9.315,5.131,18.614,2.309,28.129c-1.145,3.86-3.738,7.195-7.217,9.227
	c-1.051,0.614-2.289,1.136-3.494,0.89c-1.035-0.21-1.873-0.949-2.602-1.71c-6.615-6.906-7.941-18.306-3.09-26.546
	c0.932-1.581,1.965-3.553,2.41-5.372c-5.91,2.501-12.34,5.634-19.168,10.087c-3.615,2.358-5.646,6.667-4.887,10.915
	c0.434,2.43,1.098,4.836,1.873,7.125c2.793,8.256,6.791,16.537,5.371,25.297c-0.338,2.097-1.301,4.136-3.018,5.387
	c-4.723,3.444-10.473-1.134-14.158-5.31c-4.176-4.736-8.625-10.247-8.059-16.539c0.232-2.563,1.307-5.026,1.266-7.599
	c-0.021-1.354-0.551-2.784-1.41-3.814c-8.637,5.402-16.51,11.904-32.656,37.225c0,0.017,0,0.03-0.002,0.044
	c1.828,3.729,4.332,7.334,6.561,10.784c4.139,6.415,7.469,13.352,9.887,20.591c0.77,2.305,0.145,5.012-1.824,6.437
	c-3.35,2.426-7.209-0.971-9.596-4.007c-2.918-3.716-5.836-7.432-8.754-11.147c-1.453-1.851-3.254-3.793-5.232-5.117
	c-10.273,26.304-2.316,43.679,5.037,48.325c1.545,0.543,3.064,1.138,4.559,1.79c9.213,2.068,21.822-2.093,26.879,1.783
	c13.102,10.05,8.494,20.474,24.842,24.64c5.811,1.48,13.461,0.682,21.518-2.148c0.652-4.184-0.613-8.575-4.174-10.832
	c-3.285-2.081-8.221-2.612-9.371-6.326c-0.85-2.742,1.303-5.757,4.039-6.627s5.752-0.044,8.275,1.326V432.212z M405.533,392.248
	c-1.217-0.373-2.248-1.189-3.16-2.077c-3.264-3.175-5.961-7.152-7.645-11.384c-1.307-3.279-2.785-11.125,0.576-13.525
	c0.898-0.642,2.146-0.894,3.836-0.564c2.057,0.402,3.775,1.798,5.225,3.312c3.807,3.981,6.336,9.142,7.246,14.565
	c0.373,2.216,1.004,5.389-0.207,7.395c-1.113,1.847-3.82,2.903-5.873,2.277L405.533,392.248z M449.718,353.106
	c-1.271,1.086-3,0.709-4.383-0.046c-4.945-2.703-7.125-8.377-4.215-13.379c0.463-0.795,1.047-1.563,1.869-1.976
	c1.385-0.691,3.1-0.192,4.359,0.707c1.541,1.104,3.27,2.763,4.143,4.469c1.137,2.216,0.664,8.14-1.775,10.223L449.718,353.106z
	 M460.783,361.322c-0.502-0.075-1.02-0.204-1.396-0.541c-0.211-0.188-0.363-0.428-0.514-0.666c-0.506-0.794-1.012-1.591-1.516-2.386
	c-0.141-0.22-0.283-0.452-0.314-0.71c-0.027-0.243,0.053-0.487,0.145-0.713c0.588-1.419,1.824-2.501,3.219-3.146
	c1.395-0.644,2.939-0.888,4.471-0.988c1.229-0.081,2.516-0.062,3.619,0.485s1.967,1.756,1.748,2.969
	c-0.059,0.329-0.191,0.642-0.342,0.941c-1.637,3.277-5.494,5.291-9.119,4.756V361.322z M439.738,422.301
	c-0.895,0.516-1.891,0.908-2.922,0.916c-1.17,0.01-2.281-0.472-3.34-0.967c-2.059-0.968-4.07-2.032-6.027-3.189
	c-0.811-0.479-1.66-1.026-2.035-1.891c-0.582-1.344,0.191-2.869,1.045-4.059c0.887-1.234,1.912-2.412,3.238-3.152
	c3.109-1.738,7.004-0.698,10.279,0.697c2.1,0.894,4.414,2.287,4.646,4.556c0.111,1.1-0.316,2.188-0.881,3.14
	C442.775,419.982,441.384,421.355,439.738,422.301L439.738,422.301z"/>
<path fill="#F9ECD7" d="M372.048,482.211c-0.129,0.019-0.266,0.004-0.393-0.051c-0.377-0.159-0.551-0.591-0.393-0.968
	c9.225-21.876,34.844-57.954,53.545-84.296c9.033-12.721,16.836-23.711,20.473-29.833c11.078-18.639,43.531-74.213,43.859-74.77
	c0.205-0.353,0.658-0.472,1.008-0.266c0.354,0.206,0.473,0.658,0.266,1.009c-0.324,0.559-32.781,56.141-43.861,74.783
	c-3.67,6.174-11.486,17.186-20.539,29.933c-18.664,26.286-44.225,62.288-53.391,84.015
	C372.519,482.015,372.298,482.176,372.048,482.211L372.048,482.211z"/>
<path fill="#3C251D" d="M540.128,507.22c-0.063,0-0.127-0.016-0.186-0.045l-4.008-2.109l-4.008,2.109
	c-0.141,0.069-0.301,0.058-0.42-0.032c-0.125-0.089-0.184-0.239-0.158-0.391l0.764-4.463l-3.24-3.16
	c-0.109-0.105-0.148-0.264-0.104-0.408c0.045-0.146,0.17-0.25,0.322-0.271l4.48-0.652l2.004-4.059c0.137-0.273,0.578-0.273,0.719,0
	l2.002,4.059l4.482,0.652c0.152,0.021,0.277,0.126,0.322,0.271c0.045,0.145,0.006,0.303-0.104,0.408l-3.24,3.16l0.764,4.463
	c0.025,0.149-0.033,0.302-0.158,0.391C540.292,507.195,540.214,507.22,540.128,507.22z M535.935,504.219
	c0.061,0,0.127,0.016,0.186,0.046l3.477,1.829l-0.664-3.873c-0.021-0.129,0.018-0.261,0.115-0.353l2.814-2.742l-3.889-0.565
	c-0.131-0.018-0.244-0.099-0.303-0.218l-1.738-3.523l-1.738,3.523c-0.059,0.119-0.17,0.2-0.303,0.218l-3.889,0.565l2.814,2.742
	c0.096,0.092,0.137,0.222,0.115,0.353l-0.664,3.873l3.475-1.829c0.061-0.03,0.125-0.046,0.188-0.046H535.935z"/>
<path fill="#3C251D" d="M263.601,251.321h-10.139c-0.194,0-0.353-0.158-0.353-0.353V240.83c0-0.194,0.158-0.353,0.353-0.353h10.139
	c0.194,0,0.353,0.158,0.353,0.353v10.139C263.953,251.163,263.795,251.321,263.601,251.321z M253.815,250.616h9.433v-9.434h-9.433
	V250.616z"/>
<path fill="#3C251D" d="M257.794,249.068c-0.097,0-0.19-0.04-0.257-0.111l-2.772-2.947c-0.133-0.143-0.127-0.364,0.016-0.499
	c0.143-0.133,0.365-0.127,0.5,0.016l2.487,2.642l4.513-5.99c0.119-0.157,0.339-0.187,0.494-0.069
	c0.156,0.117,0.186,0.339,0.069,0.493l-4.767,6.326c-0.063,0.083-0.158,0.135-0.261,0.141H257.794z"/>
<path fill="#3C251D" d="M518.111,285.861h-10.139c-0.193,0-0.354-0.158-0.354-0.353V275.37c0-0.194,0.16-0.353,0.354-0.353h10.139
	c0.193,0,0.354,0.158,0.354,0.353v10.139C518.464,285.703,518.304,285.861,518.111,285.861z M508.326,285.156h9.432v-9.434h-9.432
	V285.156z"/>
<path fill="#3C251D" d="M512.306,283.608c-0.098,0-0.189-0.04-0.258-0.111l-2.771-2.947c-0.133-0.143-0.127-0.364,0.016-0.499
	c0.143-0.133,0.365-0.127,0.5,0.016l2.486,2.642l4.512-5.99c0.119-0.157,0.34-0.185,0.494-0.069
	c0.156,0.116,0.186,0.339,0.068,0.493l-4.766,6.326c-0.063,0.083-0.158,0.135-0.262,0.141H512.306z"/>
<path fill="#3C251D" d="M94.775,581.653H82.189c-0.242,0-0.438-0.196-0.438-0.438V568.63c0-0.242,0.196-0.438,0.438-0.438h12.586
	c0.242,0,0.438,0.196,0.438,0.438v12.586C95.213,581.457,95.017,581.653,94.775,581.653z M82.627,580.777h11.71v-11.71h-11.71
	V580.777z"/>
<path fill="#3C251D" d="M87.567,578.857c-0.121,0-0.235-0.05-0.319-0.137l-3.442-3.658c-0.167-0.177-0.156-0.454,0.018-0.618
	c0.174-0.165,0.452-0.157,0.618,0.018l3.087,3.28l5.603-7.438c0.149-0.193,0.422-0.229,0.612-0.087
	c0.194,0.145,0.232,0.42,0.087,0.612l-5.916,7.852c-0.078,0.104-0.196,0.167-0.325,0.175h-0.024V578.857z"/>
<path fill="#3C251D" d="M530.365,383.561c-0.096,0-0.186-0.038-0.248-0.107c-1.074-1.139-2.098-2.195-3.049-3.177
	c-3.988-4.115-6.625-6.835-6.674-9.197c-0.029-1.435,0.502-2.794,1.494-3.828s2.328-1.621,3.764-1.651h0.113
	c1.701,0,3.264,0.797,4.275,2.158c0.977-1.421,2.576-2.303,4.297-2.338h0.113c2.898,0,5.307,2.358,5.369,5.258
	c0.053,2.565-3.236,6.19-7.402,10.78c-0.586,0.644-1.189,1.31-1.803,1.991c-0.064,0.071-0.154,0.111-0.248,0.113h-0.004
	L530.365,383.561z M525.767,366.278h-0.1c-1.252,0.028-2.42,0.539-3.285,1.443c-0.869,0.903-1.33,2.091-1.305,3.343
	c0.041,2.095,2.742,4.881,6.48,8.739c0.877,0.906,1.816,1.875,2.801,2.916c0.527-0.587,1.049-1.162,1.557-1.721
	c4.063-4.477,7.273-8.012,7.227-10.309c-0.055-2.533-2.156-4.594-4.688-4.594h-0.1c-1.656,0.035-3.188,0.975-3.998,2.451
	c-0.059,0.107-0.17,0.175-0.293,0.177h-0.004c-0.123,0-0.23-0.063-0.293-0.165c-0.861-1.429-2.355-2.283-3.998-2.283
	L525.767,366.278z"/>
<path fill="#FFFFFF" d="M206.97,265.289h188.484c0.092,0,0.166,0.073,0.166,0.166v327.451c0,0.148-0.121,0.27-0.27,0.27H207.073
	c-0.149,0-0.27-0.121-0.27-0.27V265.455C206.804,265.364,206.877,265.289,206.97,265.289L206.97,265.289z"/>
<path fill="#9097CE" d="M391.195,265.79h-177.85c-3.028,0-5.481,2.453-5.481,5.481v24.819h188.815v-24.819
	c0-3.028-2.455-5.481-5.482-5.481H391.195z"/>
<path fill="#FFFFFF" d="M243.906,292.052c0.409,0,0.807-0.188,1.068-0.544c0.428-0.588,0.299-1.414-0.29-1.845l-8.983-6.55
	l10.006-6.229c0.618-0.387,0.807-1.199,0.422-1.819c-0.39-0.622-1.205-0.803-1.821-0.422l-11.667,7.263
	c-0.371,0.232-0.604,0.635-0.622,1.072c-0.016,0.438,0.188,0.856,0.541,1.114l10.564,7.703c0.234,0.172,0.507,0.253,0.779,0.253
	L243.906,292.052z"/>
<path fill="#FFFFFF" d="M350.167,292.052c-0.408,0-0.807-0.188-1.068-0.544c-0.428-0.588-0.299-1.414,0.289-1.845l8.984-6.55
	l-10.006-6.229c-0.619-0.387-0.807-1.199-0.422-1.819c0.389-0.622,1.203-0.803,1.82-0.422l11.666,7.263
	c0.371,0.232,0.605,0.635,0.623,1.072c0.016,0.438-0.189,0.856-0.541,1.114l-10.564,7.703c-0.234,0.172-0.508,0.253-0.779,0.253
	L350.167,292.052z"/>
<path fill="#FFFFFF" d="M330.81,283.358h-61.242c-1.34,0-2.424-1.084-2.424-2.424s1.084-2.424,2.424-2.424h61.242
	c1.34,0,2.424,1.084,2.424,2.424S332.15,283.358,330.81,283.358z"/>
<path fill="#49403E" d="M387.462,596.181H214.957c-6.153,0-11.159-5.008-11.159-11.163V270.316c0-4.43,3.604-8.034,8.032-8.034
	h178.764c4.428,0,8.031,3.604,8.031,8.034v314.702c0,6.155-5.008,11.163-11.158,11.163H387.462z M211.829,268.293
	c-1.116,0-2.019,0.907-2.019,2.023v314.702c0,2.842,2.307,5.15,5.148,5.15h172.506c2.842,0,5.148-2.311,5.148-5.15V270.316
	c0-1.116-0.904-2.023-2.02-2.023H211.829z"/>
<circle fill="#E8F4FF" cx="277.138" cy="570.327" r="4.302"/>
<circle fill="#B9D4EA" cx="294.094" cy="570.327" r="4.302"/>
<circle fill="#E8F4FF" cx="312.568" cy="570.327" r="4.302"/>
<circle fill="#B6D1F0" cx="329.523" cy="570.327" r="4.302"/>
<path fill="#96965F" d="M536.031,605.559H70.636c-2.68,0-4.848-2.168-4.848-4.848c0-2.679,2.168-4.847,4.848-4.847h465.395
	c2.678,0,4.846,2.168,4.846,4.847C540.876,603.391,538.708,605.559,536.031,605.559z"/>
<path fill="#3C251D" d="M178.265,257.653c0-0.081-0.06-0.135-0.085-0.206c-0.024-0.071-0.01-0.151-0.06-0.212
	c-0.01-0.013-0.026-0.011-0.036-0.021c-0.06-0.067-0.143-0.085-0.224-0.125c-0.082-0.037-0.147-0.091-0.234-0.097l-0.024-0.016
	h-35.568c-0.375,0-0.678,0.303-0.678,0.678v22.687c0,0.088,0.062,0.145,0.091,0.223c0.03,0.079,0.024,0.168,0.083,0.233
	c0.004,0.006,0.012,0.002,0.018,0.008c0.123,0.131,0.292,0.214,0.486,0.214h35.553c0.196,0,0.364-0.087,0.487-0.218
	c0.006-0.006,0.014-0.002,0.02-0.008c0.057-0.065,0.049-0.15,0.077-0.226c0.03-0.077,0.093-0.137,0.093-0.225v-22.687V257.653z
	 M142.712,259.605l11.249,9.021l-11.249,10.185v-19.207V259.605z M159.307,271.178l-16.022-12.848h32.348L159.307,271.178z
	 M155.019,269.498c0,0,0.004-0.014,0.008-0.018l3.854,3.091c0.123,0.1,0.273,0.149,0.424,0.149c0.15,0,0.295-0.05,0.42-0.146
	l4.281-3.368l11.799,10.455h-32.009l11.225-10.162L155.019,269.498z M165.086,268.354l11.825-9.309v19.786l-11.825-10.479V268.354z"
	/>
<circle fill="#E06D6A" cx="177.2" cy="258.332" r="6.668"/>
<path fill="#3C251D" d="M427.746,292.627c-1.465,0-14.553-20.065-14.553-27.023c0-8.023,6.527-14.552,14.553-14.552
	c8.023,0,14.551,6.528,14.551,14.552C442.296,272.921,429.271,292.627,427.746,292.627z M427.746,252.143
	c-7.424,0-13.461,6.039-13.461,13.46c0,6.813,11.293,23.019,13.484,25.703c2.182-2.556,13.436-18.876,13.436-25.703
	C441.205,258.18,435.167,252.143,427.746,252.143L427.746,252.143z"/>
<path fill="#3C251D" d="M427.746,275.996c-5.611,0-10.174-4.563-10.174-10.176c0-5.613,4.564-10.177,10.174-10.177
	c5.607,0,10.176,4.563,10.176,10.177C437.921,271.432,433.355,275.996,427.746,275.996z M427.746,256.735
	c-5.008,0-9.082,4.074-9.082,9.085c0,5.01,4.074,9.084,9.082,9.084s9.084-4.074,9.084-9.084
	C436.83,260.809,432.753,256.735,427.746,256.735z"/>
<path fill="#3C251D" d="M66.92,446.661c-0.129,0-0.252-0.054-0.339-0.151c-0.087-0.095-0.129-0.224-0.117-0.351l0.004-0.033
	c0.006-0.048,0.01-0.098,0.01-0.145c0-1.546-1.827-2.805-4.071-2.805c0,0-0.19,0.008-0.194,0.008
	c-0.115,0.038-0.242-0.043-0.329-0.131c-0.089-0.085-0.139-0.204-0.139-0.327v-15.434c-0.002-0.123,0.047-0.239,0.135-0.327
	c0.087-0.085,0.222-0.108,0.329-0.131l0.194,0.008c2.243,0,4.068-1.258,4.068-2.806c0-0.214-0.042-0.436-0.123-0.66
	c-0.05-0.141-0.03-0.295,0.055-0.418c0.085-0.123,0.224-0.194,0.375-0.194l43.187-0.01c0.148,0,0.288,0.071,0.373,0.192
	c0.085,0.121,0.107,0.275,0.058,0.418c-0.082,0.226-0.121,0.45-0.121,0.662c0,1.546,1.825,2.804,4.066,2.804
	c0.167,0,0.327-0.008,0.484-0.02c0.125-0.018,0.25,0.031,0.345,0.119c0.093,0.087,0.146,0.208,0.146,0.335l0.004,15.322
	c0.016,0.046,0.024,0.094,0.024,0.143c0,0.258-0.251,0.498-0.468,0.456c-0.018,0-0.034,0-0.049,0
	c-0.157-0.012-0.315-0.021-0.476-0.021c-2.244,0-4.069,1.259-4.069,2.806c0,0.048,0.006,0.098,0.01,0.146
	c0.012,0.128-0.028,0.273-0.115,0.366c-0.087,0.097-0.208,0.168-0.337,0.168L66.92,446.661z M62.659,442.269
	c2.526,0.093,4.566,1.597,4.722,3.478l41.996-0.008c0.162-1.942,2.331-3.486,4.972-3.486h0.057l-0.004-14.506h-0.057
	c-2.749,0-4.982-1.669-4.984-3.718c0-0.117,0.008-0.238,0.024-0.358l-42.023,0.008c0.016,0.118,0.023,0.239,0.023,0.358
	c0,1.987-2.101,3.616-4.73,3.714v14.519H62.659z"/>
<path fill="#3C251D" d="M108.029,444.619H68.648c-0.252,0-0.456-0.204-0.456-0.455v-18.948c0-0.251,0.204-0.455,0.456-0.455h39.381
	c0.251,0,0.456,0.204,0.456,0.455v18.948C108.485,444.415,108.281,444.619,108.029,444.619z M69.105,443.706h38.468V425.67H69.105
	V443.706z"/>
<path fill="#3C251D" d="M94.759,430.66H82.334l-0.024,0.025v1.11l0.024,0.023h12.425l0.024-0.025v-1.112l-0.024-0.023V430.66z"/>
<path fill="#3C251D" d="M94.839,434.717H82.413l-0.024,0.025v1.112l0.024,0.023h12.426l0.023-0.025v-1.11l-0.023-0.023V434.717z"/>
<path fill="#E8A080" d="M135.363,477.424c-0.701,6.575,3.04,28.782,3.171,30.37l4.36-0.177c0,0,0-1.849,0.264-5.549
	s0.529-15.196,0.529-21.406c0-6.211,2.511-12.949,2.511-12.949l-9.118-2.774c0,0-1.189,7.532-1.718,12.487L135.363,477.424z"/>
<path fill="#E8A080" d="M169.481,553.316c1.004-6.028,0.335-24.446,0.67-38.176l13.729-0.335c0,0-1.885,27.484-3.062,36.811
	c-1.56,12.349-2.293,20.689-2.604,26.296h-7.552C169.937,568.164,168.817,557.294,169.481,553.316L169.481,553.316z"/>
<path fill="#F8E6C7" d="M170.663,577.912h7.552c-0.505,9.076,0.093,10.967,0.093,10.967l-7.136,2.114
	c0.135-3.325-0.137-8.058-0.511-13.081H170.663z"/>
<path fill="#9097CE" d="M171.065,588.881c0,0-0.632,4.646,0.226,8.629l22.299,0.335c0,0,1.438-4.257-3.585-5.4
	c-5.024-1.146-11.451-5.079-11.451-5.079s-4.471,4.157-7.487,1.516H171.065z"/>
<path fill="#F2F2F2" d="M171.283,597.51l22.299,0.335c0,0,0.351-1.047,0.097-2.239l-22.616-0.339
	C171.065,596.027,171.128,596.788,171.283,597.51L171.283,597.51z"/>
<path fill="#333333" d="M177.385,592.298c-0.248-0.143-0.411-0.429-0.434-0.766c-0.02-0.287,0.059-0.568,0.135-0.811
	c0.194-0.618,0.446-1.221,0.743-1.793c0.196-0.377,0.428-0.761,0.781-1.049c0.503-0.404,1.169-0.528,1.758-0.594
	c0.501-0.058,1.017-0.088,1.528-0.09h0.051c0.67,0,1.435,0.062,2.04,0.485c0.271,0.19,0.396,0.433,0.347,0.66
	c-0.04,0.175-0.176,0.319-0.398,0.418c-0.214,0.094-0.452,0.141-0.733,0.141c-0.278,0-0.561-0.043-0.803-0.085
	c-1.09-0.187-2.188-0.422-3.264-0.703c0.115,0.564,0.165,1.142,0.145,1.716c-0.026,0.737-0.168,1.33-0.434,1.812
	c-0.161,0.293-0.349,0.497-0.571,0.626c-0.149,0.086-0.321,0.133-0.488,0.133c-0.145,0-0.283-0.035-0.4-0.103L177.385,592.298z
	 M178.793,588.108c-0.311,0.254-0.523,0.61-0.706,0.957c-0.291,0.557-0.535,1.144-0.725,1.746c-0.071,0.226-0.139,0.466-0.123,0.703
	c0.016,0.236,0.127,0.438,0.288,0.531c0.073,0.042,0.158,0.063,0.253,0.063c0.115,0,0.238-0.034,0.343-0.093
	c0.175-0.102,0.325-0.27,0.462-0.514c0.242-0.439,0.373-0.989,0.396-1.681c0.02-0.582-0.034-1.167-0.157-1.74l-0.034,0.026H178.793z
	 M180.401,587.577c-0.378,0.044-0.791,0.109-1.155,0.266c1.056,0.273,2.132,0.505,3.2,0.688c0.232,0.04,0.498,0.081,0.753,0.081
	c0.24,0,0.44-0.039,0.616-0.117c0.077-0.033,0.208-0.106,0.232-0.214c0.027-0.127-0.099-0.268-0.23-0.358
	c-0.537-0.379-1.249-0.432-1.871-0.432h-0.049C181.396,587.49,180.892,587.519,180.401,587.577z"/>
<path fill="#333333" d="M180.008,595.534l0.071-0.021l0.089-0.051c1.99-1.13,4.251-1.734,6.538-1.75l5.646-0.04
	c0.082,0,0.145-0.067,0.145-0.146s-0.065-0.145-0.147-0.145l-5.646,0.039c-2.336,0.017-4.647,0.637-6.68,1.788l-0.089,0.052
	c-0.069,0.039-0.095,0.129-0.056,0.198c0.028,0.047,0.076,0.073,0.127,0.073L180.008,595.534z"/>
<path fill="#333333" d="M184.699,592.714c0.045,0,0.089-0.021,0.117-0.062l1.088-1.496c0.047-0.065,0.031-0.156-0.032-0.204
	c-0.063-0.048-0.157-0.034-0.204,0.031l-1.017,1.397l-7.772-3.785c-0.074-0.036-0.159-0.004-0.194,0.067
	c-0.036,0.073-0.006,0.158,0.067,0.194l7.881,3.839l0.063,0.016L184.699,592.714z"/>
<path fill="#E06D6A" d="M178.13,579.587c-0.028,0.632-0.05,1.211-0.067,1.762H170.9c-0.038-0.581-0.078-1.167-0.119-1.762h7.346
	H178.13z"/>
<path fill="#BF635F" d="M177.559,551.926c0.071,0,0.143-0.03,0.194-0.086c0.099-0.106,0.093-0.275-0.014-0.374
	c-1.058-0.978-1.237-3.066-1.239-3.088c-0.012-0.146-0.145-0.228-0.283-0.243c-0.145,0.012-0.254,0.141-0.242,0.285
	c0.008,0.095,0.196,2.318,1.405,3.435c0.052,0.047,0.115,0.069,0.181,0.069L177.559,551.926z"/>
<path fill="#E8A080" d="M149.396,553.316c1.004-6.028,0.334-24.446,0.669-38.176l13.73-0.335c0,0-1.885,27.484-3.062,36.811
	c-1.56,12.349-2.293,20.689-2.604,26.296h-7.553C149.852,568.164,148.732,557.294,149.396,553.316z"/>
<path fill="#F8E6C7" d="M150.577,577.912h7.553c-0.505,9.076,0.093,10.967,0.093,10.967l-7.136,2.114
	c0.135-3.325-0.137-8.058-0.512-13.081H150.577z"/>
<path fill="#3C251D" d="M148.558,492.201c-0.67,7.535-3.014,34.157-3.014,34.157s4.52,3.851,8.038,3.851s6.572-1.549,9.084-1.215
	c2.511,0.335,3.978,0.042,3.978,0.042l0.293-11.471l0.88,11.679c0,0,3.692,1.845,7.41,1.885c3.936,0.042,10.673-3.015,10.673-3.015
	l-2.79-33.362l-33.713-6.74l-0.836,4.186L148.558,492.201z"/>
<path fill="#FFFFFF" d="M169.733,441.417c0,0,6.118,1.532,13.797,4.885c0,0-3.963,21.378-6.145,30.581l0.852,18.709
	c-6.607,2.559-13.91,2.674-20.595,0.327l-6.656-2.336l-0.858-18.946l-1.904-28.178c0,0,9.237-4.497,12.198-4.594
	c2.96-0.1,9.314-0.448,9.314-0.448H169.733z"/>
<path fill="#E8A080" d="M168.046,430.773l1.833,12.354l-8.292-0.224l-0.143-10.432L168.046,430.773z"/>
<path fill="#BF635F" d="M162.805,433.02c0,0-0.335,7.618,6.431,6.094l-0.317-2.703L162.805,433.02z"/>
<path fill="#E38367" d="M172.375,426.599c0,0,0.973-0.995,1.635-0.46c0.699,0.566,0.802,2.735-1.263,3.206
	C172.747,429.345,172.206,428.274,172.375,426.599z"/>
<path fill="#3C251D" d="M164.434,428.931c-0.154-0.636-0.073-1.202,0.183-1.264c0.255-0.062,0.586,0.404,0.739,1.04
	c0.152,0.636,0.073,1.203-0.183,1.265C164.919,430.034,164.586,429.568,164.434,428.931z"/>
<path fill="#3C251D" d="M170.002,427.824c-0.145-0.638-0.055-1.203,0.2-1.263c0.256-0.058,0.581,0.412,0.725,1.051
	c0.145,0.638,0.056,1.203-0.2,1.263C170.472,428.931,170.147,428.462,170.002,427.824z"/>
<path opacity="0.25" fill="#FFFFFF" enable-background="new    " d="M169.604,420.021h0.002
	C169.61,419.998,169.608,420.006,169.604,420.021z"/>
<path fill="#BB5151" d="M168.512,431.575c-0.02,0.005-0.04,0-0.056-0.014c-0.123-0.112-0.15-0.222-0.097-0.4
	c0.027-0.095,0.125-0.129,0.202-0.154c0.022-0.008,0.044-0.016,0.063-0.023l0.067-0.03c0.123-0.054,0.238-0.104,0.331-0.186
	c0.095-0.086,0.172-0.229,0.131-0.357c-0.022-0.063-0.069-0.117-0.119-0.174l-0.012-0.013c-0.493-0.563-0.805-1.284-0.878-2.026
	c-0.004-0.034,0.024-0.066,0.056-0.068c0.034-0.004,0.063,0.022,0.067,0.056c0.071,0.72,0.373,1.415,0.848,1.958l0.012,0.012
	c0.056,0.063,0.115,0.131,0.143,0.217c0.061,0.182-0.04,0.376-0.165,0.489c-0.107,0.095-0.238,0.152-0.365,0.208l-0.065,0.029
	c-0.024,0.011-0.05,0.021-0.075,0.028c-0.056,0.018-0.113,0.037-0.121,0.071c-0.038,0.133-0.024,0.194,0.063,0.273
	c0.026,0.023,0.028,0.062,0.004,0.087c-0.008,0.01-0.02,0.016-0.032,0.018H168.512z"/>
<path fill="#944935" d="M171.298,422.485c0,0,1.1,2.374,1.631,3.704c0.043-0.816-0.006-2.041-0.545-3.352
	c-1.407-3.406-5.753-6.427-9.923-5.113c-3.363,1.061-5.959,4.739-5.131,6.257c0.65,1.191,3.712,1.609,13.967-1.494V422.485z"/>
<path fill="#944935" d="M161.455,424.181c-0.206,1.825-0.549,3.635-1.042,5.402c-0.065,0.233-0.19,0.514-0.432,0.52
	c-0.155,0.004-0.284-0.113-0.391-0.227c-1.484-1.569-2.287-3.739-2.261-5.896C158.708,424.039,160.105,424.008,161.455,424.181
	L161.455,424.181z"/>
<path fill="#E8A080" d="M161.228,430.263c0,0-0.444-2.204-2.507-0.874c-0.818,0.527-0.273,3.015,2.307,2.801
	C161.027,432.19,161.852,431.784,161.228,430.263z"/>
<path fill="#FFFFFF" d="M167.256,432.751c-0.521,0.152-0.541,0.654-0.293,1.064c0.412,0.684,1.393,0.772,2.099,0.596
	c0.704-0.174,1.484-0.688,1.562-1.468c0.016-0.163-0.006-0.343-0.119-0.462c-0.121-0.125-0.313-0.145-0.485-0.123
	c-0.339,0.044-0.644,0.222-0.973,0.312c-0.313,0.085-0.638,0.083-0.957,0.055c-0.27-0.023-0.581-0.047-0.829,0.024L167.256,432.751z
	"/>
<path fill="#3C251D" d="M162.737,426.98c0.391-0.864,2.01-1.482,2.879-1.114c0.27,0.115,0.22,0.501-0.03,0.603
	c-0.424,0.17-0.903,0.121-1.343,0.266c-0.436,0.143-0.807,0.416-1.254,0.525c-0.167,0.041-0.331-0.105-0.252-0.277V426.98z"/>
<path fill="#3C251D" d="M171.463,425.618c-0.485,0.034-0.945-0.126-1.429-0.122c-0.464,0.004-0.896,0.18-1.357,0.145
	c-0.311-0.024-0.315-0.429-0.127-0.589c0.726-0.616,2.439-0.444,3.062,0.25C171.717,425.418,171.602,425.61,171.463,425.618z"/>
<path fill="#E8A080" d="M183.284,447.01c3.787,1.229,13.391,21.317,13.391,21.317l21.193,19.688l-4.283,2.684
	c0,0-10.188-8.306-19.3-11.914c-3.821-1.513-14.348-17.162-14.348-17.162l3.349-14.613H183.284z"/>
<path fill="#E8A080" d="M169.467,440.216l1.821,2.406c0,0-0.713,4.546-4.031,4.663c-3.319,0.115-6.282-4.907-6.282-4.907
	l0.713-1.683L169.467,440.216z"/>
<path fill="#E06D6A" d="M161.586,440.394c0,0,1.318,14.288,0.46,20.859c-0.858,6.572-5.434,25.25-5.161,31.088
	c0.273,5.841,2.051,14.364,2.051,14.364s-1.924,1.086-5.416-1.881c-3.492-2.967-7.731-3.704-7.731-3.704s0.121-9.917,1.308-14.348
	c1.187-4.432,1.442-18.383,1.442-18.383l-0.957,4.605c0,0-4.049,0.446-5.505-2.222c-1.457-2.667-4.764-1.47-7.487-4.498
	c0,0,6.656-17.104,9.108-19.316c2.451-2.212,14.768-4.919,14.768-4.919l3.117-1.646H161.586z"/>
<path fill="#E06D6A" d="M169.467,440.216c0,0,2.283,5.232,2.343,7.858c0.059,2.625,1.333,20.168,1.972,28.012
	s4.247,27.669,4.247,27.669s4.149,0.45,5.525-1.675c1.375-2.124-1.171-8.707-2.112-17.484c-0.66-6.161-1.042-18.49-1.042-18.49
	s1.873,5.884,3.127,6.092s3.835-2.324,5.494-4.781c1.657-2.458,5.8-4.807,5.8-4.807s-7.741-14.593-11.579-16.42
	c-3.839-1.827-10.535-4.224-10.535-4.224l-3.238-1.748V440.216z"/>
<g>
	<path fill="#EEBE80" d="M181.661,461.139c0.077,0.557,0.178,1.109,0.303,1.654c0.133,0.579,0.295,1.155,0.46,1.732
		c0.551,1.944,1.12,3.955,0.555,6.104c-0.077,0.296-0.178,0.555-0.292,0.801c-0.277-0.408-0.557-0.938-0.822-1.512
		c0.317-1.685-0.139-3.326-0.628-5.058c-0.169-0.599-0.339-1.195-0.476-1.796c-0.158-0.689-0.279-1.391-0.369-2.099
		c-0.454-0.071-0.896-0.148-1.313-0.233c-1.055-0.21-2.16-0.489-3.122-1.112c-1.258-0.816-2.041-2.305-2.206-4.197
		c-0.266-3.081,0.5-7.191,3.438-9.49c0.699-0.547,1.457-1.009,2.249-1.397c0.535,0.218,1.066,0.438,1.583,0.658
		c-1.098,0.412-2.14,0.982-3.074,1.712c-2.552,1.996-3.194,5.779-2.969,8.413c0.091,1.063,0.452,2.493,1.647,3.266
		c0.787,0.511,1.758,0.753,2.691,0.939c0.307,0.062,0.626,0.119,0.953,0.174c-0.099-1.537-0.032-3.085,0.2-4.585
		c0.174-1.13,0.491-2.577,1.393-3.734c1.054-1.352,2.644-2.007,4.378-2.386c0.277,0.343,0.561,0.706,0.844,1.084
		c-1.653,0.289-3.272,0.813-4.249,2.063c-0.728,0.933-0.995,2.18-1.147,3.162c-0.232,1.499-0.29,3.044-0.17,4.578
		c2.979,0.36,6.431,0.27,8.991-1.31c0.515-0.317,0.971-0.718,1.357-1.172c0.226,0.381,0.444,0.753,0.652,1.11
		c-0.404,0.422-0.858,0.801-1.361,1.109c-2.763,1.706-6.369,1.861-9.504,1.519L181.661,461.139z"/>
	<path fill="#EEBE80" d="M177.84,485.431c0.414-0.107,0.824-0.235,1.235-0.364c0.572-0.181,1.157-0.361,1.755-0.487
		c0.008,0.02,0.016,0.039,0.024,0.057c0.167,0.383,0.335,0.749,0.5,1.103c-0.625,0.11-1.256,0.299-1.909,0.505
		c-0.432,0.135-0.864,0.271-1.298,0.385c-0.731,0.187-1.482,0.299-2.235,0.354c-0.141-0.4-0.277-0.805-0.412-1.209
		c0.791-0.033,1.575-0.143,2.34-0.341V485.431z"/>
	<path fill="#EEBE80" d="M179.866,472.122c0.049-0.012,0.708,0,0.757-0.016c-0.012,0.416,0.131,1.028,0.125,1.465
		c-2.106,0.501-5.063,0.314-7.176-0.107c-0.032-0.416-0.065-0.846-0.101-1.286c2.095,0.478,4.294,0.472,6.393-0.056H179.866z"/>
	<path fill="#EEBE80" d="M158.693,478.882c-0.08,0.42-0.159,0.837-0.236,1.251l-10.503,0.549h-0.004
		c0.034-0.408,0.067-0.824,0.097-1.24l10.386-0.544C158.52,478.893,158.607,478.887,158.693,478.882L158.693,478.882z"/>
	<path fill="#EEBE80" d="M160.845,460.331c-2.112-0.016-3.501,0.493-4.136,1.508c-0.767,1.227-0.208,2.943,0.684,4.099
		c0.547,0.707,1.213,1.312,1.917,1.95c0.442,0.402,0.888,0.824,1.314,1.268c-0.099,0.5-0.202,1.011-0.305,1.528
		c-0.08-0.1-0.147-0.21-0.23-0.306c-0.486-0.557-1.031-1.052-1.609-1.577c-0.711-0.648-1.449-1.315-2.063-2.11
		c-1.07-1.386-1.91-3.658-0.755-5.508c0.876-1.4,2.616-2.106,5.19-2.089l0.674,0.011c0.238,0.004,0.476,0.008,0.713,0.008
		c-0.025,0.43-0.057,0.84-0.093,1.234c-0.214,0-0.428-0.006-0.64-0.008l-0.662-0.01L160.845,460.331z"/>
	<path fill="#EEBE80" d="M154.192,504.259c1.247-0.393,2.343-0.779,3.125-1.54c0.283-0.275,0.507-0.603,0.708-0.947
		c0.099,0.592,0.196,1.147,0.289,1.664c-0.049,0.054-0.083,0.117-0.137,0.169c-1.058,1.026-2.537,1.49-3.617,1.831
		c-0.059,0.018-0.123,0.035-0.182,0.056c-0.275-0.198-0.559-0.412-0.856-0.666c-0.109-0.093-0.22-0.177-0.331-0.266
		C153.524,504.459,153.863,504.361,154.192,504.259L154.192,504.259z"/>
	<path fill="#EEBE80" d="M146.235,492.461c1.819,0.127,3.672-0.145,5.375-0.809l0.456-0.185c0.809-0.331,1.651-0.676,2.583-0.638
		c0.838,0.031,1.573,0.368,2.231,0.761c-0.004,0.266-0.002,0.521,0.008,0.749c0.012,0.244,0.03,0.5,0.045,0.751
		c-0.826-0.568-1.549-0.998-2.333-1.028c-0.675-0.018-1.349,0.252-2.067,0.547l-0.478,0.192c-1.875,0.729-3.918,1.028-5.925,0.888
		c0.032-0.41,0.065-0.82,0.103-1.23L146.235,492.461z"/>
	<path fill="#EEBE80" d="M152.24,443.604c0.404-0.112,0.802-0.222,1.191-0.324c0.018,0.06,0.045,0.11,0.063,0.17
		c0.478,1.729,0.208,3.722-0.719,5.337c-0.811,1.411-2.04,2.394-3.462,2.772c-2.436,0.648-4.752-0.404-6.994-1.419
		c-0.184-0.083-0.362-0.158-0.547-0.242c0.208-0.388,0.41-0.751,0.603-1.084c0.15,0.067,0.299,0.131,0.452,0.198
		c2.045,0.928,4.166,1.883,6.171,1.352c1.102-0.291,2.061-1.069,2.707-2.193c0.767-1.334,0.991-2.977,0.601-4.394
		c-0.018-0.062-0.046-0.115-0.063-0.175L152.24,443.604z"/>
	<path fill="#EEBE80" d="M137.04,460.241c0.581,0.127,1.197,0.236,1.871,0.329c3.54,0.488,7.376,0.429,11.726-0.178
		c1.647-0.23,2.858-0.777,3.603-1.625c0.553-0.633,0.882-1.471,1.173-2.275c0.914-2.517,1.615-5.133,2.086-7.769
		c0.176-0.995,0.398-2.233,1.346-2.988c0.892-0.71,2.003-0.757,3.115-0.468c0.028,0.418,0.056,0.858,0.082,1.31
		c-0.916-0.316-1.804-0.37-2.428,0.123c-0.585,0.466-0.753,1.409-0.9,2.241c-0.483,2.707-1.205,5.391-2.14,7.973
		c-0.331,0.916-0.711,1.873-1.407,2.668c-0.943,1.076-2.412,1.762-4.36,2.033c-4.469,0.622-8.411,0.68-12.065,0.178
		c-0.678-0.093-1.419-0.22-2.184-0.392C136.713,461.026,136.875,460.637,137.04,460.241L137.04,460.241z"/>
</g>
<path fill="#3C251D" d="M159.244,474.594c0.131,0,0.244-0.098,0.262-0.23c0.537-4.044-1.425-14.534-1.76-16.273l2.697-0.886
	l-0.023-0.213l-1.685-14.978c-0.014-0.146-0.135-0.266-0.292-0.234c-0.145,0.017-0.25,0.147-0.232,0.292l1.661,14.766l-2.73,0.897
	l0.045,0.23c0.024,0.119,2.362,12.093,1.797,16.329c-0.018,0.146,0.083,0.28,0.228,0.298c0.012,0.002,0.024,0.002,0.036,0.002
	H159.244z"/>
<path fill="#3C251D" d="M174.014,475.402c0.016,0,0.032-0.002,0.047-0.004c0.143-0.028,0.238-0.165,0.212-0.308
	c-0.408-2.222,1.245-15.678,1.263-15.811l0.018-0.139l-1.758-1.563c0.636-7.85-0.816-15.584-0.832-15.662
	c-0.028-0.143-0.165-0.229-0.309-0.21c-0.143,0.03-0.238,0.167-0.21,0.31c0.014,0.077,1.469,7.832,0.813,15.649l-0.012,0.133
	l1.748,1.554c-0.187,1.519-1.645,13.631-1.241,15.834c0.024,0.129,0.135,0.217,0.26,0.217H174.014z"/>
<path fill="#9097CE" d="M150.979,588.881c0,0-0.632,4.646,0.226,8.629l22.299,0.335c0,0,1.438-4.257-3.585-5.4
	c-5.024-1.146-11.451-5.079-11.451-5.079s-4.471,4.157-7.487,1.516H150.979z"/>
<path fill="#F2F2F2" d="M151.198,597.51l22.298,0.335c0,0,0.351-1.047,0.097-2.239l-22.616-0.339
	C150.979,596.027,151.043,596.788,151.198,597.51L151.198,597.51z"/>
<path fill="#333333" d="M157.299,592.298c-0.248-0.143-0.41-0.429-0.434-0.766c-0.02-0.287,0.06-0.568,0.135-0.811
	c0.194-0.618,0.446-1.221,0.743-1.793c0.196-0.377,0.428-0.761,0.781-1.049c0.503-0.404,1.169-0.528,1.758-0.594
	c0.501-0.058,1.017-0.088,1.528-0.09h0.051c0.67,0,1.435,0.062,2.04,0.485c0.271,0.19,0.396,0.433,0.347,0.66
	c-0.04,0.175-0.176,0.319-0.398,0.418c-0.214,0.094-0.452,0.141-0.733,0.141c-0.277,0-0.561-0.043-0.802-0.085
	c-1.09-0.187-2.188-0.422-3.264-0.703c0.115,0.564,0.165,1.142,0.145,1.716c-0.025,0.737-0.168,1.33-0.434,1.812
	c-0.161,0.293-0.349,0.497-0.571,0.626c-0.149,0.086-0.321,0.133-0.488,0.133c-0.145,0-0.283-0.035-0.4-0.103L157.299,592.298z
	 M158.708,588.108c-0.311,0.254-0.523,0.61-0.706,0.957c-0.291,0.557-0.535,1.144-0.725,1.746c-0.071,0.226-0.139,0.466-0.123,0.703
	c0.016,0.236,0.127,0.438,0.288,0.531c0.073,0.042,0.158,0.063,0.253,0.063c0.115,0,0.238-0.034,0.343-0.093
	c0.174-0.102,0.325-0.27,0.462-0.514c0.242-0.439,0.373-0.989,0.396-1.681c0.02-0.582-0.034-1.167-0.157-1.74l-0.034,0.026H158.708z
	 M160.316,587.577c-0.379,0.044-0.791,0.109-1.156,0.266c1.057,0.273,2.132,0.505,3.201,0.688c0.232,0.04,0.498,0.081,0.753,0.081
	c0.24,0,0.44-0.039,0.617-0.117c0.077-0.033,0.208-0.106,0.231-0.214c0.028-0.127-0.099-0.268-0.229-0.358
	c-0.537-0.379-1.249-0.432-1.871-0.432h-0.049C161.311,587.49,160.807,587.519,160.316,587.577z"/>
<path fill="#333333" d="M159.923,595.534l0.071-0.021l0.089-0.051c1.99-1.13,4.25-1.734,6.538-1.75l5.646-0.04
	c0.081,0,0.145-0.067,0.145-0.146s-0.065-0.145-0.146-0.145l-5.646,0.039c-2.336,0.017-4.647,0.637-6.681,1.788l-0.089,0.052
	c-0.069,0.039-0.095,0.129-0.056,0.198c0.028,0.047,0.075,0.073,0.127,0.073L159.923,595.534z"/>
<path fill="#333333" d="M164.614,592.714c0.045,0,0.089-0.021,0.117-0.062l1.088-1.496c0.048-0.065,0.032-0.156-0.032-0.204
	c-0.063-0.048-0.156-0.034-0.204,0.031l-1.017,1.397l-7.772-3.785c-0.073-0.036-0.158-0.004-0.194,0.067
	c-0.036,0.073-0.006,0.158,0.067,0.194l7.881,3.839l0.063,0.016L164.614,592.714z"/>
<path fill="#E06D6A" d="M158.044,579.587c-0.027,0.632-0.049,1.211-0.067,1.762h-7.162c-0.038-0.581-0.078-1.167-0.119-1.762h7.346
	H158.044z"/>
<path fill="#BF635F" d="M157.474,551.926c0.072,0,0.143-0.03,0.194-0.086c0.099-0.106,0.093-0.275-0.014-0.374
	c-1.059-0.978-1.237-3.066-1.239-3.088c-0.01-0.146-0.148-0.228-0.283-0.243c-0.145,0.012-0.254,0.141-0.242,0.285
	c0.008,0.095,0.196,2.318,1.405,3.435c0.052,0.047,0.115,0.069,0.181,0.069L157.474,551.926z"/>
<path fill="#3C251D" d="M171.657,495.655c0.376,0,0.728-0.012,1.048-0.037c0.087-0.008,0.153-0.085,0.145-0.171
	c-0.006-0.083-0.077-0.146-0.158-0.146h-0.014c-4.229,0.36-12.867-1.637-13.054-2.305c0.089-0.188,1.272-0.018,2.218,0.115
	c2.281,0.324,5.725,0.811,7.964-0.692c0.071-0.049,0.091-0.148,0.042-0.22c-0.048-0.071-0.147-0.091-0.22-0.043
	c-2.134,1.437-5.509,0.959-7.743,0.642c-1.473-0.208-2.36-0.333-2.552,0.085c-0.028,0.058-0.058,0.177,0.04,0.312
	c0.636,0.911,8.056,2.461,12.283,2.461H171.657z"/>
<path fill="#FFFFFF" d="M164.143,510.233c0.071,0,0.148-0.01,0.228-0.038c0.436-0.148,0.89-0.649,1.246-3.301
	c0.218-1.613,0.058-3.199-0.073-4.474c-0.113-1.123-0.244-2.397,0.101-2.619c0.246-0.159,0.315-0.486,0.157-0.731
	c-0.161-0.246-0.49-0.313-0.731-0.156c-0.888,0.574-0.751,1.916-0.579,3.614c0.131,1.282,0.277,2.732,0.077,4.225
	c-0.214,1.582-0.444,2.177-0.553,2.383c-0.133,0.006-0.262,0.06-0.361,0.16c-0.2,0.208-0.198,0.537,0.006,0.741
	c0.101,0.102,0.273,0.194,0.479,0.194L164.143,510.233z"/>
<path fill="#FFFFFF" d="M172.032,508.277c0.165,0,0.327-0.077,0.43-0.22c0.168-0.238,0.115-0.569-0.123-0.737
	c-0.933-0.668-0.842-3.264-0.792-4.659c0.012-0.327,0.021-0.62,0.021-0.856c0-1.646-1.597-3.335-1.667-3.404
	c-0.204-0.21-0.535-0.214-0.747-0.016c-0.21,0.202-0.218,0.537-0.016,0.747c0.382,0.4,1.373,1.66,1.373,2.673
	c0,0.229-0.01,0.506-0.021,0.82c-0.063,1.815-0.163,4.559,1.232,5.558c0.093,0.067,0.202,0.099,0.307,0.099L172.032,508.277z"/>
<path fill="#E8A080" d="M214.887,486.979l6.264,2.309c0,0,4.77,3.365,4.57,4.087c-0.2,0.721-4.217,4.714-4.217,4.714
	s-2.277-2.738-4.98-5.751c-0.04-0.045-5.382-3.252-5.382-3.252l3.744-2.106H214.887z"/>
<path fill="#E8A080" d="M218.76,488.614c0,0,2.346-0.087,5.636,0.693c1.254,0.298,4.423-0.063,4.188,0.756
	c-0.234,0.818-4.191,0.646-4.302,0.896s1.284,1.932,1.284,1.932l-3.335-1.121l-3.47-3.153V488.614z"/>
<path fill="#E8A080" d="M224.513,492.137c0,0,7.043,4.228,6.792,4.869c-0.252,0.643-6.088-2.642-6.088-2.642s5.612,4.688,5.265,5.26
	c-0.347,0.572-6.565-3.981-6.565-3.981s4.493,5.52,4.043,5.934c-0.45,0.414-5.391-4.69-5.391-4.69s2.763,4.993,2.353,5.354
	c-0.41,0.36-3.415-4.152-3.415-4.152l-2.021-2.967l5.03-2.984H224.513z"/>
<path fill="#E8A080" d="M142.141,503.82l1.324,6.544c0,0-0.359,5.826-1.078,6.034c-0.717,0.208-6.227-1.113-6.227-1.113
	s1.136-3.377,2.281-7.258c0.018-0.058-0.059-6.288-0.059-6.288l3.757,2.081H142.141z"/>
<path fill="#E8A080" d="M142.783,507.976c0,0,1.306,1.949,2.37,5.16c0.406,1.225,2.376,3.731,1.556,3.961
	c-0.82,0.23-2.75-3.228-3.02-3.192c-0.27,0.038-0.969,2.106-0.969,2.106l-0.797-3.428l0.86-4.609V507.976z"/>
<path fill="#E8A080" d="M142.805,514.721c0,0,0.099,8.215-0.579,8.338c-0.678,0.122-0.947-6.57-0.947-6.57s-1.042,7.237-1.712,7.244
	c-0.668,0.006-0.058-7.68-0.058-7.68s-2.338,6.722-2.927,6.556c-0.588-0.164,1.162-7.051,1.162-7.051s-2.8,4.972-3.324,4.813
	c-0.521-0.161,1.74-5.087,1.74-5.087l1.462-3.278l5.18,2.713L142.805,514.721z"/>
<path fill="#944935" d="M161.495,424.683c0.145-0.494,0.549-0.864,0.963-1.17c1.823-1.346,4.11-1.92,6.367-2.133
	c0.383-0.035,0.765-0.061,1.149-0.037c0.878,0.058,1.716,0.385,2.513,0.759c0.297,0.139,0.61,0.304,0.763,0.595
	c0.091,0.175,0.113,0.375,0.133,0.569c0.022,0.2,0.04,0.416-0.062,0.59c-0.19,0.329-0.662,0.315-1.036,0.252
	c-1.021-0.177-2.027-0.42-3.017-0.729c0.127,0.129,0.25,0.27,0.307,0.442c0.058,0.172,0.034,0.38-0.099,0.503
	c-0.08,0.073-0.187,0.107-0.292,0.131c-0.809,0.19-1.712-0.109-2.248-0.743c0,0.323,0,0.646-0.002,0.969
	c0,0.104-0.004,0.217-0.069,0.298c-0.04,0.048-0.095,0.079-0.152,0.103c-0.604,0.254-1.278-0.091-1.841-0.426
	c-0.459-0.273-0.921-0.547-1.381-0.82c-0.129,0.452-0.258,0.901-0.389,1.354c-0.065,0.229-0.139,0.474-0.315,0.636
	c-0.286,0.266-0.779,0.219-1.057-0.055c-0.277-0.273-0.347-0.714-0.238-1.089V424.683z"/>
<path opacity="0.37" fill="#3B3348" enable-background="new    " d="M243.89,349.935h117.209c6.023,0,10.908,4.883,10.908,10.907
	v12.326l15.109,8.203l-15.109,10.025v14.698c0,6.024-4.885,10.908-10.908,10.908H243.89c-6.024,0-10.912-4.884-10.912-10.908
	v-45.253C232.979,354.818,237.866,349.935,243.89,349.935L243.89,349.935z"/>
<path fill="#FFFFFF" d="M241.514,347.298h117.208c6.025,0,10.908,4.883,10.908,10.907v12.326l15.111,8.203L369.63,388.76v14.698
	c0,6.024-4.883,10.908-10.908,10.908H241.514c-6.025,0-10.912-4.884-10.912-10.908v-45.253
	C230.603,352.18,235.489,347.298,241.514,347.298z"/>
<path fill="#B6BFF0" d="M243.939,357.777h38.652c0.709,0,1.284,0.574,1.284,1.284v3.02c0,0.71-0.575,1.284-1.284,1.284h-38.652
	c-0.709,0-1.284-0.574-1.284-1.284v-3.02C242.655,358.351,243.23,357.777,243.939,357.777z"/>
<path fill="#DEE7FA" d="M244.023,383.276h47.392c0.466,0,0.844,0.378,0.844,0.844v1.98c0,0.466-0.378,0.844-0.844,0.844h-47.392
	c-0.466,0-0.844-0.378-0.844-0.844v-1.98C243.179,383.654,243.557,383.276,244.023,383.276z"/>
<path fill="#DEE7FA" d="M244.023,394.803h47.392c0.466,0,0.844,0.378,0.844,0.845v1.979c0,0.467-0.378,0.845-0.844,0.845h-47.392
	c-0.466,0-0.844-0.378-0.844-0.845v-1.979C243.179,395.181,243.557,394.803,244.023,394.803z"/>
<path fill="#DEE7FA" d="M301.66,383.276h47.393c0.465,0,0.844,0.378,0.844,0.844v1.98c0,0.466-0.379,0.844-0.844,0.844H301.66
	c-0.465,0-0.844-0.378-0.844-0.844v-1.98C300.816,383.654,301.195,383.276,301.66,383.276z"/>
<path fill="#DEE7FA" d="M244.023,373.147h111.492c0.465,0,0.844,0.378,0.844,0.845v1.979c0,0.466-0.379,0.844-0.844,0.844H244.023
	c-0.466,0-0.844-0.378-0.844-0.844v-1.979C243.179,373.525,243.557,373.147,244.023,373.147z"/>
<path opacity="0.37" fill="#3B3348" enable-background="new    " d="M363.804,450.004H246.595c-6.024,0-10.908,4.883-10.908,10.907
	v12.327l-15.111,8.202l15.111,10.025v14.699c0,6.024,4.883,10.907,10.908,10.907h117.209c6.023,0,10.912-4.883,10.912-10.907
	v-45.254C374.716,454.886,369.828,450.004,363.804,450.004z"/>
<path fill="#FFFFFF" d="M366.179,447.364H248.971c-6.024,0-10.907,4.883-10.907,10.907v12.327l-15.111,8.202l15.111,10.025v14.699
	c0,6.024,4.883,10.907,10.907,10.907h117.208c6.025,0,10.912-4.883,10.912-10.907v-45.254
	C377.091,452.247,372.205,447.364,366.179,447.364z"/>
<path fill="#B6BFF0" d="M325.103,457.844h38.65c0.711,0,1.285,0.575,1.285,1.284v3.021c0,0.709-0.574,1.284-1.285,1.284h-38.65
	c-0.711,0-1.285-0.575-1.285-1.284v-3.021C323.818,458.419,324.392,457.844,325.103,457.844z"/>
<path fill="#DEE7FA" d="M316.279,483.344h47.393c0.467,0,0.844,0.378,0.844,0.845v1.979c0,0.466-0.377,0.845-0.844,0.845h-47.393
	c-0.465,0-0.844-0.379-0.844-0.845v-1.979C315.435,483.722,315.814,483.344,316.279,483.344z"/>
<path fill="#DEE7FA" d="M316.279,494.873h47.393c0.467,0,0.844,0.378,0.844,0.844v1.98c0,0.466-0.377,0.844-0.844,0.844h-47.393
	c-0.465,0-0.844-0.378-0.844-0.844v-1.98C315.435,495.251,315.814,494.873,316.279,494.873z"/>
<path fill="#DEE7FA" d="M258.64,483.344h47.393c0.465,0,0.844,0.378,0.844,0.845v1.979c0,0.466-0.379,0.845-0.844,0.845H258.64
	c-0.466,0-0.844-0.379-0.844-0.845v-1.979C257.796,483.722,258.174,483.344,258.64,483.344z"/>
<path fill="#DEE7FA" d="M252.178,473.214h111.492c0.467,0,0.844,0.378,0.844,0.845v1.979c0,0.467-0.377,0.845-0.844,0.845H252.178
	c-0.466,0-0.844-0.378-0.844-0.845v-1.979C251.333,473.592,251.711,473.214,252.178,473.214z"/>
<ellipse fill="#3C251D" cx="436.816" cy="581.043" rx="20.629" ry="23.17"/>
<path fill="#2B2B3A" d="M438.05,604.221h-8.559v-46.363h8.559V604.221z"/>
<ellipse fill="#3C251D" cx="429.771" cy="581.043" rx="20.629" ry="23.17"/>
<path fill="#DEE7FA" d="M413.447,581.043c0-9.734,7.051-17.653,15.719-17.653s15.719,7.919,15.719,17.653
	s-7.051,17.653-15.719,17.653S413.447,590.777,413.447,581.043z M416.066,581.043c0,8.111,5.877,14.713,13.1,14.713
	c7.225,0,13.1-6.6,13.1-14.713s-5.875-14.71-13.1-14.71C421.943,566.333,416.066,572.931,416.066,581.043z"/>
<path fill="#DEE7FA" d="M422.287,581.043c0-4.265,3.08-7.723,6.877-7.723c3.799,0,6.877,3.458,6.877,7.723s-3.08,7.724-6.877,7.724
	S422.287,585.307,422.287,581.043z"/>
<path fill="#DEE7FA" d="M428.546,577.644l-1.801-11.571h6.059l-2.949,11.486L428.546,577.644z"/>
<path fill="#DEE7FA" d="M428.546,585.669l-1.801,11.9h6.059l-2.949-11.651L428.546,585.669z"/>
<path fill="#DEE7FA" d="M424.898,579.695l-9.674-4.958l3.412-5.622l6.863,9.261L424.898,579.695z"/>
<path fill="#DEE7FA" d="M425.558,583.172l-7.387,8.591l-3.584-5.487l10.063-4.182L425.558,583.172z"/>
<path fill="#DEE7FA" d="M432.931,579.695l9.674-4.958l-3.414-5.622l-6.861,9.261L432.931,579.695z"/>
<path fill="#DEE7FA" d="M432.271,583.172l7.389,8.591l3.58-5.487l-10.061-4.182L432.271,583.172z"/>
<ellipse fill="#3C251D" cx="270.982" cy="581.043" rx="20.63" ry="23.17"/>
<path fill="#3C251D" d="M272.219,604.221h-8.559v-46.363h8.559V604.221z"/>
<ellipse fill="#3C251D" cx="263.938" cy="581.043" rx="20.63" ry="23.17"/>
<path fill="#DEE7FA" d="M247.614,581.043c0-9.734,7.051-17.653,15.719-17.653s15.719,7.919,15.719,17.653
	s-7.051,17.653-15.719,17.653S247.614,590.777,247.614,581.043z M250.234,581.043c0,8.111,5.875,14.713,13.099,14.713
	s13.1-6.6,13.1-14.713c0-8.111-5.876-14.71-13.1-14.71S250.234,572.931,250.234,581.043z"/>
<path fill="#DEE7FA" d="M256.457,581.043c0-4.265,3.08-7.723,6.876-7.723c3.799,0,6.877,3.458,6.877,7.723s-3.08,7.724-6.877,7.724
	S256.457,585.307,256.457,581.043z"/>
<path fill="#DEE7FA" d="M262.715,577.644l-1.801-11.571h6.058l-2.947,11.486L262.715,577.644z"/>
<path fill="#DEE7FA" d="M262.715,585.669l-1.801,11.9h6.058l-2.947-11.651L262.715,585.669z"/>
<path fill="#DEE7FA" d="M259.064,579.695l-9.673-4.958l3.413-5.622l6.865,9.261L259.064,579.695z"/>
<path fill="#DEE7FA" d="M259.724,583.172l-7.386,8.591l-3.583-5.487l10.063-4.182L259.724,583.172z"/>
<path fill="#DEE7FA" d="M267.099,579.695l9.673-4.958l-3.413-5.622l-6.863,9.261L267.099,579.695z"/>
<path fill="#DEE7FA" d="M266.44,583.172l7.386,8.591l3.581-5.487l-10.061-4.182L266.44,583.172z"/>
<path fill="#3C251D" d="M476.154,576.709l-0.402-13.872l-10.455,4.825l3.82,9.852l6.232-0.604L476.154,576.709z"/>
<path fill="#0063CB" d="M474.072,586.023H173.458l-8.834-18.764l3.86-20.64c0,0-2.657-12.079-0.297-14.742
	c0.892-1.005,16.631-5.897,16.631-5.897s1.336-5.763,2.45-7.17s35.563-34.108,89.315-34.108c53.752,0,81.792,1.534,85.057,1.534
	s35.691,18.356,50.541,33.1c0,0,54.764,2.893,59.813,20.582c5.049,17.691,4.752,25.731,4.752,25.731s-7.129,0.268-6.83,5.093
	c0.297,4.825,8.314,4.556,8.314,4.556l-4.158,10.722V586.023z"/>
<path fill="#DEE7FA" d="M412.044,545.871c0,0-35.221-6.407-43.857-10.023c0,0,1.328,16.063,16.639,17.962
	c15.313,1.901,25.418-3.085,25.418-3.085L412.044,545.871z"/>
<path fill="#000091" d="M476.746,565.726c0,0-7.129,0.268-6.83,5.093c0.297,4.825,8.314,4.556,8.314,4.556l-4.158,10.722H173.458
	l-8.834-18.763l0.603-3.217H476.71c0.055,1.076,0.037,1.609,0.037,1.609H476.746z"/>
<path fill="#DEE7FA" d="M462.498,544.414c0,0,4.045-1.354,9.672-3.321c0.973,3.454,1.738,6.524,2.344,9.237
	c-5.926-0.198-9.543-1.365-9.543-1.365l-2.471-4.548L462.498,544.414z"/>
<path fill="#3C251D" d="M413.23,575.099v-5.025c0,0-27.742-7.035-33.771-6.433c-6.031,0.603-3.146,10.299-0.805,11.86
	C379.861,576.306,404.585,577.714,413.23,575.099z"/>
<g>
	<defs>
		<path id="SVGID_5_" d="M303.699,519.55h-82.89c-0.601,0-1.171-0.24-1.558-0.656l-8.236-8.841
			c-0.814-0.876-0.566-2.199,0.533-2.771c7.933-4.112,37.166-18.222,63.553-17.488c7.941,0.222,25.084,18.368,30.399,27.051
			c0.742,1.215-0.26,2.703-1.799,2.703L303.699,519.55z"/>
	</defs>
	<clipPath id="SVGID_6_">
		<use xlink:href="#SVGID_5_"  overflow="visible"/>
	</clipPath>
	<g clip-path="url(#SVGID_6_)">
		<path fill="#9097CE" d="M306.685,525.847H204.16v-37.257h102.525V525.847z"/>
	</g>
</g>
<path fill="#684B43" d="M208.122,508.198l0.876-0.489c0.343-0.192,35.354-19.521,66.131-18.718
	c9.538,0.266,30.229,23.634,32.598,30.314l0.373,1.049h-86.286c-1.498,0-2.919-0.597-3.884-1.634l-9.806-10.522H208.122z
	 M300.572,511.483c-7.259-8.995-19.589-20.719-25.499-20.884c-22.504-0.626-47.392,9.802-58.796,15.26
	c-2.854,1.365-3.571,4.757-1.492,6.988l3.973,4.265c0.965,1.034,2.386,1.633,3.884,1.633h73.816c4.141,0,6.555-4.241,4.116-7.264
	L300.572,511.483z"/>
<g>
	<defs>
		<path id="SVGID_7_" d="M410.519,518.477c0,0-52.268-3.217-95.033,1.072c0,0-13.361-20.104-28.211-29.484l80.184-0.537
			c0,0,27.025,13.133,43.061,28.947V518.477z"/>
	</defs>
	<clipPath id="SVGID_8_">
		<use xlink:href="#SVGID_7_"  overflow="visible"/>
	</clipPath>
	<g clip-path="url(#SVGID_8_)">
		<path fill="#9097CE" d="M412.158,522.898H288.323v-37.526h123.835V522.898z"/>
	</g>
</g>
<path fill="#684B43" d="M264.556,490.366c0,0-5.901,11.661-8.018,28.747l-5.791,0.2c0,0,1.002-18.192,10.135-28.547l3.674-0.402
	V490.366z"/>
<path fill="#63637E" d="M220.232,518.61l10.246-19.701l2.338-0.703l-10.691,21.31L220.232,518.61z"/>
<path opacity="0.46" fill="#070707" enable-background="new    " d="M209.198,508.069l0.535,0.642l-9.74,6.627
	c2.297,2.776,17.426,21.376,18.825,31.23c0.218,1.532,0.442,3.149,0.67,4.8c1.147,8.274,2.703,19.515,3.853,21.118h24.94
	c-2.152-38,4.066-53.595,4.128-53.749l0.834,0.279c-0.063,0.152-6.218,15.638-4.07,53.468h47.461
	c0.043-3.871,0.688-34.588,9.836-53.102l0.814,0.329c-9.649,19.528-9.763,52.842-9.763,53.177v0.402h-74.577l-0.131-0.117
	c-1.278-1.155-2.497-9.344-4.209-21.704c-0.228-1.649-0.452-3.266-0.67-4.796c-1.453-10.228-18.744-30.961-18.918-31.169
	l-0.27-0.321l10.452-7.11V508.069z"/>
<path fill="#684B43" d="M170.839,586.023c-0.271-1.665-0.418-3.385-0.418-5.148c0-14.417,9.498-26.111,21.27-26.304v-0.036h8.945
	v0.098c11.304,0.82,20.27,12.237,20.27,26.24c0,1.762-0.143,3.483-0.414,5.148h-49.655L170.839,586.023z"/>
<path fill="#684B43" d="M316.921,586.023c-0.271-1.665-0.418-3.385-0.418-5.148c0-14.417,9.498-26.111,21.27-26.304v-0.036h8.945
	v0.098c11.305,0.82,20.27,12.237,20.27,26.24c0,1.762-0.143,3.483-0.414,5.148h-49.654L316.921,586.023z"/>
<ellipse fill="#3C251D" cx="342.332" cy="581.043" rx="20.631" ry="23.17"/>
<path fill="#3C251D" d="M343.566,604.221h-8.559v-46.363h8.559V604.221z"/>
<ellipse fill="#3C251D" cx="335.287" cy="581.043" rx="20.629" ry="23.17"/>
<path fill="#DEE7FA" d="M318.962,581.043c0-9.734,7.051-17.653,15.719-17.653c8.67,0,15.721,7.919,15.721,17.653
	s-7.051,17.653-15.721,17.653C326.013,598.696,318.962,590.777,318.962,581.043z M321.583,581.043
	c0,8.111,5.875,14.713,13.098,14.713c7.225,0,13.1-6.6,13.1-14.713c0-8.111-5.875-14.71-13.1-14.71
	C327.458,566.333,321.583,572.931,321.583,581.043z"/>
<path fill="#DEE7FA" d="M327.804,581.043c0-4.265,3.078-7.723,6.875-7.723c3.799,0,6.877,3.458,6.877,7.723
	s-3.078,7.724-6.877,7.724S327.804,585.307,327.804,581.043z"/>
<path fill="#DEE7FA" d="M334.062,577.644l-1.801-11.571h6.057l-2.945,11.486L334.062,577.644z"/>
<path fill="#DEE7FA" d="M334.062,585.669l-1.801,11.9h6.057l-2.945-11.651L334.062,585.669z"/>
<path fill="#DEE7FA" d="M330.414,579.695l-9.674-4.958l3.414-5.622l6.861,9.261L330.414,579.695z"/>
<path fill="#DEE7FA" d="M331.074,583.172l-7.387,8.591l-3.582-5.487l10.061-4.182L331.074,583.172z"/>
<path fill="#DEE7FA" d="M338.447,579.695l9.674-4.958l-3.412-5.622l-6.863,9.261L338.447,579.695z"/>
<path fill="#DEE7FA" d="M337.787,583.172l7.387,8.591l3.584-5.487l-10.063-4.182L337.787,583.172z"/>
<ellipse fill="#3C251D" cx="198.195" cy="581.043" rx="20.63" ry="23.17"/>
<path fill="#3C251D" d="M199.43,604.221h-8.56v-46.363h8.56V604.221z"/>
<ellipse fill="#3C251D" cx="191.148" cy="581.043" rx="20.63" ry="23.17"/>
<path fill="#DEE7FA" d="M174.824,581.043c0-9.734,7.051-17.653,15.719-17.653c8.668,0,15.719,7.919,15.719,17.653
	s-7.051,17.653-15.719,17.653C181.875,598.696,174.824,590.777,174.824,581.043L174.824,581.043z M177.444,581.043
	c0,8.111,5.876,14.713,13.1,14.713c7.223,0,13.099-6.6,13.099-14.713c0-8.111-5.876-14.71-13.099-14.71
	C183.32,566.333,177.444,572.931,177.444,581.043L177.444,581.043z"/>
<path fill="#DEE7FA" d="M183.667,581.043c0-4.265,3.08-7.723,6.877-7.723c3.799,0,6.876,3.458,6.876,7.723s-3.08,7.724-6.876,7.724
	C186.746,588.766,183.667,585.307,183.667,581.043z"/>
<path fill="#DEE7FA" d="M189.925,577.644l-1.801-11.571h6.058l-2.947,11.486L189.925,577.644z"/>
<path fill="#DEE7FA" d="M189.925,585.669l-1.801,11.9h6.058l-2.947-11.651L189.925,585.669z"/>
<path fill="#DEE7FA" d="M186.277,579.695l-9.673-4.958l3.413-5.622l6.863,9.261L186.277,579.695z"/>
<path fill="#DEE7FA" d="M186.935,583.172l-7.386,8.591l-3.581-5.487l10.061-4.182L186.935,583.172z"/>
<path fill="#DEE7FA" d="M194.309,579.695l9.675-4.958l-3.413-5.622l-6.865,9.261L194.309,579.695z"/>
<path fill="#DEE7FA" d="M193.651,583.172l7.386,8.591l3.583-5.487l-10.063-4.182L193.651,583.172z"/>
<path fill="#3C251D" d="M450.933,543.739h-26.73c-1.043,0-1.984,0.628-2.385,1.591l-4.346,10.464
	c-0.27,0.647-0.264,1.375,0.016,2.02l7.533,17.342c0.41,0.943,1.338,1.554,2.367,1.554h29.559c1.232,0,2.293-0.872,2.531-2.081
	l3.549-17.904c0.164-0.831-0.088-1.687-0.676-2.295l-9.559-9.901c-0.488-0.503-1.158-0.788-1.857-0.788H450.933z"/>
<g>
	<path fill="#684B43" d="M424.281,575.476l-7.533-17.343c-0.361-0.836-0.369-1.801-0.02-2.647l4.346-10.461
		c0.527-1.269,1.754-2.087,3.127-2.087h26.732c0.914,0,1.803,0.376,2.436,1.034l9.559,9.9c0.771,0.799,1.102,1.925,0.885,3.011
		l-3.547,17.905c-0.311,1.581-1.707,2.729-3.318,2.729h-29.559c-1.35,0-2.568-0.799-3.107-2.037V575.476z M424.203,544.545
		c-0.723,0-1.367,0.431-1.643,1.097l-4.346,10.461c-0.184,0.444-0.18,0.949,0.012,1.39l7.533,17.342
		c0.281,0.65,0.922,1.07,1.631,1.07h29.559c0.846,0,1.576-0.603,1.744-1.433l3.547-17.905c0.113-0.57-0.063-1.161-0.467-1.579
		l-9.557-9.901c-0.334-0.345-0.799-0.543-1.281-0.543h-26.73L424.203,544.545z"/>
	<path fill="#684B43" d="M455.396,547.89h-33.908v-1.386h33.908V547.89z"/>
	<path fill="#684B43" d="M458.615,551.192h-38.598v-1.386h38.598V551.192z"/>
	<path fill="#684B43" d="M461.777,554.86h-43.975v-1.522h43.975V554.86z"/>
	<path fill="#684B43" d="M462.533,558.429h-44.881v-1.522h44.881V558.429z"/>
	<path fill="#684B43" d="M462.533,562.448h-43.625v-1.521h43.625V562.448z"/>
	<path fill="#684B43" d="M461.478,566.269h-40.506v-1.522h40.506V566.269z"/>
	<path fill="#684B43" d="M460.576,570.34h-38.197v-1.522h38.197V570.34z"/>
	<path fill="#684B43" d="M460.271,573.807h-36.488v-1.521h36.488V573.807z"/>
</g>
<path fill="#63637E" d="M230.912,530.673h-13.432c-0.029,0-0.052-0.022-0.052-0.052v-3.248c0-0.028,0.023-0.051,0.052-0.051h13.432
	c0.028,0,0.052,0.022,0.052,0.051v3.248C230.963,530.65,230.94,530.673,230.912,530.673z"/>
<path fill="#3C251D" d="M268.838,530.673h-13.432c-0.029,0-0.052-0.022-0.052-0.052v-3.248c0-0.028,0.023-0.051,0.052-0.051h13.432
	c0.028,0,0.051,0.022,0.051,0.051v3.248C268.89,530.65,268.867,530.673,268.838,530.673z"/>
<path fill="#EAAB72" d="M167.973,542.332h8.444c0,0,1.809,9.448-8.444,9.047V542.332z"/>
<path fill="#E06D6A" d="M299.298,516.965l3.818,2.01c0,0,1.406-0.301,1.508-1.105s-4.322-2.713-4.322-2.713L299.298,516.965z"/>
<path fill="#000091" d="M301.632,518.941h-20.584c-0.08,0-0.145-0.065-0.145-0.145v-9.025c0-0.08,0.065-0.145,0.145-0.145h20.584
	c0.08,0,0.145,0.064,0.145,0.145v9.025C301.777,518.876,301.712,518.941,301.632,518.941z"/>
<path opacity="0.57" fill="#FFFFFF" enable-background="new    " d="M328.503,489.173c1.559,2.882,3.371,5.595,5.674,7.922
	c4.52,4.567,11.396,7.382,17.492,5.349c2.945-0.981,5.459-2.982,8.387-4.012c2.742-0.963,5.707-1.026,8.613-1.078
	c4.646-0.083,9.305-0.158,13.953-0.104c6.035,3.608,13.057,8.173,19.494,13.262c-4.551-1.007-9.053-2.237-13.463-3.747
	c-2.879-0.985-5.736-2.079-8.721-2.66c-3.186-0.62-6.457-0.642-9.705-0.66c-3.729-0.021-7.723,0.032-10.791,2.152
	c-1.711,1.182-2.994,2.926-4.783,3.981c-1.629,0.963-3.561,1.284-5.451,1.34c-7.025,0.202-13.711-3.022-19.545-6.944
	c-5.832-3.92-11.158-8.618-17.332-11.978c-1.898-1.034-3.879-1.916-5.904-2.675l22.078-0.147H328.503z"/>
<path fill="#684B43" d="M314.722,519.964c-0.133-0.2-13.438-20.062-27.961-29.239l-2.285-1.444l83.201-0.557l0.203,0.097
	c0.271,0.133,27.342,13.381,43.297,29.114l1.502,1.482l-2.219-0.137c-0.188-0.012-19.07-1.155-43.043-1.155
	c-19.67,0-37.109,0.749-51.832,2.226l-0.568,0.057l-0.293-0.441L314.722,519.964z M408.332,517.55
	c-15.145-14.178-38.693-26.022-41.1-27.215l-77.288,0.517c12.745,8.991,24.04,24.986,26.007,27.844
	c14.668-1.446,31.98-2.18,51.467-2.18c19.236,0,35.207,0.735,40.916,1.034H408.332z"/>
<path fill="#CDD5FC" d="M260.604,300.798h110.401v36.187H260.604V300.798z"/>
<path fill="#B6BFF0" d="M221.74,298.816h40.253v40.935H221.74V298.816z"/>
<path fill="#FFFFFF" d="M241.35,335.003c-8.569,0-15.62-6.976-15.711-15.549c-0.043-4.197,1.546-8.163,4.485-11.165
	c2.935-3.001,6.865-4.677,11.064-4.723h0.172c8.573,0,15.624,6.974,15.711,15.547c0.043,4.197-1.546,8.163-4.485,11.163
	c-2.935,3-6.865,4.679-11.064,4.725h-0.172V335.003z M241.359,304.432h-0.167c-3.967,0.043-7.679,1.629-10.452,4.463
	c-2.776,2.836-4.281,6.581-4.237,10.549c0.087,8.102,6.746,14.69,14.845,14.692h0.167c3.967-0.044,7.679-1.629,10.456-4.465
	c2.772-2.836,4.279-6.581,4.233-10.547C256.12,311.021,249.461,304.432,241.359,304.432z"/>
<path fill="#FFFFFF" d="M241.516,332.444c-7.176,0-13.083-5.842-13.161-13.021c-0.077-7.259,5.765-13.228,13.022-13.305h0.143
	c7.18,0,13.087,5.84,13.165,13.02c0.077,7.262-5.765,13.229-13.022,13.306h-0.145H241.516z M241.52,306.984h-0.135
	c-6.778,0.073-12.235,5.65-12.164,12.43c0.075,6.708,5.59,12.166,12.295,12.166h0.139c6.777-0.071,12.235-5.647,12.164-12.43
	C253.743,312.442,248.226,306.984,241.52,306.984L241.52,306.984z"/>
<path fill="#FFFFFF" d="M237.765,315.642l2.717,7.091l2.993-10.305l2.939-0.391l-4.364,13.989l-2.071,0.504l-4.477-9.794"/>
<path fill="#B6BFF0" d="M326.73,321.006h-57.884c-0.83,0-1.504-0.945-1.504-2.114c0-1.17,0.672-2.115,1.504-2.115h57.884
	c0.83,0,1.504,0.945,1.504,2.115C328.234,320.06,327.562,321.006,326.73,321.006z"/>
<path fill="#B6BFF0" d="M364.89,311.923h-95.079c-1.366,0-2.469-1.104-2.469-2.469s1.104-2.47,2.469-2.47h95.079
	c1.365,0,2.469,1.104,2.469,2.47S366.255,311.923,364.89,311.923z"/>
<path fill="#B6BFF0" d="M326.73,329.691h-57.884c-0.83,0-1.504-0.945-1.504-2.114s0.672-2.114,1.504-2.114h57.884
	c0.83,0,1.504,0.945,1.504,2.114S327.562,329.691,326.73,329.691z"/>
<path fill="#E8A080" d="M509.488,476.167c0.701,6.585-3.043,28.835-3.176,30.422l-4.369-0.177c0,0,0-1.853-0.266-5.559
	c-0.264-3.706-0.527-15.222-0.527-21.444c0-6.221-2.516-12.973-2.516-12.973l9.135-2.78c0,0,1.189,7.545,1.719,12.509V476.167z"/>
<path fill="#E8A080" d="M475.31,552.195c-1.006-6.039-0.334-24.489-0.67-38.244l-13.754-0.335c0,0,1.889,27.532,3.068,36.876
	c1.561,12.37,2.297,20.726,2.609,26.342h7.564C474.855,567.068,475.974,556.18,475.31,552.195L475.31,552.195z"/>
<path fill="#F8E6C7" d="M474.128,576.834h-7.564c0.508,9.093-0.094,10.987-0.094,10.987l7.148,2.118
	c-0.135-3.331,0.137-8.072,0.512-13.105H474.128z"/>
<path fill="#B94545" d="M473.726,587.821c0,0,0.631,4.652-0.227,8.644l-22.338,0.335c0,0-1.441-4.263,3.59-5.41
	c5.035-1.147,11.473-5.087,11.473-5.087S470.703,590.469,473.726,587.821L473.726,587.821z"/>
<path fill="#F2F2F2" d="M473.505,596.465l-22.338,0.335c0,0-0.354-1.046-0.098-2.243l22.656-0.339
	C473.724,594.98,473.66,595.742,473.505,596.465z"/>
<path fill="#333333" d="M466.994,591.344c-0.164,0-0.34-0.048-0.488-0.133c-0.221-0.129-0.41-0.333-0.57-0.627
	c-0.266-0.481-0.408-1.073-0.434-1.813c-0.02-0.577,0.027-1.153,0.145-1.721c-1.078,0.281-2.178,0.518-3.27,0.706
	c-0.244,0.041-0.525,0.085-0.805,0.085c-0.281,0-0.521-0.048-0.736-0.141c-0.221-0.1-0.359-0.244-0.398-0.418
	c-0.053-0.23,0.074-0.472,0.346-0.662c0.605-0.426,1.371-0.485,2.043-0.487h0.053c0.512,0,1.027,0.031,1.531,0.089
	c0.588,0.067,1.256,0.19,1.76,0.597c0.354,0.287,0.584,0.674,0.781,1.05c0.299,0.573,0.551,1.178,0.744,1.796
	c0.076,0.241,0.154,0.525,0.135,0.813c-0.023,0.337-0.186,0.624-0.434,0.767c-0.117,0.067-0.256,0.104-0.402,0.104V591.344z
	 M465.949,587.018c-0.125,0.572-0.178,1.157-0.158,1.741c0.023,0.694,0.154,1.243,0.398,1.683c0.135,0.246,0.287,0.414,0.461,0.516
	c0.105,0.06,0.229,0.093,0.344,0.093c0.096,0,0.182-0.021,0.256-0.063c0.162-0.093,0.271-0.297,0.287-0.532
	c0.016-0.238-0.051-0.48-0.123-0.706c-0.189-0.603-0.434-1.191-0.725-1.748c-0.184-0.349-0.395-0.703-0.705-0.959l-0.035-0.025
	V587.018z M462.876,586.426h-0.051c-0.623,0-1.338,0.054-1.875,0.432c-0.129,0.092-0.258,0.234-0.229,0.361
	c0.023,0.106,0.156,0.18,0.232,0.214c0.176,0.077,0.377,0.117,0.617,0.117c0.256,0,0.523-0.042,0.754-0.082
	c1.07-0.184,2.148-0.416,3.207-0.689c-0.367-0.156-0.779-0.224-1.156-0.268c-0.494-0.056-0.998-0.085-1.5-0.087V586.426z"/>
<path fill="#333333" d="M464.767,594.483l-0.072-0.02l-0.09-0.052c-1.992-1.132-4.256-1.736-6.549-1.754l-5.656-0.039
	c-0.082,0-0.145-0.067-0.145-0.149c0-0.081,0.064-0.145,0.146-0.145l5.656,0.04c2.34,0.016,4.654,0.636,6.691,1.791l0.09,0.052
	c0.07,0.04,0.096,0.129,0.055,0.2c-0.027,0.048-0.074,0.075-0.125,0.073L464.767,594.483z"/>
<path fill="#333333" d="M460.068,591.659c-0.047,0-0.09-0.021-0.117-0.062l-1.09-1.5c-0.049-0.065-0.031-0.156,0.031-0.204
	c0.064-0.048,0.156-0.033,0.205,0.034l1.018,1.4l7.787-3.791c0.072-0.035,0.158-0.004,0.193,0.067
	c0.035,0.073,0.006,0.161-0.066,0.196l-7.896,3.845l-0.063,0.016L460.068,591.659z"/>
<path fill="#E06D6A" d="M466.646,578.51c0.029,0.632,0.051,1.213,0.068,1.766h7.174c0.037-0.581,0.078-1.169,0.119-1.766H466.646z"
	/>
<path fill="#E8A080" d="M495.431,552.195c-1.006-6.039-0.334-24.489-0.672-38.244l-13.752-0.335c0,0,1.889,27.532,3.066,36.876
	c1.563,12.37,2.297,20.726,2.611,26.342h7.564C494.976,567.068,496.095,556.18,495.431,552.195L495.431,552.195z"/>
<path fill="#F8E6C7" d="M494.25,576.834h-7.564c0.506,9.093-0.094,10.987-0.094,10.987l7.148,2.118
	c-0.135-3.331,0.137-8.072,0.512-13.105H494.25z"/>
<path fill="#B6BFF0" d="M496.271,490.97c0.67,7.549,1.654,85.861,1.654,85.861s-3.668,1.677-7.189,1.677s-2.803-1.332-5.318-0.997
	c-2.514,0.335-7.262-49.639-7.262-49.639l-0.295-11.49l-2.754,61.222c0,0-0.137-0.957-3.725,0.04
	c-5.559,1.546-7.582-0.707-6.469-1.74l-3.252-82.375l33.77-6.752L496.271,490.97z"/>
<path fill="#FFFFFF" d="M475.058,440.099c0,0-6.129,1.535-13.822,4.895c0,0,3.971,21.415,6.156,30.634l-0.852,18.743
	c6.619,2.563,13.934,2.68,20.629,0.329l6.67-2.341l0.859-18.979l1.908-28.229c0,0-9.252-4.504-12.219-4.602
	c-2.967-0.099-9.33-0.447-9.33-0.447V440.099z"/>
<path fill="#E8A080" d="M461.482,445.699c-3.795,1.231-13.412,21.355-13.412,21.355l-12.99-16.1l-2.828,3.569
	c0,0,9.084,26.621,18.213,23.006c3.826-1.516,14.373-17.191,14.373-17.191L461.482,445.699z"/>
<path fill="#FFFFFF" d="M483.218,439.072c0,0-1.322,14.313-0.461,20.896c0.859,6.584,5.443,25.294,5.17,31.144
	c-0.275,5.851-4.094,4.54-4.094,4.54s3.184,2.192,6.682-0.78c3.498-2.971,6.092-0.44,6.092-0.44s2.313-4.461,1.123-8.897
	c-1.188-4.439-1.445-18.415-1.445-18.415l0.959,4.614c0,0,4.057,0.445,5.512-2.226c1.459-2.672,4.773-1.473,7.5-4.507
	c0,0-6.666-17.135-9.125-19.35c-2.455-2.216-14.795-4.927-14.795-4.927l-3.121-1.651H483.218z"/>
<path fill="#FFFFFF" d="M475.326,438.896c0,0-2.287,5.241-2.348,7.871c-0.059,2.632-1.336,20.204-1.975,28.06
	c-0.641,7.855-4.463,19.54-4.463,19.54s-3.926,3.252-5.305,1.124c-1.377-2.129,1.152-3.348,2.096-12.141
	c0.662-6.171,1.045-18.523,1.045-18.523s-1.877,5.894-3.135,6.103c-1.256,0.208-3.842-2.329-5.5-4.79
	c-1.662-2.462-5.811-4.816-5.811-4.816s7.752-14.619,11.6-16.448c3.844-1.831,10.553-4.23,10.553-4.23l3.244-1.752L475.326,438.896z
	"/>
<path fill="#E06D6A" d="M493.845,587.821c0,0,0.631,4.652-0.227,8.644l-22.338,0.335c0,0-1.441-4.263,3.59-5.41
	c5.033-1.147,11.473-5.087,11.473-5.087S490.822,590.469,493.845,587.821L493.845,587.821z"/>
<path fill="#F2F2F2" d="M493.626,596.465l-22.338,0.335c0,0-0.354-1.046-0.098-2.243l22.656-0.339
	C493.845,594.98,493.781,595.742,493.626,596.465z"/>
<path fill="#333333" d="M487.113,591.344c-0.164,0-0.34-0.048-0.488-0.133c-0.221-0.129-0.41-0.333-0.57-0.627
	c-0.266-0.481-0.408-1.073-0.434-1.813c-0.02-0.577,0.027-1.153,0.145-1.721c-1.078,0.281-2.178,0.518-3.27,0.706
	c-0.244,0.041-0.525,0.085-0.805,0.085c-0.281,0-0.521-0.048-0.736-0.141c-0.221-0.1-0.359-0.244-0.4-0.418
	c-0.051-0.23,0.076-0.472,0.348-0.662c0.604-0.426,1.371-0.485,2.043-0.487h0.051c0.514,0,1.029,0.031,1.533,0.089
	c0.588,0.067,1.256,0.19,1.76,0.597c0.352,0.287,0.584,0.674,0.779,1.05c0.301,0.573,0.553,1.178,0.746,1.796
	c0.076,0.241,0.156,0.525,0.135,0.813c-0.023,0.337-0.186,0.624-0.434,0.767c-0.117,0.067-0.256,0.104-0.402,0.104V591.344z
	 M486.068,587.018c-0.125,0.572-0.178,1.157-0.158,1.741c0.023,0.694,0.154,1.243,0.398,1.683c0.135,0.246,0.287,0.414,0.461,0.516
	c0.105,0.06,0.229,0.093,0.344,0.093c0.094,0,0.182-0.021,0.256-0.063c0.162-0.093,0.271-0.297,0.287-0.532
	c0.016-0.238-0.053-0.48-0.123-0.706c-0.191-0.603-0.434-1.191-0.725-1.748c-0.184-0.349-0.395-0.703-0.707-0.959l-0.033-0.025
	V587.018z M482.994,586.426h-0.049c-0.625,0-1.338,0.054-1.875,0.432c-0.129,0.092-0.258,0.234-0.23,0.361
	c0.025,0.106,0.158,0.18,0.234,0.214c0.174,0.077,0.377,0.117,0.617,0.117c0.256,0,0.523-0.042,0.754-0.082
	c1.07-0.184,2.148-0.416,3.207-0.689c-0.367-0.156-0.779-0.224-1.158-0.268c-0.492-0.056-0.996-0.085-1.5-0.087V586.426z"/>
<path fill="#333333" d="M484.886,594.483l-0.07-0.02l-0.09-0.052c-1.994-1.132-4.256-1.736-6.549-1.754l-5.656-0.039
	c-0.082,0-0.146-0.067-0.145-0.149c0-0.081,0.064-0.145,0.146-0.145l5.656,0.04c2.34,0.016,4.654,0.636,6.691,1.791l0.09,0.052
	c0.068,0.04,0.096,0.129,0.055,0.2c-0.027,0.048-0.074,0.075-0.127,0.073L484.886,594.483z"/>
<path fill="#333333" d="M480.187,591.659c-0.047,0-0.09-0.021-0.117-0.062l-1.09-1.5c-0.049-0.065-0.033-0.156,0.031-0.204
	c0.063-0.048,0.156-0.033,0.203,0.034l1.02,1.4l7.783-3.791c0.074-0.035,0.162-0.004,0.195,0.067
	c0.035,0.073,0.006,0.161-0.068,0.196l-7.895,3.845l-0.063,0.016V591.659z"/>
<path fill="#E06D6A" d="M486.767,578.51c0.027,0.632,0.051,1.213,0.068,1.766h7.174c0.037-0.581,0.076-1.169,0.119-1.766H486.767z"
	/>
<path fill="#3C251D" d="M473.13,494.432c-0.375,0-0.729-0.012-1.049-0.037c-0.088-0.008-0.154-0.086-0.145-0.173
	c0.006-0.083,0.076-0.146,0.158-0.146h0.014c4.236,0.362,12.889-1.641,13.076-2.309c-0.09-0.188-1.275-0.018-2.223,0.115
	c-2.285,0.324-5.734,0.813-7.979-0.694c-0.072-0.05-0.092-0.148-0.041-0.222c0.049-0.073,0.148-0.091,0.219-0.044
	c2.139,1.439,5.518,0.962,7.758,0.645c1.475-0.208,2.363-0.333,2.557,0.085c0.027,0.058,0.057,0.177-0.041,0.313
	c-0.637,0.913-8.068,2.465-12.305,2.465V494.432z"/>
<path fill="#E8A080" d="M437.308,457.395l-1.846-6.429c0,0-3.012-5.012-3.748-4.865c-0.734,0.146-5.018,3.869-5.018,3.869
	s2.57,2.475,5.381,5.396c0.041,0.044,2.854,5.616,2.854,5.616l2.377-3.585V457.395z"/>
<path fill="#E8A080" d="M435.958,453.406c0,0,0.26-2.336-0.279-5.682c-0.205-1.274,0.389-4.413-0.447-4.238
	c-0.834,0.174-0.951,4.142-1.209,4.232c-0.258,0.092-1.834-1.425-1.834-1.425l0.875,3.415L435.958,453.406z"/>
<path fill="#E8A080" d="M432.863,447.402c0,0-3.709-7.347-4.369-7.143s2.193,6.276,2.193,6.276s-4.27-5.951-4.869-5.646
	c-0.596,0.304,3.498,6.852,3.498,6.852s-5.184-4.894-5.629-4.476c-0.447,0.419,4.289,5.729,4.289,5.729s-4.787-3.125-5.176-2.742
	c-0.391,0.382,3.898,3.716,3.898,3.716l2.816,2.237l3.35-4.806L432.863,447.402z"/>
<path fill="#E8A080" d="M502.699,502.611l-1.326,6.556c0,0,0.361,5.836,1.08,6.047c0.721,0.208,6.236-1.116,6.236-1.116
	s-1.137-3.383-2.285-7.269c-0.018-0.058,0.061-6.299,0.061-6.299l-3.764,2.083L502.699,502.611z"/>
<path fill="#E8A080" d="M502.054,506.773c0,0-1.307,1.954-2.373,5.17c-0.406,1.227-2.381,3.738-1.561,3.968
	c0.822,0.229,2.756-3.234,3.027-3.196c0.271,0.037,0.971,2.11,0.971,2.11l0.799-3.435L502.054,506.773z"/>
<path fill="#E8A080" d="M502.033,513.531c0,0-0.1,8.228,0.58,8.351s0.949-6.581,0.949-6.581s1.045,7.249,1.715,7.255
	s0.059-7.693,0.059-7.693s2.342,6.732,2.93,6.568c0.59-0.165-1.162-7.063-1.162-7.063s2.805,4.982,3.326,4.821
	c0.521-0.16-1.744-5.095-1.744-5.095l-1.467-3.284l-5.188,2.72L502.033,513.531z"/>
<path fill="#3C251D" d="M477.035,412.666c1.441-0.161,2.906,0.124,4.342-0.058c0.67-0.086,1.33-0.27,2.004-0.268
	c1.83,0.006,3.51,1.603,3.609,3.43c0.031,0.575-0.074,1.164,0.074,1.721c0.221,0.818,0.947,1.401,1.703,1.787
	c0.756,0.387,1.582,0.637,2.285,1.11c1.197,0.803,1.936,2.247,1.887,3.688c-0.053,1.472-0.846,2.798-1.344,4.183
	c-0.498,1.388-0.623,3.128,0.436,4.152c0.695,0.674,1.791,0.913,2.299,1.74c0.547,0.892,0.16,2.049-0.303,2.988
	c-0.145,0.291-0.303,0.588-0.566,0.778c-0.826,0.597-1.908-0.208-2.906-0.42c-1.135-0.241-2.277,0.335-3.236,0.989
	c-0.957,0.653-1.895,1.427-3.031,1.656c-1.795,0.361-3.541-0.719-5.008-1.819c-1.465-1.1-3.037-2.328-4.867-2.32
	c-1.111,0.006-2.164,0.476-3.262,0.644c-1.859,0.286-3.738-0.303-5.486-0.996c-0.813-0.323-1.631-0.68-2.273-1.272
	c-0.641-0.593-1.082-1.469-0.943-2.331c0.176-1.084,1.172-1.831,2.152-2.326s2.066-0.896,2.758-1.75
	c1.018-1.26,0.805-3.24-0.244-4.475c-0.436-0.514-1.01-0.949-1.223-1.585c-0.225-0.662-0.004-1.392,0.299-2.022
	c1.26-2.605,3.863-4.271,6.426-5.618c1.395-0.735,2.855-1.427,4.422-1.601L477.035,412.666z"/>
<path fill="#E8A080" d="M471.468,440.636c0.006-0.046,0.795-0.389,1.645-0.75c1.125-0.474,1.889-1.535,1.98-2.75l0.613-8.1
	l6.736-0.664l0.514,7.547c0.115,1.698,1.262,3.152,2.887,3.66l2.672,0.836c0,0-1.695,7.277-11.465,7.277
	c-6.104,0-5.756-5.489-5.58-7.06L471.468,440.636z"/>
<path fill="#BF635F" d="M475.355,433.521l-0.227,3.615c0,0,5.82,0.214,7.389-5.843C484.082,425.238,475.355,433.521,475.355,433.521
	L475.355,433.521z"/>
<path fill="#3C251D" d="M474.013,425.006c-0.008-0.741-0.254-1.34-0.551-1.338c-0.297,0.003-0.531,0.607-0.523,1.348
	c0.008,0.741,0.254,1.34,0.551,1.338S474.021,425.747,474.013,425.006z"/>
<path fill="#3C251D" d="M480.695,424.885c-0.008-0.74-0.254-1.339-0.551-1.337s-0.531,0.606-0.523,1.348s0.254,1.339,0.551,1.337
	C480.47,426.23,480.703,425.626,480.695,424.885z"/>
<path fill="#CD5959" d="M476.839,428.806l0.047-0.012c0.096-0.139,0.107-0.297,0.045-0.426l-0.064-0.044
	c-0.174-0.01-0.354-0.021-0.51-0.089c-0.129-0.056-0.271-0.172-0.293-0.337c-0.016-0.125,0.041-0.25,0.102-0.383l0.025-0.057
	c0.361-0.817,0.266-1.78,0.188-2.553c-0.004-0.042-0.045-0.077-0.082-0.069c-0.043,0.004-0.074,0.041-0.07,0.083
	c0.08,0.795,0.166,1.694-0.176,2.476l-0.025,0.057c-0.064,0.14-0.135,0.298-0.113,0.466c0.023,0.192,0.172,0.369,0.385,0.46
	c0.164,0.071,0.346,0.087,0.512,0.098c0.018,0.071,0.006,0.15-0.035,0.21c-0.023,0.035-0.016,0.083,0.02,0.106L476.839,428.806z"/>
<path fill="#E17660" d="M478.9,430.369c0,0-0.846,1.943-2.221,1.747c-1.328-0.189-1.662-2.009-1.662-2.009s0.662-0.625,1.035-0.658
	c0.408-0.035,0.855,0.353,0.855,0.353s0.326-0.285,0.734-0.293s0.986,0.686,1.258,0.858V430.369z"/>
<path fill="#FFFFFF" d="M475.046,430.103l3.854,0.266C478.9,430.369,476.367,432.889,475.046,430.103z"/>
<path fill="#3C251D" d="M481.46,422.319c-0.951-0.458-2.068-0.841-2.969-0.065c-0.078,0.065-0.119,0.21-0.082,0.305
	c0.023,0.056,0.043,0.093,0.082,0.139c0.076,0.087,0.203,0.105,0.305,0.081c0.85-0.188,1.674-0.386,2.525-0.133
	c0.191,0.058,0.324-0.239,0.139-0.329V422.319z"/>
<path fill="#3C251D" d="M471.816,422.543c0.951-0.458,2.068-0.841,2.969-0.065c0.076,0.065,0.117,0.21,0.08,0.305
	c-0.021,0.056-0.041,0.094-0.08,0.139c-0.076,0.088-0.203,0.105-0.307,0.082c-0.848-0.188-1.672-0.387-2.523-0.133
	c-0.193,0.058-0.326-0.24-0.139-0.329V422.543z"/>
<path fill="#3C251D" d="M485.322,425.361c-1.371-1.465-2.785-3.009-3.332-4.938c-0.291-1.028-0.338-2.164-0.945-3.044
	c-0.305,0.071-0.412,0.437-0.549,0.718c-0.443,0.913-1.605,1.244-2.619,1.161c-1.012-0.083-1.977-0.474-2.986-0.583
	c-1.008-0.108-2.174,0.157-2.688,1.035c-0.58,0.994-0.098,2.364-0.697,3.35c-0.465,0.765-2.174,2.685-3.064,2.6
	c0.004-1.667,0.715-4.967,0.719-6.633c0-0.271,0-0.545,0.074-0.807c0.15-0.547,0.584-0.964,1.002-1.35
	c0.922-0.854,1.855-1.717,2.957-2.317c0.92-0.503,1.932-0.808,2.938-1.111c0.752-0.228,1.521-0.458,2.309-0.452
	c0.619,0.004,1.23,0.157,1.83,0.308c1.414,0.353,2.854,0.717,4.086,1.492c1.234,0.774,2.248,2.043,2.338,3.498
	c0.037,0.616-0.09,1.234-0.031,1.849c0.066,0.678,0.355,1.312,0.5,1.979c0.145,0.665,0.115,1.437-0.355,1.926
	c-0.471,0.487-1.33,0.66-1.482,1.32H485.322z"/>
<path fill="#E8A080" d="M484.408,425.781c0,0,0.74-2.106,2.453-0.512c0.68,0.633-0.197,3.005-2.555,2.436
	c0,0-0.701-0.513,0.104-1.922L484.408,425.781z"/>
<path fill="#CD5959" d="M484.794,427.01c0.297,0.143,0.965,0.301,1.375,0.035c0.031-0.02,0.041-0.063,0.041-0.063l-0.115-0.052
	c-0.418,0.27-1.148,0.031-1.313-0.081l0.043-0.038c0.127-0.107,0.363-0.308,0.285-0.614c-0.031-0.127-0.098-0.216-0.189-0.266
	c-0.072-0.038-0.141-0.046-0.201-0.044c0.127-0.255,0.469-0.848,0.891-0.811c0.406,0.036,0.705,0.167,0.891,0.391
	c0.229,0.273,0.201,0.597,0.201,0.597c-0.004,0.042,0.023,0.073,0.061,0.077s0.072-0.023,0.074-0.062c0,0,0.033-0.38-0.23-0.699
	c-0.209-0.254-0.541-0.4-0.986-0.44c-0.633-0.056-1.063,0.966-1.08,1.009l0.014,0.073c0.02,0.021,0.047,0.026,0.047,0.026
	s0.152-0.052,0.256,0.004c0.061,0.031,0.1,0.091,0.123,0.178c0.057,0.225-0.123,0.377-0.24,0.476
	c-0.055,0.048-0.09,0.078-0.107,0.115c0,0-0.012,0.069,0.047,0.115c0.025,0.021,0.066,0.046,0.119,0.069L484.794,427.01z"/>
<path fill="#EFC266" d="M486.062,427.961c0-0.622-0.277-1.126-0.621-1.126c-0.342,0-0.619,0.504-0.619,1.126
	s0.277,1.126,0.619,1.126C485.785,429.087,486.062,428.583,486.062,427.961z"/>
<path fill="none" stroke="#3C251D" stroke-miterlimit="10" d="M474.878,496.706l2.08,17.58h1.762l0.898-17.58H474.878z"/>
<path fill="none" stroke="#3C251D" stroke-miterlimit="10" d="M493.601,495.539l1.998,80.617"/>
<path fill="none" stroke="#3C251D" stroke-miterlimit="10" d="M462.628,498.541l2.285,77.363"/>
<path fill="#DF6865" d="M456.568,452.865c1.807,0.704,3.969,0.66,6.252,0.604c2.563-0.065,5.217-0.133,7.5,0.934
	c0.934,0.442,1.738,1.045,2.521,1.631c0.629,0.466,1.221,0.914,1.873,1.276c1.99,1.112,4.439,1.413,6.789,1.569
	c1.398,0.092,2.867,0.145,4.127-0.362c0.459-0.183,0.885-0.438,1.338-0.709c0.318-0.194,0.641-0.385,0.977-0.554
	c1.986-0.998,4.303-1.127,6.543-1.25c2.639-0.148,5.127-0.285,6.938-1.76c0.693-0.565,1.266-1.33,1.818-2.065
	c0.377-0.503,0.781-0.99,1.213-1.448c0.195,0.307,0.389,0.603,0.574,0.901c-0.324,0.367-0.633,0.765-0.945,1.178
	c-0.59,0.788-1.201,1.606-1.992,2.251c-2.078,1.692-4.857,1.845-7.545,1.993c-2.133,0.119-4.34,0.244-6.129,1.14
	c-0.309,0.157-0.607,0.339-0.904,0.516c-0.471,0.281-0.951,0.574-1.488,0.788c-0.971,0.389-2.004,0.5-3.029,0.5
	c-0.525,0-1.047-0.03-1.561-0.062c-2.473-0.169-5.064-0.491-7.236-1.702c-0.713-0.4-1.363-0.888-1.988-1.355
	c-0.775-0.583-1.506-1.128-2.34-1.521c-2.055-0.967-4.578-0.896-7.023-0.834c-2.291,0.056-4.641,0.113-6.664-0.67
	c0.127-0.329,0.254-0.656,0.385-0.991L456.568,452.865z"/>
<path fill="#DF6865" d="M498.652,448.704c-1.936,1.702-4.521,1.858-7.025,2.007c-1.969,0.119-4.004,0.244-5.652,1.132
	c-0.287,0.157-0.563,0.339-0.84,0.516c-0.434,0.285-0.881,0.574-1.383,0.789c-0.908,0.396-1.873,0.507-2.832,0.507
	c-0.49,0-0.977-0.029-1.457-0.062c-2.299-0.168-4.705-0.495-6.732-1.71c-0.664-0.404-1.268-0.892-1.85-1.359
	c-0.717-0.579-1.391-1.124-2.16-1.517c-1.885-0.953-4.213-0.896-6.473-0.826c-1.23,0.038-2.467,0.046-3.662-0.081
	c0.16-0.349,0.324-0.684,0.488-1.022c1.006,0.075,2.055,0.075,3.143,0.045c2.393-0.065,4.855-0.137,6.982,0.941
	c0.871,0.442,1.619,1.049,2.348,1.631c0.58,0.472,1.127,0.914,1.729,1.276c1.836,1.103,4.098,1.403,6.266,1.562
	c1.285,0.092,2.637,0.146,3.789-0.358c0.422-0.179,0.814-0.434,1.229-0.701c0.299-0.194,0.598-0.389,0.914-0.562
	c1.852-1.002,4.006-1.131,6.092-1.254c2.43-0.148,4.727-0.285,6.391-1.746c0.641-0.561,1.172-1.326,1.682-2.065
	c0.197-0.281,0.406-0.553,0.613-0.826c0.252,0.268,0.486,0.567,0.729,0.854c-0.152,0.206-0.322,0.358-0.473,0.574
	c-0.549,0.793-1.117,1.611-1.855,2.256H498.652z"/>
</svg>
