<?xml version="1.0" encoding="utf-8"?>
<!-- Generator: Adobe Illustrator 16.0.0, SVG Export Plug-In . SVG Version: 6.00 Build 0)  -->
<!DOCTYPE svg PUBLIC "-//W3C//DTD SVG 1.1//EN" "http://www.w3.org/Graphics/SVG/1.1/DTD/svg11.dtd">
<svg version="1.1" id="Calque_1" xmlns="http://www.w3.org/2000/svg" xmlns:xlink="http://www.w3.org/1999/xlink" x="0px" y="0px"
	 width="533.969px" height="369.438px" viewBox="40.14 244.07 533.969 369.438"
	 enable-background="new 40.14 244.07 533.969 369.438" xml:space="preserve">
<path fill="#FFCCFF" d="M148.524,585.341c-32.83-1.999-63.229-22.103-81.749-49.385c-27.869-41.054-38.958-107.682-5.643-148.862
	c32.254-39.871,91.312-43.62,136.963-27.599c32.067,11.255,60.21,35.239,73.109,66.681
	c30.133,73.455-43.896,161.496-119.865,159.292C150.4,585.44,149.46,585.397,148.524,585.341L148.524,585.341z"/>
<path fill="#CCFFCC" d="M403.484,526.784c-39.492-2.403-76.063-26.588-98.342-59.409c-33.526-49.389-46.867-129.539-6.791-179.08
	c38.801-47.964,109.848-52.472,164.766-33.198c38.576,13.539,72.432,42.392,87.949,80.214
	c36.252,88.366-52.807,194.278-144.195,191.627C405.738,526.904,404.611,526.853,403.484,526.784L403.484,526.784z"/>
<g>
	<path fill="#8CE599" d="M536.201,504.07c-12.84,15.214,4.25-42.048,9.576-53.704c5.326-11.657,9.83-20.321,9.83-20.321
		S562.304,473.136,536.201,504.07L536.201,504.07z"/>
	<path fill="#8CE599" d="M527.486,515.189c-1.17-5.743-4.176-15.252-7.488-20.642c-3.311-5.39-9.32-24.406-7.172-31.359
		c2.146-6.953,4.635,1.432,5.074,7.405c0.441,5.975,6.012,15.719,8.555,23.764c2.541,8.045,1.031,20.83,1.031,20.83V515.189z"/>
	<path fill="#8CE599" d="M528.929,515.94c0,0,9.174-6.356,12.191-10.046c3.016-3.689,8.459-7.339,17.506-11.807
		c9.045-4.467,13.51-10.703,15.184-9.223c1.676,1.481-6.268,9.944-12.266,14.897c-5.998,4.95-15.756,8.438-19.736,11.626
		s-12.881,4.553-12.881,4.553L528.929,515.94z"/>
	<path fill="#8CE599" d="M515.962,535.241c-0.568-0.785,1.748-18.651-0.42-25.771c-2.168-7.118-14.408-18.615-16.264-17.868
		c-1.854,0.747,3.756,8.064,6.531,13.543c2.777,5.477,7.533,11.617,7.314,16.271C512.904,526.071,515.962,535.241,515.962,535.241z"
		/>
	<path fill="#8CE599" d="M511.978,541.727c6.408-6.449,10.459-7.889,15.795-10.863c5.334-2.973,15.055-4.033,21.656-7.325
		c6.602-3.293,12.348-7.762,13.543-6.531c1.193,1.232-2.613,8.789-8.857,10.924c-6.242,2.134-18.908,5.331-22.959,6.771
		C527.107,536.142,511.978,541.727,511.978,541.727z"/>
	<path fill="#8CE599" d="M500.66,555.039c4.418-12.497,4.729-19.915,2.006-25.731s-13.443-21.413-13.5-17.775
		s4.91,11.723,6.701,21.211s4.793,22.298,4.793,22.298V555.039z"/>
	<path fill="#8CE599" d="M497.535,559.403c-7.9,0.862,10.582-6.479,17.199-7.687s20.045-0.461,20.846,1.056
		c0.801,1.518-10.49,3.717-16.945,3.907c-6.457,0.19-17.213,2.301-21.1,2.726V559.403z"/>
	<path fill="#8CE599" d="M484.273,569.628c0.16-16.3,0.258-25.663-2.449-29.394c-2.707-3.729-7.172-16.074-5.852-16.732
		s7.447,7.782,11.006,15.99C490.537,547.698,484.273,569.628,484.273,569.628z"/>
	<path fill="#8CE599" d="M482.078,573.62c9.793-2.612,29.016-0.077,29.689,3.329c0.672,3.406-14.537,1.858-20.723,0.354
		C484.857,575.799,482.078,573.62,482.078,573.62L482.078,573.62z"/>
	<path fill="#8CE599" d="M454.945,599.005c0.211,0.29,0.609,0.388,0.934,0.216c6.57-3.514,24.713-22.383,27.918-25.969
		c1.064-1.19,2.674-2.848,4.715-4.946c5.121-5.27,12.861-13.229,20.34-22.541c10.32-12.847,25.742-43.131,25.896-43.436
		c0.178-0.355,0.041-0.792-0.32-0.979c-0.359-0.182-0.795-0.037-0.979,0.321c-0.152,0.303-15.506,30.454-25.732,43.182
		c-7.438,9.259-15.148,17.189-20.25,22.442c-2.051,2.106-3.67,3.772-4.754,4.988c-3.84,4.296-21.449,22.407-27.521,25.652
		c-0.354,0.19-0.488,0.631-0.301,0.985c0.018,0.029,0.035,0.059,0.053,0.084H454.945z"/>
	<path fill="#8CE599" d="M479.416,447.353c6.266,3.703,11.193,11.371,18.258,11.076c7.213-5.21,13.838-12.166,18.553-20.834
		c1.971-3.62,3.781-7.528,5.461-11.578c-0.479-0.334-0.959-0.661-1.436-0.949c-4.783-2.894-10.787-5.585-15.725-2.962
		c-1.945,1.033-3.449,2.794-5.457,3.702c-4.051,1.833-8.967-0.266-12.717-1.841c-2.033-0.855-3.916-2.12-5.215-3.903
		c-5.102-7.014,2.424-13.665,9.225-13.752c5.635-0.074,10.836,2.735,16.145,4.62c6.285,2.229,13.014,3.191,19.676,2.835
		c2.006-6.216,3.672-12.533,4.965-18.643c-3.709-2.683-8.77-3.578-13.031-1.833c-4.869,1.994-8.234,6.701-13.582,7.938
		c-2.082,0.481-4.359,0.204-6.086-1.056c-3.713-2.707-2.373-7.454,0.486-9.898c2.203-1.884,5.1-2.702,7.912-3.401
		c6.605-1.641,13.303-2.909,20.051-3.797c2.205-0.29,4.467-0.563,6.539-1.318c1.041-8.194,1.238-15.365,0.475-20.426
		c-4.602-1.938-10.518-0.955-14.016,2.736c-1.664,1.755-2.816,3.96-4.582,5.609c-1.768,1.648-4.557,2.636-6.602,1.346
		c-2.652-1.677-2.133-5.854-0.252-8.366c3.742-4.988,10.5-6.282,16.318-8.528c2.701-1.042,5.426-2.737,7.465-4.843
		c-1.271-9.941-2.096-17.372-3.711-19.963c-2.215-3.549,4.037-6.96-3.432-11.42c-7.469-4.461-11.684,0.636-22.084,4.909
		c-2.068,0.851-4.299,1.641-6.662,2.455c1.25,8.396,3.98,16.829,1.143,25.255c-1.152,3.418-3.586,6.316-6.764,8.022
		c-0.961,0.515-2.086,0.941-3.158,0.683c-0.918-0.224-1.645-0.912-2.273-1.617c-5.691-6.399-6.504-16.646-1.891-23.86
		c0.885-1.386,1.877-3.117,2.334-4.73c-5.373,2.044-11.23,4.638-17.49,8.398c-3.313,1.992-5.271,5.78-4.732,9.608
		c0.309,2.189,0.822,4.365,1.441,6.439c2.23,7.48,5.535,15.025,3.979,22.82c-0.375,1.865-1.305,3.659-2.879,4.723
		c-4.34,2.926-9.338-1.359-12.498-5.219c-3.584-4.376-7.385-9.457-6.67-15.068c0.291-2.286,1.336-4.455,1.385-6.759
		c0.025-1.212-0.402-2.51-1.137-3.46c-7.908,4.552-15.17,10.112-30.455,32.246c0,0.014-0.004,0.025-0.004,0.039
		c1.514,3.399,3.637,6.708,5.518,9.869c3.494,5.878,6.246,12.195,8.172,18.756c0.611,2.088-0.035,4.491-1.844,5.701
		c-3.08,2.061-6.42-1.105-8.455-3.901c-2.49-3.422-4.98-6.844-7.471-10.265c-1.238-1.704-2.787-3.503-4.514-4.752
		c-10.063,23.204-3.512,39.02,2.918,43.419c1.363,0.536,2.705,1.119,4.021,1.752c8.18,2.154,19.604-1.155,24,2.48
		c11.396,9.427,6.93,18.604,21.426,22.87c5.15,1.516,12.025,1.053,19.33-1.216c0.723-3.723-0.266-7.695-3.381-9.833
		c-2.869-1.971-7.271-2.608-8.178-5.971c-0.672-2.483,1.354-5.11,3.832-5.799c2.479-0.688,5.15,0.148,7.365,1.459L479.416,447.353z
		 M443.22,410.204c-1.078-0.372-1.973-1.139-2.762-1.963c-2.816-2.949-5.1-6.599-6.467-10.44
		c-1.061-2.978-2.125-10.051,0.961-12.087c0.826-0.545,1.951-0.73,3.453-0.379c1.828,0.427,3.32,1.733,4.566,3.137
		c3.277,3.688,5.369,8.392,6.01,13.277c0.26,1.995,0.719,4.856-0.432,6.61C447.494,409.973,445.035,410.833,443.22,410.204
		L443.22,410.204z M484.058,376.623c-1.174,0.931-2.709,0.536-3.922-0.186c-4.338-2.581-6.102-7.732-3.332-12.113
		c0.439-0.697,0.988-1.366,1.74-1.707c1.262-0.572,2.779-0.07,3.877,0.776c1.344,1.039,2.836,2.58,3.563,4.137
		c0.945,2.021,0.326,7.307-1.926,9.091V376.623z M493.691,384.341c-0.445-0.083-0.906-0.217-1.234-0.532
		c-0.182-0.175-0.311-0.394-0.439-0.611c-0.424-0.729-0.852-1.457-1.277-2.186c-0.119-0.202-0.238-0.413-0.256-0.646
		c-0.016-0.22,0.061-0.434,0.152-0.635c0.572-1.249,1.715-2.179,2.982-2.708c1.27-0.531,2.66-0.698,4.033-0.737
		c1.104-0.031,2.256,0.027,3.225,0.554c0.971,0.526,1.701,1.636,1.467,2.714c-0.064,0.293-0.193,0.569-0.338,0.831
		c-1.57,2.882-5.092,4.555-8.318,3.957H493.691z M472.849,438.23c-0.82,0.431-1.723,0.751-2.646,0.724
		c-1.049-0.031-2.027-0.497-2.957-0.976c-1.811-0.933-3.578-1.952-5.293-3.053c-0.709-0.456-1.449-0.975-1.756-1.759
		c-0.479-1.221,0.266-2.562,1.066-3.599c0.834-1.075,1.793-2.097,3.002-2.716c2.84-1.453,6.291-0.394,9.178,0.964
		c1.85,0.869,3.875,2.192,4.008,4.23c0.064,0.987-0.354,1.947-0.889,2.781C475.644,436.256,474.353,437.44,472.849,438.23z"/>
</g>
<path fill="#CCFFCC" d="M410.289,489.628c-0.115,0.012-0.236-0.005-0.35-0.059c-0.332-0.154-0.475-0.547-0.32-0.878
	c8.977-19.278,33.094-50.727,50.701-73.689c8.504-11.09,15.85-20.671,19.307-26.029c10.529-16.318,41.406-64.995,41.717-65.481
	c0.195-0.309,0.604-0.399,0.91-0.204c0.309,0.195,0.4,0.604,0.205,0.91c-0.309,0.49-31.189,49.172-41.721,65.493
	c-3.486,5.405-10.846,15.005-19.367,26.117c-17.572,22.915-41.635,54.298-50.553,73.443c-0.102,0.219-0.305,0.354-0.527,0.379
	L410.289,489.628z"/>
<path fill="#B6BFF0" d="M193.522,490.894c3.858-7.189,12.221-13.066,11.563-20.967c-6.171-7.84-14.271-14.94-24.2-19.822
	c-4.147-2.04-8.611-3.887-13.226-5.58c-0.352,0.55-0.698,1.104-0.998,1.65c-3.021,5.494-5.758,12.345-2.59,17.757
	c1.248,2.133,3.291,3.735,4.4,5.941c2.24,4.454,0.118,10.06-1.474,14.333c-0.864,2.318-2.194,4.488-4.132,6.024
	c-7.622,6.041-15.419-2.081-15.834-9.699c-0.343-6.309,2.563-12.265,4.428-18.3c2.208-7.147,2.973-14.731,2.267-22.178
	c-7.058-1.96-14.211-3.535-21.117-4.699c-2.833,4.279-3.602,9.991-1.448,14.687c2.458,5.362,7.889,8.914,9.521,14.849
	c0.636,2.311,0.43,4.876-0.902,6.869c-2.861,4.284-8.242,3.004-11.114-0.087c-2.213-2.382-3.264-5.591-4.177-8.709
	c-2.145-7.323-3.875-14.769-5.183-22.287c-0.427-2.456-0.836-4.979-1.779-7.264c-9.229-0.788-17.271-0.677-22.908,0.415
	c-1.959,5.244-0.583,11.827,3.715,15.576c2.043,1.782,4.568,2.971,6.497,4.875s3.165,4.981,1.812,7.332
	c-1.755,3.052-6.459,2.662-9.362,0.669c-5.762-3.96-7.525-11.474-10.31-17.887c-1.292-2.978-3.319-5.952-5.772-8.138
	c-11.078,1.884-19.366,3.152-22.194,5.083c-3.873,2.645-7.983-4.204-12.636,4.371c-4.652,8.574,1.253,13.061,6.523,24.516
	c1.047,2.278,2.038,4.738,3.058,7.351c9.35-1.788,18.672-5.238,28.241-2.447c3.883,1.131,7.244,3.723,9.301,7.205
	c0.621,1.052,1.15,2.293,0.911,3.505c-0.206,1.039-0.945,1.886-1.706,2.621c-6.907,6.676-18.348,8.061-26.646,3.225
	c-1.592-0.927-3.578-1.959-5.407-2.395c2.539,5.925,5.715,12.367,10.22,19.205c2.385,3.619,6.722,5.64,10.985,4.858
	c2.438-0.447,4.851-1.125,7.146-1.913c8.278-2.846,16.579-6.896,25.383-5.512c2.107,0.331,4.161,1.289,5.424,3.007
	c3.479,4.727-1.09,10.524-5.268,14.244c-4.738,4.217-10.253,8.712-16.574,8.17c-2.575-0.221-5.054-1.289-7.637-1.236
	c-1.359,0.027-2.792,0.566-3.824,1.436c5.465,8.648,12.032,16.527,37.537,32.626l0.045,0.003c3.737-1.852,7.345-4.385,10.801-6.638
	c6.423-4.186,13.375-7.563,20.635-10.024c2.311-0.784,5.033-0.168,6.473,1.802c2.451,3.354-0.941,7.246-3.98,9.654
	c-3.718,2.948-7.437,5.896-11.157,8.844c-1.853,1.47-3.795,3.285-5.115,5.278c26.465,10.198,43.878,2.126,48.512-5.281
	c0.538-1.552,1.128-3.083,1.776-4.588c2.035-9.262-2.203-21.908,1.668-27.003c10.034-13.205,20.525-8.625,24.632-25.064
	c1.459-5.842,0.623-13.522-2.256-21.6c-4.205-0.638-8.609,0.654-10.862,4.243c-2.076,3.307-2.587,8.268-6.31,9.44
	c-2.751,0.865-5.789-1.281-6.674-4.027c-0.886-2.744-0.07-5.777,1.294-8.317L193.522,490.894z M153.576,533.167
	c-0.367,1.224-1.185,2.265-2.071,3.185c-3.173,3.292-7.155,6.02-11.396,7.731c-3.288,1.327-11.162,2.848-13.587-0.518
	c-0.649-0.901-0.908-2.153-0.584-3.852c0.395-2.067,1.788-3.801,3.302-5.263c3.98-3.842,9.152-6.405,14.597-7.346
	c2.223-0.385,5.407-1.03,7.426,0.175C153.122,528.39,154.195,531.104,153.576,533.167L153.576,533.167z M114.063,488.968
	c1.097,1.272,0.727,3.011-0.026,4.402c-2.691,4.979-8.381,7.194-13.417,4.294c-0.801-0.461-1.576-1.046-1.992-1.87
	c-0.701-1.387-0.208-3.111,0.691-4.38c1.103-1.555,2.76-3.297,4.471-4.183c2.22-1.15,8.17-0.703,10.275,1.736H114.063z
	 M122.264,477.818c-0.072,0.504-0.201,1.025-0.539,1.407c-0.187,0.211-0.429,0.367-0.665,0.52c-0.797,0.511-1.593,1.021-2.39,1.532
	c-0.221,0.143-0.451,0.286-0.711,0.317c-0.245,0.029-0.489-0.048-0.717-0.143c-1.428-0.583-2.52-1.82-3.173-3.218
	c-0.653-1.396-0.905-2.948-1.013-4.486c-0.086-1.234-0.074-2.526,0.47-3.638c0.543-1.11,1.753-1.981,2.973-1.769
	c0.331,0.059,0.646,0.19,0.948,0.339c3.3,1.627,5.34,5.493,4.819,9.136L122.264,477.818z M183.605,498.674
	c0.521,0.896,0.921,1.895,0.935,2.934c0.015,1.174-0.463,2.293-0.957,3.357c-0.962,2.073-2.021,4.1-3.175,6.07
	c-0.479,0.816-1.023,1.67-1.889,2.051c-1.346,0.591-2.883-0.179-4.082-1.03c-1.243-0.883-2.431-1.91-3.182-3.238
	c-1.759-3.115-0.732-7.03,0.653-10.327c0.888-2.11,2.276-4.443,4.555-4.687c1.104-0.118,2.2,0.307,3.158,0.869
	C181.264,495.636,182.65,497.028,183.605,498.674L183.605,498.674z"/>
<path fill="#E8F4FF" d="M244.086,566.384c0.019,0.129,0.005,0.267-0.05,0.395c-0.158,0.377-0.591,0.558-0.969,0.399
	c-22.015-9.164-58.366-34.728-84.908-53.391c-12.817-9.014-23.892-16.8-30.056-20.428c-18.771-11.04-74.735-43.379-75.298-43.705
	c-0.354-0.204-0.477-0.658-0.271-1.012c0.204-0.354,0.658-0.477,1.011-0.271c0.564,0.322,56.535,32.667,75.31,43.709
	c6.216,3.656,17.313,11.456,30.158,20.49c26.487,18.624,62.763,44.131,84.625,53.237c0.25,0.103,0.412,0.325,0.449,0.574
	L244.086,566.384z"/>
<g>
	<path fill="#CC99CC" d="M161.123,353.346c9.427,16.57-36.378-17.728-45.094-26.369s-15.01-15.554-15.01-15.554
		S141.958,319.657,161.123,353.346z"/>
	<path fill="#CC99CC" d="M168.233,364.856c-5.549-0.848-15.087-1.293-21.025-0.098c-5.938,1.192-25.015,0.303-30.552-3.926
		c-5.539-4.229,2.82-3.692,8.333-2.112c5.515,1.58,16.112-0.204,24.183,0.172c8.071,0.377,19.061,5.962,19.061,5.962V364.856z"/>
	<path fill="#CC99CC" d="M169.385,363.806c0,0-2.679-10.346-4.995-14.278c-2.316-3.931-3.797-10.029-4.819-19.637
		c-1.022-9.606-5.151-15.682-3.266-16.696c1.885-1.016,6.864,8.922,9.329,15.949c2.467,7.026,2.371,16.949,3.921,21.581
		C171.103,355.355,169.385,363.805,169.385,363.806L169.385,363.806z"/>
	<path fill="#CC99CC" d="M182.441,381.841c-0.895,0.252-16.183-7.739-23.297-8.146c-7.114-0.405-21.493,6.791-21.435,8.706
		s8.489-0.706,14.33-1.39c5.84-0.685,12.931-2.927,17.042-1.19c4.111,1.737,13.361,2.021,13.361,2.021V381.841z"/>
	<path fill="#CC99CC" d="M186.953,387.566c-3.675-7.893-3.631-12.008-4.538-17.785s1.354-14.862,0.58-21.885
		c-0.775-7.021-2.892-13.664-1.391-14.329c1.502-0.665,7.034,5.254,6.886,11.571s-1.462,18.756-1.508,22.872
		c-0.045,4.115-0.029,19.558-0.029,19.558V387.566z"/>
	<path fill="#CC99CC" d="M195.169,402.141c-9.77-8.104-16.333-10.836-22.46-10.313c-6.127,0.523-23.689,4.999-20.439,6.252
		c3.25,1.255,12.158-0.536,21.277,0.993c9.12,1.528,21.622,3.066,21.622,3.066V402.141z"/>
	<path fill="#CC99CC" d="M198.06,406.394c-1.838,7.384-2.325-11.652-1.219-17.998c1.104-6.347,6.214-18.166,7.843-18.384
		c1.628-0.218-0.129,10.656-2.095,16.521c-1.964,5.864-3.624,16.229-4.529,19.863V406.394z"/>
	<path fill="#CC99CC" d="M202.862,421.691c-14.596-5.534-22.977-8.719-27.223-7.521c-4.248,1.198-16.817,1.128-16.973-0.278
		c-0.154-1.403,9.458-4.117,18.008-4.601c8.553-0.483,26.188,12.397,26.188,12.397V421.691z"/>
	<path fill="#CC99CC" d="M205.723,424.987c0.892-9.665,9.526-26.1,12.811-25.578c3.285,0.521-3.139,13.676-6.536,18.738
		C208.599,423.21,205.723,424.987,205.723,424.987z"/>
	<path fill="#CC99CC" d="M219.56,457.764c0.331-0.093,0.55-0.418,0.502-0.767c-0.986-7.066-11.94-29.612-14.103-33.677
		c-0.718-1.351-1.675-3.347-2.885-5.871c-3.041-6.345-7.635-15.935-13.529-25.733c-8.13-13.523-30.245-37.398-30.469-37.639
		c-0.259-0.277-0.698-0.298-0.986-0.036c-0.283,0.265-0.296,0.703-0.036,0.986c0.223,0.236,22.239,24.007,30.294,37.405
		c5.859,9.747,10.437,19.298,13.469,25.62c1.216,2.538,2.177,4.546,2.911,5.921c2.592,4.872,13.042,26.687,13.951,33.218
		c0.053,0.38,0.406,0.646,0.787,0.595c0.033-0.007,0.065-0.012,0.093-0.021L219.56,457.764z"/>
</g>
<g>
	<path fill="#3C251D" d="M528.31,580.155c-0.051,0-0.104-0.013-0.154-0.038l-3.297-1.734l-3.299,1.734
		c-0.115,0.057-0.248,0.048-0.346-0.025c-0.104-0.074-0.152-0.197-0.131-0.321l0.629-3.675l-2.668-2.603
		c-0.088-0.087-0.123-0.216-0.084-0.336s0.141-0.206,0.268-0.223l3.689-0.537l1.648-3.343c0.113-0.226,0.477-0.226,0.59,0
		l1.65,3.343l3.689,0.537c0.125,0.017,0.227,0.104,0.266,0.223c0.039,0.12,0.006,0.249-0.084,0.336l-2.666,2.603l0.629,3.675
		c0.02,0.124-0.027,0.247-0.131,0.321c-0.057,0.043-0.123,0.063-0.191,0.063H528.31z M524.859,577.682
		c0.051,0,0.104,0.013,0.154,0.038l2.861,1.505l-0.547-3.188c-0.016-0.106,0.016-0.216,0.096-0.289l2.314-2.26l-3.201-0.467
		c-0.107-0.015-0.201-0.082-0.248-0.18l-1.432-2.9l-1.432,2.9c-0.049,0.098-0.141,0.165-0.248,0.18l-3.203,0.467l2.316,2.26
		c0.078,0.073,0.113,0.183,0.094,0.289l-0.547,3.188l2.863-1.505c0.047-0.024,0.104-0.038,0.154-0.038H524.859z"/>
	<path fill="#3C251D" d="M102.579,345.829c-0.07,0-0.144-0.017-0.211-0.051l-4.536-2.387l-4.536,2.387
		c-0.16,0.077-0.343,0.064-0.477-0.036c-0.141-0.102-0.208-0.271-0.18-0.44l0.864-5.053l-3.668-3.577
		c-0.124-0.12-0.169-0.299-0.116-0.463c0.053-0.165,0.193-0.283,0.367-0.307l5.072-0.737l2.268-4.596
		c0.156-0.311,0.657-0.311,0.811,0l2.268,4.596l5.072,0.737c0.173,0.023,0.314,0.142,0.367,0.307
		c0.053,0.164,0.007,0.343-0.116,0.463l-3.668,3.577l0.864,5.053c0.027,0.169-0.04,0.341-0.18,0.44
		C102.765,345.8,102.673,345.828,102.579,345.829L102.579,345.829z M97.832,342.431c0.07,0,0.144,0.018,0.211,0.052l3.936,2.07
		l-0.751-4.385c-0.024-0.146,0.021-0.297,0.13-0.399l3.185-3.106l-4.402-0.64c-0.147-0.021-0.274-0.113-0.343-0.246l-1.968-3.989
		l-1.968,3.989c-0.067,0.133-0.193,0.226-0.343,0.246l-4.402,0.64l3.186,3.106c0.109,0.103,0.156,0.252,0.13,0.399l-0.75,4.385
		l3.936-2.07c0.067-0.034,0.141-0.052,0.211-0.052H97.832z"/>
	<path fill="#3C251D" d="M561.005,371.036h-8.287c-0.16,0-0.287-0.129-0.287-0.288v-8.287c0-0.159,0.127-0.288,0.287-0.288h8.287
		c0.16,0,0.287,0.129,0.287,0.288v8.287C561.292,370.907,561.166,371.036,561.005,371.036z M553.007,370.46h7.709v-7.711h-7.709
		V370.46z"/>
	<path fill="#3C251D" d="M556.259,369.195c-0.078,0-0.154-0.033-0.209-0.091l-2.266-2.409c-0.109-0.116-0.104-0.298,0.012-0.408
		c0.117-0.109,0.299-0.103,0.408,0.013l2.033,2.16l3.689-4.898c0.098-0.128,0.277-0.15,0.402-0.057
		c0.127,0.097,0.152,0.276,0.057,0.403l-3.895,5.17c-0.051,0.068-0.131,0.11-0.215,0.115h-0.016L556.259,369.195z"/>
	<path fill="#3C251D" d="M404.087,259.78h-13.676c-0.262,0-0.477-0.213-0.477-0.477v-13.677c0-0.263,0.213-0.477,0.477-0.477h13.676
		c0.262,0,0.477,0.213,0.477,0.477v13.677C404.564,259.565,404.351,259.78,404.087,259.78z M390.886,258.828h12.725v-12.725h-12.725
		V258.828z"/>
	<path fill="#3C251D" d="M396.255,256.74c-0.131,0-0.258-0.053-0.346-0.148l-3.742-3.976c-0.18-0.192-0.17-0.492,0.021-0.672
		c0.191-0.181,0.492-0.172,0.672,0.021l3.355,3.563l6.088-8.083c0.162-0.21,0.459-0.25,0.668-0.094
		c0.209,0.157,0.252,0.456,0.094,0.667l-6.428,8.533c-0.084,0.113-0.215,0.182-0.355,0.188h-0.025H396.255z"/>
	<path fill="#3C251D" d="M164.145,291.454h-11.781c-0.226,0-0.41-0.183-0.41-0.409v-11.78c0-0.227,0.184-0.41,0.41-0.41h11.781
		c0.226,0,0.41,0.184,0.41,0.41v11.78C164.555,291.271,164.371,291.454,164.145,291.454z M152.774,290.635h10.961v-10.961h-10.961
		V290.635z"/>
	<path fill="#3C251D" d="M157.401,288.837c-0.113,0-0.221-0.047-0.298-0.129l-3.221-3.423c-0.156-0.165-0.147-0.424,0.017-0.58
		c0.165-0.155,0.424-0.147,0.58,0.018l2.889,3.07l5.244-6.962c0.139-0.182,0.395-0.216,0.574-0.08
		c0.182,0.135,0.216,0.393,0.081,0.574l-5.537,7.349c-0.072,0.098-0.184,0.156-0.305,0.163H157.401z"/>
	<path fill="#3C251D" d="M222.236,267.889c-0.094,0-0.182-0.037-0.245-0.105c-1.068-1.134-2.084-2.185-3.029-3.16
		c-3.965-4.092-6.586-6.795-6.634-9.144c-0.029-1.426,0.497-2.778,1.486-3.808c0.986-1.03,2.314-1.611,3.742-1.642h0.112
		c1.692,0,3.245,0.792,4.253,2.146c0.969-1.412,2.561-2.288,4.27-2.324h0.113c2.882,0,5.276,2.344,5.336,5.227
		c0.053,2.551-3.218,6.156-7.359,10.718c-0.583,0.642-1.183,1.301-1.791,1.98c-0.062,0.07-0.153,0.111-0.247,0.111h-0.003
		L222.236,267.889z M217.666,250.706h-0.1c-1.244,0.027-2.405,0.537-3.267,1.436c-0.862,0.897-1.322,2.079-1.298,3.323
		c0.043,2.083,2.728,4.854,6.444,8.688c0.873,0.899,1.807,1.863,2.784,2.898c0.526-0.585,1.044-1.153,1.55-1.711
		c4.039-4.452,7.23-7.966,7.183-10.249c-0.053-2.519-2.143-4.567-4.661-4.567h-0.1c-1.647,0.034-3.171,0.969-3.977,2.437
		c-0.058,0.105-0.168,0.173-0.29,0.175h-0.003c-0.122,0-0.231-0.063-0.292-0.163c-0.857-1.421-2.343-2.27-3.975-2.27
		L217.666,250.706z"/>
	<path fill="#3C251D" d="M438.781,282.004v321.976c0,0.108-0.088,0.195-0.195,0.195H191.907c-0.108,0-0.195-0.087-0.195-0.195
		V282.004c0-0.108,0.087-0.195,0.195-0.195h246.678C438.693,281.808,438.781,281.895,438.781,282.004z"/>
</g>
<path fill="#FFFFFF" d="M198.413,286.44H432.08c1.014,0,1.834,0.821,1.834,1.834v305.965c0,1.013-0.82,1.834-1.834,1.834H198.413
	c-1.013,0-1.834-0.821-1.834-1.834V288.274C196.579,287.261,197.4,286.44,198.413,286.44z"/>
<path fill="#DEE7FA" d="M212.621,297.469h207.3v56.715h-207.3V297.469z"/>
<path fill="#DEE7FA" d="M216.531,362.397h201.042v226.075H216.531V362.397z"/>
<path fill="#B6BFF0" d="M212.425,297.215h56.789v57.752h-56.789V297.215z"/>
<path fill="#B6BFF0" d="M334.656,315.072h-44.198c-1.298,0-2.347-1.05-2.347-2.347c0-1.298,1.049-2.348,2.347-2.348h44.198
	c1.299,0,2.348,1.05,2.348,2.348C337.003,314.022,335.955,315.072,334.656,315.072z"/>
<path fill="#B6BFF0" d="M352.646,331.105h-62.19c-1.297,0-2.347-1.049-2.347-2.347s1.049-2.347,2.347-2.347h62.19
	c1.297,0,2.348,1.049,2.348,2.347S353.943,331.105,352.646,331.105z"/>
<path fill="#B6BFF0" d="M407.796,330.717h-41.459c-1.297,0-2.346-1.05-2.346-2.348c0-1.297,1.049-2.347,2.346-2.347h41.459
	c1.297,0,2.346,1.05,2.346,2.347C410.142,329.667,409.093,330.717,407.796,330.717z"/>
<path fill="#B6BFF0" d="M382.371,344.408h-90.352c-1.298,0-2.347-1.049-2.347-2.347s1.049-2.347,2.347-2.347h90.352
	c1.299,0,2.348,1.049,2.348,2.347S383.669,344.408,382.371,344.408z"/>
<path fill="#3C251D" d="M470.98,312.592c-1.541,0-15.32-21.125-15.32-28.452c0-8.448,6.873-15.32,15.32-15.32
	s15.32,6.872,15.32,15.32C486.3,291.842,472.587,312.592,470.98,312.592z M470.98,269.968c-7.814,0-14.172,6.356-14.172,14.172
	c0,7.174,11.889,24.234,14.197,27.062c2.297-2.691,14.148-19.874,14.148-27.062c0-7.815-6.355-14.172-14.172-14.172H470.98z"/>
<path fill="#3C251D" d="M470.98,295.082c-5.906,0-10.711-4.806-10.711-10.713s4.805-10.712,10.711-10.712
	s10.713,4.805,10.713,10.712S476.886,295.082,470.98,295.082z M470.98,274.803c-5.273,0-9.563,4.289-9.563,9.564
	c0,5.274,4.289,9.563,9.563,9.563s9.564-4.289,9.564-9.563C480.544,279.093,476.253,274.803,470.98,274.803z"/>
<path opacity="0.37" fill="#3B3348" enable-background="new    " d="M254.307,375.858h122.984c6.322,0,11.445,5.124,11.445,11.446
	v12.934l15.855,8.607l-15.855,10.519v15.422c0,6.322-5.123,11.446-11.445,11.446H254.307c-6.322,0-11.449-5.124-11.449-11.446
	v-47.481C242.857,380.982,247.984,375.858,254.307,375.858L254.307,375.858z"/>
<path fill="#FFFFFF" d="M251.814,373.088h122.984c6.322,0,11.445,5.124,11.445,11.446v12.935l15.855,8.607l-15.855,10.519v15.422
	c0,6.322-5.123,11.446-11.445,11.446H251.814c-6.322,0-11.45-5.124-11.45-11.446v-47.482
	C240.365,378.212,245.492,373.088,251.814,373.088L251.814,373.088z"/>
<path fill="#B6BFF0" d="M254.358,384.083h40.556c0.744,0,1.347,0.604,1.347,1.348v3.17c0,0.744-0.603,1.348-1.347,1.348h-40.556
	c-0.744,0-1.348-0.604-1.348-1.348v-3.17C253.011,384.686,253.614,384.083,254.358,384.083z"/>
<path fill="#DEE7FA" d="M254.446,410.84h49.728c0.488,0,0.885,0.396,0.885,0.885v2.079c0,0.488-0.396,0.885-0.885,0.885h-49.728
	c-0.489,0-0.885-0.396-0.885-0.885v-2.079C253.561,411.235,253.957,410.84,254.446,410.84z"/>
<path fill="#DEE7FA" d="M254.446,422.935h49.728c0.488,0,0.885,0.396,0.885,0.885v2.079c0,0.489-0.396,0.885-0.885,0.885h-49.728
	c-0.489,0-0.885-0.396-0.885-0.885v-2.079C253.561,423.332,253.957,422.935,254.446,422.935z"/>
<path fill="#DEE7FA" d="M314.921,410.84h49.729c0.488,0,0.885,0.396,0.885,0.885v2.079c0,0.488-0.396,0.885-0.885,0.885h-49.729
	c-0.488,0-0.885-0.396-0.885-0.885v-2.079C314.037,411.235,314.433,410.84,314.921,410.84z"/>
<path fill="#DEE7FA" d="M254.446,400.211h116.987c0.488,0,0.885,0.396,0.885,0.885v2.079c0,0.489-0.396,0.885-0.885,0.885H254.446
	c-0.489,0-0.885-0.396-0.885-0.885v-2.079C253.561,400.607,253.957,400.211,254.446,400.211z"/>
<path opacity="0.37" fill="#3B3348" enable-background="new    " d="M383.058,469.068H251.252c-6.775,0-12.267,5.491-12.267,12.268
	v13.861l-16.992,9.225l16.992,11.274v16.529c0,6.774,5.491,12.268,12.267,12.268h131.806c6.775,0,12.271-5.491,12.271-12.268v-50.89
	C395.33,474.56,389.833,469.068,383.058,469.068L383.058,469.068z"/>
<path fill="#FFFFFF" d="M385.73,466.101H253.923c-6.775,0-12.267,5.49-12.267,12.267v13.862l-16.992,9.224l16.992,11.275v16.528
	c0,6.775,5.491,12.268,12.267,12.268H385.73c6.775,0,12.27-5.49,12.27-12.268v-50.89C398,471.594,392.505,466.101,385.73,466.101
	L385.73,466.101z"/>
<path fill="#B6BFF0" d="M339.441,477.886h43.658c0.744,0,1.348,0.604,1.348,1.348v3.59c0,0.744-0.604,1.347-1.348,1.347h-43.658
	c-0.744,0-1.348-0.603-1.348-1.347v-3.59C338.093,478.49,338.697,477.886,339.441,477.886z"/>
<path fill="#DEE7FA" d="M329.55,506.563h53.422c0.49,0,0.885,0.396,0.885,0.884v2.355c0,0.488-0.395,0.885-0.885,0.885H329.55
	c-0.488,0-0.885-0.396-0.885-0.885v-2.355C328.666,506.959,329.062,506.563,329.55,506.563z"/>
<path fill="#DEE7FA" d="M329.55,519.526h53.422c0.49,0,0.885,0.396,0.885,0.885v2.355c0,0.488-0.395,0.884-0.885,0.884H329.55
	c-0.488,0-0.885-0.396-0.885-0.884v-2.355C328.666,519.922,329.062,519.526,329.55,519.526z"/>
<path fill="#DEE7FA" d="M264.733,506.563h53.423c0.49,0,0.885,0.396,0.885,0.884v2.355c0,0.488-0.395,0.885-0.885,0.885h-53.423
	c-0.488,0-0.884-0.396-0.884-0.885v-2.355C263.849,506.959,264.245,506.563,264.733,506.563z"/>
<path fill="#DEE7FA" d="M257.464,495.17h125.508c0.488,0,0.883,0.396,0.883,0.885v2.355c0,0.488-0.395,0.885-0.883,0.885H257.464
	c-0.488,0-0.884-0.396-0.884-0.885v-2.355C256.58,495.566,256.976,495.17,257.464,495.17z"/>
<path fill="#EEC07C" d="M501.632,425.553c0-22.211-18.004-40.216-40.215-40.216c-22.209,0-40.215,18.005-40.215,40.216
	c0,22.21,39.273,76.033,40.215,76.033C462.988,501.587,501.632,447.763,501.632,425.553z"/>
<path opacity="0.53" fill="#E06D6A" enable-background="new    " d="M460.947,385.337c-0.053,0-0.105,0.007-0.105,0.007
	l-0.053,116.117c0.068,0.065,0.135,0.124,0.135,0.124c1.594,0,40.238-53.823,40.238-76.033S483.156,385.337,460.947,385.337
	L460.947,385.337z"/>
<circle fill="#FFFFFF" cx="461.417" cy="426.181" r="27.648"/>
<path fill="#AEAF71" d="M458.595,442.048c-1.174,0-2.301-0.478-3.119-1.328l-12.824-13.337c-1.656-1.722-1.604-4.461,0.119-6.117
	c1.721-1.654,4.461-1.606,6.117,0.12l9.23,9.599l12.869-17.853c1.396-1.938,4.1-2.373,6.039-0.979
	c1.938,1.397,2.375,4.101,0.979,6.04l-15.902,22.06c-0.748,1.038-1.924,1.693-3.205,1.784
	C458.796,442.043,458.697,442.047,458.595,442.048L458.595,442.048z"/>
<path fill="#3C251D" d="M75.34,408.033c-0.125,0-0.243-0.051-0.327-0.146c-0.084-0.091-0.125-0.216-0.113-0.34l0.003-0.032
	c0.005-0.046,0.01-0.093,0.01-0.141c0-1.496-1.769-2.714-3.941-2.714c0,0-0.186,0.007-0.189,0.007
	c-0.111,0.036-0.235-0.041-0.319-0.127c-0.085-0.082-0.133-0.196-0.133-0.315l-0.003-14.942c0-0.12,0.048-0.233,0.133-0.315
	c0.084-0.083,0.216-0.105,0.319-0.127l0.189,0.007c2.172,0,3.939-1.219,3.939-2.716c0-0.207-0.04-0.422-0.119-0.64
	c-0.048-0.137-0.029-0.286,0.055-0.404c0.082-0.118,0.217-0.188,0.361-0.188l41.811-0.009c0.144,0,0.278,0.068,0.362,0.187
	c0.084,0.119,0.103,0.268,0.055,0.405c-0.077,0.219-0.119,0.436-0.119,0.641c0,1.497,1.766,2.714,3.936,2.714
	c0.161,0,0.317-0.009,0.468-0.019c0.12-0.018,0.243,0.03,0.333,0.114c0.091,0.084,0.142,0.203,0.142,0.324l0.003,14.836
	c0.016,0.042,0.022,0.089,0.022,0.139c0,0.248-0.244,0.481-0.453,0.442c-0.017-0.002-0.033,0-0.048-0.002
	c-0.153-0.012-0.305-0.021-0.461-0.021c-2.172,0-3.939,1.219-3.939,2.715c0,0.047,0.005,0.093,0.01,0.141
	c0.012,0.125-0.027,0.265-0.109,0.356c-0.084,0.093-0.201,0.163-0.326,0.163l-41.556,0.009L75.34,408.033z M71.216,403.782
	c2.446,0.089,4.419,1.548,4.572,3.366l40.659-0.008c0.158-1.881,2.256-3.374,4.814-3.374h0.057l-0.003-14.045h-0.055
	c-2.661,0-4.824-1.615-4.824-3.599c0-0.113,0.008-0.229,0.024-0.346l-40.687,0.008c0.016,0.115,0.024,0.231,0.024,0.347
	c0,1.925-2.033,3.502-4.581,3.595l0.003,14.056H71.216z"/>
<path fill="#3C251D" d="M115.141,406.058H77.014c-0.245,0-0.442-0.199-0.442-0.442V387.27c0-0.244,0.197-0.442,0.442-0.442h38.127
	c0.245,0,0.442,0.198,0.442,0.442v18.346C115.583,405.859,115.386,406.058,115.141,406.058z M77.456,405.174H114.7v-17.461H77.456
	V405.174z"/>
<path fill="#3C251D" d="M102.295,392.543H90.261l-0.021,0.022v1.08l0.021,0.021h12.034l0.021-0.022v-1.08L102.295,392.543z"/>
<path fill="#3C251D" d="M102.373,396.47H90.338l-0.021,0.022v1.08l0.021,0.021h12.034l0.021-0.022v-1.08L102.373,396.47z"/>
<path fill="#9097CE" d="M83.195,571.426c0,0-0.252,8.566-1.176,10.55c-0.924,1.981-1.704,0.291-1.073,5.41s0.645,5.607,0.711,8.052
	s-1.584,13.495-1.584,13.495l23.542,2.285l47.479,1.135l10.189-2.971c0,0-0.195-7.087-0.324-11.731
	c-0.128-4.644,0.83-5.403-0.276-10.02c-1.105-4.616-3.024-20.95-3.024-20.95l-74.463,4.745H83.195z"/>
<path fill="#D3DFEB" d="M82.311,592.484h0.046c0.675-0.063,16.652-1.61,19.843-13.793c0.104-0.393-0.13-0.794-0.523-0.897
	c-0.393-0.114-0.793,0.131-0.896,0.523c-2.93,11.197-18.394,12.688-18.554,12.701c-0.399,0.037-0.699,0.393-0.665,0.795
	c0.034,0.39,0.369,0.681,0.752,0.671H82.311z"/>
<path fill="#D3DFEB" d="M158.776,589.948c1.088-0.03,1.767-0.114,1.801-0.118c0.4-0.057,0.683-0.425,0.626-0.826
	c-0.05-0.377-0.374-0.646-0.746-0.636c0,0-0.052,0-0.081,0.005c-0.605,0.089-15.178,1.91-17.568-9.915
	c-0.081-0.396-0.415-0.671-0.864-0.573c-0.393,0.079-0.651,0.465-0.572,0.864c2.125,10.54,13.044,11.319,17.401,11.199H158.776z"/>
<path fill="#D3DFEB" d="M119.534,611.999c0.389-0.01,0.708-0.325,0.713-0.718l0.492-26.428c0.007-0.404-0.312-0.738-0.72-0.747
	c-0.334-0.036-0.742,0.315-0.748,0.72l-0.492,26.428c-0.007,0.404,0.312,0.738,0.72,0.747h0.034V611.999z"/>
<path fill="#D3DFEB" d="M127.353,611.785c0.389-0.011,0.708-0.326,0.713-0.719l0.478-26.917c0.005-0.408-0.319-0.739-0.72-0.748
	c-0.331,0.052-0.743,0.313-0.748,0.721l-0.479,26.917c-0.005,0.408,0.319,0.739,0.72,0.748h0.034V611.785z"/>
<path fill="#E89F90" d="M67.426,432.942c0,0,2.33-16.223,1.402-16.604c-0.928-0.381-3.185,0.783-3.569,3.293
	c-1.041,6.787-5.054,13.243-4.301,14.937c2.174,4.89,4.428-1.314,4.428-1.314L67.426,432.942L67.426,432.942z"/>
<path fill="#E8A080" d="M181.723,519.799c4.889-20.17-3.718-50.098-3.718-50.098l-19.917,0.55l2.347,45.78l21.29,3.77
	L181.723,519.799z"/>
<path fill="#6699FF" d="M103.211,426.782c-0.036-0.032-0.087-0.042-0.132-0.023c-0.953,0.391-11.031,4.512-16.032,6.091
	c-5.252,1.659-17.628,5.785-22.346,13.105c-4.563,7.082-20.7,36.443-21.752,38.36c-0.031,0.057-0.015,0.127,0.036,0.164
	c1.639,1.184,24.982,17.988,28.892,18.134c0.052,0.002,0.096-0.027,0.117-0.073c0.675-1.466,11.136-23.85,11.564-4.12
	c0.072,3.343-1.155,73.342-1.215,76.718c0,0.068,0.053,0.125,0.122,0.128c0.453,0.02,2.237,0.173,6.725,1.322
	c5.336,1.366,23.823,12.967,39.602,8.747c15.165-4.056,29.516-12.284,30.61-12.918c0.041-0.024,0.065-0.069,0.063-0.117
	c-0.111-2.134-2.5-47.948-2.433-55.006c0.029-3.035,1.574-17.345,2.182-22.88c0.115-1.037,0.196-1.766,0.228-2.056
	c0.009-0.075,0.077-0.125,0.151-0.111c1.752,0.354,19.975,3.883,26.728-1.271c0.039-0.03,0.058-0.08,0.048-0.13
	c-0.504-2.232-11.532-50.692-20.902-55.241c-9.312-4.521-31.873-10.814-33.176-11.177c-0.038-0.01-0.075-0.003-0.108,0.019
	c-1.015,0.737-17.681,12.566-28.969,2.335H103.211z"/>
<path fill="#E8A080" d="M66.313,442.103c-3.415,5.648,2.314,45.7-0.621,56.154c-2.935,10.453-11.235,17.914-11.235,17.914
	s-7.549,1.517-9.898-2.786c-2.349-4.305-4.32-17.806-1.811-30.127c2.51-12.32,9.25-27.14,11.734-43.503L66.313,442.103
	L66.313,442.103z"/>
<path fill="#BB5151" d="M45.718,507.578c-0.017,0.021-0.031,0.043-0.04,0.07c-0.699,2.271,1.367,5.64,1.454,5.782
	c0.056,0.091,0.19,0.12,0.298,0.066c0.104-0.05,0.15-0.17,0.094-0.261c-0.021-0.034-2.076-3.384-1.419-5.51
	c0.031-0.103-0.038-0.203-0.156-0.226C45.86,507.485,45.771,507.517,45.718,507.578z"/>
<path fill="#E7E7F2" d="M122.579,576.223c14.242-0.393,29.453-10.955,29.612-11.068c0.171-0.12,0.212-0.355,0.091-0.526
	c-0.119-0.172-0.355-0.209-0.526-0.093c-0.168,0.118-16.917,11.746-31.501,10.901c-13.248-0.756-27.617-6.77-30.394-7.983
	c0.564-0.411,2.098-1.005,5.808,0.063c5.021,1.445,20.298,5.849,32.317,1.121c0.195-0.075,0.29-0.297,0.214-0.49
	c-0.077-0.195-0.295-0.288-0.491-0.215c-11.778,4.634-26.873,0.285-31.832-1.145c-5.741-1.653-6.885,0.397-6.996,0.636
	c-0.042,0.091-0.046,0.197-0.012,0.291c0.034,0.095,0.106,0.172,0.197,0.213c0.161,0.074,16.335,7.418,31.145,8.263
	c0.784,0.045,1.576,0.055,2.366,0.032H122.579z"/>
<path fill="#E7E7F2" d="M159.761,486.842c0.178-0.005,0.334-0.135,0.364-0.318l2.261-14.065c0.033-0.206-0.108-0.399-0.313-0.435
	c-0.223-0.032-0.401,0.108-0.434,0.314l-2.261,14.065c-0.033,0.206,0.108,0.399,0.313,0.434
	C159.715,486.84,159.739,486.842,159.761,486.842z"/>
<path fill="#E7E7F2" d="M160.423,483.419c0.115-0.004,0.228-0.061,0.3-0.163l5.097-7.332c0.12-0.172,0.077-0.408-0.094-0.526
	c-0.17-0.118-0.408-0.077-0.526,0.095l-5.097,7.332c-0.12,0.171-0.077,0.407,0.094,0.525c0.069,0.049,0.147,0.069,0.227,0.067
	V483.419z"/>
<path fill="#E8A080" d="M43.844,412.02l11.829-0.191c0,0,3.619,12.949,7.193,17.215c0.595,0.71,1.67-4.795,1.67-4.795l3.187,4.02
	c0,0-0.432,11.097-1.82,13.396l-5.47,8.864l-3.945,6.218l-1.548-10.437l-9.272-18.445c-0.823-1.637,1.28-3.236,0.679-4.966
	C45.066,419.219,43.563,413.241,43.844,412.02L43.844,412.02z"/>
<path fill="#E8A080" d="M111.04,521.977c6.489,1.209,37.548-15.267,48.367-16.198c10.818-0.931,20.72,4.216,20.72,4.216
	s4.077,6.533,0.874,10.246c-3.202,3.713-15.147,10.308-27.563,12.293s-29.252-0.919-45.442,2.513l3.044-13.067V521.977z"/>
<path fill="#BB5151" d="M175.159,521.197c0.025,0.011,0.051,0.015,0.079,0.013c2.373-0.145,4.798-3.263,4.901-3.396
	c0.065-0.085,0.046-0.219-0.043-0.303c-0.084-0.081-0.211-0.081-0.278,0.003c-0.024,0.031-2.436,3.134-4.658,3.268
	c-0.108,0.007-0.178,0.107-0.156,0.227C175.022,521.094,175.083,521.169,175.159,521.197L175.159,521.197z"/>
<path fill="#E8A080" d="M122.212,519.93l-21.115,4.075c0,0-13.286,6.817-13.039,8.715c0.249,1.898,8.997,13.449,8.997,13.449
	s6.747-6.124,14.669-12.787c0.118-0.1,7.094-0.567,7.094-0.567l3.394-12.883V519.93z"/>
<path fill="#E8A080" d="M107.396,523.153c0,0-5.909-1.061-14.525-0.26c-3.283,0.305-11.181-1.744-10.879,0.414
	c0.302,2.159,10.389,3.134,10.577,3.806c0.188,0.673-3.944,4.434-3.944,4.434l8.851-1.649l9.919-6.744H107.396z"/>
<path fill="#E8A080" d="M91.566,530.019c0,0-19.351,8.19-18.944,9.906c0.406,1.717,16.366-4.515,16.366-4.515
	s-15.891,9.865-15.219,11.438c0.672,1.574,18.055-7.739,18.055-7.739s-13.353,12.372-12.363,13.582s15.333-9.953,15.333-9.953
	s-8.781,11.662-7.872,12.722s10.135-9.295,10.135-9.295l6.182-6.792l-11.672-9.356L91.566,530.019z"/>
<path fill="#B0B0B0" d="M51.929,420.146c-3.437-2.646-4.08-7.596-1.433-11.033c2.647-3.437,7.596-4.08,11.033-1.433
	c3.437,2.646,4.08,7.596,1.433,11.032C60.315,422.15,55.366,422.794,51.929,420.146z M52.645,419.216
	c2.925,2.251,7.135,1.704,9.386-1.219c2.251-2.925,1.704-7.135-1.219-9.386c-2.924-2.251-7.135-1.704-9.386,1.219
	C49.176,412.755,49.722,416.965,52.645,419.216z"/>
<path fill="#353535" d="M68.972,435.459l1.321-0.896c2.435-1.649,2.954-5.043,1.164-7.376l-7.76-10.116
	c-0.586-0.763-1.704-0.994-2.5-0.454l-5.352,3.623c-0.787,0.533-0.989,1.645-0.516,2.471l6.339,11.051
	C63.147,436.34,66.512,437.127,68.972,435.459z M57.349,421.975c-0.269-0.397-0.166-0.939,0.233-1.21L61,418.449
	c0.398-0.27,0.939-0.166,1.21,0.233l0.209,0.309c0.269,0.397,0.167,0.939-0.233,1.208l-3.418,2.316
	c-0.397,0.27-0.939,0.166-1.208-0.233l-0.209-0.309L57.349,421.975z"/>
<path opacity="0.41" fill="#7F7F7F" enable-background="new    " d="M68.1,426.214l-5.998,4.063
	c-0.026,0.018-0.061,0.011-0.079-0.015l-1.648-2.435c-0.018-0.026-0.011-0.062,0.015-0.078l5.998-4.063
	c0.026-0.018,0.061-0.011,0.079,0.016l1.648,2.434C68.132,426.161,68.125,426.196,68.1,426.214z"/>
<path opacity="0.41" fill="#7F7F7F" enable-background="new    " d="M70.074,429.134l-5.998,4.063
	c-0.026,0.018-0.061,0.011-0.079-0.016l-1.649-2.434c-0.018-0.026-0.011-0.062,0.015-0.079l5.998-4.063
	c0.026-0.018,0.062-0.011,0.079,0.016l1.649,2.434C70.106,429.081,70.1,429.116,70.074,429.134z"/>
<path fill="#8BC43F" d="M59.454,425.502c-0.206-0.304-0.126-0.718,0.179-0.924c0.303-0.206,0.718-0.127,0.924,0.178
	c0.206,0.304,0.127,0.719-0.178,0.925C60.075,425.885,59.66,425.807,59.454,425.502z"/>
<path fill="#B0B0B0" d="M62.229,418.453c-0.101-0.104-0.202-0.213-0.307-0.322c0.036-0.045,0.074-0.09,0.11-0.134
	c0.588-0.765,0.985-1.615,1.198-2.498c0.156,0.052,0.324,0.068,0.49,0.029c0.24-0.057,0.492-0.134,0.744-0.215
	c-0.214,1.2-0.71,2.368-1.503,3.399c-0.07,0.093-0.144,0.183-0.218,0.27C62.573,418.805,62.401,418.629,62.229,418.453z"/>
<path fill="#B0B0B0" d="M71.819,416.637l5.014,2.009l-0.175,0.436l2.179,0.872l0.175-0.436l0.873,0.351l-0.35,0.87l1.526,0.612
	l0.35-0.873l0.655,0.263l-0.175,0.436l2.398,0.962l0.173-0.438l1.454,0.583l-2.419,2.065l-12.725-5.097L71.819,416.637z"/>
<path opacity="0.3" enable-background="new    " d="M71.264,418.024c1.155,0.442,12.83,5.165,13.369,5.355l-1.136,0.972
	l-12.725-5.097l0.492-1.229L71.264,418.024z"/>
<path fill="#4D4D4D" d="M70.216,422.534l3.259-8.136c0.302-0.753-0.24-1.641-1.027-1.838l-7.498-1.882
	c-0.648-0.161-1.205,0.225-1.454,0.843l-2.431,6.07c-0.245,0.61-0.036,1.298,0.529,1.634l6.535,3.894
	C68.835,423.539,69.911,423.296,70.216,422.534L70.216,422.534z M62.686,417.786c-0.326-0.131-0.485-0.501-0.353-0.826l1.884-4.706
	c0.13-0.325,0.5-0.485,0.826-0.354l0.127,0.052c0.326,0.131,0.485,0.501,0.353,0.826l-1.884,4.706
	c-0.13,0.325-0.5,0.485-0.826,0.353L62.686,417.786z"/>
<path fill="#B0B0B0" d="M63.774,410.418c0.387,0.783,0.636,1.623,0.747,2.482c-0.386,0.106-0.019,0.74-0.367,0.822
	c-0.014,0.004-0.518,1.184-0.741,0.746c0.045-1.43-0.307-2.698-0.615-3.367c0.336-0.176,0.66-0.414,0.976-0.682V410.418z"/>
<path fill="#E8A080" d="M43.788,410.361c0,0,9.417-6.087,9.701-4.587s-9.127,9.032-9.127,9.032s9.694-4.132,9.943-2.107
	c0.247,2.026-8.94,6.791-8.94,6.791s10.923-0.914,9.924,1.063c-0.655,1.295-8.463,3.356-8.463,3.356s9.358-0.862,9.033,0.806
	c-0.328,1.67-10.265,2.647-10.265,2.647s-1.779-1.5-1.071-3.417c0.252-0.681-1.146-2.065-0.48-3.535c0,0-2.407-3.359-0.266-5.785
	c0,0-3.313-2.026,0.014-4.264H43.788z"/>
<path fill="#3C251D" d="M122.198,362.962c-3.333-0.209-6.67,0.61-9.999,0.354c-1.55-0.12-3.089-0.474-4.641-0.395
	c-4.21,0.216-7.901,4.08-7.925,8.295c-0.007,1.325,0.298,2.669,0.017,3.965c-0.415,1.91-2.022,3.333-3.718,4.304
	c-1.695,0.97-3.567,1.642-5.136,2.806c-2.666,1.981-4.205,5.388-3.929,8.698c0.281,3.383,2.259,6.345,3.557,9.48
	c1.298,3.135,1.778,7.128-0.542,9.604c-1.526,1.631-4.022,2.301-5.095,4.259c-1.16,2.115-0.142,4.736,1.034,6.843
	c0.364,0.653,0.765,1.32,1.392,1.729c1.97,1.278,4.368-0.691,6.638-1.291c2.585-0.685,5.28,0.515,7.558,1.915
	s4.517,3.075,7.161,3.475c4.174,0.633,8.073-2.05,11.321-4.745c3.25-2.695,6.727-5.698,10.945-5.882
	c2.558-0.111,5.033,0.854,7.579,1.121c4.311,0.451,8.568-1.114,12.516-2.907c1.833-0.831,3.679-1.747,5.088-3.182
	c1.411-1.435,2.328-3.501,1.913-5.471c-0.523-2.475-2.9-4.083-5.209-5.115s-4.855-1.832-6.538-3.722
	c-2.486-2.785-2.213-7.366,0.062-10.326c0.944-1.229,2.213-2.296,2.637-3.787c0.44-1.55-0.146-3.204-0.916-4.618
	c-3.194-5.857-9.363-9.399-15.412-12.216c-3.294-1.534-6.73-2.966-10.357-3.194V362.962z"/>
<path fill="#E8A080" d="M138.125,426.712c-0.017-0.103-1.87-0.807-3.869-1.539c-2.636-0.965-4.515-3.324-4.863-6.111l-2.314-18.571
	l-15.576-0.778l-0.341,17.426c-0.077,3.923-2.552,7.396-6.234,8.747l-6.055,2.222c0,0,4.713,16.56,27.195,15.473
	c14.048-0.681,12.638-13.273,12.06-16.868L138.125,426.712z"/>
<path fill="#BF635F" d="M128.392,410.774l0.922,8.292c0,0-13.372,1.144-17.652-12.622c-4.281-13.766,16.729,4.328,16.729,4.328
	V410.774z"/>
<g>
	<defs>
		<polygon id="SVGID_1_" points="103.007,364.757 103.048,364.757 103.007,364.798 		"/>
	</defs>
	<defs>
		<polygon id="SVGID_2_" points="102.925,364.675 102.884,364.675 102.925,364.633 		"/>
	</defs>
	<clipPath id="SVGID_3_">
		<use xlink:href="#SVGID_1_"  overflow="visible"/>
	</clipPath>
	<clipPath id="SVGID_4_" clip-path="url(#SVGID_3_)">
		<use xlink:href="#SVGID_2_"  overflow="visible"/>
	</clipPath>
	<g transform="matrix(0 0 0 0 102.9658 364.7156)" clip-path="url(#SVGID_4_)" enable-background="new    ">
		<image overflow="visible" width="858" height="1194" xlink:href="94B7CF5.png"  transform="matrix(0 0 0 0 102.9658 364.7156)">
		</image>
	</g>
</g>
<path fill="#3C251D" d="M130.53,391.028c-0.065-1.708,0.435-3.113,1.118-3.141c0.684-0.027,1.291,1.335,1.356,3.042
	c0.065,1.708-0.436,3.113-1.118,3.141C131.202,394.097,130.595,392.735,130.53,391.028z"/>
<path fill="#3C251D" d="M115.137,391.49c-0.065-1.707,0.436-3.112,1.118-3.14c0.684-0.028,1.291,1.335,1.356,3.042
	c0.065,1.708-0.436,3.113-1.118,3.141C115.809,394.56,115.202,393.198,115.137,391.49z"/>
<path fill="#CD5959" d="M124.449,400.088l-0.111-0.022c-0.233-0.309-0.28-0.672-0.153-0.974l0.144-0.108
	c0.398-0.042,0.809-0.087,1.164-0.26c0.288-0.141,0.607-0.428,0.636-0.81c0.022-0.29-0.122-0.572-0.274-0.871l-0.067-0.13
	c-0.919-1.84-0.808-4.064-0.718-5.853c0.005-0.098,0.098-0.182,0.185-0.168c0.098,0.005,0.173,0.089,0.168,0.185
	c-0.091,1.838-0.195,3.921,0.681,5.677l0.065,0.126c0.161,0.314,0.343,0.669,0.314,1.06c-0.035,0.444-0.354,0.868-0.835,1.101
	c-0.372,0.182-0.787,0.24-1.166,0.283c-0.035,0.164,0.001,0.348,0.103,0.479c0.059,0.077,0.044,0.189-0.034,0.249L124.449,400.088z"
	/>
<path fill="#E17660" d="M119.881,403.909c0,0,2.163,4.382,5.306,3.774c3.036-0.586,3.598-4.809,3.598-4.809
	s-1.593-1.362-2.455-1.396c-0.944-0.038-1.928,0.906-1.928,0.906s-0.778-0.619-1.72-0.593
	C121.741,401.817,120.486,403.478,119.881,403.909z"/>
<path fill="#FFFFFF" d="M128.723,402.87l-8.84,1.04C119.882,403.91,125.99,409.43,128.723,402.87z"/>
<path fill="#3C251D" d="M113.092,385.671c2.139-1.159,4.668-2.165,6.824-0.48c0.184,0.145,0.297,0.472,0.22,0.696
	c-0.045,0.132-0.086,0.22-0.171,0.329c-0.161,0.207-0.453,0.263-0.696,0.222c-1.971-0.338-3.891-0.703-5.823-0.022
	c-0.434,0.152-0.775-0.515-0.356-0.742L113.092,385.671z"/>
<path fill="#3C251D" d="M135.311,385.112c-2.24-0.946-4.854-1.704-6.84,0.182c-0.169,0.161-0.25,0.497-0.152,0.713
	c0.057,0.127,0.106,0.209,0.202,0.311c0.18,0.189,0.475,0.218,0.713,0.152c1.928-0.528,3.806-1.075,5.794-0.585
	C135.475,385.995,135.75,385.299,135.311,385.112L135.311,385.112z"/>
<path fill="#3C251D" d="M104.543,393.102c2.99-3.523,6.074-7.233,7.118-11.732c0.557-2.4,0.535-5.019,1.836-7.111
	c0.71,0.132,0.996,0.958,1.342,1.593c1.123,2.052,3.835,2.687,6.154,2.383c2.319-0.306,4.498-1.312,6.809-1.673
	c2.311-0.364,5.023,0.118,6.298,2.079c1.448,2.227,0.49,5.429,1.98,7.628c1.157,1.71,5.3,5.94,7.344,5.644
	c-0.193-3.835-2.199-11.35-2.393-15.183c-0.031-0.623-0.065-1.254-0.259-1.847c-0.406-1.244-1.454-2.151-2.457-2.993
	c-2.215-1.861-4.46-3.742-7.064-5.004c-2.174-1.055-4.538-1.647-6.883-2.233c-1.759-0.44-3.552-0.883-5.362-0.782
	c-1.428,0.081-2.813,0.497-4.183,0.91c-3.213,0.971-6.487,1.97-9.238,3.89c-2.751,1.922-4.946,4.955-4.99,8.312
	c-0.019,1.421,0.343,2.832,0.274,4.251c-0.075,1.567-0.668,3.059-0.927,4.604s-0.106,3.319,1.037,4.394
	c1.137,1.07,3.135,1.37,3.561,2.873L104.543,393.102z"/>
<path fill="#E8A080" d="M106.694,393.965c0,0-1.94-4.767-5.702-0.905c-1.493,1.532,0.787,6.891,6.153,5.319
	c0,0,1.558-1.261-0.449-4.414H106.694z"/>
<path fill="#CD5959" d="M105.942,396.839c-0.668,0.36-2.188,0.801-3.163,0.237c-0.076-0.043-0.102-0.14-0.102-0.14l0.257-0.132
	c0.991,0.573,2.648-0.055,3.016-0.331l-0.105-0.08c-0.305-0.233-0.871-0.665-0.723-1.382c0.06-0.293,0.199-0.508,0.408-0.633
	c0.16-0.094,0.319-0.12,0.458-0.123c-0.319-0.574-1.171-1.901-2.136-1.768c-0.931,0.129-1.606,0.463-2.009,0.996
	c-0.494,0.655-0.396,1.396-0.396,1.396c0.014,0.093-0.045,0.171-0.132,0.186c-0.085,0.012-0.165-0.047-0.178-0.133
	c0,0-0.122-0.872,0.451-1.634c0.454-0.604,1.2-0.981,2.22-1.122c1.45-0.201,2.551,2.102,2.597,2.199l-0.022,0.168
	c-0.041,0.048-0.104,0.065-0.104,0.065s-0.356-0.104-0.588,0.037c-0.132,0.079-0.219,0.223-0.261,0.427
	c-0.108,0.523,0.322,0.853,0.607,1.068c0.134,0.101,0.221,0.168,0.259,0.254c0,0,0.033,0.157-0.091,0.269
	c-0.058,0.052-0.147,0.111-0.264,0.174L105.942,396.839z"/>
<path fill="#EFC266" d="M103.129,399.165c-0.069-1.431,0.512-2.622,1.301-2.662c0.787-0.037,1.483,1.092,1.552,2.523
	c0.068,1.432-0.513,2.623-1.301,2.662C103.894,401.726,103.197,400.596,103.129,399.165z"/>
<path fill="#96965F" d="M528.347,613.508H77.761c-2.594,0-4.694-2.1-4.694-4.693s2.1-4.694,4.694-4.694h450.586
	c2.594,0,4.693,2.101,4.693,4.694S530.941,613.508,528.347,613.508z"/>
<path fill="#FFFFFF" d="M241.908,346.087c-11.217-0.002-20.445-9.131-20.564-20.353c-0.059-5.494,2.023-10.685,5.87-14.612
	c3.842-3.926,8.984-6.121,14.482-6.182h0.227c11.22-0.002,20.448,9.129,20.564,20.349c0.059,5.494-2.022,10.685-5.87,14.61
	c-3.841,3.928-8.984,6.124-14.482,6.184h-0.226V346.087z M241.921,306.075h-0.218c-5.193,0.059-10.053,2.133-13.682,5.843
	c-3.634,3.711-5.604,8.615-5.546,13.807c0.115,10.603,8.831,19.229,19.432,19.23h0.217c5.193-0.059,10.053-2.133,13.685-5.844
	c3.629-3.712,5.599-8.612,5.542-13.805C261.241,314.702,252.527,306.075,241.921,306.075L241.921,306.075z"/>
<path fill="#FFFFFF" d="M242.125,342.738c-9.392,0-17.124-7.646-17.227-17.043c-0.101-9.5,7.546-17.313,17.045-17.415h0.186
	c9.396,0,17.129,7.644,17.23,17.043c0.101,9.502-7.546,17.314-17.045,17.415h-0.19H242.125z M242.13,309.415h-0.177
	c-8.87,0.096-16.013,7.394-15.92,16.269c0.098,8.778,7.317,15.922,16.094,15.922h0.182c8.87-0.093,16.013-7.392,15.92-16.269
	c-0.098-8.78-7.32-15.922-16.097-15.922H242.13z"/>
<path fill="#FFFFFF" d="M237.215,320.748l3.556,9.279l3.917-13.486l3.847-0.513l-5.713,18.311l-2.71,0.66l-5.859-12.818"/>
<ellipse fill="#3C251D" cx="518.402" cy="586.94" rx="17.846" ry="20.043"/>
<path fill="#2B2B3A" d="M519.47,606.988h-7.404v-40.105h7.404V606.988z"/>
<ellipse fill="#3C251D" cx="512.308" cy="586.94" rx="17.846" ry="20.043"/>
<path fill="#DEE7FA" d="M498.187,586.94c0-8.421,6.1-15.271,13.598-15.271s13.598,6.851,13.598,15.271
	c0,8.42-6.1,15.271-13.598,15.271S498.187,595.36,498.187,586.94z M500.455,586.94c0,7.016,5.082,12.727,11.33,12.727
	s11.332-5.709,11.332-12.727c0-7.017-5.084-12.726-11.332-12.726S500.455,579.924,500.455,586.94z"/>
<path fill="#DEE7FA" d="M505.835,586.94c0-3.689,2.664-6.681,5.947-6.681c3.287,0,5.949,2.991,5.949,6.681
	c0,3.688-2.664,6.68-5.949,6.68C508.5,593.62,505.835,590.629,505.835,586.94z"/>
<path fill="#DEE7FA" d="M511.248,584l-1.555-10.01h5.24l-2.551,9.937L511.248,584z"/>
<path fill="#DEE7FA" d="M511.248,590.941l-1.555,10.294h5.24l-2.551-10.078L511.248,590.941z"/>
<path fill="#DEE7FA" d="M508.093,585.774l-8.367-4.289l2.951-4.863l5.936,8.011L508.093,585.774z"/>
<path fill="#DEE7FA" d="M508.664,588.781l-6.389,7.432l-3.1-4.747l8.703-3.617L508.664,588.781z"/>
<path fill="#DEE7FA" d="M515.042,585.774l8.367-4.289l-2.951-4.863l-5.938,8.011L515.042,585.774z"/>
<path fill="#DEE7FA" d="M514.472,588.781l6.391,7.432l3.098-4.747l-8.703-3.617L514.472,588.781z"/>
<ellipse fill="#3C251D" cx="374.953" cy="586.94" rx="17.846" ry="20.043"/>
<path fill="#3C251D" d="M376.021,606.988h-7.402v-40.105h7.402V606.988z"/>
<ellipse fill="#3C251D" cx="368.857" cy="586.94" rx="17.846" ry="20.043"/>
<path fill="#DEE7FA" d="M354.738,586.94c0-8.421,6.1-15.271,13.598-15.271s13.598,6.851,13.598,15.271
	c0,8.42-6.1,15.271-13.598,15.271S354.738,595.36,354.738,586.94z M357.003,586.94c0,7.016,5.082,12.727,11.332,12.727
	c6.248,0,11.33-5.709,11.33-12.727c0-7.017-5.082-12.726-11.33-12.726C362.085,574.215,357.003,579.924,357.003,586.94z"/>
<path fill="#DEE7FA" d="M362.386,586.94c0-3.689,2.664-6.681,5.949-6.681s5.947,2.991,5.947,6.681c0,3.688-2.664,6.68-5.947,6.68
	C365.05,593.62,362.386,590.629,362.386,586.94z"/>
<path fill="#DEE7FA" d="M367.8,584l-1.559-10.01h5.24l-2.549,9.937L367.8,584z"/>
<path fill="#DEE7FA" d="M367.8,590.941l-1.559,10.294h5.24l-2.549-10.078L367.8,590.941z"/>
<path fill="#DEE7FA" d="M364.644,585.774l-8.369-4.289l2.951-4.863l5.939,8.011L364.644,585.774z"/>
<path fill="#DEE7FA" d="M365.212,588.781l-6.389,7.432l-3.098-4.747l8.703-3.617L365.212,588.781z"/>
<path fill="#DEE7FA" d="M371.591,585.774l8.367-4.289l-2.951-4.863l-5.936,8.011L371.591,585.774z"/>
<path fill="#DEE7FA" d="M371.023,588.781l6.389,7.432l3.098-4.747l-8.703-3.617L371.023,588.781z"/>
<path fill="#3C251D" d="M552.431,583.189l-0.35-11.998l-9.041,4.174l3.303,8.52l5.391-0.521L552.431,583.189z"/>
<path fill="#0063CB" d="M550.63,591.248h-260.04l-7.642-16.23l3.339-17.854c0,0-2.299-10.448-0.257-12.753
	c0.771-0.868,14.386-5.102,14.386-5.102s1.154-4.984,2.119-6.202c0.963-1.217,30.762-29.504,77.26-29.504s70.752,1.327,73.576,1.327
	c2.826,0,30.875,15.879,43.719,28.631c0,0,47.373,2.503,51.74,17.805c4.369,15.304,4.111,22.258,4.111,22.258
	s-6.166,0.231-5.908,4.406c0.256,4.174,7.191,3.941,7.191,3.941l-3.596,9.273V591.248z"/>
<path fill="#DEE7FA" d="M496.974,556.513c0,0-30.467-5.543-37.938-8.671c0,0,1.148,13.896,14.393,15.538
	c13.246,1.644,21.988-2.669,21.988-2.669L496.974,556.513z"/>
<path fill="#000091" d="M552.943,573.69c0,0-6.166,0.231-5.908,4.405c0.256,4.175,7.191,3.941,7.191,3.941l-3.596,9.274h-260.04
	l-7.642-16.23l0.521-2.782h269.441c0.049,0.931,0.033,1.392,0.033,1.392H552.943z"/>
<path fill="#DEE7FA" d="M540.617,555.255c0,0,3.5-1.171,8.367-2.873c0.842,2.988,1.504,5.644,2.027,7.99
	c-5.125-0.171-8.254-1.181-8.254-1.181l-2.139-3.935L540.617,555.255z"/>
<path fill="#3C251D" d="M498.001,581.799v-4.348c0,0-23.998-6.085-29.215-5.564c-5.217,0.521-2.721,8.909-0.697,10.26
	C469.134,582.843,490.523,584.059,498.001,581.799z"/>
<g>
	<defs>
		<path id="SVGID_5_" d="M403.253,533.744H331.55c-0.52,0-1.014-0.207-1.348-0.567l-7.125-7.647
			c-0.703-0.757-0.49-1.902,0.461-2.396c6.863-3.557,32.15-15.763,54.977-15.128c6.869,0.191,21.699,15.89,26.295,23.399
			c0.643,1.051-0.225,2.339-1.555,2.339L403.253,533.744z"/>
	</defs>
	<clipPath id="SVGID_6_">
		<use xlink:href="#SVGID_5_"  overflow="visible"/>
	</clipPath>
	<g clip-path="url(#SVGID_6_)">
		<path fill="#9097CE" d="M405.835,539.194h-88.688v-32.229h88.688V539.194z"/>
	</g>
</g>
<path fill="#684B43" d="M320.576,523.925l0.758-0.423c0.297-0.166,30.582-16.886,57.205-16.191
	c8.25,0.229,26.148,20.444,28.197,26.223l0.322,0.907h-74.639c-1.297,0-2.525-0.516-3.359-1.412l-8.482-9.104H320.576z
	 M400.548,526.767c-6.279-7.781-16.945-17.923-22.059-18.065c-19.467-0.541-40.994,8.479-50.859,13.2
	c-2.469,1.181-3.09,4.114-1.291,6.045l3.438,3.688c0.834,0.896,2.063,1.413,3.359,1.413h63.854c3.582,0,5.67-3.669,3.561-6.283
	L400.548,526.767z"/>
<g>
	<defs>
		<path id="SVGID_7_" d="M495.656,532.817c0,0-45.215-2.782-82.207,0.927c0,0-11.559-17.39-24.404-25.505l69.361-0.464
			c0,0,23.377,11.36,37.25,25.04V532.817z"/>
	</defs>
	<clipPath id="SVGID_8_">
		<use xlink:href="#SVGID_7_"  overflow="visible"/>
	</clipPath>
	<g clip-path="url(#SVGID_8_)">
		<path fill="#9097CE" d="M497.074,536.643H389.953v-32.462h107.121V536.643z"/>
	</g>
</g>
<path fill="#684B43" d="M369.392,508.502c0,0-5.105,10.087-6.936,24.867l-5.01,0.173c0,0,0.869-15.736,8.768-24.694l3.178-0.348
	V508.502z"/>
<path fill="#63637E" d="M331.052,532.933l8.861-17.042l2.023-0.608l-9.248,18.434L331.052,532.933z"/>
<path opacity="0.46" fill="#070707" enable-background="new    " d="M321.505,523.815l0.463,0.556l-8.426,5.732
	c1.988,2.401,15.074,18.49,16.285,27.015c0.188,1.325,0.383,2.725,0.578,4.152c0.994,7.157,2.34,16.881,3.334,18.268h21.574
	c-1.863-32.871,3.518-46.361,3.57-46.495l0.721,0.242c-0.055,0.132-5.379,13.527-3.52,46.251h41.055
	c0.037-3.348,0.594-29.919,8.508-45.934l0.705,0.284c-8.348,16.893-8.445,45.709-8.445,45.999v0.348h-64.512l-0.113-0.101
	c-1.105-1-2.16-8.083-3.641-18.774c-0.197-1.427-0.391-2.825-0.58-4.149c-1.256-8.847-16.213-26.781-16.363-26.962l-0.234-0.277
	l9.041-6.15V523.815z"/>
<path fill="#684B43" d="M288.325,591.248c-0.235-1.44-0.362-2.928-0.362-4.454c0-12.471,8.217-22.587,18.4-22.753v-0.031h7.738
	v0.084c9.777,0.71,17.533,10.586,17.533,22.699c0,1.523-0.123,3.014-0.359,4.453h-42.952L288.325,591.248z"/>
<path fill="#684B43" d="M414.691,591.248c-0.234-1.44-0.361-2.928-0.361-4.454c0-12.471,8.215-22.587,18.398-22.753v-0.031h7.738
	v0.084c9.777,0.71,17.533,10.586,17.533,22.699c0,1.523-0.123,3.014-0.357,4.453h-42.953L414.691,591.248z"/>
<ellipse fill="#3C251D" cx="436.671" cy="586.94" rx="17.846" ry="20.043"/>
<path fill="#3C251D" d="M437.74,606.988h-7.404v-40.105h7.404V606.988z"/>
<ellipse fill="#3C251D" cx="430.578" cy="586.94" rx="17.844" ry="20.043"/>
<path fill="#DEE7FA" d="M416.457,586.94c0-8.421,6.1-15.271,13.598-15.271s13.598,6.851,13.598,15.271
	c0,8.42-6.1,15.271-13.598,15.271S416.457,595.36,416.457,586.94z M418.722,586.94c0,7.016,5.084,12.727,11.332,12.727
	s11.33-5.709,11.33-12.727c0-7.017-5.082-12.726-11.33-12.726S418.722,579.924,418.722,586.94z"/>
<path fill="#DEE7FA" d="M424.103,586.94c0-3.689,2.664-6.681,5.949-6.681s5.949,2.991,5.949,6.681c0,3.688-2.664,6.68-5.949,6.68
	C426.765,593.62,424.103,590.629,424.103,586.94z"/>
<path fill="#DEE7FA" d="M429.517,584l-1.559-10.01h5.24l-2.549,9.937L429.517,584z"/>
<path fill="#DEE7FA" d="M429.517,590.941l-1.559,10.294h5.24l-2.549-10.078L429.517,590.941z"/>
<path fill="#DEE7FA" d="M426.361,585.774l-8.367-4.289l2.953-4.863l5.936,8.011L426.361,585.774z"/>
<path fill="#DEE7FA" d="M426.931,588.781l-6.389,7.432l-3.1-4.747l8.705-3.617L426.931,588.781z"/>
<path fill="#DEE7FA" d="M433.31,585.774l8.369-4.289l-2.953-4.863l-5.936,8.011L433.31,585.774z"/>
<path fill="#DEE7FA" d="M432.74,588.781l6.389,7.432l3.1-4.747l-8.703-3.617L432.74,588.781z"/>
<ellipse fill="#3C251D" cx="311.988" cy="586.94" rx="17.846" ry="20.043"/>
<path fill="#3C251D" d="M313.056,606.988h-7.404v-40.105h7.404V606.988z"/>
<ellipse fill="#3C251D" cx="305.892" cy="586.94" rx="17.846" ry="20.043"/>
<path fill="#DEE7FA" d="M291.772,586.94c0-8.421,6.099-15.271,13.598-15.271c7.498,0,13.598,6.851,13.598,15.271
	c0,8.42-6.1,15.271-13.598,15.271C297.872,602.211,291.772,595.36,291.772,586.94z M294.039,586.94
	c0,7.016,5.082,12.727,11.332,12.727c6.248,0,11.33-5.709,11.33-12.727c0-7.017-5.082-12.726-11.33-12.726
	C299.121,574.215,294.039,579.924,294.039,586.94z"/>
<path fill="#DEE7FA" d="M299.421,586.94c0-3.689,2.664-6.681,5.949-6.681s5.947,2.991,5.947,6.681c0,3.688-2.664,6.68-5.947,6.68
	C302.085,593.62,299.421,590.629,299.421,586.94z"/>
<path fill="#DEE7FA" d="M304.835,584l-1.559-10.01h5.24l-2.549,9.937L304.835,584z"/>
<path fill="#DEE7FA" d="M304.835,590.941l-1.559,10.294h5.24l-2.549-10.078L304.835,590.941z"/>
<path fill="#DEE7FA" d="M301.679,585.774l-8.368-4.289l2.952-4.863l5.937,8.011L301.679,585.774z"/>
<path fill="#DEE7FA" d="M302.248,588.781l-6.389,7.432l-3.098-4.747l8.703-3.617L302.248,588.781z"/>
<path fill="#DEE7FA" d="M308.628,585.774l8.367-4.289l-2.951-4.863l-5.938,8.011L308.628,585.774z"/>
<path fill="#DEE7FA" d="M308.058,588.781l6.389,7.432l3.1-4.747l-8.705-3.617L308.058,588.781z"/>
<path fill="#3C251D" d="M530.615,554.671h-23.123c-0.902,0-1.717,0.543-2.063,1.376l-3.76,9.052
	c-0.232,0.561-0.229,1.189,0.014,1.747l6.516,15.001c0.355,0.816,1.158,1.344,2.049,1.344h25.568c1.066,0,1.982-0.754,2.191-1.8
	l3.068-15.488c0.143-0.718-0.076-1.459-0.586-1.985l-8.268-8.564c-0.422-0.436-1-0.682-1.605-0.682H530.615z"/>
<path fill="#684B43" d="M507.56,582.123l-6.516-15.002c-0.314-0.724-0.322-1.558-0.018-2.29l3.76-9.05
	c0.455-1.097,1.516-1.805,2.705-1.805h23.123c0.791,0,1.559,0.325,2.107,0.895l8.268,8.564c0.666,0.691,0.953,1.665,0.766,2.604
	l-3.068,15.488c-0.27,1.368-1.479,2.36-2.871,2.36h-25.568c-1.168,0-2.223-0.691-2.688-1.763V582.123z M507.492,555.366
	c-0.625,0-1.182,0.372-1.42,0.948l-3.76,9.05c-0.16,0.384-0.156,0.821,0.01,1.202l6.516,15.001c0.244,0.563,0.799,0.926,1.412,0.926
	h25.568c0.732,0,1.363-0.521,1.508-1.239l3.068-15.488c0.098-0.494-0.053-1.005-0.402-1.366l-8.268-8.564
	c-0.289-0.299-0.691-0.47-1.107-0.47L507.492,555.366L507.492,555.366z"/>
<path fill="#684B43" d="M534.476,558.263h-29.33v-1.198h29.33V558.263z"/>
<path fill="#684B43" d="M537.257,561.116h-33.389v-1.198h33.389V561.116z"/>
<path fill="#684B43" d="M539.998,564.291h-38.041v-1.316h38.041V564.291z"/>
<path fill="#684B43" d="M540.648,567.377h-38.822v-1.316h38.822V567.377z"/>
<path fill="#684B43" d="M540.648,570.856h-37.736v-1.316h37.736V570.856z"/>
<path fill="#684B43" d="M539.736,574.158h-35.039v-1.316h35.039V574.158z"/>
<path fill="#684B43" d="M538.955,577.681h-33.041v-1.317h33.041V577.681z"/>
<path fill="#684B43" d="M538.693,580.679h-31.564v-1.316h31.564V580.679z"/>
<path fill="#63637E" d="M340.289,543.366h-11.619c-0.025,0-0.045-0.02-0.045-0.044v-2.81c0-0.024,0.02-0.045,0.045-0.045h11.619
	c0.023,0,0.043,0.021,0.043,0.045v2.81C340.332,543.346,340.312,543.366,340.289,543.366z"/>
<path fill="#3C251D" d="M373.097,543.366h-11.619c-0.025,0-0.045-0.02-0.045-0.044v-2.81c0-0.024,0.02-0.045,0.045-0.045h11.619
	c0.025,0,0.045,0.021,0.045,0.045v2.81C373.142,543.346,373.123,543.366,373.097,543.366z"/>
<path fill="#EAAB72" d="M285.846,553.453h7.305c0,0,1.565,8.174-7.305,7.826V553.453z"/>
<path fill="#E06D6A" d="M399.445,531.51l3.305,1.738c0,0,1.217-0.261,1.305-0.956c0.086-0.696-3.74-2.348-3.74-2.348L399.445,531.51
	z"/>
<path fill="#000091" d="M401.464,533.221H383.66c-0.07,0-0.127-0.056-0.127-0.125v-7.807c0-0.069,0.057-0.126,0.127-0.126h17.805
	c0.07,0,0.125,0.057,0.125,0.126v7.807C401.589,533.166,401.535,533.221,401.464,533.221z"/>
<path opacity="0.57" fill="#FFFFFF" enable-background="new    " d="M424.708,507.469c1.35,2.493,2.916,4.84,4.908,6.853
	c3.91,3.951,9.859,6.385,15.131,4.626c2.549-0.849,4.725-2.58,7.256-3.47c2.373-0.833,4.938-0.888,7.449-0.932
	c4.021-0.072,8.049-0.138,12.07-0.092c5.221,3.122,11.295,7.07,16.863,11.473c-3.938-0.871-7.83-1.936-11.646-3.242
	c-2.488-0.852-4.961-1.798-7.543-2.301c-2.756-0.536-5.584-0.555-8.395-0.57c-3.227-0.019-6.68,0.027-9.336,1.861
	c-1.479,1.021-2.588,2.53-4.137,3.444c-1.408,0.833-3.08,1.11-4.715,1.159c-6.078,0.175-11.859-2.614-16.906-6.007
	c-5.045-3.392-9.654-7.456-14.994-10.361c-1.641-0.895-3.354-1.658-5.105-2.314l19.096-0.127H424.708z"/>
<path fill="#684B43" d="M412.789,534.102c-0.115-0.173-11.623-17.354-24.188-25.292l-1.977-1.25l71.973-0.481l0.174,0.084
	c0.234,0.115,23.652,11.574,37.453,25.185l1.301,1.282l-1.92-0.118c-0.164-0.011-16.498-1-37.234-1
	c-17.014,0-32.1,0.648-44.836,1.926l-0.492,0.049l-0.254-0.382V534.102z M493.763,532.014
	c-13.102-12.264-33.471-22.51-35.553-23.542l-66.855,0.447c11.023,7.778,20.795,21.613,22.496,24.086
	c12.689-1.252,27.664-1.886,44.52-1.886c16.641,0,30.455,0.636,35.395,0.895H493.763z"/>
<path fill="#6699FF" stroke="#1958BC" stroke-miterlimit="10" d="M52.534,448.644l12.662,1.661l2.603,48.32l-12.72,18.826
	l-12.185-1.021l-0.588-5.743l-1.039-30.67l11.539-30.363"/>
<path fill="#2C70DD" d="M50.55,456.748l14.405,2.211"/>
<path fill="#6699FF" stroke="#1B6AEA" stroke-miterlimit="10" d="M186.384,490.927c2.057,14.894-5.184,28.933-5.377,29.304
	c-0.003,0.006-0.005,0.011-0.009,0.016c-6.12,8.698-28.625,12.715-29.115,12.801c-0.005,0-0.012,0-0.018,0.002
	c-26.605,0.883-29.42,0.536-29.578,0.386c-0.029-0.029-0.076-0.033-0.117-0.026l-9.139,1.615c-0.072,0.012-0.139-0.036-0.149-0.108
	l-1.826-12.826c-0.008-0.063,0.029-0.123,0.091-0.141l9-2.61c0.009-0.002,0.017-0.005,0.026-0.011
	c23.074-12.448,37.771-13.472,39.132-13.541c0.06-0.003,0.109-0.05,0.12-0.109c1.221-7.952,0.033-13.453,0.033-13.453"/>
<path fill="#6699FF" stroke="#1B6AEA" stroke-miterlimit="10" d="M159.761,502.947l-0.459,2.836c0,0-21.961,3.402-39.155,13.551
	l-9.091,2.754l1.826,12.826l9.404-1.481l30.492-0.386c0,0,21.8-3.953,28.944-13.251c0,0,7.663-21.091,4.294-28.672"/>
<path fill="#FFFFFF" stroke="#1958BC" stroke-miterlimit="10" d="M109.045,422.935c0,0,8.036,0.549,13.299,5.798
	c5.263,5.249,5.364,14.705,5.364,14.705s-3.471-13.779,0-17.081l3.471-3.304c0,0-0.223,1.055,6.946,3.658
	c0,0,3.07,15.199-9.847,16.92c-12.917,1.722-28.887-6.041-29.407-15.524L109.045,422.935z"/>
<path fill="#FFFFFF" stroke="#145EC9" stroke-miterlimit="10" d="M131.179,423.053c0,0,5.344,2.584,7.142,3.11
	c1.797,0.526,0.07,2.751,0.07,2.751c2.523,3.876,0.07,3.985,0.07,3.985c2.788,4.751-1.731,5.299-1.731,5.299
	c-0.109,4.219-3.612,3.82-3.612,3.82c-2.167,4.732-5.074,2.361-5.074,2.361c-3.3,3.821-7.417-0.749-7.417-0.749
	c-8.472,1.613-9.11-2.374-9.11-2.374c-4.721,0.862-4.994-2.566-4.994-2.566c-6.604-1.51-5.061-4.402-5.061-4.402
	c-7.582-4.164-2.59-6.18-2.59-6.18c20.006,14.201,28.207,17.306,28.836,15.331c0.627-1.97-4.166-9.638-0.633-16.236
	c1.089-2.034,2.747-3.331,4.103-4.148L131.179,423.053z"/>
<path fill="#FFFFFF" stroke="#145EC9" stroke-miterlimit="10" d="M138.319,426.164c0,0-4.923,17.742-10.611,17.274"/>
<path fill="#1958BC" d="M118.78,522.306l1.819,9.24"/>
<circle fill="#FFFFFF" cx="52.594" cy="455.669" r="0.761"/>
<circle fill="#FFFFFF" cx="115.132" cy="533.048" r="0.761"/>
<circle fill="#145EC9" stroke="#FFFFFF" stroke-miterlimit="10" cx="129.097" cy="442.019" r="0.761"/>
<circle fill="#145EC9" stroke="#FFFFFF" stroke-miterlimit="10" cx="126.063" cy="442.232" r="0.761"/>
</svg>
