<?xml version="1.0" encoding="utf-8"?>
<!-- Generator: Adobe Illustrator 16.0.0, SVG Export Plug-In . SVG Version: 6.00 Build 0)  -->
<!DOCTYPE svg PUBLIC "-//W3C//DTD SVG 1.1//EN" "http://www.w3.org/Graphics/SVG/1.1/DTD/svg11.dtd">
<svg version="1.1" id="Calque_1" xmlns="http://www.w3.org/2000/svg" xmlns:xlink="http://www.w3.org/1999/xlink" x="0px" y="0px"
	 width="593.281px" height="478.916px" viewBox="-0.141 185.862 593.281 478.916"
	 enable-background="new -0.141 185.862 593.281 478.916" xml:space="preserve">
<path fill="#EDF7F8" d="M53.27,458.102c6.069,28.505,34.198,46.752,62.697,40.683c28.505-6.069,46.751-34.198,40.683-62.696
	c-6.069-28.506-34.198-46.752-62.696-40.684C65.447,401.474,47.201,429.603,53.27,458.102L53.27,458.102z M98.702,417.696
	c16.235-3.457,32.199,6.9,35.656,23.136c3.457,16.234-6.9,32.199-23.135,35.655c-16.235,3.457-32.199-6.899-35.656-23.135
	C72.11,437.118,82.467,421.153,98.702,417.696z"/>
<path fill="#EDF7F8" d="M11.432,407.391l16.433,13.755c-2.435,7.211-3.879,14.816-4.196,22.614l-20.259,6.966
	c-2.421,0.832-3.839,3.339-3.305,5.846l5.238,24.593c0.535,2.507,2.85,4.215,5.403,3.991l21.334-1.894
	c3.463,6.993,7.876,13.352,13.042,18.939l-9.407,19.256c-1.122,2.303-0.356,5.08,1.794,6.472l21.097,13.688
	c2.15,1.393,5,0.964,6.643-0.996l13.754-16.433c7.21,2.435,14.816,3.879,22.614,4.195l6.966,20.26
	c0.832,2.421,3.338,3.839,5.845,3.305l24.593-5.238c2.507-0.534,4.215-2.85,3.991-5.402l-1.893-21.334
	c6.993-3.464,13.352-7.877,18.939-13.042l19.256,9.406c2.302,1.122,5.08,0.356,6.471-1.794l13.688-21.097
	c1.392-2.15,0.963-5-0.996-6.644l-16.433-13.754c2.434-7.21,3.879-14.816,4.195-22.614l20.259-6.966
	c2.421-0.831,3.839-3.338,3.305-5.845l-5.238-24.594c-0.534-2.507-2.85-4.215-5.403-3.991l-21.334,1.894
	c-3.463-6.993-7.877-13.346-13.042-18.939l9.407-19.257c1.122-2.302,0.356-5.079-1.794-6.471l-21.097-13.688
	c-2.151-1.393-5-0.964-6.643,0.996l-13.755,16.433c-7.21-2.435-14.816-3.879-22.614-4.195l-6.966-20.26
	c-0.831-2.421-3.338-3.839-5.845-3.305l-24.593,5.238c-2.507,0.534-4.215,2.85-3.991,5.402l1.894,21.334
	c-6.993,3.464-13.345,7.877-18.939,13.042l-19.256-9.406c-2.302-1.122-5.08-0.356-6.472,1.794l-13.688,21.097
	C9.044,402.899,9.473,405.749,11.432,407.391L11.432,407.391z M92.369,387.977c32.654-6.953,64.761,13.88,71.714,46.534
	s-13.88,64.762-46.534,71.715s-64.761-13.88-71.714-46.534S59.715,394.93,92.369,387.977z"/>
<path fill="#EDF7F8" d="M290.176,418.039c-2.599,49.899,35.88,92.613,85.779,95.213s92.613-35.88,95.213-85.779
	c2.6-49.898-35.881-92.613-85.779-95.212C335.49,329.661,292.775,368.14,290.176,418.039L290.176,418.039z M383.349,371.294
	c28.426,1.484,50.262,25.722,48.785,54.147c-1.484,28.419-25.723,50.262-54.148,48.783c-28.426-1.478-50.262-25.721-48.783-54.146
	C330.687,391.652,354.923,369.816,383.349,371.294z"/>
<path fill="#EDF7F8" d="M202.82,391.902l-2.243,43.059c-0.23,4.387,2.85,8.252,7.178,9.004l36.177,6.333
	c2.632,13.121,7.125,25.603,13.194,37.16l-24.125,27.721c-2.883,3.312-2.837,8.252,0.099,11.518l28.861,32.034
	c2.936,3.259,7.851,3.82,11.446,1.293l30.075-21.109c10.865,7.236,22.813,12.995,35.59,16.98l2.539,36.639
	c0.305,4.38,3.826,7.844,8.213,8.074l43.059,2.243c4.387,0.23,8.252-2.85,9.004-7.178l6.334-36.177
	c13.121-2.632,25.602-7.125,37.16-13.194l27.719,24.125c3.313,2.883,8.254,2.837,11.52-0.099l32.033-28.861
	c3.26-2.936,3.82-7.851,1.293-11.445l-21.109-30.075c7.236-10.865,12.996-22.813,16.98-35.59l36.639-2.54
	c4.381-0.304,7.844-3.826,8.074-8.213l2.244-43.059c0.23-4.387-2.85-8.252-7.178-9.004l-36.178-6.333
	c-2.633-13.121-7.125-25.603-13.188-37.16l24.125-27.721c2.883-3.312,2.838-8.252-0.1-11.518l-28.859-32.034
	c-2.938-3.259-7.852-3.819-11.447-1.293l-30.074,21.109c-10.865-7.236-22.813-12.995-35.59-16.979l-2.539-36.64
	c-0.305-4.38-3.826-7.844-8.215-8.074l-43.057-2.243c-4.387-0.23-8.252,2.85-9.006,7.178l-6.332,36.177
	c-13.121,2.632-25.602,7.125-37.16,13.194l-27.72-24.125c-3.312-2.883-8.252-2.844-11.518,0.099l-32.034,28.861
	c-3.259,2.936-3.819,7.851-1.293,11.445l21.11,30.075c-7.237,10.865-12.996,22.813-16.98,35.59l-36.639,2.54
	c-4.38,0.304-7.844,3.826-8.075,8.213H202.82z M386.062,319.252c57.16,2.981,101.09,51.732,98.113,108.9
	c-2.98,57.162-51.732,101.091-108.9,98.115c-57.162-2.981-101.09-51.732-98.115-108.901
	C280.142,360.205,328.892,316.276,386.062,319.252z"/>
<path fill="#EDF7F8" d="M146.826,244.549c-16.235,11.861-19.791,34.719-7.929,50.947c11.861,16.235,34.719,19.791,50.947,7.93
	c16.235-11.861,19.791-34.72,7.929-50.947C185.913,236.243,163.054,232.687,146.826,244.549L146.826,244.549z M156.102,257.248
	c9.249-6.756,22.218-4.737,28.973,4.512s4.736,22.219-4.512,28.974c-9.249,6.755-22.218,4.736-28.974-4.513
	C144.834,276.972,146.853,264.003,156.102,257.248z"/>
<path fill="#EDF7F8" d="M98.418,254.325l-2.665,17.139c-0.271,1.748,0.805,3.417,2.5,3.898l14.229,4.024
	c0.501,5.225,1.735,10.423,3.74,15.417l-10.792,10.1c-1.293,1.207-1.478,3.187-0.436,4.611l10.231,14.005
	c1.042,1.425,2.982,1.854,4.526,0.989l12.896-7.21c4.156,3.424,8.728,6.182,13.557,8.246l-0.488,14.777
	c-0.059,1.768,1.208,3.298,2.956,3.568l17.139,2.665c1.748,0.271,3.417-0.805,3.898-2.5l4.024-14.229
	c5.225-0.501,10.423-1.734,15.417-3.74l10.1,10.792c1.207,1.293,3.186,1.479,4.611,0.436l14.005-10.231
	c1.425-1.042,1.854-2.981,0.99-4.525l-7.21-12.896c3.424-4.156,6.181-8.729,8.246-13.557l14.777,0.488
	c1.768,0.059,3.298-1.208,3.569-2.956l2.665-17.139c0.271-1.748-0.805-3.417-2.5-3.898l-14.229-4.024
	c-0.501-5.225-1.735-10.423-3.741-15.417l10.792-10.1c1.293-1.207,1.478-3.186,0.436-4.611l-10.231-14.005
	c-1.042-1.425-2.982-1.854-4.526-0.989l-12.896,7.21c-4.156-3.424-8.728-6.181-13.557-8.246l0.488-14.776
	c0.059-1.769-1.208-3.299-2.956-3.569l-17.139-2.665c-1.748-0.271-3.417,0.805-3.898,2.5l-4.024,14.229
	c-5.225,0.502-10.423,1.735-15.417,3.74l-10.1-10.792c-1.207-1.286-3.186-1.478-4.611-0.436l-14.005,10.231
	c-1.425,1.043-1.854,2.982-0.99,4.525l7.21,12.897c-3.424,4.156-6.181,8.728-8.246,13.557l-14.777-0.488
	C100.219,251.31,98.689,252.577,98.418,254.325L98.418,254.325z M143.732,240.313c18.596-13.59,44.687-9.525,58.276,9.07
	c13.589,18.597,9.526,44.688-9.071,58.277c-18.596,13.589-44.687,9.525-58.276-9.071S125.136,253.903,143.732,240.313z"/>
<path fill="#C8E2E3" d="M580.556,211.775l-34.396,8.78l8.893,6.268l-0.6,9.506l6.002-5.594l8.299,5.831L580.556,211.775z"/>
<path fill="#A4CFD1" d="M555.052,226.823l-0.6,9.506l6.002-5.594L555.052,226.823z"/>
<path fill="#7B9B9D" d="M555.33,227.034l-0.588,8.279l3.193-6.359l19.012-14.553L555.33,227.034z"/>
<path fill="#1B888C" d="M485.587,255.579l0.047-1.894c1.307,0.086,2.533,0.158,3.76,0.211l-0.078,1.887
	C488.068,255.73,486.828,255.658,485.587,255.579z M481.728,255.282c-1.26-0.112-2.52-0.231-3.773-0.363l0.199-1.88
	c1.246,0.132,2.492,0.251,3.746,0.356l-0.164,1.88L481.728,255.282z M474.181,254.497c-1.252-0.152-2.506-0.311-3.76-0.476
	l0.25-1.873c1.24,0.165,2.488,0.323,3.734,0.469l-0.225,1.873V254.497z M493.115,255.902l0.033-1.887
	c1.246,0.02,2.5,0.026,3.754,0.013l0.02,1.887C495.648,255.928,494.382,255.915,493.115,255.902z M466.667,253.507
	c-1.246-0.178-2.5-0.362-3.746-0.554l0.283-1.867c1.24,0.191,2.486,0.37,3.727,0.548l-0.27,1.867L466.667,253.507z M500.72,255.829
	l-0.072-1.887c1.248-0.046,2.5-0.112,3.748-0.197l0.125,1.887C503.253,255.717,501.988,255.783,500.72,255.829z M459.181,252.373
	c-1.248-0.198-2.488-0.396-3.734-0.601l0.303-1.867c1.24,0.198,2.488,0.402,3.729,0.594l-0.297,1.867V252.373z M451.712,251.165
	l-3.727-0.606l0.303-1.867l3.729,0.607L451.712,251.165z M508.314,255.308l-0.186-1.881c1.24-0.125,2.488-0.264,3.721-0.429
	l0.252,1.874C510.861,255.038,509.587,255.182,508.314,255.308z M444.259,249.951c-1.24-0.197-2.488-0.396-3.729-0.587l0.291-1.867
	c1.246,0.191,2.494,0.39,3.734,0.588L444.259,249.951z M436.804,248.797c-1.24-0.185-2.486-0.362-3.734-0.534l0.258-1.873
	c1.254,0.171,2.5,0.35,3.746,0.541l-0.275,1.866H436.804z M515.875,254.305l-0.316-1.86c1.232-0.211,2.473-0.442,3.674-0.692
	l0.383,1.847c-1.227,0.257-2.486,0.488-3.748,0.706H515.875z M429.337,247.761c-1.248-0.158-2.494-0.311-3.742-0.449l0.213-1.88
	c1.252,0.139,2.506,0.29,3.766,0.455L429.337,247.761z M410.609,246.158l0.059-1.887c1.266,0.04,2.533,0.1,3.793,0.172l-0.111,1.887
	c-1.248-0.072-2.494-0.132-3.748-0.172H410.609z M421.855,246.917c-1.246-0.119-2.492-0.23-3.746-0.33l0.145-1.88
	c1.26,0.099,2.52,0.211,3.781,0.33l-0.186,1.88H421.855z M523.335,252.749l-0.455-1.834c1.207-0.304,2.42-0.634,3.602-0.983
	l0.535,1.814C525.808,252.102,524.568,252.438,523.335,252.749z M530.658,250.585l-0.613-1.788c1.18-0.409,2.361-0.844,3.496-1.3
	l0.699,1.755C533.072,249.714,531.871,250.163,530.658,250.585z M537.755,247.748l-0.785-1.715c1.129-0.521,2.256-1.069,3.346-1.643
	l0.877,1.676c-1.121,0.587-2.275,1.154-3.438,1.688V247.748z M544.531,244.185l-0.969-1.622c1.061-0.634,2.117-1.307,3.139-1.999
	l1.063,1.563C546.714,242.84,545.626,243.533,544.531,244.185z M550.871,239.871l-1.154-1.497c0.982-0.759,1.945-1.55,2.875-2.361
	l1.248,1.425c-0.957,0.838-1.953,1.655-2.963,2.434H550.871z"/>
<g>
	<path fill="#33B9B1" d="M120.551,371.135c0.422,1.491,1.808,2.533,3.358,2.533c0.304,0,0.613-0.04,0.851-0.105l0.092-0.02
		c1.834-0.488,2.969-2.375,2.52-4.209l-5.35-21.975c-0.429-1.774-2.012-3.021-3.839-3.021c-0.343,0-0.686,0.047-1.062,0.146
		c-1.036,0.271-1.894,0.937-2.428,1.867c-0.528,0.93-0.66,2.012-0.363,3.041l6.214,21.75L120.551,371.135z"/>
	<path fill="#33B9B1" d="M37.18,438.852l18.023,4.592c0.435,0.112,0.884,0.165,1.333,0.165c2.408,0,4.558-1.616,5.225-3.932
		l0.046-0.159c0.818-2.836-0.739-5.771-3.549-6.676l-17.706-5.693c-0.6-0.19-1.22-0.29-1.84-0.29c-2.678,0-5.06,1.781-5.792,4.328
		l-0.053,0.178c-0.449,1.57-0.251,3.213,0.567,4.631c0.825,1.432,2.157,2.447,3.754,2.85L37.18,438.852z"/>
	<path fill="#33B9B1" d="M33.598,490.282c0.231,0,0.462-0.014,0.693-0.04l18.484-2.091c2.936-0.33,5.046-2.903,4.802-5.845
		l-0.013-0.165c-0.237-2.89-2.757-5.14-5.693-4.981l-18.577,0.964c-1.649,0.086-3.153,0.817-4.242,2.058
		c-1.076,1.234-1.597,2.804-1.465,4.427l0.013,0.172c0.257,3.087,2.89,5.502,5.997,5.508V490.282z"/>
	<path fill="#33B9B1" d="M42.266,422.341l17.304,6.802c0.633,0.25,1.299,0.376,1.972,0.376c2.184,0,4.149-1.3,5.047-3.378
		c1.174-2.725,0-5.839-2.672-7.092l-16.829-7.903c-0.812-0.383-1.669-0.574-2.56-0.574c-2.415,0-4.585,1.419-5.568,3.694
		l-0.046,0.112c-0.646,1.498-0.653,3.16-0.02,4.671c0.633,1.523,1.834,2.698,3.371,3.305V422.341z"/>
	<path fill="#33B9B1" d="M34.152,455.826l18.445,2.382c0.231,0.033,0.462,0.046,0.693,0.046c2.685,0,4.941-1.92,5.37-4.591
		l0.026-0.165c0.468-2.916-1.438-5.641-4.341-6.194l-18.267-3.483c-0.369-0.072-0.752-0.105-1.128-0.105
		c-2.982,0-5.489,2.117-5.964,5.06l-0.02,0.146c-0.257,1.609,0.145,3.219,1.122,4.531c0.989,1.319,2.434,2.164,4.07,2.375H34.152z"
		/>
	<path fill="#33B9B1" d="M33.195,473.031l18.59,0.158h0.04c2.936,0,5.324-2.289,5.429-5.212v-0.191
		c0.125-2.955-2.098-5.429-5.046-5.634l-18.55-1.272c-3.437-0.237-6.32,2.395-6.452,5.785v0.093
		c-0.066,1.643,0.528,3.206,1.662,4.393c1.142,1.194,2.672,1.86,4.321,1.874L33.195,473.031z"/>
	<path fill="#33B9B1" d="M106.565,374.823c0.891,1.867,2.731,3.035,4.809,3.035c0.732,0,1.445-0.146,2.19-0.462
		c2.658-1.128,3.951-4.117,2.942-6.802l-6.537-17.356c-0.904-2.395-3.219-4.004-5.766-4.011c-0.825,0-1.623,0.165-2.388,0.488
		l-0.086,0.039c-1.543,0.66-2.718,1.887-3.318,3.464c-0.593,1.57-0.521,3.345,0.198,4.862l7.962,16.749L106.565,374.823z"/>
	<path fill="#33B9B1" d="M49.503,406.594l16.215,8.985c0.798,0.441,1.695,0.673,2.599,0.679c1.9,0,3.694-1.016,4.71-2.711
		c1.517-2.526,0.778-5.752-1.676-7.349l-15.555-10.087c-0.996-0.646-2.144-0.982-3.325-0.989c-2.164,0-4.116,1.095-5.225,2.942
		l-0.046,0.079c-0.851,1.418-1.082,3.08-0.653,4.69c0.436,1.616,1.484,2.955,2.949,3.773L49.503,406.594z"/>
	<path fill="#33B9B1" d="M94.17,382.389c0.99,1.419,2.619,2.263,4.354,2.27c1.036,0,2.045-0.29,2.982-0.891
		c2.434-1.557,3.212-4.717,1.768-7.197l-9.335-16.023c-1.102-1.894-3.153-3.074-5.343-3.081c-1.167,0-2.302,0.33-3.285,0.957
		l-0.079,0.053c-1.412,0.903-2.368,2.309-2.698,3.965c-0.323,1.648,0.04,3.384,1.003,4.756L94.17,382.389z"/>
	<path fill="#33B9B1" d="M83.107,391.889c1.01,1.042,2.369,1.609,3.82,1.616c1.339,0,2.625-0.495,3.674-1.438
		c2.164-1.939,2.408-5.198,0.567-7.421l-11.868-14.315c-1.167-1.405-2.883-2.217-4.71-2.217c-1.498,0-2.936,0.548-4.044,1.537
		l-0.152,0.139c-1.233,1.108-1.939,2.639-1.992,4.301c-0.053,1.656,0.581,3.292,1.735,4.479l12.969,13.326V391.889z"/>
	<path fill="#33B9B1" d="M58.778,391.863l14.83,11.215c0.93,0.705,2.038,1.075,3.206,1.081c1.629,0,3.153-0.726,4.189-1.992
		l0.079-0.092c1.84-2.256,1.583-5.515-0.587-7.429l-13.959-12.283c-1.115-0.982-2.553-1.523-4.037-1.53
		c-1.84,0-3.556,0.805-4.71,2.224l-0.092,0.111c-1.042,1.287-1.511,2.903-1.313,4.553c0.198,1.643,1.069,3.159,2.388,4.155
		L58.778,391.863z"/>
	<path fill="#33B9B1" d="M36.078,507.387c0.481,0,0.963-0.06,1.438-0.172l18.042-4.374c2.883-0.699,4.671-3.522,4.064-6.412
		l-0.02-0.092c-0.528-2.521-2.771-4.354-5.337-4.354c-0.323,0-0.64,0.026-0.963,0.086l-18.28,3.226
		c-1.623,0.284-3.034,1.201-3.958,2.566c-0.917,1.359-1.24,2.982-0.904,4.592l0.033,0.171c0.581,2.758,3.054,4.764,5.884,4.77
		V507.387z"/>
	<path fill="#33B9B1" d="M119.575,569.833l-0.146-0.06c-0.679-0.29-1.398-0.441-2.137-0.441c-2.098,0-4.024,1.221-4.908,3.113
		l-7.89,16.954c-0.686,1.478-0.746,3.134-0.165,4.657c0.581,1.511,1.715,2.691,3.2,3.332l0.29,0.125
		c0.732,0.31,1.511,0.475,2.302,0.475c2.435,0,4.671-1.523,5.562-3.8l6.814-17.415c1.068-2.731-0.218-5.786-2.936-6.94H119.575z"/>
	<path fill="#33B9B1" d="M60.269,516.972c2.737-1.056,4.123-4.07,3.146-6.854l-0.033-0.099c-0.759-2.184-2.817-3.654-5.113-3.661
		c-0.547,0-1.088,0.079-1.616,0.244l-17.719,5.521c-1.596,0.495-2.889,1.59-3.635,3.087c-0.746,1.479-0.857,3.147-0.317,4.704
		l0.033,0.086c0.844,2.421,3.146,4.057,5.732,4.057c0.759,0,1.498-0.139,2.21-0.409l17.317-6.683L60.269,516.972z"/>
	<path fill="#33B9B1" d="M106.889,563.434l-0.105-0.06c-0.838-0.495-1.794-0.759-2.771-0.766c-1.86,0-3.563,0.931-4.559,2.487
		l-9.981,15.647c-0.897,1.412-1.181,3.088-0.792,4.711c0.382,1.609,1.378,2.962,2.797,3.799l0.079,0.047
		c0.924,0.547,1.979,0.838,3.055,0.838c2.236,0,4.294-1.214,5.37-3.18l8.906-16.288c1.405-2.572,0.521-5.752-2.005-7.243
		L106.889,563.434z"/>
	<path fill="#33B9B1" d="M161.801,579.939c-3.042-0.277-5.687,1.946-6.017,4.935l-2.025,18.432
		c-0.178,1.616,0.291,3.193,1.319,4.439c1.023,1.247,2.474,2.013,4.083,2.157h0.093c0.171,0.026,0.343,0.033,0.514,0.033
		c3.134,0,5.752-2.447,5.957-5.581l1.214-18.497c0.198-2.995-2.078-5.647-5.146-5.911L161.801,579.939z"/>
	<path fill="#33B9B1" d="M147.374,578.019l-0.33-0.059c-0.317-0.06-0.646-0.086-0.97-0.086c-2.54,0-4.763,1.801-5.284,4.294
		l-3.806,18.261c-0.336,1.603-0.013,3.238,0.903,4.598c0.911,1.353,2.29,2.256,3.972,2.56c0.35,0.066,0.706,0.099,1.062,0.099
		c2.929,0,5.475-2.184,5.931-5.086l2.889-18.425c0.455-2.916-1.464-5.62-4.374-6.148L147.374,578.019z"/>
	<path fill="#33B9B1" d="M133.164,574.688l-0.264-0.079c-0.495-0.146-1.009-0.218-1.518-0.225c-2.348,0-4.413,1.498-5.139,3.728
		l-5.752,17.713c-0.508,1.569-0.37,3.238,0.402,4.696c0.765,1.451,2.045,2.5,3.588,2.956l0.112,0.032
		c0.547,0.158,1.108,0.244,1.676,0.244c2.738,0,5.139-1.847,5.845-4.506l4.756-18.002
		C137.624,578.395,135.994,575.519,133.164,574.688L133.164,574.688z"/>
	<path fill="#33B9B1" d="M76.114,535.061c-1.016-1.451-2.678-2.322-4.439-2.329c-1.042,0-2.052,0.297-2.929,0.864l-15.562,10.087
		c-1.392,0.896-2.368,2.348-2.685,3.971c-0.317,1.637,0.026,3.279,0.976,4.638l0.053,0.073c1.128,1.615,2.989,2.579,4.974,2.586
		c1.346,0,2.625-0.43,3.701-1.24l14.81-11.169c2.329-1.762,2.837-5.021,1.108-7.487L76.114,535.061z"/>
	<path fill="#33B9B1" d="M95.298,555.471l-0.08-0.06c-0.963-0.765-2.164-1.188-3.391-1.193c-1.583,0-3.074,0.686-4.103,1.88
		l-12.072,14.098c-1.075,1.253-1.603,2.915-1.445,4.559c0.158,1.648,0.957,3.126,2.243,4.155l0.099,0.079
		c1.075,0.858,2.375,1.307,3.747,1.313c1.933,0,3.773-0.924,4.928-2.48l11.043-14.916c1.741-2.349,1.299-5.627-0.983-7.441
		L95.298,555.471z"/>
	<path fill="#33B9B1" d="M66.747,530.304c2.566-1.418,3.529-4.585,2.164-7.276c-0.93-1.84-2.784-2.981-4.835-2.988
		c-0.792,0-1.563,0.172-2.282,0.508l-16.822,7.831c-1.517,0.705-2.652,1.966-3.199,3.542c-0.541,1.563-0.429,3.239,0.31,4.697
		l0.059,0.112c1.036,2.031,3.107,3.298,5.403,3.305c1.029,0,2.052-0.264,2.962-0.766l16.248-8.972L66.747,530.304z"/>
	<path fill="#33B9B1" d="M84.935,545.926c-1.022-1.088-2.467-1.715-3.958-1.722c-1.306,0-2.566,0.469-3.542,1.326l-13.966,12.204
		c-1.247,1.089-2.012,2.665-2.091,4.321c-0.079,1.662,0.495,3.245,1.623,4.439l0.079,0.079c1.154,1.228,2.718,1.9,4.413,1.906
		c1.656,0,3.206-0.646,4.374-1.82l13.048-13.181c2.052-2.071,2.085-5.37,0.026-7.56L84.935,545.926z"/>
	<path fill="#33B9B1" d="M174.962,580.605c-1.959,0-3.596,1.584-3.642,3.543l-0.541,22.588c-0.026,1.035,0.356,2.019,1.075,2.764
		c0.719,0.745,1.676,1.161,2.751,1.181h0.046c2.111,0,3.839-1.715,3.846-3.832l0.125-22.595c0.013-1.985-1.597-3.622-3.668-3.648
		H174.962z"/>
</g>
<path fill="#C8E2E3" d="M20.787,190.666l29.244,20.133l-10.516,2.804l-2.718,9.131l-3.701-7.329l-9.809,2.605L20.787,190.666z"/>
<path fill="#A4CFD1" d="M39.515,213.602l-2.718,9.131l-3.701-7.329L39.515,213.602z"/>
<path fill="#7B9B9D" d="M39.186,213.702l-2.316,7.976l-0.798-7.072l-12.805-20.232L39.186,213.702z"/>
<path fill="#1B888C" d="M153.608,326.917c-1.26-0.185-2.54-0.442-3.793-0.766l0.468-1.833c1.194,0.303,2.408,0.547,3.609,0.726
	l-0.277,1.866L153.608,326.917z M146.114,325.017c-1.201-0.436-2.401-0.938-3.563-1.491l0.812-1.709
	c1.108,0.528,2.256,1.01,3.404,1.425l-0.646,1.775H146.114z M139.141,321.705c-1.088-0.646-2.177-1.352-3.232-2.104l1.102-1.537
	c1.009,0.719,2.051,1.398,3.094,2.019l-0.963,1.629V321.705z M132.867,317.232c-0.97-0.824-1.926-1.695-2.836-2.605l1.333-1.339
	c0.877,0.871,1.794,1.708,2.731,2.5l-1.22,1.438L132.867,317.232z M127.398,311.816c-0.831-0.956-1.643-1.966-2.408-3.001
	l1.517-1.128c0.739,0.996,1.518,1.966,2.322,2.889l-1.425,1.24H127.398z M122.807,305.648c-0.686-1.075-1.339-2.196-1.946-3.317
	l1.663-0.897c0.581,1.088,1.214,2.164,1.874,3.199l-1.597,1.016H122.807z M119.159,298.881c-0.521-1.175-1.009-2.375-1.445-3.569
	l1.774-0.64c0.416,1.154,0.884,2.309,1.392,3.437L119.159,298.881z M116.546,291.643c-0.323-1.161-0.606-2.342-0.837-3.51
	l-0.046-0.237l1.854-0.369l0.046,0.237c0.224,1.121,0.495,2.256,0.805,3.371L116.546,291.643z M115.049,284.103
	c-0.159-1.247-0.277-2.521-0.363-3.793l1.887-0.152v0.033c0.079,1.228,0.198,2.461,0.35,3.668l-1.874,0.237V284.103z
	 M116.461,276.444h-1.887c0-1.26,0.04-2.546,0.112-3.833l1.887,0.112C116.5,273.97,116.461,275.223,116.461,276.444z
	 M116.903,269.016l-1.874-0.218c0.145-1.254,0.33-2.526,0.554-3.793l1.86,0.323c-0.211,1.227-0.396,2.467-0.534,3.688H116.903z
	 M114.983,262.037l-0.132-1.887c0.594-0.04,1.181-0.086,1.768-0.139c0.205-0.824,0.416-1.649,0.646-2.467l1.821,0.508
	c-0.171,0.62-0.336,1.24-0.495,1.86l0.185,1.794c-1.267,0.125-2.527,0.237-3.793,0.323V262.037z M111.177,262.235
	c-1.273,0.046-2.553,0.065-3.813,0.065v-1.887c1.233,0,2.494-0.02,3.747-0.065L111.177,262.235z M122.556,261.271l-0.25-1.873
	c1.24-0.165,2.474-0.35,3.708-0.555l0.31,1.867C125.07,260.916,123.816,261.106,122.556,261.271L122.556,261.271z M103.551,262.228
	c-1.273-0.046-2.553-0.119-3.806-0.211l0.138-1.887c1.234,0.092,2.487,0.165,3.734,0.211l-0.072,1.887H103.551z M130.07,260.031
	l-0.363-1.854c1.227-0.237,2.454-0.495,3.667-0.771l0.416,1.84C132.551,259.523,131.311,259.787,130.07,260.031z M95.945,261.654
	c-1.267-0.146-2.54-0.316-3.78-0.508l0.291-1.867c1.22,0.191,2.467,0.356,3.707,0.502l-0.217,1.88V261.654z M137.492,258.362
	l-0.468-1.834c1.214-0.31,2.421-0.633,3.622-0.976l0.515,1.82c-1.221,0.343-2.441,0.673-3.675,0.989H137.492z M88.404,260.48
	c-1.036-0.205-2.071-0.429-3.101-0.673l-0.626-0.152l0.449-1.834l0.613,0.146c1.009,0.237,2.019,0.455,3.035,0.659L88.404,260.48z
	 M144.808,256.291l-0.561-1.801c0.416-0.132,0.832-0.257,1.24-0.39c0.772-0.25,1.55-0.508,2.322-0.771l0.62,1.788
	c-0.785,0.271-1.577,0.534-2.362,0.785c-0.416,0.132-0.838,0.264-1.26,0.396V256.291z M80.977,258.673
	c-1.221-0.356-2.448-0.746-3.642-1.161l0.613-1.788c1.168,0.402,2.369,0.785,3.563,1.128l-0.534,1.814V258.673z M152.005,253.784
	l-0.693-1.755c1.194-0.468,2.342-0.963,3.43-1.464l0.792,1.715c-1.115,0.515-2.302,1.016-3.523,1.504H152.005z M120.175,254.49
	l-1.794-0.594c0.396-1.194,0.832-2.408,1.287-3.602l1.761,0.673c-0.449,1.167-0.871,2.349-1.253,3.516V254.49z M73.746,256.199
	c-1.181-0.469-2.368-0.97-3.522-1.484l0.778-1.722c1.128,0.508,2.283,0.996,3.437,1.451L73.746,256.199z M158.964,250.565
	l-0.904-1.663c1.115-0.606,2.184-1.246,3.18-1.893l1.036,1.583C161.24,249.272,160.125,249.938,158.964,250.565z M66.78,253.058
	c-1.134-0.58-2.269-1.188-3.364-1.814l0.937-1.643c1.069,0.607,2.177,1.208,3.286,1.769l-0.858,1.682V253.058z M165.41,246.316
	l-1.188-1.471c0.97-0.785,1.887-1.609,2.718-2.461l1.346,1.326c-0.884,0.897-1.854,1.774-2.883,2.605H165.41z M122.847,247.51
	l-1.735-0.752c0.501-1.154,1.036-2.322,1.59-3.47l1.702,0.824C123.856,245.241,123.335,246.383,122.847,247.51z M60.144,249.278
	c-1.075-0.686-2.144-1.398-3.18-2.131l1.088-1.543c1.003,0.712,2.045,1.411,3.101,2.078l-1.016,1.596H60.144z M170.839,240.756
	l-1.511-1.135c0.613-0.825,1.181-1.683,1.682-2.553c0.092-0.165,0.185-0.33,0.277-0.502l1.669,0.891
	c-0.099,0.185-0.198,0.369-0.303,0.555c-0.541,0.937-1.148,1.859-1.808,2.744H170.839z M126.105,240.782l-1.663-0.891
	c0.594-1.115,1.227-2.236,1.867-3.332l1.629,0.957c-0.627,1.075-1.247,2.17-1.828,3.266H126.105z M53.903,244.865
	c-1.002-0.791-1.992-1.609-2.949-2.44l1.247-1.419c0.924,0.812,1.894,1.61,2.87,2.382l-1.167,1.484V244.865z M174.454,233.796
	l-1.807-0.541c0.343-1.135,0.58-2.322,0.719-3.536l1.874,0.211c-0.152,1.319-0.416,2.619-0.785,3.859V233.796z M48.144,239.825
	c-0.917-0.891-1.814-1.813-2.666-2.751l1.392-1.279c0.831,0.903,1.702,1.808,2.593,2.672l-1.319,1.352V239.825z M129.892,234.33
	l-1.59-1.016c0.369-0.581,0.752-1.161,1.135-1.735c0.323-0.481,0.646-0.963,0.983-1.438l1.55,1.075
	c-0.323,0.468-0.646,0.937-0.963,1.411C130.631,233.188,130.261,233.756,129.892,234.33z M174.408,226.051l-0.95-0.02
	c-0.079-1.233-0.244-2.388-0.508-3.503l1.84-0.429c0.284,1.214,0.469,2.474,0.548,3.747l-0.937,0.204H174.408z M42.965,234.178
	c-0.805-0.99-1.597-2.013-2.335-3.035l1.531-1.107c0.719,0.996,1.484,1.992,2.269,2.948L42.965,234.178z M134.167,228.188
	l-1.504-1.142c0.792-1.042,1.597-2.045,2.388-2.988l1.445,1.221c-0.772,0.917-1.557,1.9-2.329,2.916V228.188z M138.976,222.502
	l-1.373-1.3c0.897-0.943,1.821-1.854,2.738-2.698l1.28,1.393C140.737,220.708,139.847,221.585,138.976,222.502z M38.479,227.97
	c-0.686-1.082-1.346-2.19-1.953-3.298l1.656-0.911c0.594,1.075,1.233,2.151,1.893,3.2l-1.596,1.016V227.97z M171.809,219.131
	c-0.501-1.114-1.115-2.144-1.814-3.061l1.504-1.148c0.785,1.029,1.471,2.184,2.032,3.424l-1.722,0.778V219.131z M144.438,217.488
	l-1.167-1.484c0.983-0.771,1.992-1.504,3.001-2.17l0.125-0.086l1.036,1.576l-0.119,0.08c-0.97,0.64-1.933,1.339-2.876,2.077V217.488
	z M167.514,213.583c-0.937-0.712-1.959-1.273-3.054-1.682l0.66-1.769c1.267,0.469,2.454,1.128,3.536,1.946L167.514,213.583z
	 M150.613,213.497l-0.844-1.688c1.207-0.601,2.421-1.108,3.608-1.504l0.6,1.794C152.869,212.468,151.741,212.936,150.613,213.497z
	 M161.029,211.142c-1.148-0.1-2.355-0.06-3.556,0.112l-0.264-1.874c1.339-0.191,2.692-0.237,3.985-0.125l-0.165,1.88V211.142z"/>
<path fill="#569C98" d="M425.457,567.108c0.186,0.237,0.436,0.555,0.746,0.938c3.813,4.598,17.139,18.576,41.375,22.818
	c1.42,0.257,2.877,0.468,4.375,0.646c0.197,0.026,0.395,0.046,0.594,0.072c0.91,0.105,1.859,0.158,2.869,0.218
	c0.283,0.02,0.566,0.033,0.871,0.053c4.057,0.277,8.352,0.251,12.797-0.093c0.568-0.039,1.143-0.085,1.723-0.145
	c0.436-0.04,0.871-0.086,1.307-0.132h0.098c0.244-0.033,0.482-0.06,0.727-0.086c0.732-0.072,1.424-0.146,2.123-0.237h0.027
	c0.225-0.026,0.436-0.053,0.652-0.073l0.305-0.026l0.277-0.02c0.25-0.026,0.52-0.053,0.797-0.099
	c2.824-0.442,5.707-1.029,8.762-1.788c0.691-0.171,1.391-0.35,2.104-0.541c0.152-0.039,0.297-0.086,0.441-0.125
	c0.277-0.079,0.555-0.165,0.832-0.244c0.389-0.112,0.779-0.225,1.168-0.337c3.543-1.035,6.689-2.104,9.564-3.259
	c0.508-0.197,1.01-0.402,1.504-0.613c0.244-0.105,0.482-0.211,0.727-0.323c0.1-0.046,0.211-0.092,0.311-0.145
	c0.35-0.165,0.713-0.33,1.094-0.495c2.844-1.3,5.635-2.738,8.498-4.4c0.33-0.185,0.658-0.376,0.988-0.573
	c0.33-0.205,0.654-0.383,0.965-0.562c0.031-0.02,0.064-0.039,0.092-0.053c0.303-0.165,0.58-0.329,0.818-0.475
	c2.525-1.59,4.992-3.325,7.738-5.436c0.189-0.146,0.381-0.291,0.572-0.449c0.305-0.25,0.607-0.481,0.904-0.706
	c0.066-0.053,0.139-0.105,0.205-0.158c0.191-0.145,0.369-0.29,0.541-0.422c2.486-2.025,4.848-4.162,7.025-6.346
	c0.092-0.093,0.191-0.191,0.283-0.284c0.197-0.198,0.396-0.396,0.594-0.594c0.197-0.204,0.402-0.402,0.594-0.601
	c0.08-0.085,0.166-0.171,0.244-0.25c2.35-2.468,4.473-4.908,6.313-7.257c0.014-0.02,0.027-0.033,0.041-0.053
	c0.236-0.304,0.461-0.601,0.68-0.897c0.17-0.237,0.35-0.468,0.527-0.699c0.006-0.013,0.02-0.026,0.033-0.046
	c1.793-2.395,3.152-4.611,4.063-6.241c0.238-0.415,0.443-0.791,0.621-1.121c-0.271-0.271-0.58-0.567-0.938-0.903
	c-1.385-1.3-3.385-3.035-5.865-4.81c-0.006,0-0.012-0.013-0.025-0.013c-0.377-0.271-0.785-0.548-1.213-0.838l-0.424-0.284
	c0,0-0.045-0.026-0.064-0.046c-2.541-1.748-5.311-3.438-8.215-5.014h-0.006l-0.014-0.013c-0.092-0.054-0.191-0.106-0.289-0.159
	c-0.178-0.099-0.357-0.19-0.541-0.29c-0.316-0.172-0.635-0.336-0.957-0.515c-0.111-0.06-0.225-0.112-0.336-0.165
	c-2.725-1.385-5.627-2.691-8.629-3.892c-0.205-0.079-0.416-0.165-0.633-0.251c-0.396-0.158-0.826-0.316-1.273-0.475h-0.014
	l-0.014-0.014c-0.244-0.092-0.488-0.178-0.725-0.264c-3.107-1.142-6.057-2.071-8.998-2.816h-0.027
	c-0.33-0.093-0.68-0.172-1.055-0.251c-0.066-0.014-0.139-0.026-0.205-0.046c-0.283-0.066-0.574-0.126-0.852-0.191
	c-0.375-0.086-0.744-0.172-1.115-0.251c-3.271-0.732-6.391-1.26-9.492-1.616h-0.025c-0.521-0.066-1.018-0.132-1.492-0.185
	c-0.264-0.033-0.527-0.06-0.785-0.093c-0.527-0.053-1.061-0.092-1.602-0.132c-3.068-0.225-6.393-0.297-10.121-0.218
	c-0.361,0.014-0.725,0.02-1.088,0.026c-0.35,0-0.68,0.014-1.01,0.02c-0.145,0-0.289,0.014-0.428,0.021
	c-0.766,0.039-1.498,0.079-2.211,0.125c-1.135,0.072-2.217,0.158-3.266,0.251c-1.906,0.178-3.688,0.389-5.422,0.659
	c-0.35,0.053-0.699,0.139-1.076,0.218c-0.355,0.079-0.725,0.165-1.135,0.237h-0.045c-0.666,0.112-1.32,0.251-2.012,0.396
	c-0.258,0.053-0.521,0.111-0.779,0.158c-0.025,0.007-0.047,0.007-0.072,0.013c-0.996,0.205-1.986,0.429-2.963,0.66
	c-4.326,1.029-8.449,2.309-12.289,3.819h-0.014l-0.014,0.014c-0.236,0.092-0.48,0.178-0.719,0.271
	c-0.93,0.35-1.893,0.712-2.75,1.102c-0.172,0.079-0.35,0.151-0.521,0.237c-1.379,0.62-2.705,1.273-3.984,1.946
	c-21.703,11.347-30.148,28.63-32.377,34.139c-0.186,0.448-0.324,0.817-0.43,1.102L425.457,567.108z"/>
<path fill="#9BB8C2" d="M425.457,567.108c0.186,0.237,0.436,0.555,0.746,0.938l8.457-1.307l32.918,24.125
	c1.42,0.257,2.877,0.468,4.375,0.646l-34.402-25.214l13.854-2.137l37.674,27.601c0.566-0.039,1.141-0.085,1.723-0.145
	c0.434-0.04,0.869-0.086,1.305-0.132h0.1l-37.912-27.786l13.893-2.144l37.695,27.594c0.691-0.171,1.391-0.35,2.104-0.54
	c0.152-0.04,0.297-0.086,0.441-0.126l-37.35-27.363l13.885-2.145l35.029,25.669c0.508-0.198,1.01-0.402,1.504-0.614
	c0.244-0.105,0.482-0.211,0.727-0.323l-34.369-25.18l13.854-2.144l30.418,22.277c0.33-0.185,0.658-0.376,0.988-0.574
	c0.33-0.204,0.654-0.383,0.965-0.561l-29.482-21.592l13.887-2.131l24.25,17.752c0.191-0.145,0.383-0.29,0.574-0.448
	c0.303-0.251,0.605-0.481,0.902-0.706c0.066-0.053,0.139-0.105,0.205-0.158l-23.035-16.895l13.873-2.144l16.736,12.264
	c0.092-0.093,0.191-0.191,0.283-0.284c0.197-0.197,0.396-0.396,0.594-0.594c0.197-0.204,0.402-0.402,0.594-0.601l-15.338-11.221
	l13.893-2.145l8.002,5.865c0,0,0.027-0.033,0.039-0.053c0.238-0.304,0.463-0.601,0.68-0.897c0.172-0.237,0.35-0.469,0.529-0.699
	l-6.381-4.671l10.477-1.616c0.238-0.415,0.441-0.791,0.621-1.121c-0.271-0.271-0.582-0.567-0.938-0.904l-10.621,1.63l4.73-6.452
	c-0.377-0.271-0.785-0.547-1.215-0.838l-0.422-0.283c0,0-0.047-0.026-0.066-0.046l-5.924,8.074l-13.893,2.144l11.287-15.41
	c-0.178-0.099-0.355-0.19-0.541-0.29c-0.316-0.171-0.633-0.336-0.957-0.515c-0.111-0.06-0.223-0.112-0.336-0.165l-12.336,16.815
	l-13.873,2.145l16.947-23.103c-0.396-0.158-0.824-0.316-1.273-0.475h-0.014l-0.012-0.014c-0.244-0.092-0.488-0.178-0.727-0.264
	l-17.811,24.31l-13.881,2.131l21.625-29.508c-0.066-0.014-0.139-0.026-0.205-0.046c-0.283-0.066-0.574-0.126-0.852-0.191
	c-0.375-0.086-0.744-0.172-1.113-0.251l-22.324,30.444l-13.887,2.145l25.199-34.39c-0.264-0.033-0.527-0.06-0.783-0.093
	c-0.529-0.053-1.063-0.092-1.604-0.132l-25.715,35.069l-13.873,2.144l27.369-37.385c-0.145,0-0.289,0.014-0.428,0.021
	c-0.766,0.039-1.498,0.079-2.211,0.125l-27.6,37.668l-13.873,2.15l27.746-37.892c0,0-0.047,0.006-0.074,0.013
	c-0.996,0.205-1.984,0.429-2.961,0.66l-27.615,37.668l-13.865,2.131l25.174-34.356c-1.379,0.62-2.705,1.272-3.986,1.945
	l-24.064,32.859l-8.318,1.286c-0.186,0.449-0.324,0.818-0.43,1.102H425.457z"/>
<path fill="#72D0CB" d="M408.919,557.18c0.363,0.132,0.852,0.29,1.445,0.488c7.256,2.282,31.162,7.995,60.004-4.229
	c1.695-0.706,3.404-1.491,5.119-2.336c0.23-0.105,0.463-0.224,0.686-0.336c1.049-0.521,2.105-1.115,3.221-1.748
	c0.316-0.179,0.627-0.356,0.963-0.541c4.525-2.507,9.104-5.516,13.615-8.952c0.58-0.436,1.162-0.884,1.742-1.339
	c0.436-0.344,0.871-0.693,1.307-1.043l0.098-0.079c0.238-0.197,0.482-0.389,0.719-0.58c0.732-0.581,1.42-1.142,2.105-1.722
	l0.025-0.021c0.225-0.185,0.436-0.355,0.646-0.527l0.305-0.244l0.283-0.218c0.25-0.198,0.521-0.415,0.785-0.659
	c2.711-2.428,5.383-5.054,8.127-7.976c0.627-0.66,1.246-1.34,1.873-2.032c0.133-0.146,0.258-0.297,0.391-0.442
	c0.236-0.276,0.475-0.561,0.719-0.838c0.342-0.389,0.672-0.778,1.01-1.167c3.074-3.556,5.691-6.881,7.969-10.1
	c0.408-0.567,0.797-1.135,1.188-1.695c0.191-0.277,0.369-0.562,0.553-0.852c0.074-0.119,0.158-0.244,0.238-0.369
	c0.264-0.416,0.535-0.845,0.832-1.286c2.143-3.358,4.123-6.828,6.035-10.582c0.225-0.429,0.441-0.857,0.66-1.3
	c0.211-0.441,0.428-0.863,0.639-1.267c0.021-0.046,0.041-0.085,0.066-0.125c0.205-0.389,0.396-0.759,0.549-1.075
	c1.602-3.443,3.041-7.013,4.512-11.168c0.105-0.284,0.205-0.581,0.311-0.878c0.15-0.481,0.316-0.937,0.475-1.379
	c0.039-0.099,0.072-0.211,0.111-0.31c0.105-0.284,0.199-0.561,0.283-0.831c1.254-3.886,2.303-7.805,3.121-11.644
	c0.033-0.165,0.072-0.337,0.105-0.502c0.072-0.35,0.145-0.699,0.225-1.042c0.072-0.356,0.152-0.706,0.225-1.049
	c0.025-0.146,0.059-0.297,0.086-0.436c0.805-4.262,1.385-8.345,1.729-12.125c0-0.026,0.006-0.06,0-0.086
	c0.045-0.488,0.078-0.956,0.105-1.425c0.02-0.369,0.045-0.745,0.086-1.115c0-0.02,0-0.046,0-0.065
	c0.256-3.8,0.178-7.104,0.031-9.479c-0.031-0.607-0.072-1.148-0.117-1.63c-0.477-0.099-1.018-0.204-1.623-0.316
	c-2.383-0.429-5.721-0.903-9.592-1.089c-0.014,0-0.027,0-0.041,0c-0.586-0.026-1.213-0.039-1.879-0.059l-0.646-0.014
	c0,0-0.066,0-0.1,0c-3.924-0.112-8.047,0-12.244,0.316h-0.039c-0.139,0.007-0.277,0.014-0.422,0.033
	c-0.258,0.02-0.516,0.04-0.779,0.066c-0.455,0.039-0.916,0.079-1.379,0.111c-0.158,0.014-0.316,0.033-0.475,0.053
	c-3.871,0.403-7.869,1.01-11.92,1.808c-0.271,0.053-0.555,0.112-0.852,0.172c-0.533,0.105-1.102,0.231-1.688,0.369h-0.041
	c-0.322,0.079-0.646,0.152-0.955,0.225c-4.117,0.931-7.91,1.979-11.564,3.213h-0.027c-0.408,0.145-0.844,0.297-1.293,0.475
	c-0.086,0.033-0.164,0.066-0.25,0.099c-0.35,0.133-0.693,0.265-1.043,0.383c-0.461,0.165-0.916,0.337-1.365,0.502
	c-4.004,1.484-7.699,3.074-11.268,4.835h-0.02l-0.014,0.02c-0.6,0.291-1.174,0.567-1.721,0.838
	c-0.311,0.146-0.602,0.297-0.904,0.449c-0.6,0.31-1.193,0.633-1.801,0.97c-3.438,1.88-7.045,4.103-10.965,6.762
	c-0.383,0.264-0.766,0.521-1.146,0.778c-0.371,0.244-0.721,0.488-1.063,0.719c-0.152,0.105-0.297,0.211-0.449,0.316
	c-0.791,0.567-1.543,1.122-2.275,1.67c-1.168,0.857-2.264,1.701-3.313,2.526c-1.912,1.511-3.668,2.969-5.344,4.453
	c-0.328,0.297-0.652,0.633-0.996,0.976c-0.328,0.33-0.666,0.673-1.049,1.036l-0.02,0.02l-0.02,0.02
	c-0.641,0.567-1.24,1.175-1.881,1.808c-0.236,0.231-0.475,0.476-0.719,0.706c-0.025,0.026-0.045,0.046-0.072,0.066
	c-0.924,0.91-1.82,1.827-2.705,2.751c-3.912,4.097-7.434,8.312-10.494,12.58v0.013l-0.021,0.014
	c-0.189,0.264-0.389,0.527-0.58,0.785c-0.752,1.022-1.529,2.071-2.176,3.08c-0.133,0.205-0.264,0.402-0.391,0.613
	c-1.041,1.617-2.012,3.232-2.916,4.836c-15.35,27.14-12.422,51.455-10.99,58.884c0.113,0.606,0.225,1.102,0.305,1.471
	L408.919,557.18z"/>
<path fill="#ADDDEF" d="M408.919,557.18c0.363,0.132,0.852,0.29,1.445,0.488l8.141-7.243l51.871,3.015
	c1.695-0.706,3.402-1.491,5.119-2.336l-54.207-3.153l13.332-11.867l59.359,3.443c0.58-0.436,1.16-0.884,1.74-1.339
	c0.436-0.344,0.871-0.693,1.307-1.043l0.1-0.079l-59.734-3.463l13.365-11.901l59.371,3.424c0.627-0.659,1.246-1.339,1.873-2.031
	c0.133-0.146,0.258-0.297,0.389-0.442l-58.85-3.417l13.359-11.895l55.195,3.206c0.408-0.566,0.799-1.134,1.188-1.695
	c0.191-0.276,0.369-0.561,0.555-0.851l-54.148-3.141l13.326-11.874l47.92,2.777c0.225-0.429,0.441-0.857,0.66-1.3
	c0.211-0.441,0.428-0.864,0.639-1.267l-46.441-2.685l13.365-11.881l38.195,2.203c0.105-0.283,0.205-0.58,0.311-0.877
	c0.152-0.481,0.316-0.938,0.475-1.379c0.039-0.1,0.072-0.211,0.113-0.311l-36.311-2.117l13.346-11.888l26.367,1.53
	c0.033-0.165,0.074-0.336,0.105-0.501c0.074-0.35,0.146-0.699,0.225-1.042c0.072-0.356,0.152-0.706,0.225-1.05l-24.15-1.385
	l13.365-11.9l12.613,0.731c0,0,0.006-0.059,0-0.085c0.045-0.488,0.078-0.957,0.105-1.426c0.02-0.369,0.045-0.745,0.086-1.114
	l-10.047-0.581l10.08-8.972c-0.033-0.606-0.074-1.147-0.119-1.629c-0.475-0.1-1.016-0.205-1.623-0.317l-10.225,9.084l0.594-10.172
	c-0.588-0.026-1.215-0.04-1.881-0.06l-0.646-0.013c0,0-0.066,0-0.1,0l-0.744,12.725l-13.365,11.901l1.404-24.276
	c-0.258,0.02-0.514,0.039-0.777,0.065c-0.457,0.04-0.918,0.079-1.379,0.112c-0.158,0.014-0.318,0.033-0.477,0.053l-1.557,26.506
	l-13.352,11.888l2.137-36.414c-0.533,0.105-1.102,0.23-1.688,0.369h-0.041c-0.322,0.079-0.646,0.151-0.955,0.225l-2.23,38.301
	l-13.365,11.881l2.705-46.494c-0.086,0.032-0.166,0.065-0.25,0.099c-0.35,0.132-0.693,0.264-1.043,0.383
	c-0.463,0.165-0.918,0.336-1.365,0.501l-2.811,47.979l-13.365,11.9l3.146-54.187c-0.311,0.146-0.6,0.297-0.904,0.448
	c-0.6,0.311-1.193,0.634-1.801,0.97l-3.225,55.262l-13.354,11.888l3.398-58.89c-0.152,0.105-0.297,0.211-0.449,0.316
	c-0.791,0.567-1.543,1.121-2.275,1.669l-3.443,59.346l-13.346,11.894l3.449-59.694c0,0-0.045,0.046-0.072,0.065
	c-0.924,0.911-1.82,1.827-2.705,2.751l-3.455,59.358l-13.354,11.868l3.141-54.134c-1.043,1.616-2.012,3.232-2.916,4.835
	l-2.988,51.766l-8.002,7.125c0.111,0.606,0.225,1.102,0.303,1.471L408.919,557.18z"/>
<path fill="#62CDBD" d="M388.976,531.835c0.305-0.013,0.707-0.039,1.195-0.079c5.949-0.515,25.027-3.522,42.313-21.037
	c1.016-1.022,2.025-2.104,3.021-3.226c0.131-0.146,0.264-0.297,0.395-0.449c0.607-0.692,1.195-1.438,1.814-2.236
	c0.178-0.224,0.35-0.448,0.541-0.679c2.533-3.174,4.961-6.729,7.203-10.575c0.291-0.488,0.582-0.989,0.865-1.497
	c0.211-0.383,0.422-0.766,0.633-1.148l0.047-0.086c0.111-0.211,0.23-0.422,0.35-0.64c0.355-0.64,0.691-1.253,1.01-1.88l0.012-0.026
	c0.105-0.198,0.211-0.39,0.316-0.574l0.152-0.264l0.139-0.237c0.125-0.218,0.25-0.455,0.377-0.713c1.24-2.572,2.4-5.277,3.516-8.22
	c0.258-0.666,0.508-1.346,0.752-2.038c0.053-0.146,0.1-0.297,0.145-0.436c0.092-0.271,0.178-0.548,0.271-0.824
	c0.131-0.39,0.256-0.772,0.383-1.148c1.166-3.503,2.07-6.702,2.764-9.724c0.125-0.534,0.244-1.062,0.35-1.59
	c0.053-0.257,0.098-0.515,0.145-0.785c0.02-0.105,0.047-0.224,0.059-0.336c0.066-0.383,0.133-0.772,0.219-1.181
	c0.555-3.081,0.949-6.194,1.213-9.493c0.041-0.376,0.066-0.759,0.094-1.142c0.02-0.383,0.053-0.752,0.086-1.114
	c0-0.04,0-0.073,0.006-0.105c0.033-0.344,0.059-0.667,0.08-0.943c0.131-2.982,0.105-6.004-0.066-9.46
	c-0.014-0.238-0.02-0.481-0.041-0.726c-0.031-0.396-0.045-0.778-0.064-1.142c0-0.086-0.008-0.178-0.014-0.258
	c-0.014-0.237-0.027-0.468-0.039-0.686c-0.252-3.199-0.666-6.353-1.221-9.394l-0.072-0.396c-0.053-0.276-0.1-0.554-0.152-0.824
	c-0.053-0.277-0.105-0.561-0.152-0.831c-0.02-0.119-0.045-0.231-0.064-0.344c-0.693-3.338-1.492-6.472-2.375-9.321
	c-0.008-0.02-0.014-0.039-0.02-0.065c-0.113-0.37-0.232-0.72-0.352-1.069c-0.098-0.276-0.189-0.554-0.27-0.838
	c-0.006-0.013-0.014-0.032-0.02-0.053c-0.951-2.836-2-5.218-2.816-6.894c-0.205-0.429-0.396-0.812-0.574-1.147
	c-0.377,0.065-0.799,0.151-1.273,0.257c-1.854,0.402-4.42,1.056-7.289,2.085c-0.008,0-0.02,0-0.027,0.013
	c-0.436,0.158-0.896,0.33-1.385,0.521l-0.475,0.185c0,0-0.047,0.02-0.072,0.026c-2.891,1.096-5.846,2.415-8.801,3.899h-0.014
	l-0.014,0.013c-0.098,0.046-0.197,0.093-0.297,0.151c-0.178,0.093-0.361,0.186-0.547,0.284c-0.324,0.165-0.641,0.33-0.971,0.494
	c-0.111,0.06-0.223,0.119-0.328,0.179c-2.691,1.451-5.416,3.094-8.115,4.882c-0.178,0.118-0.369,0.244-0.566,0.376
	c-0.357,0.237-0.732,0.494-1.115,0.771h-0.014l-0.014,0.02c-0.211,0.152-0.422,0.297-0.633,0.442
	c-2.711,1.906-5.152,3.807-7.434,5.792h-0.008l-0.014,0.014c-0.256,0.218-0.52,0.462-0.797,0.726
	c-0.053,0.046-0.1,0.099-0.152,0.145c-0.217,0.198-0.428,0.402-0.641,0.594c-0.283,0.258-0.566,0.521-0.844,0.772
	c-2.461,2.275-4.67,4.538-6.734,6.887h-0.014v0.02c-0.357,0.39-0.686,0.759-1.004,1.122c-0.178,0.197-0.35,0.396-0.52,0.594
	c-0.344,0.409-0.68,0.817-1.018,1.24c-1.932,2.395-3.885,5.086-5.936,8.193c-0.199,0.303-0.396,0.606-0.602,0.91
	c-0.191,0.29-0.375,0.567-0.553,0.845c-0.08,0.118-0.152,0.244-0.232,0.362c-0.402,0.653-0.785,1.273-1.154,1.894
	c-0.586,0.977-1.135,1.913-1.648,2.83c-0.938,1.669-1.775,3.252-2.547,4.835c-0.152,0.317-0.283,0.653-0.428,1.003
	c-0.139,0.337-0.277,0.687-0.449,1.069l-0.014,0.02v0.02c-0.303,0.607-0.555,1.221-0.83,1.873c-0.105,0.238-0.205,0.488-0.311,0.727
	c-0.008,0.026-0.02,0.046-0.027,0.072c-0.395,0.937-0.777,1.873-1.141,2.811c-1.617,4.149-2.91,8.259-3.854,12.276v0.026
	c-0.064,0.251-0.131,0.495-0.189,0.745c-0.238,0.964-0.488,1.966-0.66,2.89c-0.033,0.185-0.072,0.376-0.1,0.561
	c-0.277,1.484-0.494,2.949-0.666,4.387c-3.021,24.304,6.385,41.086,9.65,46.053c0.264,0.402,0.496,0.732,0.66,0.977L388.976,531.835
	z"/>
<path fill="#76DAC6" d="M388.976,531.835c0.305-0.013,0.707-0.039,1.195-0.079l3.74-7.698l38.572-13.339
	c1.016-1.022,2.025-2.104,3.021-3.226l-40.309,13.938l6.129-12.606l44.141-15.271c0.289-0.488,0.58-0.989,0.863-1.497
	c0.211-0.383,0.422-0.766,0.633-1.148l0.047-0.086l-44.41,15.371l6.143-12.64l44.139-15.291c0.258-0.667,0.508-1.346,0.752-2.039
	c0.053-0.145,0.1-0.297,0.145-0.436l-43.756,15.141l6.135-12.64l41.039-14.203c0.125-0.534,0.244-1.063,0.35-1.59
	c0.053-0.258,0.1-0.515,0.145-0.785l-40.26,13.933l6.121-12.613l35.631-12.336c0.039-0.376,0.066-0.759,0.092-1.142
	c0.02-0.383,0.053-0.752,0.086-1.115l-34.527,11.954l6.148-12.633l28.398-9.836c-0.014-0.238-0.02-0.481-0.039-0.726
	c-0.033-0.396-0.047-0.779-0.066-1.142c0-0.086-0.006-0.178-0.014-0.258l-27,9.335l6.129-12.626l19.605-6.788l-0.072-0.396
	c-0.053-0.277-0.1-0.554-0.152-0.824c-0.053-0.277-0.105-0.561-0.152-0.831l-17.957,6.228l6.143-12.641l9.375-3.245
	c0,0-0.014-0.04-0.021-0.066c-0.111-0.369-0.23-0.719-0.35-1.068c-0.098-0.277-0.191-0.554-0.27-0.838l-7.469,2.586l4.633-9.532
	c-0.205-0.429-0.396-0.812-0.574-1.148c-0.377,0.066-0.799,0.152-1.273,0.258l-4.703,9.658l-2.613-7.567
	c-0.436,0.158-0.896,0.33-1.385,0.521l-0.475,0.185c0,0-0.047,0.02-0.074,0.026l3.266,9.467l-6.141,12.64l-6.248-18.049
	c-0.178,0.092-0.361,0.185-0.547,0.283c-0.324,0.165-0.641,0.33-0.971,0.495c-0.111,0.059-0.223,0.118-0.328,0.178l6.807,19.712
	l-6.135,12.633l-9.354-27.087c-0.357,0.237-0.732,0.495-1.115,0.771h-0.014l-0.014,0.021c-0.211,0.151-0.422,0.297-0.633,0.441
	l9.85,28.479l-6.148,12.626l-11.961-34.574c-0.053,0.046-0.098,0.099-0.15,0.146c-0.219,0.197-0.43,0.402-0.641,0.594
	c-0.283,0.257-0.566,0.521-0.844,0.771l12.328,35.683l-6.141,12.64l-13.939-40.294c-0.178,0.198-0.35,0.396-0.521,0.594
	c-0.342,0.409-0.68,0.818-1.016,1.24l14.203,41.099l-6.135,12.633l-15.166-43.783c-0.08,0.118-0.152,0.244-0.23,0.362
	c-0.402,0.653-0.785,1.273-1.154,1.894l15.271,44.126l-6.129,12.634l-15.371-44.384c0,0-0.02,0.046-0.025,0.072
	c-0.396,0.937-0.779,1.874-1.143,2.811l15.266,44.14l-6.143,12.613l-13.926-40.255c-0.275,1.484-0.494,2.949-0.666,4.388
	l13.326,38.485l-3.674,7.567c0.264,0.402,0.494,0.731,0.658,0.976L388.976,531.835z"/>
<path fill="#231F20" d="M170.482,626.447v5.166c0,1.517,1.234,2.75,2.751,2.75h28.221c1.518,0,2.751-1.233,2.751-2.75v-5.166
	h-33.716H170.482z"/>
<path fill="#231F20" d="M394.775,626.447v5.166c0,1.517,1.234,2.75,2.752,2.75h28.221c1.518,0,2.752-1.233,2.752-2.75v-5.166
	h-33.717H394.775z"/>
<path fill="#33B9B1" d="M208.909,392.16l1.663-39.911c0.151-3.675,3.173-6.57,6.847-6.57h18.445c3.787,0,6.854,3.067,6.854,6.854
	v17.047c0,9.348,7.58,16.934,16.934,16.934h79.677c9.354,0,16.934-7.579,16.934-16.934v-17.047c0-3.786,3.068-6.854,6.854-6.854
	h18.445c3.674,0,6.695,2.896,6.848,6.57l1.662,39.911c2.633,63.23,23.781,124.298,60.811,175.621H148.1
	C185.127,516.458,206.277,455.39,208.909,392.16L208.909,392.16z"/>
<path fill="#00A79D" d="M450.875,567.781v51.792c0,4.4-3.568,7.97-7.969,7.97H156.062c-4.4,0-7.969-3.569-7.969-7.97v-51.792
	h302.776H450.875z"/>
<path fill="#F1F2F2" d="M299.484,415.651c-33.96,0-61.496,27.535-61.496,61.496s27.535,61.496,61.496,61.496
	c33.961,0,61.496-27.535,61.496-61.496S333.445,415.651,299.484,415.651z M244.077,477.147c0-7.138,5.785-12.923,12.923-12.923
	c7.138,0,12.923,5.785,12.923,12.923S264.138,490.07,257,490.07C249.862,490.07,244.077,484.285,244.077,477.147z M278.579,516.326
	c-5.047,5.047-13.227,5.047-18.273,0c-5.046-5.047-5.046-13.227,0-18.273c5.047-5.047,13.227-5.047,18.273,0
	C283.625,503.099,283.625,511.279,278.579,516.326z M278.579,456.242c-5.047,5.047-13.227,5.047-18.273,0
	c-5.046-5.047-5.046-13.227,0-18.273c5.047-5.047,13.227-5.047,18.273,0C283.625,443.015,283.625,451.195,278.579,456.242z
	 M299.484,532.554c-7.138,0-12.923-5.786-12.923-12.924s5.786-12.923,12.923-12.923c7.139,0,12.924,5.785,12.924,12.923
	S306.623,532.554,299.484,532.554z M299.484,447.58c-7.138,0-12.923-5.785-12.923-12.923s5.786-12.924,12.923-12.924
	c7.139,0,12.924,5.786,12.924,12.924S306.623,447.58,299.484,447.58z M320.39,437.969c5.045-5.047,13.227-5.047,18.273,0
	c5.045,5.047,5.045,13.227,0,18.273c-5.047,5.047-13.229,5.047-18.273,0C315.343,451.195,315.343,443.015,320.39,437.969
	L320.39,437.969z M341.968,490.07c-7.139,0-12.924-5.785-12.924-12.923s5.785-12.923,12.924-12.923
	c7.137,0,12.922,5.785,12.922,12.923S349.105,490.07,341.968,490.07z"/>
<circle fill="#007D76" cx="299.484" cy="477.147" r="19.909"/>
<path fill="#D1D3D4" d="M349.443,515.646l-22.127-18.306c-1.531-1.287-4.354-0.614-6.393,1.425
	c-2.037,2.038-2.711,4.861-1.432,6.398l18.531,21.922c0.541,0.64,1.504,0.679,2.098,0.086l9.42-9.421
	C350.134,517.157,350.089,516.18,349.443,515.646z"/>
<path fill="#E6E7E8" d="M125.215,551.262l-33.65-9.427l14.863-28.426l34.732,1.795L125.215,551.262z"/>
<path fill="#01666C" d="M106.236,531.961l-1.135,2.79l-5.878-1.504l0.943-2.184c3.384-3.675,5.442-5.964,6.168-6.86
	c0.726-0.891,1.194-1.597,1.412-2.118c0.165-0.396,0.237-0.699,0.217-0.903c-0.02-0.205-0.132-0.317-0.336-0.337
	c-0.204-0.02-0.402,0.072-0.587,0.271c-0.191,0.205-0.416,0.62-0.686,1.26l-0.587,1.386l-2.322-0.316l0.224-0.521
	c0.343-0.798,0.64-1.412,0.897-1.86c0.25-0.448,0.587-0.877,1.009-1.293c0.422-0.416,0.864-0.719,1.339-0.91
	c0.475-0.191,0.983-0.271,1.531-0.225c1.082,0.086,1.768,0.508,2.051,1.28c0.284,0.778,0.198,1.741-0.257,2.876
	c-0.35,0.871-0.891,1.774-1.616,2.705c-0.726,0.93-2.533,2.869-5.403,5.785l3.028,0.673L106.236,531.961z"/>
<path fill="#01666C" d="M118.572,519.762l-4.037,10.74l0.95,0.178l-1.108,2.988l-0.95-0.211l-1.174,3.12l-3.199-0.817l1.174-3.015
	l-3.549-0.785l1.108-2.744l6.604-9.797l4.189,0.35L118.572,519.762z M111.329,529.889l2.671-6.868l-4.024,6.61L111.329,529.889z"/>
<path fill="#01666C" d="M126.785,520.112l-10.892,17.799l-2.625-0.68l10.727-17.337l2.784,0.225L126.785,520.112z"/>
<path fill="#01666C" d="M134.708,521.102l-1.253,4.037l-7.625,14.915l-4.083-1.042l8.028-15.021l-3.925-0.435l1.062-3.101
	l7.804,0.646H134.708z"/>
<path fill="#414042" d="M98.623,643.691c0,0-2.309,7.19-0.521,7.185h16.492c3.048-0.317-10.594-7.185-10.594-7.185H98.623z"/>
<path fill="#414042" d="M67.374,650.869h17.409c2.982-0.541-10.944-7.185-10.944-7.185h-5.119c0,0-3.133,6.986-1.339,7.185H67.374z"
	/>
<path fill="#093C5F" d="M78.292,610.635c1.458-10.535-10.496-35.267,0.343-44.159c5.126-4.209,21.552-5.938,24.25,0
	c5.093,11.208,6.108,33.505,6.3,44.159c0.152,8.688-5.185,33.05-5.185,33.05h-5.39c0,0,1.471-23.432,0.053-32.015
	c-1.194-7.223-9.618-30.938-9.618-30.938s0.996,26.493-0.838,33.472c-2.342,8.893-14.375,29.488-14.375,29.488h-5.119
	c0,0,8.365-24.27,9.579-33.05V610.635z"/>
<path fill="#FBC897" d="M102.647,514.511c0.607-3.219-0.812-10.298-5.957-11.67c-3.925-1.049-8.14,0.825-10.007,4.434
	c-0.923,1.781-1.174,3.701-0.871,5.488c0.752,4.473,0.798,9.038,0.561,13.563l-0.013,0.277l8.543,2.249l-1.28-8.794
	c3.477,1.92,7.692,1.531,9.031-5.554L102.647,514.511z"/>
<path fill="#FBC897" d="M89.52,512.658c0,0-0.336-2.85-2.006-3.503c-1.669-0.646-3.879,5.858,0.779,5.43L89.52,512.658z"/>
<circle fill="#121F55" cx="86.854" cy="513.291" r="7.85"/>
<circle fill="#121F55" cx="95.978" cy="506.965" r="7.204"/>
<path fill="#F7A60F" d="M78.878,525.231c0.521-0.963,1.537-1.55,2.625-1.583l3.8-0.112l10.41-0.765l0.508-0.04
	c1.887-0.139,3.694,0.792,4.657,2.415c5.614,9.46,5.548,39.792,2.006,41.329c-4.394,1.906-20.035,2.071-24.25,0
	C75.501,564.938,73.707,534.718,78.878,525.231z"/>
<circle fill="#121F55" cx="90.582" cy="506.457" r="7.296"/>
<circle fill="#121F55" cx="82.084" cy="521.735" r="9.506"/>
<path fill="#F9B83F" d="M112.932,543.181c-4.196-1.193-7.686-19.737-14.25-19.553c-11.854,0.33,4.143,26.262,9.473,29
	c7.448,3.826,20.965-12.442,20.965-12.442l-3.872-5.132c0,0-8.774,9.144-12.323,8.134L112.932,543.181z"/>
<path fill="#FBC897" d="M136.06,536.196c0.719-0.409,1.135-1.208,1.062-2.032l-0.316-3.543c-0.132-1.438-1.623-2.328-2.949-1.754
	c0,0-4.585,1.523-5.832,2.507c-0.904,0.712-2.771,3.688-2.771,3.688l3.873,5.139l6.933-3.991V536.196z"/>
<path fill="#093C5F" d="M487.171,604.328c0.561-10.021,7.375-34.304,11.26-38.519c5.199-5.634,20.781-5.667,25.906,0
	c3.418,3.779,0.416,30.926,1.418,41.184c0.832,8.504,5.357,33.136,5.357,33.136l-6.248-0.369
	c-1.654-5.726-8.932-16.717-11.523-32.106c-1.143-6.788-4.17-27.226-4.17-27.226s-10.646,19.401-11.77,26.579
	c-1.293,8.266-0.158,33.28-0.158,33.28l-6.141-0.132c0,0-4.439-26.829-3.939-35.82L487.171,604.328z"/>
<path fill="#414042" d="M497.244,640.281c0,0,1.875,7.375,0.021,7.526c-5.119,0.436-14.111,0.555-18.834-0.23
	c-3.213-0.534,12.686-7.428,12.686-7.428l6.141,0.132H497.244z"/>
<path fill="#414042" d="M531.337,647.385c-3.879,0.884-11.057,0.666-18.096,0.086c-3.352-0.277,11.623-7.719,11.623-7.719
	l6.254,0.37c0,0,1.934,6.867,0.211,7.263H531.337z"/>
<path fill="#F7A60F" d="M506.242,519.407c4.336,3.542,0.094,9.671-5.369,14.599l-7.189-9.11
	C498.037,520.634,503.003,516.755,506.242,519.407L506.242,519.407z"/>
<path fill="#FBC897" d="M477.097,522.501c0,0,8.465,9.137,10.311,9.308c1.484,0.139,3.055-3.753,6.275-6.906l7.189,9.11
	c-3.945,3.556-8.523,6.478-10.996,7.349c-7.033,2.48-18.029-14.685-18.029-14.685l5.25-4.169V522.501z"/>
<path fill="#FBC897" d="M465.896,520.825c-0.619-0.601-0.83-1.511-0.541-2.329l1.248-3.496c0.508-1.411,2.242-1.926,3.43-1.003
	c0,0,4.229,2.738,5.23,4.051c0.727,0.957,1.834,4.439,1.834,4.439l-5.25,4.17l-5.957-5.846L465.896,520.825z"/>
<path fill="#FBC897" d="M499.396,509.28c0.039-3.021,2.625-9.163,7.525-9.459c3.74-0.225,7.217,2.242,8.24,5.845
	c0.389,1.372,0.408,2.744,0.119,4.018c-0.977,4.32-0.785,8.826,0.15,13.16l0.105,0.475l-8.141,0.462l-0.85-7.823
	c-3.496,1.102-7.244-0.033-7.152-6.683L499.396,509.28z"/>
<path fill="#0B1A50" d="M516.771,500.981c-1.457-3.568-5.08-4.604-8.107-4.188c-2.844,0.389-5.746,0.33-8.568-0.165
	c-1.643-0.29-3.127,1.063-2.996,2.731c0.08,1.028,0.494,2.052,1.174,2.823c1.459,1.643,3.793,2.263,5.984,2.177
	c1.715-0.065,3.754-0.396,4.861,0.91c0.746,0.878,0.832,2.296,1.828,2.863c0.494,0.283,1.115,0.283,1.609,0.574
	c1.16,0.686,0.93,2.375,0.916,3.721c-0.02,1.517,0.436,3.034,1.293,4.288c3.74,0.435,2.383-14.791,2-15.728L516.771,500.981z"/>
<path fill="#FBC897" d="M510.794,509.083c0,0,0.502-3.443,2.453-2.797c1.57,0.521,2.436,6.016-1.695,4.763L510.794,509.083z"/>
<path fill="#F9B83F" d="M503.544,518.622l1.523,0.118l0.918,0.073l9.967,0.785l0.588,0.046l1.748,0.297
	c4.67,0.785,8.404,4.327,9.42,8.952c2.963,13.49-0.455,32.528-3.377,36.902c-2.139,3.199-23.578,2.474-25.906,0
	c-6.068-6.452,1.26-47.484,5.113-47.181L503.544,518.622z"/>
<path fill="#032D46" d="M469.603,503.456l14.594,42.708c0.6,1.761-0.338,3.674-2.1,4.274c-1.76,0.601-3.674-0.337-4.273-2.098
	l-14.592-42.708L469.603,503.456z"/>
<path opacity="0.4" fill="#D6E8F7" enable-background="new    " d="M436.798,469.943c4.439-8.028,12.559-12.731,21.096-13.174
	c4.354-0.224,8.814,0.66,12.949,2.777c0.244,0.125,0.488,0.251,0.727,0.383c3.818,2.111,6.887,5.06,9.104,8.49
	c4.953,7.665,5.633,17.739,0.91,26.281c-4.439,8.029-12.561,12.732-21.098,13.175c-4.354,0.224-8.813-0.66-12.949-2.777
	c-0.244-0.126-0.488-0.251-0.725-0.383c-3.82-2.111-6.887-5.06-9.104-8.49C432.753,488.559,432.074,478.486,436.798,469.943z"/>
<path opacity="0.5" fill="#D6E8F7" enable-background="new    " d="M462.156,464.884c0.469-0.389,1.537-0.594,3.127-0.158
	c1.57,0.429,3.693,1.451,5.766,3.345c5.865,5.363,7.414,12.276,7.191,13.622c-0.244,1.537-1.168,2.098-2.178,1.913
	c-1.029-0.171-2.15-1.075-3.166-2.21c-1.934-2.236-3.16-4.314-4.236-6.154c-0.553-0.97-1.094-1.973-1.793-3.094
	c-0.041-0.066-0.086-0.133-0.127-0.198c-0.666-1.049-1.43-2.059-2.189-2.936c-1.668-1.966-3.377-3.206-2.389-4.137L462.156,464.884z
	"/>
<path opacity="0.15" fill="#231F20" enable-background="new    " d="M447.503,503.634c11.75,6.498,26.539,2.236,33.037-9.513
	s2.236-26.539-9.512-33.037c-11.75-6.498-26.539-2.236-33.037,9.513S435.755,497.135,447.503,503.634z M441.316,472.411
	c5.482-9.922,18.016-13.53,27.932-8.042c9.922,5.482,13.529,18.017,8.041,27.932c-5.482,9.921-18.016,13.529-27.932,8.041
	C439.437,494.86,435.828,482.326,441.316,472.411z"/>
<path fill="#043C5D" d="M446.826,504.86c12.428,6.868,28.068,2.362,34.936-10.06c6.867-12.429,2.361-28.069-10.061-34.938
	c-12.428-6.867-28.068-2.361-34.936,10.061C429.898,482.352,434.404,497.993,446.826,504.86z M440.275,471.837
	c5.797-10.489,19.051-14.309,29.539-8.51c10.49,5.799,14.309,19.052,8.512,29.541c-5.799,10.488-19.053,14.309-29.541,8.51
	C438.294,495.579,434.476,482.326,440.275,471.837z"/>
<path fill="#F7A60F" d="M520.677,523.853c5.078,2.348,2.512,9.341-1.551,15.476l-9.242-7.019
	C513.031,527.092,516.871,522.098,520.677,523.853z"/>
<path fill="#FCD3AC" d="M488.933,541.374c0,0,12.844,3.095,15.391,0.212c1.279-1.452,3.232-5.423,5.561-9.282l9.242,7.02
	c-2.93,4.426-6.637,8.404-8.807,9.862c-6.188,4.155-21.895-1.135-21.895-1.135l0.514-6.683L488.933,541.374z"/>
<path fill="#FCD3AC" d="M480.085,548.453c-0.863,0.046-1.676-0.423-2.07-1.188l-1.709-3.292c-0.693-1.333,0.119-2.955,1.596-3.199
	c0,0,4.883-1.24,6.531-1.082c1.193,0.118,4.506,1.682,4.506,1.682l-0.514,6.683l-8.34,0.39V548.453z"/>
<path fill="#FBC897" d="M505.076,518.747c0.725,2.415,2.545,3.167,4.742,3.503c2.791,0.429,6.162-0.185,6.736-2.599l-0.588-0.047
	l-9.969-0.785l-0.916-0.072H505.076z"/>
<path fill="#0B1A50" d="M500.847,517.058c2.994,1.438,5.408-0.423,6.016-0.989c0.383-0.356,3.523-5.767,4.242-8.365
	c0.139-0.495-0.516-1.768-1.016-1.887c-0.377-0.093-0.086,0.337-0.291,0.666c-0.555,0.911-1.373,4.572-3.787,5.192
	c-1.338,0.343-5.719-2.329-6.676-0.845c-1.121,1.741-0.533,5.251,1.518,6.228H500.847z"/>
<path fill="#093C5F" d="M358.494,609.368c-0.563-10.021-7.377-34.304-11.262-38.519c-5.199-5.634-20.779-5.667-25.906,0
	c-3.416,3.779-0.416,30.926-1.418,41.184c-0.832,8.504-5.357,33.136-5.357,33.136l7.568-0.369
	c1.654-5.726,8.133-22.311,10.205-32.106c1.424-6.735,4.168-27.226,4.168-27.226s8.965,20.443,10.088,27.628
	c1.293,8.266-0.139,32.231-0.139,32.231l8.121-0.132c0,0,4.439-26.829,3.938-35.82L358.494,609.368z"/>
<path fill="#414042" d="M346.441,645.321c0,0-1.875,7.375-0.02,7.526h20.813c3.213-0.534-12.686-7.665-12.686-7.665l-8.121,0.132
	h0.014V645.321z"/>
<path fill="#414042" d="M314.328,652.847h18.094c3.352-0.276-10.303-8.055-10.303-8.055l-7.574,0.37c0,0-1.934,7.289-0.211,7.685
	H314.328z"/>
<path fill="#F9B83F" d="M337.066,527.343c-1.121,5.482,6.037,7.561,13.385,7.923l-0.178-11.604
	C344.205,523.107,337.904,523.239,337.066,527.343L337.066,527.343z"/>
<path fill="#FBC897" d="M369.998,512.157c0,0-5.119,12.178-8.951,12.521c-1.928,0.172-6.287-0.613-10.773-1.022l0.178,11.604
	c5.305,0.265,10.701-0.362,13.168-1.246c7.02-2.521,12.066-18.307,12.066-18.307L369.998,512.157z"/>
<path fill="#FBC897" d="M380.943,509.227c0.547-0.666,0.652-1.596,0.27-2.374l-1.637-3.332c-0.658-1.346-2.447-1.655-3.521-0.606
	c0,0-3.893,3.199-4.744,4.617c-0.613,1.029-1.318,4.625-1.318,4.625l5.686,3.549l5.258-6.479H380.943z"/>
<path fill="#FBC897" d="M346.269,514.314c-0.039-3.021-2.619-9.163-7.527-9.46c-3.74-0.225-7.217,2.242-8.24,5.845
	c-0.389,1.372-0.408,2.744-0.117,4.018c0.977,4.32,0.785,8.826-0.152,13.16l-0.105,0.476l8.141,0.462l0.852-7.824
	c3.496,1.102,7.242-0.033,7.15-6.683V514.314z"/>
<path fill="#0B1A50" d="M328.892,506.015c1.459-3.569,5.08-4.605,8.107-4.189c2.844,0.39,5.746,0.33,8.57-0.165
	c1.643-0.29,3.127,1.063,2.994,2.731c-0.078,1.029-0.494,2.052-1.174,2.823c-1.457,1.643-3.793,2.263-5.982,2.177
	c-1.717-0.065-3.754-0.396-4.863,0.91c-0.744,0.878-0.83,2.296-1.826,2.863c-0.496,0.284-1.115,0.284-1.609,0.574
	c-1.162,0.686-0.932,2.375-0.918,3.721c0.02,1.518-0.436,3.034-1.293,4.288c-3.74,0.436-2.381-14.79-1.998-15.728L328.892,506.015z"
	/>
<path fill="#FBC897" d="M334.869,514.116c0,0-0.5-3.443-2.453-2.797c-1.57,0.521-2.434,6.017,1.695,4.763L334.869,514.116z"/>
<path fill="#F7A60F" d="M342.119,523.662l-1.523,0.118l-0.916,0.073l-9.969,0.785l-0.586,0.046l-1.75,0.297
	c-4.67,0.785-8.404,4.327-9.42,8.952c-2.961,13.49,0.455,32.528,3.379,36.902c2.137,3.199,23.576,2.474,25.904,0
	c6.07-6.452-1.26-47.484-5.111-47.181L342.119,523.662z"/>
<path fill="#01646C" d="M355.822,532c0.303,0.785,1.188,1.168,1.973,0.864c0.783-0.304,1.166-1.188,0.863-1.973l-2.461-6.293
	l-2.83,1.108l2.461,6.293H355.822z"/>
<path fill="#01646C" d="M367.22,516.312c-0.25-0.64-0.877-1.022-1.523-0.989l0.533,1.372l0.535,1.372
	c0.502-0.415,0.699-1.121,0.449-1.761L367.22,516.312z"/>
<path fill="#0C4547" d="M368.699,523.015l-1.934-4.941l-0.533-1.372l-0.535-1.372l-1.934-4.941c-0.33-0.838-1.432-1.022-2.012-0.343
	l2.85,7.296l2.85,7.297c0.891,0.105,1.578-0.779,1.248-1.617V523.015z"/>
<path fill="#01646C" d="M347.179,524.15c-0.211-0.535-0.303-1.082-0.297-1.623l-0.211,0.079c-0.422,0.165-0.633,0.646-0.469,1.068
	l0.291,0.739l0.289,0.738c0.166,0.423,0.646,0.634,1.07,0.469l0.211-0.079C347.693,525.152,347.39,524.684,347.179,524.15
	L347.179,524.15z"/>
<path fill="#0C4547" d="M352.767,521.967l-1.57-4.018l-1.576,0.613c-1.684,0.659-2.719,2.263-2.744,3.965
	c-0.008,0.541,0.086,1.088,0.297,1.623c0.211,0.534,0.514,1.002,0.883,1.392c1.174,1.233,3.021,1.709,4.703,1.049l1.578-0.613
	l-1.57-4.018V521.967z"/>
<path fill="#EFF7F3" d="M364.601,517.336l-2.85-7.297l-0.211,0.251c-1.418,1.662-3.088,3.101-4.941,4.269l-5.402,3.391l1.57,4.018
	l1.57,4.018l5.949-1.115c2.361-0.442,4.783-0.521,7.164-0.237L364.601,517.336z"/>
<path fill="#F9B83F" d="M320.679,526.327c-5.014,3.338-2.48,10.839,1.848,17.376l9.658-7.157
	c-3.102-6.307-6.723-13.405-11.498-10.219H320.679z"/>
<path fill="#FCD3AC" d="M349.593,534.883c0,0-7.955,10.549-11.756,9.941c-1.787-0.283-3.607-4.103-5.66-8.266l-9.656,7.157
	c3.727,5.634,8.799,10.556,11.537,11.479c7.236,2.447,20.174-15.47,20.174-15.47L349.593,534.883z"/>
<path fill="#FCD3AC" d="M360.921,534.731c0.691-0.515,1.027-1.386,0.85-2.236l-0.766-3.628c-0.309-1.472-1.965-2.21-3.264-1.458
	c0,0-4.559,2.144-5.734,3.312c-0.85,0.851-2.414,4.156-2.414,4.156l4.639,4.842L360.921,534.731z"/>
<path fill="#FBC897" d="M340.589,523.78c-0.727,2.415-2.547,3.167-4.744,3.503c-2.789,0.429-6.16-0.185-6.734-2.599l0.586-0.046
	l9.969-0.785l0.916-0.073H340.589z"/>
<path fill="#093C5F" d="M277.53,401.362c-1.016-0.007-1.9,0.687-2.131,1.676l-4.651,19.784l-56.641-0.35l4.427-18.821
	c0.316-1.358-0.706-2.658-2.098-2.665c-1.009,0-1.893,0.687-2.124,1.676l-61.258,260.477l-0.125,0.535l4.453,0.032l4.618-19.646
	l56.641,0.35l-4.625,19.646l4.453,0.033l61.166-260.055c0.317-1.358-0.706-2.658-2.098-2.665L277.53,401.362z M219.761,639.628
	l-56.64-0.356l6.161-26.189l56.634,0.35L219.761,639.628z M227.044,608.655l-56.634-0.35l6.155-26.189l56.641,0.35L227.044,608.655z
	 M234.333,577.69l-56.641-0.363l6.162-26.189l56.634,0.363L234.333,577.69z M241.623,546.711l-56.641-0.35l6.155-26.189l56.641,0.35
	L241.623,546.711z M248.906,515.746l-56.634-0.351l6.155-26.195l56.634,0.355L248.906,515.746z M256.195,484.766l-56.641-0.35
	l6.155-26.189l56.641,0.35L256.195,484.766z M263.479,453.801l-56.634-0.35l6.155-26.195l56.641,0.362l-6.161,26.189V453.801z"/>
<path fill="#F9B83F" d="M240.271,299.638c0.832,5.535,8.266,5.027,15.292,2.844l-4.156-10.839
	C245.515,293.207,239.644,295.496,240.271,299.638z"/>
<path fill="#FBC897" d="M265.979,274.069c0,0-0.62,13.2-4.103,14.837c-1.749,0.824-6.109,1.583-10.463,2.744l4.156,10.839
	c5.066-1.577,9.921-4.018,11.934-5.7c5.726-4.776,5.04-21.341,5.04-21.341L265.979,274.069z"/>
<path fill="#FBC897" d="M275.254,267.558c0.284-0.818,0.066-1.729-0.561-2.322l-2.678-2.566c-1.088-1.035-2.87-0.712-3.516,0.641
	c0,0-2.56,4.341-2.863,5.97c-0.225,1.181,0.35,4.789,0.35,4.789l6.563,1.379l2.711-7.89H275.254z"/>
<path fill="#093C5F" d="M261.532,379.665c-0.561-10.021-7.375-34.303-11.261-38.519c-5.198-5.634-20.78-5.667-25.906,0
	c-3.417,3.78-0.416,30.926-1.418,41.185c-0.831,8.503-5.356,33.136-5.356,33.136l7.566-0.369c1.656-5.727,5.95-16.367,10.469-30.755
	c2.065-6.57,4.354-26.421,4.354-26.421s9.539,17.238,10.667,24.422c1.293,8.266-1.821,33.281-1.821,33.281l7.461-0.132
	c0,0,5.759-26.829,5.258-35.821L261.532,379.665z"/>
<path fill="#414042" d="M248.827,415.618c0,0-0.554,6.953,1.3,7.105h18.834c3.212-0.534-12.686-7.244-12.686-7.244l-7.461,0.132
	h0.013V415.618z"/>
<path fill="#414042" d="M217.373,422.723h18.095c3.351-0.277-10.304-7.633-10.304-7.633l-7.573,0.369c0,0-1.933,6.867-0.211,7.264
	H217.373z"/>
<path fill="#F7A60F" d="M245.159,293.959l-13.002,1.029l-1.748,0.297c-4.67,0.785-8.404,4.327-9.42,8.952
	c-2.962,13.49,0.456,32.529,3.378,36.902c2.137,3.199,23.577,2.474,25.906,0C256.34,334.688,249.011,293.655,245.159,293.959z"/>
<path fill="#00A79D" d="M87.355,317.134c3.701-12.666,12.726-23.108,24.488-29.085c86.623-44.034,178.115-77.751,272.596-100.457
	c12.824-3.081,26.473-0.996,37.51,6.24c26.453,17.343,40.234,48.461,35.49,79.545l-1.365,8.833
	c-0.982,6.558-7.086,11.09-13.689,10.12l-70.328-10.186c-7.996-1.168-12.619-9.718-9.236-17.06l2.764-5.997
	c2.111-4.571,0.998-10.409-3.779-13.615c-3.141-2.111-7.211-2.289-10.76-0.983C295.691,274.986,236.082,297,174.19,309.798
	l-0.851,0.179c-5.634,2.078-8.543,8.378-6.452,14.058c1.003,2.725,3.048,4.968,5.68,6.182l5.997,2.764
	c7.342,3.391,9.375,12.896,4.044,18.973l-46.897,53.389c-4.354,5.007-11.98,5.527-16.98,1.181l-6.768-5.832
	c-23.775-20.575-33.486-53.19-24.613-83.549L87.355,317.134z"/>
<path fill="#231F20" d="M178.577,332.972c7.342,3.391,9.375,12.897,4.044,18.973l-46.897,53.389
	c-4.354,5.007-11.98,5.528-16.98,1.181l-6.768-5.832l66.608-67.71H178.577z"/>
<path fill="#231F20" d="M362.82,265.078l94.619,8.299l-1.365,8.833c-0.982,6.558-7.086,11.09-13.689,10.12l-70.328-10.186
	c-7.996-1.168-12.619-9.718-9.236-17.06V265.078z"/>
<path fill="#FBC897" d="M241.781,275.811c-3.74-0.225-7.217,2.242-8.239,5.845c-0.389,1.372-0.409,2.744-0.119,4.018
	c0.528,2.328,0.442,6.233,0.251,9.348c-0.158,2.572,1.88,3.43,4.459,3.43c2.718,0,4.809-1.088,4.42-3.779l-0.389-2.725
	c3.496,1.102,7.243-0.033,7.151-6.683c-0.04-3.021-2.625-9.163-7.527-9.46L241.781,275.811z"/>
<path fill="#0B1A50" d="M231.939,276.978c1.458-3.568,5.08-4.604,8.107-4.188c2.843,0.389,5.746,0.33,8.569-0.165
	c1.643-0.29,3.127,1.063,2.995,2.731c-0.079,1.028-0.495,2.051-1.174,2.823c-1.458,1.643-3.793,2.263-5.983,2.177
	c-1.715-0.066-3.754-0.396-4.862,0.91c-0.746,0.878-0.832,2.296-1.828,2.863c-0.495,0.283-1.115,0.283-1.609,0.574
	c-1.161,0.686-0.93,2.375-0.917,3.721c0.02,1.517-0.436,3.034-1.293,4.287c-3.741,0.436-2.381-14.79-1.999-15.727L231.939,276.978z"
	/>
<path fill="#FBC897" d="M237.909,285.08c0,0-0.501-3.443-2.454-2.797c-1.57,0.521-2.435,6.016,1.695,4.763L237.909,285.08z"/>
<path fill="#0B1A50" d="M247.864,293.055c-2.995,1.438-5.41-0.423-6.017-0.99c-0.382-0.355-3.522-5.766-4.242-8.364
	c-0.139-0.495,0.515-1.768,1.016-1.887c0.376-0.093,0.085,0.336,0.29,0.666c0.554,0.91,1.372,4.572,3.787,5.192
	c1.339,0.343,5.72-2.329,6.676-0.845c1.121,1.741,0.534,5.251-1.518,6.228H247.864z"/>
<path fill="#F9B83F" d="M225.533,301.948c-0.402,5.581,6.966,6.715,14.295,6.128l-1.676-11.484
	C232.064,296.829,225.837,297.772,225.533,301.948z"/>
<path fill="#FCD3AC" d="M256.222,282.633c0,0-3.503,12.738-7.256,13.576c-1.887,0.422-6.313,0.204-10.813,0.383l1.676,11.484
	c5.291-0.422,10.562-1.748,12.89-2.942c6.63-3.403,9.599-19.718,9.599-19.718l-6.102-2.783H256.222z"/>
<path fill="#FCD3AC" d="M266.698,278.311c0.455-0.732,0.442-1.669-0.033-2.388l-2.052-3.088c-0.831-1.253-2.645-1.326-3.575-0.145
	c0,0-3.444,3.674-4.104,5.191c-0.475,1.102-0.706,4.75-0.706,4.75l6.102,2.783l4.374-7.104H266.698z"/>
<path fill="#093C5F" d="M359.041,376.829c0.059-9.098-31.506-8.457-32.588-9.625c-5.199-5.634-23.828-7.355-25.906,0
	c-7.409,26.262,21.994,16.828,27.053,19.467c-0.83,8.504,1.57,34.277,1.57,34.277l6.248-0.369
	c1.656-5.726,3.416-20.081,6.016-35.471l3.707-0.251c1.293,8.266,2.436,34.66,2.436,34.66l6.141-0.133c0,0,5.271-33.551,5.33-42.549
	L359.041,376.829z"/>
<path fill="#414042" d="M347.576,419.516c0,0-1.623,6.591-0.02,7.527c2.639,1.544,12.639,5.449,15.752,5.047
	c3.227-0.415-9.605-12.706-9.605-12.706l-6.141,0.132H347.576z"/>
<path fill="#414042" d="M328.945,428.205c2.336,1.425,10.693,5.113,15.523,5.027c3.357-0.06-9.059-12.66-9.059-12.66l-6.254,0.37
	C329.156,420.942,327.435,427.288,328.945,428.205z"/>
<path fill="#F9B83F" d="M321.939,325.181c-5.527,0.858-4.98,8.293-2.764,15.312l10.813-4.215
	c-1.596-5.878-3.912-11.743-8.055-11.097H321.939z"/>
<path fill="#F9B83F" d="M347.648,350.758c0,0-13.201-0.554-14.857-4.023c-0.83-1.742-1.615-6.103-2.797-10.45l-10.811,4.216
	c1.602,5.06,4.07,9.902,5.758,11.907c4.809,5.7,21.367,4.928,21.367,4.928l1.346-6.57L347.648,350.758z"/>
<path fill="#FBC897" d="M354.212,359.994c0.816,0.283,1.727,0.059,2.32-0.574l2.555-2.691c1.035-1.089,0.699-2.87-0.66-3.517
	c0,0-4.354-2.533-5.984-2.83c-1.18-0.218-4.789,0.376-4.789,0.376l-1.346,6.57l7.91,2.666H354.212z"/>
<path fill="#FBC897" d="M325.49,315.946c-0.041-3.021-2.627-9.163-7.527-9.46c-3.74-0.224-7.217,2.243-8.24,5.845
	c-0.389,1.372-0.408,2.745-0.119,4.018c0.977,4.321,0.785,8.827-0.15,13.161l-0.105,0.475l8.139,0.462l0.852-7.824
	c3.496,1.103,7.244-0.032,7.152-6.683V315.946z"/>
<path fill="#0B1A50" d="M308.113,307.647c1.457-3.568,5.08-4.604,8.107-4.188c2.844,0.389,5.746,0.329,8.568-0.165
	c1.643-0.29,3.127,1.062,2.996,2.73c-0.08,1.029-0.494,2.052-1.174,2.824c-1.459,1.643-3.793,2.263-5.984,2.177
	c-1.715-0.066-3.754-0.396-4.861,0.91c-0.746,0.878-0.832,2.296-1.828,2.863c-0.494,0.283-1.113,0.283-1.609,0.574
	c-1.16,0.686-0.93,2.374-0.916,3.72c0.02,1.518-0.436,3.035-1.293,4.288c-3.74,0.436-2.383-14.79-2-15.727L308.113,307.647z"/>
<path fill="#FBC897" d="M314.089,315.749c0,0-0.502-3.444-2.453-2.798c-1.57,0.521-2.436,6.017,1.695,4.764L314.089,315.749z"/>
<path fill="#F7A60F" d="M321.339,325.294l-1.523,0.119l-0.918,0.072l-9.967,0.785l-0.588,0.046l-1.748,0.297
	c-4.67,0.785-8.404,4.328-9.42,8.952c-2.962,13.49,0.456,27.252,3.377,31.625c2.139,3.2,23.578,2.475,25.906,0
	c2.744-5.845-1.26-42.206-5.113-41.902L321.339,325.294z"/>
<path fill="#BCBEC0" d="M341.453,368.075H366l6.129-24.666c0.178-0.726-0.264-1.319-0.99-1.319H349.23
	c-0.725,0-1.463,0.594-1.648,1.319L341.453,368.075z"/>
<path fill="#A7A9AC" d="M342.443,368.075h24.547l6.129-24.666c0.178-0.726-0.264-1.319-0.99-1.319H350.22
	c-0.725,0-1.465,0.594-1.648,1.319L342.443,368.075z"/>
<path fill="#939598" d="M367.101,367.646v1.55c0,0.726-0.594,1.319-1.318,1.319h-44.734c-0.725,0-1.318-0.594-1.318-1.319v-1.55
	H367.101z"/>
<path fill="#BCBEC0" d="M341.652,367.646v1.55c0,0.726-0.594,1.319-1.32,1.319h-19.283c-0.725,0-1.318-0.594-1.318-1.319v-1.55
	H341.652z"/>
<path fill="#F9B83F" d="M303.97,331.937c-5.561,0.594-5.377,8.041-3.496,15.159l11.004-3.688
	C310.164,337.459,308.132,331.495,303.97,331.937z"/>
<path fill="#F9B83F" d="M328.417,358.72c0,0-13.16-1.188-14.645-4.736c-0.746-1.781-1.32-6.175-2.289-10.575l-11.004,3.688
	c1.352,5.133,3.588,10.087,5.178,12.171c4.525,5.925,21.104,5.951,21.104,5.951l1.664-6.498H328.417z"/>
<path fill="#FCD3AC" d="M334.527,368.26c0.805,0.316,1.721,0.139,2.342-0.462l2.678-2.566c1.082-1.042,0.838-2.837-0.488-3.542
	c0,0-4.229-2.738-5.838-3.121c-1.168-0.276-4.803,0.146-4.803,0.146l-1.662,6.498L334.527,368.26z"/>
<path fill="#FBC897" d="M319.816,325.413c-0.727,2.414-2.547,3.166-4.744,3.503c-2.789,0.429-6.16-0.185-6.734-2.6l0.586-0.046
	l9.969-0.785l0.916-0.072H319.816z"/>
<path fill="#72D0CB" d="M588.63,358.515c5.482-19.302,3.939-41.349-8.424-57.161c-12.363-15.807-34.938-23.598-53.777-16.684
	c-12.086,4.433-21.328,13.722-31.428,21.314c-12.014,9.031-23.121,11.881-37.959,13.114c-12.189,1.01-29.633-8.648-35.887-22.706
	c-7.367,11.215-12.178,96.004,69.623,113.815c44.271,9.638,89.719-23.089,97.838-51.687L588.63,358.515z"/>
<path fill="#FFFFFF" d="M465.15,340.375c0.146,9.519,0.291,19.045,0.443,28.564c-2.758-0.614-4.104-0.938-6.736-1.63
	c0.039-4.473,0.053-6.716,0.092-11.215c-3.574-0.488-5.309-0.778-8.693-1.438c-0.172,4.03-0.258,6.036-0.43,10.026
	c-2.473-0.791-3.688-1.207-6.063-2.071c0.496-7.289,0.984-14.572,1.479-21.861c2.197,0.112,3.318,0.151,5.594,0.178
	c-0.158,3.761-0.238,5.627-0.396,9.361c3.326,0.455,5.035,0.646,8.551,0.93c0.033-4.162,0.053-6.254,0.086-10.437
	C461.462,340.672,462.677,340.593,465.15,340.375z"/>
<path fill="#FFFFFF" d="M470.64,339.807c6.867-0.838,13.563-2.197,20.311-3.668c0.297,2.718,0.441,4.077,0.738,6.795
	c-5.902,1.028-8.732,1.411-14.209,1.959c0.166,2.811,0.252,4.222,0.422,7.032c4.492-0.139,6.809-0.271,11.592-0.699
	c0.236,2.44,0.363,3.661,0.6,6.102c-4.908,0.179-7.275,0.191-11.867,0.093c0.191,3.226,0.289,4.836,0.48,8.062
	c6.01,0.58,9.145,0.771,15.721,0.917c0.297,2.737,0.449,4.104,0.752,6.848c-7.863-0.581-15.693-1.577-23.445-3.028
	c-0.369-10.133-0.732-20.266-1.094-30.398V339.807z"/>
<path fill="#FFFFFF" d="M502.884,332.927c1.662,11.122,3.332,22.244,5,33.367c6.34-0.218,9.633-0.436,16.52-1.115
	c0.672,3.371,1.01,5.06,1.682,8.45c-8.582,0.383-17.184,0.383-25.768-0.065c-1.602-12.857-3.205-25.708-4.803-38.565
	c2.896-0.759,4.367-1.174,7.363-2.071H502.884z"/>
<path fill="#FFFFFF" d="M521.277,326.594c5.172-2.005,7.83-3.113,13.299-5.555c2.594-1.161,4.744-1.913,6.426-2.177
	s3.291-0.185,4.842,0.251c2.045,0.606,3.893,1.794,5.535,3.589c1.643,1.794,2.975,4.255,3.957,7.349
	c0.68,2.137,1.051,4.183,1.104,6.122s-0.16,3.779-0.654,5.508c-0.732,2.6-1.932,4.724-3.574,6.373
	c-1.645,1.643-4.441,2.941-8.246,3.832c-2.883,0.673-4.303,0.99-7.092,1.577c1.543,6.359,3.086,12.726,4.637,19.085
	c-4.209,0.396-6.254,0.554-10.252,0.798c-3.338-15.582-6.662-31.17-9.98-46.759V326.594z M534.781,344.853
	c2.355-0.633,3.549-0.963,5.971-1.662c1.293-0.376,2.301-0.831,3.014-1.365s1.254-1.24,1.629-2.071
	c0.35-0.785,0.568-1.716,0.607-2.765s-0.078-2.052-0.342-2.995c-0.291-1.022-0.693-1.926-1.201-2.704s-1.102-1.353-1.736-1.729
	c-0.678-0.402-1.451-0.634-2.301-0.66c-0.852-0.026-1.861,0.186-3.021,0.634c-2.35,0.903-3.51,1.332-5.799,2.164
	c1.266,5.237,1.9,7.869,3.186,13.167L534.781,344.853z"/>
</svg>
