<?xml version="1.0" encoding="utf-8"?>
<!-- Generator: Adobe Illustrator 16.0.0, SVG Export Plug-In . SVG Version: 6.00 Build 0)  -->
<!DOCTYPE svg PUBLIC "-//W3C//DTD SVG 1.1//EN" "http://www.w3.org/Graphics/SVG/1.1/DTD/svg11.dtd">
<svg version="1.1" id="Calque_1" xmlns="http://www.w3.org/2000/svg" xmlns:xlink="http://www.w3.org/1999/xlink" x="0px" y="0px"
	 width="1012.409px" height="569.753px" viewBox="24.39 135.692 1012.409 569.753"
	 enable-background="new 24.39 135.692 1012.409 569.753" xml:space="preserve">
<circle display="none" fill="#000091" cx="532.558" cy="428.556" r="233.473"/>
<path display="none" fill="#FFFFFF" d="M646.962,366.464h-11.65v-26.802c0-56.658-46.096-102.754-102.754-102.754
	c-56.66,0-102.754,46.096-102.754,102.754v26.802h-11.648c-5.59,0-10.119,4.531-10.119,10.121v127.615
	c1.268,18.045,6.342,35.035,14.467,50.156c21.064,39.195,62.445,65.85,110.055,65.85c47.611,0,88.994-26.656,110.059-65.852
	c8.125-15.119,13.199-32.111,14.465-50.154V376.582c0-5.589-4.529-10.12-10.119-10.12V366.464z M555.156,530.23h-45.197
	l12.369-47.027c-8.469-3.883-14.354-12.428-14.354-22.352c0-13.578,11.006-24.584,24.584-24.584s24.582,11.006,24.582,24.584
	c0,9.924-5.885,18.469-14.357,22.352L555.156,530.23z M476.257,348.857h0.021v-5.337c0-31.032,25.244-56.278,56.277-56.278
	c31.031,0,56.277,25.246,56.277,56.278v5.556h-0.123v21.246H476.257V348.857L476.257,348.857z"/>
<circle fill="#000091" cx="532.532" cy="428.878" r="233.796"/>
<path fill="#FFFFFF" d="M639.19,343.287c-31.23-26.013-58.934-37.422-91.172-37.422c-43.822,0-86.638,26.013-103.261,68.452h171.767
	l-12.593,33.313H435.184c-0.504,2.282-1.007,7.302-1.007,11.409c0,4.564,0.505,8.214,1.007,10.951H595.87l-13.097,33.315H443.244
	c13.097,39.244,54.903,69.365,98.226,69.365c34.756,0,66.993-13.691,97.721-37.879v49.741
	c-36.267,20.079-64.98,28.294-98.727,28.294c-66.492,0-131.973-42.896-149.101-109.521h-37.779l8.563-33.315h22.667
	c-0.504-2.737-1.007-6.844-1.007-10.496c0-2.281,0.504-8.671,1.007-11.864H354.59l8.563-33.313h28.712
	c19.141-64.803,82.609-108.611,154.643-108.611c36.77,0,62.458,9.582,92.681,26.468v51.11L639.19,343.287z"/>
</svg>
