<?xml version="1.0" encoding="utf-8"?>
<!-- Generator: Adobe Illustrator 16.0.0, SVG Export Plug-In . SVG Version: 6.00 Build 0)  -->
<!DOCTYPE svg PUBLIC "-//W3C//DTD SVG 1.1//EN" "http://www.w3.org/Graphics/SVG/1.1/DTD/svg11.dtd">
<svg version="1.1" id="Calque_1" xmlns="http://www.w3.org/2000/svg" xmlns:xlink="http://www.w3.org/1999/xlink" x="0px" y="0px"
	 width="1012.409px" height="569.753px" viewBox="24.39 135.692 1012.409 569.753"
	 enable-background="new 24.39 135.692 1012.409 569.753" xml:space="preserve">
<circle display="none" fill="#000091" cx="532.558" cy="428.556" r="233.473"/>
<path display="none" fill="#FFFFFF" d="M646.962,366.464h-11.65v-26.802c0-56.658-46.096-102.754-102.754-102.754
	c-56.66,0-102.754,46.096-102.754,102.754v26.802h-11.648c-5.59,0-10.119,4.531-10.119,10.121v127.615
	c1.268,18.045,6.342,35.035,14.467,50.156c21.064,39.195,62.445,65.85,110.055,65.85c47.611,0,88.994-26.656,110.059-65.852
	c8.125-15.119,13.199-32.111,14.465-50.154V376.582c0-5.589-4.529-10.12-10.119-10.12V366.464z M555.156,530.23h-45.197
	l12.369-47.027c-8.469-3.883-14.354-12.428-14.354-22.352c0-13.578,11.006-24.584,24.584-24.584s24.582,11.006,24.582,24.584
	c0,9.924-5.885,18.469-14.357,22.352L555.156,530.23z M476.257,348.857h0.021v-5.337c0-31.032,25.244-56.278,56.277-56.278
	c31.031,0,56.277,25.246,56.277,56.278v5.556h-0.123v21.246H476.257V348.857L476.257,348.857z"/>
<circle display="none" fill="#000091" cx="532.532" cy="428.878" r="233.796"/>
<path display="none" fill="#FFFFFF" d="M639.19,343.287c-31.23-26.013-58.934-37.422-91.172-37.422
	c-43.822,0-86.638,26.013-103.261,68.452h171.767l-12.593,33.313H435.184c-0.504,2.282-1.007,7.302-1.007,11.409
	c0,4.564,0.505,8.214,1.007,10.951H595.87l-13.097,33.315H443.244c13.097,39.244,54.903,69.365,98.226,69.365
	c34.756,0,66.993-13.691,97.721-37.879v49.741c-36.267,20.079-64.98,28.294-98.727,28.294c-66.492,0-131.973-42.896-149.101-109.521
	h-37.779l8.563-33.315h22.667c-0.504-2.737-1.007-6.844-1.007-10.496c0-2.281,0.504-8.671,1.007-11.864H354.59l8.563-33.313h28.712
	c19.141-64.803,82.609-108.611,154.643-108.611c36.77,0,62.458,9.582,92.681,26.468v51.11L639.19,343.287z"/>
<circle fill="#000091" cx="531.085" cy="428.391" r="234.279"/>
<g>
	<path fill="#FFFFFF" d="M612.809,463.77v-2.712c0-9.069,7.354-16.424,16.423-16.424h2.711c15.923,0,25.876-17.237,17.913-31.025
		l-1.354-2.348c-4.533-7.854-1.844-17.898,6.011-22.431l2.348-1.355c13.79-7.962,13.79-27.865,0-35.83l-2.348-1.354
		c-7.854-4.535-10.544-14.578-6.011-22.433l1.354-2.347c7.963-13.791-1.99-31.028-17.913-31.028h-2.711
		c-9.069,0-16.423-7.353-16.423-16.423v-2.709c0-15.924-17.238-25.877-31.029-17.916l-2.348,1.355
		c-7.854,4.534-17.896,1.844-22.433-6.011l-1.353-2.347c-7.963-13.79-27.867-13.79-35.831,0l-1.354,2.347
		c-4.535,7.855-14.578,10.545-22.434,6.011l-2.347-1.355c-13.79-7.962-31.028,1.992-31.028,17.916v2.709
		c0,9.07-7.352,16.423-16.424,16.423h-2.71c-15.924,0-25.877,17.237-17.915,31.028l1.354,2.347
		c4.536,7.854,1.845,17.898-6.01,22.433l-2.348,1.354c-13.79,7.961-13.79,27.866,0,35.83l2.348,1.355
		c7.854,4.533,10.546,14.577,6.01,22.431l-1.354,2.348c-7.962,13.788,1.991,31.025,17.915,31.025h2.71
		c9.072,0,16.424,7.354,16.424,16.424v2.712c0,15.925,17.238,25.877,31.028,17.915l2.347-1.354
		c7.855-4.537,17.898-1.845,22.434,6.009l1.354,2.348c7.961,13.79,27.865,13.79,35.831,0l1.353-2.348
		c4.537-7.854,14.579-10.546,22.433-6.009l2.348,1.354C595.571,489.647,612.809,479.695,612.809,463.77z M537.727,464.955
		c-52.684,0-95.396-42.709-95.396-95.396c0-52.686,42.712-95.395,95.396-95.395c52.689,0,95.396,42.709,95.396,95.395
		C633.124,422.246,590.417,464.955,537.727,464.955z"/>
	<circle fill="#FFFFFF" cx="537.729" cy="369.56" r="87.388"/>
	<path fill="#FFFFFF" d="M691.057,569.937l-59.029-93.11c-0.927-1.462-3.141-1.161-3.646,0.492l-2.31,7.549
		c-1.571,5.132-5.306,9.326-10.225,11.477l-10.456,4.574c-3.947,1.726-8.378,2.012-12.515,0.812l-9.188-5.35
		c-1.807-1.056-3.831,0.992-2.755,2.789l55.227,92.224c0.66,1.105,2.301,0.971,2.771-0.228l10.491-26.617
		c0.718-1.816,2.694-2.799,4.575-2.268l35.329,9.978C690.696,572.645,691.82,571.139,691.057,569.937L691.057,569.937z"/>
	<path fill="#FFFFFF" d="M497.04,498.141l-9.188,5.351c-4.137,1.203-8.563,0.914-12.513-0.811l-10.457-4.575
		c-4.921-2.15-8.654-6.342-10.226-11.476l-2.309-7.55c-0.505-1.653-2.719-1.953-3.646-0.491l-59.03,93.111
		c-0.763,1.201,0.362,2.709,1.73,2.323l35.328-9.977c1.881-0.534,3.856,0.447,4.574,2.265l10.491,26.618
		c0.471,1.198,2.112,1.333,2.771,0.23l55.227-92.226C500.871,499.139,498.848,497.093,497.04,498.141L497.04,498.141z"/>
</g>
<circle display="none" fill="#000091" cx="531.082" cy="428.387" r="234.275"/>
<g display="none">
	<path display="inline" fill="#FFFFFF" d="M679.967,413.978c0,0,16.732-8.483,7.677-29.99
		c-10.931-25.962-121.214-13.686-121.214-13.686s24.778-27.948,24.785-70.327c0.007-59.242-37.27-54.515-48.177-51.39
		c-4,1.146-6.735,9.413-8.597,19.424c-5.354,28.785-19.584,55.177-40.547,75.619c-14.862,14.496-27.187,31.384-36.456,49.961
		l0.127,162.078l197.397-0.154c26.606-9.45,13.039-35.668,13.039-35.668s15.356-2.695,17.032-26.966
		c1.674-24.275-8.003-24.929-8.003-24.929s11.745-0.769,12.528-27.096c0.786-26.326-9.593-26.879-9.593-26.879V413.978z"/>
	<path display="inline" fill="#FFFFFF" d="M364.952,397.26h72.253v158.456h-72.253V397.26z"/>
</g>
</svg>
