<?xml version="1.0" encoding="utf-8"?>
<!-- Generator: Adobe Illustrator 16.0.0, SVG Export Plug-In . SVG Version: 6.00 Build 0)  -->
<!DOCTYPE svg PUBLIC "-//W3C//DTD SVG 1.1//EN" "http://www.w3.org/Graphics/SVG/1.1/DTD/svg11.dtd">
<svg version="1.1" id="Ñëîé_1" xmlns="http://www.w3.org/2000/svg" xmlns:xlink="http://www.w3.org/1999/xlink" x="0px" y="0px"
	 width="449.979px" height="95.625px" viewBox="0 0 449.979 95.625" enable-background="new 0 0 449.979 95.625"
	 xml:space="preserve">
<path fill="#1270B1" d="M440.694,95.375H410.33v-95h30.364c4.199,0,7.603,3.404,7.603,7.602v79.795
	C448.297,91.972,444.894,95.375,440.694,95.375z"/>
<path id="path5_2_" fill="#1270B1" d="M11.058,0.755c-4.463,0-9.15,3.43-9.15,7.661v80.644c0,2.726,3.399,4.935,6.273,4.935h36.371
	V0.755H11.058L11.058,0.755z"/>
<path fill="none" stroke="#414042" stroke-width="3" stroke-miterlimit="10" d="M441.444,94.114H8.681
	c-3.934,0-7.123-3.189-7.123-7.122V8.758c0-3.934,3.189-7.122,7.123-7.122h432.763c3.934,0,7.122,3.188,7.122,7.122v78.234
	C448.566,90.925,445.378,94.114,441.444,94.114z"/>
<g id="g9">
	<polygon id="polygon11" fill="#FDC20F" points="23.67,15.606 25.088,15.609 23.942,16.444 24.378,17.793 23.23,16.962 
		22.081,17.793 22.518,16.444 21.372,15.609 22.79,15.606 23.23,14.258 	"/>
	<polygon id="polygon13" fill="#FDC20F" points="30.471,17.435 31.89,17.437 30.744,18.272 31.18,19.622 30.031,18.791 
		28.883,19.622 29.318,18.272 28.173,17.437 29.591,17.435 30.031,16.087 	"/>
	<polygon id="polygon15" fill="#FDC20F" points="35.443,22.433 36.861,22.435 35.715,23.27 36.152,24.62 35.003,23.788 
		33.854,24.62 34.291,23.27 33.145,22.435 34.563,22.433 35.003,21.084 	"/>
	<polygon id="polygon17" fill="#FDC20F" points="37.279,29.222 38.697,29.225 37.551,30.06 37.987,31.409 36.838,30.577 
		35.69,31.409 36.126,30.06 34.98,29.225 36.398,29.222 36.838,27.875 	"/>
	<polygon id="polygon19" fill="#FDC20F" points="35.454,36.03 36.872,36.032 35.726,36.868 36.162,38.217 35.014,37.385 
		33.865,38.217 34.301,36.868 33.155,36.032 34.573,36.03 35.014,34.682 	"/>
	<polygon id="polygon21" fill="#FDC20F" points="30.46,41.017 31.878,41.019 30.732,41.854 31.168,43.204 30.02,42.372 
		28.871,43.204 29.307,41.854 28.161,41.019 29.58,41.017 30.02,39.668 	"/>
	<polygon id="polygon23" fill="#FDC20F" points="23.651,42.824 25.069,42.826 23.923,43.662 24.359,45.011 23.21,44.179 
		22.062,45.011 22.498,43.662 21.352,42.826 22.771,42.824 23.21,41.476 	"/>
	<polygon id="polygon25" fill="#FDC20F" points="16.852,41.018 18.27,41.02 17.124,41.855 17.56,43.205 16.411,42.373 
		15.263,43.205 15.699,41.855 14.552,41.02 15.971,41.018 16.411,39.669 	"/>
	<polygon id="polygon27" fill="#FDC20F" points="11.879,36.041 13.297,36.042 12.151,36.878 12.587,38.228 11.438,37.396 
		10.29,38.228 10.726,36.878 9.58,36.042 10.999,36.041 11.438,34.692 	"/>
	<polygon id="polygon29" fill="#FDC20F" points="10.063,29.231 11.48,29.233 10.334,30.069 10.771,31.418 9.622,30.586 
		8.473,31.418 8.91,30.069 7.764,29.233 9.182,29.231 9.622,27.883 	"/>
	<polygon id="polygon31" fill="#FDC20F" points="11.86,22.414 13.278,22.416 12.132,23.251 12.568,24.601 11.42,23.769 
		10.271,24.601 10.708,23.251 9.561,22.416 10.979,22.414 11.42,21.065 	"/>
	<polygon id="polygon33" fill="#FDC20F" points="16.856,17.426 18.274,17.428 17.128,18.263 17.564,19.613 16.416,18.781 
		15.267,19.613 15.703,18.263 14.557,17.428 15.975,17.426 16.416,16.078 	"/>
</g>
<g>
	<path fill="#FFFFFF" d="M29.599,61.83h-7.776v5.408h7.146v4.027h-7.146v8.558h-4.962V57.788h12.738V61.83z"/>
</g>
<rect x="140.413" y="42.917" width="20.524" height="9.916"/>
<rect x="291.49" y="42.917" width="20.524" height="9.916"/>
<g>
	<rect x="414.592" y="52.824" fill="none" width="29.055" height="20.593"/>
	<path fill="#FFFFFF" d="M428.143,63.113c0,5.642-2.214,9.178-6.397,9.178c-4.05,0-6.208-3.671-6.235-9.016
		c0-5.452,2.321-9.123,6.424-9.123C426.172,54.152,428.143,57.931,428.143,63.113z M418.856,63.275
		c-0.026,4.265,1.161,6.479,2.997,6.479c1.943,0,2.969-2.376,2.969-6.586c0-4.076-0.973-6.479-2.969-6.479
		C420.071,56.689,418.83,58.876,418.856,63.275z"/>
	<path fill="#FFFFFF" d="M442.613,63.113c0,5.642-2.213,9.178-6.396,9.178c-4.049,0-6.209-3.671-6.235-9.016
		c0-5.452,2.321-9.123,6.425-9.123C440.644,54.152,442.613,57.931,442.613,63.113z M433.328,63.275
		c-0.027,4.265,1.161,6.479,2.996,6.479c1.943,0,2.97-2.376,2.97-6.586c0-4.076-0.972-6.479-2.97-6.479
		C434.543,56.689,433.301,58.876,433.328,63.275z"/>
</g>
<g>
	<rect id="XMLID_67_" x="414.592" y="9.875" fill-rule="evenodd" clip-rule="evenodd" fill="#2F3D90" width="9.334" height="20"/>
	<rect id="XMLID_66_" x="423.926" y="9.875" fill-rule="evenodd" clip-rule="evenodd" fill="#F9FBFB" width="9.334" height="20"/>
	<rect id="XMLID_65_" x="433.26" y="9.875" fill-rule="evenodd" clip-rule="evenodd" fill="#D82735" width="9.334" height="20"/>
</g>
<g>
	<rect x="56.397" y="15.125" fill="none" width="342.332" height="64.5"/>
	<path d="M72.159,15.121h8.322l15.565,63.372h-9.985l-2.938-13.619H69.516l-2.938,13.619h-9.986L72.159,15.121z M76.369,33.366
		h-0.196L71.278,56.33h9.986L76.369,33.366z"/>
	<path d="M112.003,15.121h8.321l15.566,63.372h-9.985l-2.938-13.619H109.36l-2.937,13.619h-9.985L112.003,15.121z M116.213,33.366
		h-0.195l-4.896,22.964h9.985L116.213,33.366z"/>
	<path d="M187.677,24.733l-9.986,6.675v-9.612l9.986-6.675h9.985v63.372h-9.985V24.733z"/>
	<path d="M212.249,69.947l18.013-30.885c1.764-3.115,1.764-4.895,1.764-8.366c0-3.204,0-7.031-4.896-7.031
		c-2.936,0-4.894,1.602-4.894,4.539v5.162h-9.986v-4.984c0-7.565,6.658-13.796,14.98-13.796c10.377,0,14.781,7.477,14.781,15.932
		c0,6.142-0.195,7.744-3.328,13.173l-14.685,25.723h18.013v9.078h-29.761V69.947z"/>
	<path d="M260.514,41.822c5.971,0,7.93-0.801,7.93-5.518v-8.188c0-2.581-1.861-4.45-4.896-4.45c-3.523,0-4.895,2.581-4.895,4.45
		v5.162h-9.986v-5.251c0-7.477,6.854-13.44,15.078-13.44c5.385,0,9.104,2.492,10.867,4.45c2.643,2.848,3.816,5.34,3.816,13.44
		c0,8.722-0.488,10.146-6.166,13.261c6.166,3.471,6.166,5.518,6.166,14.508c0,8.365-0.586,10.234-2.643,12.994
		c-2.447,3.293-6.266,5.785-12.336,5.785c-6.363,0-14.783-3.561-14.783-13.529v-5.162h9.986v4.719c0,2.848,1.861,4.895,4.895,4.895
		c3.035,0,4.896-1.959,4.896-5.074v-9.078c0-4.895-1.469-5.963-7.93-5.963V41.822z"/>
	<path d="M333.934,15.121h8.322l15.566,63.372h-9.986l-2.938-13.619h-13.607l-2.938,13.619h-9.986L333.934,15.121z M338.145,33.366
		h-0.197l-4.895,22.964h9.986L338.145,33.366z"/>
	<path d="M373.779,15.121h8.32l15.566,63.372h-9.984l-2.938-13.619h-13.609l-2.936,13.619h-9.986L373.779,15.121z M377.988,33.366
		h-0.195l-4.895,22.964h9.984L377.988,33.366z"/>
</g>
</svg>
