<?xml version="1.0" encoding="utf-8"?>
<!-- Generator: Adobe Illustrator 16.0.0, SVG Export Plug-In . SVG Version: 6.00 Build 0)  -->
<!DOCTYPE svg PUBLIC "-//W3C//DTD SVG 1.1//EN" "http://www.w3.org/Graphics/SVG/1.1/DTD/svg11.dtd">
<svg version="1.1" id="Calque_1" xmlns="http://www.w3.org/2000/svg" xmlns:xlink="http://www.w3.org/1999/xlink" x="0px" y="0px"
	 width="450.021px" height="95.521px" viewBox="0 0 450.021 95.521" enable-background="new 0 0 450.021 95.521"
	 xml:space="preserve">
<path stroke="#414042" stroke-width="3" stroke-miterlimit="10" d="M441.401,94.045H8.639c-3.934,0-7.123-3.189-7.123-7.122V8.689
	c0-3.934,3.189-7.122,7.123-7.122h432.763c3.934,0,7.122,3.188,7.122,7.122v78.234C448.523,90.856,445.335,94.045,441.401,94.045z"
	/>
<g>
	<rect x="28.852" y="15.556" fill="none" width="392.337" height="64.5"/>
	<path fill="#FFFFFF" d="M44.026,25.164l-9.986,6.675v-9.612l9.986-6.675h9.985v63.372h-9.985V25.164z"/>
	<path fill="#FFFFFF" d="M68.598,70.378l18.014-30.885c1.763-3.115,1.763-4.895,1.763-8.366c0-3.204,0-7.031-4.896-7.031
		c-2.937,0-4.895,1.602-4.895,4.539v5.162h-9.986v-4.984c0-7.565,6.658-13.796,14.979-13.796c10.377,0,14.782,7.477,14.782,15.932
		c0,6.142-0.195,7.744-3.328,13.173L80.346,69.845h18.014v9.078H68.598V70.378z"/>
	<path fill="#FFFFFF" d="M116.862,42.253c5.972,0,7.93-0.801,7.93-5.518v-8.188c0-2.581-1.86-4.45-4.896-4.45
		c-3.523,0-4.895,2.581-4.895,4.45v5.162h-9.986v-5.251c0-7.477,6.854-13.44,15.077-13.44c5.385,0,9.104,2.492,10.867,4.45
		c2.644,2.848,3.817,5.34,3.817,13.44c0,8.722-0.489,10.146-6.167,13.261c6.167,3.471,6.167,5.519,6.167,14.508
		c0,8.365-0.587,10.234-2.643,12.994c-2.447,3.293-6.266,5.785-12.336,5.785c-6.363,0-14.783-3.561-14.783-13.529v-5.162h9.986
		v4.719c0,2.848,1.86,4.895,4.895,4.895c3.035,0,4.896-1.959,4.896-5.074v-9.078c0-4.895-1.469-5.962-7.93-5.962V42.253z"/>
	<path fill="#FFFFFF" d="M190.283,15.552h8.322l15.565,63.372h-9.985l-2.938-13.619h-13.607l-2.938,13.619h-9.986L190.283,15.552z
		 M194.493,33.797h-0.196l-4.895,22.964h9.986L194.493,33.797z"/>
	<path fill="#FFFFFF" d="M219.065,15.552h14.587c12.923,0,17.721,7.743,17.721,16.021v2.314c0,6.764-2.448,9.256-6.854,11.749
		c4.699,2.047,6.854,5.875,6.854,12.46v3.561c0,11.037-5.776,17.268-18.699,17.268h-13.608V15.552z M229.051,41.541h4.504
		c6.657,0,8.42-3.115,8.42-8.9c0-5.607-2.252-8.544-8.812-8.544h-4.112V41.541z M229.051,69.845h4.309
		c8.027,0,8.615-4.451,8.615-10.682c0-6.319-1.273-9.612-8.518-9.612h-4.406V69.845z"/>
	<path fill="#FFFFFF" d="M292.49,64.771c0,7.832-6.951,14.686-15.859,14.686c-7.637,0-16.447-3.381-16.447-14.953V29.614
		c0-8.277,6.559-14.597,16.251-14.597c9.202,0,16.056,6.319,16.056,15.131v3.56h-9.986v-3.026c0-3.561-2.35-6.586-6.167-6.586
		c-4.993,0-6.168,3.115-6.168,7.387V63.88c0,3.65,1.566,6.498,6.069,6.498c2.742,0,6.266-1.424,6.266-6.408v-3.115h9.986V64.771z"/>
	<path fill="#FFFFFF" d="M335.66,28.635c0-8.456,6.951-13.618,14.881-13.618c7.931,0,14.881,5.162,14.881,13.618v37.204
		c0,8.455-6.95,13.617-14.881,13.617c-7.93,0-14.881-5.162-14.881-13.617V28.635z M345.646,65.839c0,2.58,2.056,4.539,4.895,4.539
		c2.84,0,4.896-1.959,4.896-4.539V28.635c0-2.581-2.056-4.539-4.896-4.539c-2.839,0-4.895,1.958-4.895,4.539V65.839z"/>
	<path fill="#FFFFFF" d="M383.925,25.164l-9.986,6.675v-9.612l9.986-6.675h9.985v63.372h-9.985V25.164z"/>
</g>
</svg>
