<?xml version="1.0" encoding="utf-8"?>
<!-- Generator: Adobe Illustrator 16.0.0, SVG Export Plug-In . SVG Version: 6.00 Build 0)  -->
<!DOCTYPE svg PUBLIC "-//W3C//DTD SVG 1.1//EN" "http://www.w3.org/Graphics/SVG/1.1/DTD/svg11.dtd">
<svg version="1.1" id="Calque_1" xmlns="http://www.w3.org/2000/svg" xmlns:xlink="http://www.w3.org/1999/xlink" x="0px" y="0px"
	 width="450.001px" height="95.583px" viewBox="0 0 450.001 95.583" enable-background="new 0 0 450.001 95.583"
	 xml:space="preserve">
<path id="path5_2_" fill="#1270B1" d="M10.995,1.213c-4.463,0-9.15,3.43-9.15,7.661v80.644c0,2.726,3.399,4.935,6.273,4.935H44.49
	V1.213H10.995L10.995,1.213z"/>
<path fill="none" stroke="#414042" stroke-width="3" stroke-miterlimit="10" d="M441.382,94.072H8.619
	c-3.934,0-7.123-3.189-7.123-7.122V8.716c0-3.934,3.189-7.122,7.123-7.122h432.763c3.934,0,7.122,3.188,7.122,7.122V86.95
	C448.504,90.883,445.315,94.072,441.382,94.072z"/>
<g id="g9">
	<polygon id="polygon11" fill="#FDC20F" points="23.607,15.564 25.026,15.567 23.88,16.402 24.316,17.751 23.167,16.92 
		22.019,17.751 22.455,16.402 21.309,15.567 22.727,15.564 23.167,14.216 	"/>
	<polygon id="polygon13" fill="#FDC20F" points="30.409,17.393 31.827,17.395 30.681,18.23 31.117,19.58 29.969,18.749 28.82,19.58 
		29.256,18.23 28.11,17.395 29.528,17.393 29.969,16.045 	"/>
	<polygon id="polygon15" fill="#FDC20F" points="35.381,22.391 36.799,22.393 35.653,23.228 36.089,24.578 34.94,23.746 
		33.792,24.578 34.228,23.228 33.082,22.393 34.5,22.391 34.94,21.042 	"/>
	<polygon id="polygon17" fill="#FDC20F" points="37.216,29.18 38.634,29.183 37.488,30.018 37.925,31.367 36.776,30.535 
		35.627,31.367 36.063,30.018 34.917,29.183 36.335,29.18 36.776,27.833 	"/>
	<polygon id="polygon19" fill="#FDC20F" points="35.392,35.988 36.81,35.99 35.664,36.826 36.1,38.175 34.951,37.343 33.802,38.175 
		34.239,36.826 33.093,35.99 34.511,35.988 34.951,34.64 	"/>
	<polygon id="polygon21" fill="#FDC20F" points="30.397,40.975 31.816,40.977 30.669,41.812 31.105,43.162 29.957,42.33 
		28.809,43.162 29.245,41.812 28.099,40.977 29.517,40.975 29.957,39.626 	"/>
	<polygon id="polygon23" fill="#FDC20F" points="23.588,42.782 25.006,42.784 23.86,43.62 24.296,44.969 23.148,44.137 22,44.969 
		22.436,43.62 21.29,42.784 22.708,42.782 23.148,41.434 	"/>
	<polygon id="polygon25" fill="#FDC20F" points="16.789,40.976 18.207,40.978 17.061,41.813 17.497,43.163 16.349,42.331 
		15.2,43.163 15.636,41.813 14.49,40.978 15.909,40.976 16.349,39.627 	"/>
	<polygon id="polygon27" fill="#FDC20F" points="11.816,35.999 13.234,36 12.089,36.836 12.525,38.186 11.376,37.354 10.228,38.186 
		10.664,36.836 9.518,36 10.936,35.999 11.376,34.65 	"/>
	<polygon id="polygon29" fill="#FDC20F" points="10,29.189 11.418,29.191 10.272,30.027 10.708,31.376 9.56,30.544 8.411,31.376 
		8.847,30.027 7.701,29.191 9.119,29.189 9.56,27.841 	"/>
	<polygon id="polygon31" fill="#FDC20F" points="11.798,22.372 13.216,22.374 12.07,23.209 12.506,24.559 11.357,23.727 
		10.208,24.559 10.645,23.209 9.499,22.374 10.917,22.372 11.357,21.023 	"/>
	<polygon id="polygon33" fill="#FDC20F" points="16.793,17.384 18.211,17.386 17.065,18.221 17.502,19.571 16.354,18.739 
		15.205,19.571 15.641,18.221 14.495,17.386 15.913,17.384 16.354,16.036 	"/>
</g>
<g>
	<path fill="#FFFFFF" d="M29.537,61.788h-7.776v5.408h7.146v4.027h-7.146v8.558h-4.962V57.746h12.738V61.788z"/>
</g>
<g display="none">
	<g display="inline">
		<path d="M67.36,15.885h7.646l15.029,63.896h-9.888l-8.965-46.362l-8.965,46.362h-9.888L67.36,15.885z M62.262,58.819h18.193v9.009
			H62.262V58.819z"/>
		<path d="M112.553,15.885h7.646l15.03,63.896h-9.888l-8.965-46.362l-8.965,46.362h-9.888L112.553,15.885z M107.456,58.819h18.193
			v9.009h-18.193V58.819z"/>
	</g>
	<g display="inline">
		<path d="M334.165,15.884h7.646l15.029,63.897h-9.888l-8.965-46.362l-8.965,46.362h-9.888L334.165,15.884z M329.067,58.819h18.193
			v9.009h-18.193V58.819z"/>
		<path d="M379.358,15.884h7.646l15.03,63.897h-9.889l-8.965-46.362l-8.965,46.362h-9.888L379.358,15.884z M374.261,58.819h18.193
			v9.009h-18.193V58.819z"/>
	</g>
	<g display="inline">
		<path d="M189.264,79.781h-10.063v-52.69l-8.701,4.614V21.114l8.877-5.229h9.888V79.781z"/>
		<path d="M203.959,70.86l17.842-26.586c1.553-2.432,2.717-4.731,3.494-6.899c0.775-2.168,1.164-4.116,1.164-5.845v-0.263
			c0-2.08-0.512-3.654-1.537-4.725c-1.025-1.069-2.52-1.604-4.482-1.604c-2.051,0-3.648,0.688-4.791,2.066
			c-1.143,1.377-1.787,3.384-1.934,6.021v0.659h-10.326v-0.659c0.234-3.838,1.025-7.083,2.373-9.734
			c1.348-2.652,3.244-4.658,5.689-6.021c2.447-1.362,5.369-2.044,8.768-2.044c3.574,0,6.6,0.608,9.074,1.824
			c2.477,1.216,4.352,3.01,5.625,5.383c1.275,2.373,1.912,5.302,1.912,8.789v0.22c0,2.521-0.506,5.229-1.516,8.13
			c-1.012,2.9-2.469,5.889-4.373,8.965l-14.105,21.577h20.127v9.668h-33.004V70.86z"/>
		<path d="M259.876,80.44c0,0-1.26-0.63-3.779-1.89c-2.52-1.259-4.424-3.2-5.713-5.822s-2.007-5.983-2.153-10.086h10.195
			c0.117,1.905,0.432,3.436,0.945,4.593c0.512,1.157,1.259,2.021,2.24,2.593s2.205,0.856,3.67,0.856c2.109,0,3.75-0.586,4.922-1.758
			c1.172-1.171,1.758-2.827,1.758-4.966V58.6c0-2.313-0.527-4.102-1.582-5.361c-1.055-1.259-2.549-1.89-4.482-1.89h-4.438v-9.624
			h4.438c1.582,0,2.813-0.534,3.691-1.604c0.879-1.069,1.318-2.585,1.318-4.548v-4.965c0-1.816-0.477-3.208-1.428-4.175
			c-0.953-0.967-2.293-1.45-4.021-1.45c-1.23,0-2.264,0.293-3.098,0.878c-0.836,0.587-1.502,1.48-2,2.681s-0.806,2.783-0.923,4.746
			h-10.151c0.146-4.159,0.857-7.573,2.131-10.239c1.275-2.665,3.099-4.636,5.472-5.911c2.373-1.274,5.317-1.912,8.833-1.912
			c4.893,0,8.693,1.319,11.404,3.955c2.709,2.637,4.064,6.357,4.064,11.162v5.098c0,2.344-0.659,4.476-1.978,6.394
			c-1.318,1.919-3.179,3.45-5.581,4.593c2.725,0.762,4.841,2.234,6.35,4.417s2.264,4.885,2.264,8.107V64.4
			c0,3.369-0.652,6.256-1.955,8.657c-1.305,2.402-3.201,4.234-5.691,5.493c-2.49,1.26-5.479,1.89-8.965,1.89
			C261.795,80.44,259.876,80.44,259.876,80.44z"/>
	</g>
</g>
<g>
	<rect x="52.331" y="15.583" fill="none" width="392.336" height="64.5"/>
	<path d="M67.505,25.191l-9.986,6.675v-9.612l9.986-6.675h9.985V78.95h-9.985V25.191z"/>
	<path d="M92.076,70.405l18.014-30.884c1.763-3.115,1.763-4.895,1.763-8.366c0-3.204,0-7.031-4.896-7.031
		c-2.937,0-4.895,1.602-4.895,4.539v5.162h-9.986v-4.984c0-7.565,6.658-13.796,14.979-13.796c10.377,0,14.782,7.477,14.782,15.932
		c0,6.142-0.195,7.744-3.328,13.173l-14.686,25.723h18.014v9.078H92.076V70.405z"/>
	<path d="M140.341,42.28c5.972,0,7.93-0.801,7.93-5.518v-8.188c0-2.581-1.86-4.45-4.896-4.45c-3.523,0-4.895,2.581-4.895,4.45v5.162
		h-9.986v-5.251c0-7.477,6.854-13.44,15.077-13.44c5.385,0,9.104,2.492,10.867,4.45c2.644,2.848,3.817,5.34,3.817,13.44
		c0,8.722-0.489,10.146-6.167,13.261c6.167,3.471,6.167,5.519,6.167,14.508c0,8.366-0.587,10.235-2.643,12.995
		c-2.447,3.293-6.266,5.785-12.336,5.785c-6.363,0-14.783-3.561-14.783-13.529v-5.162h9.986v4.718c0,2.848,1.86,4.895,4.895,4.895
		c3.035,0,4.896-1.958,4.896-5.073v-9.078c0-4.896-1.469-5.963-7.93-5.963V42.28z"/>
	<path d="M213.762,15.579h8.322l15.565,63.371h-9.985l-2.938-13.618h-13.607l-2.938,13.618h-9.986L213.762,15.579z M217.972,33.825
		h-0.196l-4.895,22.963h9.986L217.972,33.825z"/>
	<path d="M242.544,15.579h14.587c12.923,0,17.721,7.743,17.721,16.021v2.314c0,6.764-2.448,9.256-6.854,11.749
		c4.699,2.047,6.854,5.875,6.854,12.46v3.561c0,11.036-5.776,17.267-18.699,17.267h-13.608V15.579z M252.529,41.568h4.504
		c6.657,0,8.42-3.115,8.42-8.9c0-5.607-2.252-8.544-8.812-8.544h-4.112V41.568z M252.529,69.872h4.309
		c8.027,0,8.615-4.45,8.615-10.681c0-6.319-1.273-9.613-8.518-9.613h-4.406V69.872z"/>
	<path d="M315.969,64.799c0,7.832-6.951,14.686-15.859,14.686c-7.637,0-16.447-3.382-16.447-14.953v-34.89
		c0-8.277,6.559-14.597,16.251-14.597c9.202,0,16.056,6.319,16.056,15.131v3.56h-9.986V30.71c0-3.561-2.35-6.586-6.167-6.586
		c-4.993,0-6.168,3.115-6.168,7.387v32.397c0,3.649,1.566,6.497,6.069,6.497c2.742,0,6.266-1.424,6.266-6.408v-3.115h9.986V64.799z"
		/>
	<path d="M376.565,69.516h-19.874v-8.544l14.392-45.393h10.573l-14.979,45.393h9.888V42.903h9.985v18.068h4.798v8.544h-4.798v9.435
		h-9.985V69.516z"/>
	<path d="M425.318,24.124h-19.775v17.089c1.86-1.602,4.797-2.938,8.321-2.938c6.755,0,11.454,3.917,11.454,11.215v16.376
		c0,8.456-6.95,13.618-14.881,13.618c-7.93,0-14.881-5.162-14.881-13.618v-2.67h9.986v2.314c0,3.115,2.154,4.895,5.091,4.895
		s4.699-1.779,4.699-4.717V50.825c0-2.493-1.958-4.54-4.699-4.54c-3.427,0-4.503,2.403-5.091,3.471h-8.811V15.579h28.586V24.124z"/>
</g>
<rect x="376.563" y="15.583" width="10.001" height="34.086"/>
</svg>
