<?xml version="1.0" encoding="utf-8"?>
<!-- Generator: Adobe Illustrator 16.0.0, SVG Export Plug-In . SVG Version: 6.00 Build 0)  -->
<!DOCTYPE svg PUBLIC "-//W3C//DTD SVG 1.1//EN" "http://www.w3.org/Graphics/SVG/1.1/DTD/svg11.dtd">
<svg version="1.1" id="Calque_1" xmlns="http://www.w3.org/2000/svg" xmlns:xlink="http://www.w3.org/1999/xlink" x="0px" y="0px"
	 width="592.891px" height="408.955px" viewBox="2.39 215.57 592.891 408.955" enable-background="new 2.39 215.57 592.891 408.955"
	 xml:space="preserve">
<path fill="#DEE7FA" d="M122.317,593.322c-36.369-2.214-70.043-24.484-90.56-54.708c-30.872-45.479-43.156-119.288-6.252-164.908
	c35.731-44.169,101.155-48.32,151.727-30.572c35.523,12.468,66.7,39.037,80.988,73.866
	c33.382,81.373-48.626,178.904-132.783,176.461c-1.041-0.029-2.081-0.077-3.117-0.141L122.317,593.322z"/>
<path fill="#F5DBDA" d="M404.759,528.455c-43.752-2.663-84.262-29.454-108.943-65.812c-37.14-54.71-51.918-143.501-7.521-198.381
	c42.981-53.135,121.685-58.131,182.522-36.779c42.732,14.997,80.24,46.961,97.428,88.859
	c40.158,97.889-58.498,215.218-159.738,212.279c-1.252-0.036-2.502-0.093-3.748-0.169V528.455z"/>
<g>
	<path fill="#EDBBBB" d="M551.777,503.291c-14.223,16.855,4.709-46.579,10.611-59.494c5.898-12.915,10.887-22.511,10.887-22.511
		S580.695,469.022,551.777,503.291z"/>
	<path fill="#EDBBBB" d="M542.126,515.609c-1.299-6.363-4.627-16.896-8.295-22.865c-3.668-5.969-10.324-27.037-7.945-34.738
		c2.377-7.703,5.133,1.586,5.621,8.205s6.66,17.411,9.477,26.323S542.126,515.609,542.126,515.609L542.126,515.609z"/>
	<path fill="#EDBBBB" d="M543.724,516.44c0,0,10.164-7.043,13.504-11.13c3.344-4.086,9.373-8.129,19.395-13.077
		s14.965-11.859,16.822-10.216c1.855,1.641-6.945,11.017-13.588,16.502s-17.453,9.346-21.863,12.879
		c-4.41,3.531-14.27,5.044-14.27,5.044V516.44z"/>
	<path fill="#EDBBBB" d="M529.359,537.821c-0.631-0.87,1.938-20.662-0.465-28.547c-2.402-7.886-15.961-20.622-18.016-19.794
		c-2.057,0.828,4.158,8.934,7.234,15.002s8.344,12.869,8.102,18.025C525.972,527.665,529.359,537.821,529.359,537.821
		L529.359,537.821z"/>
	<path fill="#EDBBBB" d="M524.949,545.009c7.098-7.144,11.584-8.739,17.496-12.033c5.91-3.293,16.678-4.467,23.99-8.115
		c7.314-3.648,13.682-8.599,15.002-7.235c1.322,1.366-2.893,9.736-9.811,12.101c-6.916,2.364-20.947,5.906-25.434,7.501
		C541.707,538.822,524.949,545.009,524.949,545.009L524.949,545.009z"/>
	<path fill="#EDBBBB" d="M512.408,559.753c4.893-13.844,5.238-22.061,2.221-28.505c-3.016-6.443-14.891-23.722-14.953-19.692
		c-0.064,4.03,5.439,12.984,7.424,23.497C509.082,545.564,512.408,559.753,512.408,559.753z"/>
	<path fill="#EDBBBB" d="M508.945,564.591c-8.748,0.955,11.723-7.18,19.053-8.516s22.205-0.512,23.094,1.169
		s-11.621,4.118-18.773,4.328s-19.066,2.549-23.375,3.019H508.945z"/>
	<path fill="#EDBBBB" d="M494.255,575.914c0.176-18.056,0.285-28.428-2.713-32.56c-3-4.132-7.943-17.809-6.48-18.537
		c1.461-0.729,8.25,8.622,12.191,17.713c3.941,9.092-2.996,33.384-2.996,33.384H494.255z"/>
	<path fill="#EDBBBB" d="M491.822,580.338c10.848-2.894,32.141-0.087,32.889,3.688c0.746,3.773-16.104,2.06-22.957,0.393
		C494.9,582.752,491.822,580.338,491.822,580.338L491.822,580.338z"/>
	<path fill="#EDBBBB" d="M461.765,608.459c0.234,0.321,0.674,0.43,1.033,0.237c7.279-3.894,27.379-24.795,30.928-28.767
		c1.178-1.318,2.963-3.155,5.221-5.478c5.674-5.837,14.25-14.655,22.533-24.971c11.434-14.23,28.518-47.779,28.689-48.118
		c0.199-0.393,0.045-0.876-0.354-1.084c-0.398-0.2-0.883-0.042-1.084,0.354c-0.17,0.337-17.18,33.737-28.504,47.835
		c-8.24,10.256-16.781,19.043-22.434,24.861c-2.271,2.333-4.066,4.182-5.266,5.525c-4.254,4.76-23.76,24.823-30.49,28.418
		c-0.393,0.21-0.539,0.7-0.33,1.092c0.02,0.032,0.039,0.065,0.059,0.094H461.765z"/>
	<path fill="#EDBBBB" d="M488.875,440.462c6.938,4.103,12.4,12.596,20.223,12.269c7.99-5.771,15.33-13.478,20.553-23.077
		c2.184-4.011,4.188-8.339,6.049-12.826c-0.529-0.37-1.063-0.733-1.59-1.052c-5.301-3.207-11.949-6.188-17.42-3.282
		c-2.154,1.144-3.822,3.096-6.045,4.101c-4.488,2.029-9.936-0.294-14.088-2.042c-2.254-0.947-4.34-2.348-5.777-4.323
		c-5.652-7.771,2.684-15.137,10.219-15.236c6.242-0.081,12.002,3.03,17.885,5.117c6.963,2.471,14.418,3.535,21.797,3.141
		c2.221-6.887,4.068-13.884,5.5-20.651c-4.109-2.971-9.715-3.964-14.438-2.029c-5.393,2.207-9.121,7.424-15.045,8.793
		c-2.307,0.533-4.83,0.226-6.744-1.169c-4.113-2.999-2.629-8.259,0.539-10.966c2.439-2.086,5.648-2.994,8.768-3.767
		c7.316-1.817,14.736-3.223,22.211-4.206c2.441-0.32,4.947-0.624,7.242-1.458c1.156-9.078,1.375-17.021,0.525-22.628
		c-5.096-2.148-11.65-1.058-15.525,3.03c-1.842,1.944-3.119,4.388-5.076,6.215c-1.959,1.827-5.047,2.921-7.311,1.49
		c-2.941-1.856-2.365-6.484-0.279-9.267c4.143-5.527,11.633-6.96,18.074-9.447c2.994-1.155,6.012-3.034,8.27-5.364
		c-1.408-11.013-2.322-19.245-4.113-22.114c-2.453-3.932,4.475-7.709-3.799-12.651c-8.273-4.943-12.943,0.705-24.465,5.438
		c-2.291,0.941-4.76,1.817-7.379,2.719c1.383,9.303,4.408,18.645,1.264,27.977c-1.277,3.787-3.971,6.998-7.494,8.886
		c-1.063,0.571-2.311,1.043-3.496,0.756c-1.018-0.246-1.824-1.009-2.52-1.792c-6.309-7.089-7.207-18.44-2.096-26.435
		c0.982-1.534,2.08-3.452,2.586-5.239c-5.951,2.263-12.441,5.137-19.375,9.304c-3.67,2.206-5.84,6.405-5.242,10.645
		c0.34,2.426,0.91,4.835,1.596,7.132c2.473,8.288,6.133,16.645,4.406,25.279c-0.412,2.065-1.443,4.055-3.189,5.232
		c-4.807,3.241-10.342-1.507-13.844-5.781c-3.969-4.85-8.182-10.476-7.389-16.692c0.324-2.532,1.479-4.935,1.533-7.487
		c0.027-1.344-0.445-2.78-1.262-3.832c-8.758,5.041-16.805,11.202-33.734,35.721c0,0.016-0.002,0.027-0.004,0.044
		c1.674,3.765,4.029,7.43,6.109,10.933c3.871,6.513,6.92,13.51,9.053,20.779c0.678,2.313-0.039,4.976-2.041,6.315
		c-3.412,2.283-7.115-1.225-9.367-4.322c-2.76-3.791-5.518-7.582-8.275-11.373c-1.373-1.889-3.088-3.88-5.002-5.264
		c-11.145,25.705-3.889,43.227,3.234,48.1c1.51,0.595,2.996,1.238,4.455,1.94c9.061,2.386,21.715-1.28,26.586,2.748
		c12.625,10.442,7.676,20.61,23.734,25.337c5.709,1.679,13.322,1.165,21.414-1.346c0.803-4.126-0.295-8.523-3.744-10.894
		c-3.178-2.184-8.057-2.89-9.061-6.615c-0.742-2.751,1.5-5.662,4.246-6.423c2.746-0.763,5.707,0.167,8.158,1.615V440.462z
		 M448.777,399.306c-1.193-0.412-2.186-1.261-3.057-2.174c-3.119-3.266-5.65-7.309-7.166-11.565
		c-1.176-3.3-2.357-11.134,1.066-13.391c0.914-0.604,2.162-0.809,3.824-0.421c2.025,0.474,3.678,1.921,5.059,3.475
		c3.631,4.086,5.949,9.296,6.656,14.708c0.291,2.21,0.797,5.379-0.475,7.323c-1.172,1.789-3.895,2.738-5.906,2.043L448.777,399.306z
		 M494.017,362.107c-1.301,1.03-3.002,0.595-4.344-0.204c-4.807-2.86-6.76-8.567-3.693-13.419c0.488-0.772,1.098-1.512,1.93-1.891
		c1.396-0.636,3.078-0.077,4.293,0.86c1.488,1.151,3.143,2.859,3.949,4.584c1.045,2.239,0.359,8.094-2.133,10.071L494.017,362.107z
		 M504.687,370.656c-0.496-0.091-1.006-0.239-1.367-0.588c-0.203-0.194-0.346-0.438-0.486-0.679
		c-0.471-0.806-0.943-1.612-1.414-2.421c-0.131-0.225-0.266-0.458-0.283-0.716c-0.02-0.244,0.066-0.481,0.168-0.701
		c0.633-1.386,1.9-2.414,3.305-3.001c1.406-0.588,2.947-0.772,4.469-0.816c1.223-0.035,2.498,0.03,3.572,0.612
		c1.074,0.583,1.885,1.812,1.625,3.007c-0.072,0.325-0.215,0.63-0.373,0.921c-1.74,3.191-5.641,5.048-9.213,4.384L504.687,370.656z
		 M481.599,430.354c-0.908,0.478-1.908,0.833-2.934,0.803c-1.158-0.033-2.244-0.551-3.275-1.082
		c-2.006-1.034-3.963-2.162-5.861-3.381c-0.787-0.505-1.607-1.078-1.949-1.948c-0.529-1.354,0.293-2.837,1.184-3.987
		c0.924-1.19,1.984-2.322,3.326-3.008c3.145-1.609,6.969-0.437,10.166,1.066c2.047,0.963,4.293,2.427,4.439,4.687
		c0.07,1.094-0.393,2.158-0.988,3.082c-1.016,1.581-2.449,2.893-4.111,3.769H481.599z"/>
</g>
<path fill="#F5DBDA" d="M412.296,487.293c-0.127,0.014-0.262-0.006-0.385-0.065c-0.367-0.171-0.525-0.606-0.355-0.974
	c9.945-21.357,36.66-56.194,56.164-81.632c9.422-12.285,17.559-22.897,21.391-28.835c11.664-18.077,45.867-71.999,46.211-72.54
	c0.217-0.343,0.67-0.443,1.01-0.226c0.342,0.216,0.443,0.67,0.225,1.009c-0.342,0.543-34.551,54.47-46.215,72.552
	c-3.863,5.986-12.016,16.621-21.457,28.932c-19.465,25.385-46.121,60.15-56.002,81.358
	C412.769,487.114,412.544,487.264,412.296,487.293L412.296,487.293z"/>
<path fill="#B6BFF0" d="M172.165,488.695c4.275-7.964,13.538-14.475,12.81-23.228c-6.837-8.687-15.811-16.55-26.809-21.958
	c-4.594-2.259-9.538-4.307-14.651-6.181c-0.391,0.61-0.773,1.223-1.104,1.829c-3.347,6.086-6.379,13.676-2.87,19.669
	c1.381,2.362,3.645,4.138,4.875,6.583c2.481,4.935,0.131,11.144-1.633,15.878c-0.957,2.568-2.43,4.972-4.578,6.673
	c-8.444,6.692-17.083-2.306-17.542-10.743c-0.381-6.988,2.84-13.587,4.905-20.273c2.445-7.917,3.293-16.318,2.511-24.568
	c-7.818-2.17-15.743-3.916-23.393-5.206c-3.139,4.738-3.989,11.068-1.605,16.269c2.723,5.939,8.74,9.875,10.547,16.448
	c0.704,2.561,0.476,5.4-0.999,7.61c-3.169,4.746-9.13,3.327-12.311-0.096c-2.452-2.638-3.615-6.192-4.627-9.646
	c-2.374-8.113-4.292-16.361-5.741-24.688c-0.474-2.722-0.927-5.516-1.97-8.046c-10.224-0.874-19.134-0.752-25.376,0.459
	c-2.172,5.809-0.646,13.102,4.114,17.256c2.263,1.974,5.059,3.291,7.198,5.399c2.138,2.109,3.505,5.52,2.007,8.122
	c-1.946,3.381-7.156,2.948-10.371,0.741c-6.383-4.386-8.337-12.711-11.421-19.816c-1.433-3.297-3.676-6.593-6.395-9.015
	c-12.273,2.087-21.454,3.492-24.585,5.632c-4.291,2.932-8.845-4.656-13.997,4.844c-5.153,9.499,1.389,14.469,7.226,27.158
	c1.161,2.522,2.257,5.249,3.389,8.143c10.356-1.981,20.684-5.803,31.286-2.713c4.303,1.255,8.024,4.124,10.303,7.982
	c0.688,1.165,1.274,2.541,1.009,3.885c-0.228,1.151-1.046,2.088-1.891,2.905c-7.651,7.396-20.325,8.928-29.518,3.57
	c-1.764-1.028-3.963-2.17-5.989-2.653c2.812,6.563,6.332,13.7,11.322,21.274c2.642,4.009,7.445,6.248,12.168,5.382
	c2.701-0.495,5.375-1.244,7.917-2.118c9.171-3.151,18.365-7.64,28.119-6.105c2.334,0.366,4.607,1.429,6.008,3.331
	c3.854,5.236-1.207,11.658-5.836,15.778c-5.25,4.674-11.359,9.649-18.361,9.051c-2.852-0.243-5.599-1.429-8.46-1.369
	c-1.506,0.032-3.093,0.626-4.237,1.59c6.054,9.581,13.329,18.309,41.585,36.143l0.05,0.004c4.14-2.051,8.139-4.857,11.966-7.353
	c7.116-4.637,14.815-8.378,22.859-11.105c2.561-0.868,5.577-0.187,7.17,1.996c2.715,3.718-1.042,8.025-4.41,10.695
	c-4.12,3.266-8.238,6.532-12.358,9.798c-2.051,1.627-4.203,3.639-5.666,5.848c29.316,11.296,48.608,2.356,53.739-5.85
	c0.597-1.721,1.25-3.415,1.968-5.081c2.253-10.262-2.439-24.269,1.849-29.913c11.114-14.629,22.737-9.554,27.287-27.767
	c1.617-6.47,0.689-14.979-2.501-23.927c-4.659-0.708-9.536,0.725-12.031,4.698c-2.299,3.664-2.866,9.16-6.992,10.458
	c-3.048,0.959-6.413-1.419-7.394-4.461c-0.981-3.04-0.08-6.399,1.433-9.216L172.165,488.695z M127.912,535.524
	c-0.408,1.355-1.312,2.507-2.295,3.527c-3.516,3.646-7.927,6.669-12.625,8.563c-3.643,1.471-12.364,3.155-15.052-0.575
	c-0.719-0.998-1.006-2.384-0.648-4.267c0.436-2.291,1.982-4.209,3.658-5.828c4.41-4.255,10.139-7.095,16.169-8.139
	c2.461-0.427,5.989-1.142,8.226,0.194c2.059,1.23,3.25,4.236,2.564,6.521L127.912,535.524z M84.139,486.561
	c1.217,1.409,0.805,3.335-0.028,4.877c-2.98,5.516-9.284,7.971-14.863,4.758c-0.888-0.511-1.746-1.157-2.208-2.072
	c-0.777-1.536-0.23-3.448,0.765-4.852c1.221-1.722,3.058-3.652,4.952-4.634c2.459-1.273,9.051-0.778,11.383,1.925L84.139,486.561z
	 M93.224,474.211c-0.08,0.559-0.222,1.136-0.597,1.558c-0.208,0.234-0.474,0.406-0.737,0.575c-0.882,0.566-1.764,1.131-2.647,1.698
	c-0.244,0.156-0.5,0.317-0.789,0.351c-0.271,0.031-0.541-0.054-0.795-0.156c-1.582-0.646-2.792-2.018-3.516-3.563
	c-0.723-1.548-1.002-3.266-1.122-4.97c-0.095-1.368-0.081-2.799,0.521-4.029c0.603-1.23,1.942-2.196,3.294-1.958
	c0.367,0.063,0.715,0.21,1.05,0.377c3.656,1.801,5.916,6.086,5.337,10.12V474.211z M161.176,497.314
	c0.577,0.995,1.021,2.099,1.035,3.248c0.016,1.3-0.514,2.541-1.061,3.72c-1.064,2.295-2.239,4.54-3.518,6.724
	c-0.529,0.904-1.133,1.852-2.093,2.273c-1.49,0.656-3.192-0.198-4.52-1.142c-1.377-0.979-2.693-2.116-3.526-3.587
	c-1.95-3.45-0.813-7.788,0.724-11.44c0.983-2.339,2.522-4.923,5.045-5.192c1.223-0.131,2.436,0.341,3.498,0.963
	c1.819,1.066,3.355,2.61,4.414,4.434H161.176z"/>
<path fill="#E8F4FF" d="M228.179,572.321c0.022,0.143,0.006,0.296-0.056,0.437c-0.174,0.418-0.654,0.616-1.072,0.441
	c-24.388-10.152-64.657-38.472-94.06-59.146c-14.199-9.985-26.468-18.61-33.297-22.627c-20.794-12.231-82.792-48.056-83.412-48.416
	c-0.395-0.227-0.527-0.729-0.299-1.12c0.226-0.395,0.729-0.527,1.12-0.299c0.624,0.358,62.629,36.187,83.426,48.42
	c6.887,4.051,19.179,12.691,33.408,22.699c29.342,20.632,69.528,48.888,93.747,58.975c0.278,0.115,0.456,0.36,0.498,0.636H228.179z"
	/>
<path fill="#B6C7F2" d="M136.273,336.322c10.442,18.355-40.301-19.637-49.954-29.211c-9.653-9.573-16.627-17.229-16.627-17.229
	s45.352,9.12,66.583,46.44H136.273z"/>
<path fill="#B6C7F2" d="M144.15,349.071c-6.147-0.939-16.712-1.431-23.292-0.109c-6.577,1.322-27.71,0.337-33.846-4.348
	c-6.135-4.685,3.123-4.09,9.233-2.339c6.11,1.752,17.85-0.226,26.79,0.19C131.975,342.882,144.15,349.071,144.15,349.071
	L144.15,349.071z"/>
<path fill="#B6C7F2" d="M145.427,347.91c0,0-2.969-11.461-5.535-15.816c-2.566-4.356-4.205-11.112-5.339-21.754
	c-1.133-10.642-5.705-17.372-3.617-18.496c2.089-1.123,7.604,9.886,10.335,17.67c2.733,7.784,2.628,18.775,4.342,23.905
	C147.329,338.55,145.427,347.91,145.427,347.91z"/>
<path fill="#B6C7F2" d="M159.89,367.887c-0.991,0.279-17.927-8.575-25.809-9.022c-7.879-0.45-23.811,7.522-23.745,9.645
	c0.063,2.121,9.403-0.782,15.874-1.539c6.47-0.758,14.324-3.242,18.878-1.318c4.554,1.923,14.802,2.237,14.802,2.237V367.887z"/>
<path fill="#B6C7F2" d="M164.888,374.231c-4.073-8.743-4.023-13.302-5.028-19.702c-1.005-6.401,1.502-16.467,0.642-24.245
	c-0.858-7.778-3.205-15.137-1.54-15.874c1.663-0.737,7.792,5.82,7.629,12.818c-0.163,6.997-1.621,20.776-1.67,25.337
	C164.872,357.125,164.888,374.231,164.888,374.231z"/>
<path fill="#B6C7F2" d="M173.992,390.377c-10.822-8.976-18.093-12.004-24.881-11.425c-6.788,0.578-26.242,5.537-22.642,6.926
	c3.601,1.39,13.468-0.594,23.571,1.101C160.143,388.671,173.992,390.377,173.992,390.377z"/>
<path fill="#B6C7F2" d="M177.192,395.088c-2.035,8.179-2.574-12.909-1.352-19.938c1.225-7.029,6.885-20.125,8.688-20.367
	c1.803-0.241-0.143,11.806-2.321,18.302c-2.176,6.496-4.015,17.977-5.018,22.004H177.192z"/>
<path fill="#B6C7F2" d="M182.511,412.033c-16.167-6.129-25.452-9.659-30.156-8.331s-18.63,1.248-18.803-0.308
	s10.476-4.562,19.95-5.097s29.009,13.733,29.009,13.733V412.033z"/>
<path fill="#B6C7F2" d="M185.68,415.683c0.989-10.705,10.553-28.913,14.191-28.337c3.638,0.577-3.476,15.152-7.241,20.759
	c-3.764,5.608-6.952,7.576-6.952,7.576L185.68,415.683z"/>
<path fill="#B6C7F2" d="M201.011,451.996c0.367-0.104,0.608-0.464,0.557-0.851c-1.092-7.828-13.228-32.804-15.624-37.307
	c-0.795-1.496-1.855-3.706-3.197-6.504c-3.369-7.029-8.458-17.651-14.988-28.508c-9.007-14.979-33.505-41.431-33.753-41.696
	c-0.287-0.307-0.773-0.331-1.092-0.039c-0.313,0.291-0.329,0.778-0.04,1.092c0.246,0.262,24.637,26.595,33.561,41.437
	c6.492,10.797,11.562,21.379,14.92,28.383c1.346,2.812,2.412,5.037,3.224,6.56c2.872,5.396,14.449,29.562,15.454,36.797
	c0.059,0.422,0.45,0.716,0.872,0.66c0.036-0.006,0.071-0.014,0.103-0.023H201.011z"/>
<path fill="#3C251D" d="M543.039,587.577c-0.057,0-0.115-0.014-0.17-0.042l-3.654-1.922l-3.654,1.922
	c-0.129,0.063-0.275,0.054-0.385-0.027c-0.113-0.081-0.168-0.218-0.145-0.354l0.695-4.071l-2.955-2.883
	c-0.098-0.098-0.137-0.24-0.092-0.373c0.043-0.133,0.156-0.228,0.295-0.247l4.086-0.595l1.828-3.702c0.125-0.25,0.529-0.25,0.654,0
	l1.826,3.702l4.086,0.595c0.139,0.02,0.254,0.114,0.295,0.247c0.045,0.133,0.008,0.275-0.092,0.373l-2.955,2.883l0.695,4.071
	c0.021,0.137-0.031,0.273-0.145,0.354C543.191,587.555,543.117,587.577,543.039,587.577L543.039,587.577z M539.214,584.838
	c0.059,0,0.117,0.015,0.17,0.042l3.172,1.669l-0.605-3.531c-0.02-0.119,0.018-0.238,0.105-0.321l2.566-2.503l-3.547-0.516
	c-0.119-0.018-0.223-0.091-0.275-0.198l-1.586-3.214l-1.586,3.214c-0.053,0.107-0.156,0.183-0.275,0.198l-3.547,0.516l2.566,2.503
	c0.088,0.083,0.125,0.204,0.105,0.321l-0.605,3.531l3.172-1.669C539.097,584.852,539.158,584.838,539.214,584.838L539.214,584.838z"
	/>
<path fill="#3C251D" d="M71.418,327.993c-0.078,0-0.161-0.02-0.234-0.058l-5.026-2.644l-5.026,2.644
	c-0.176,0.086-0.378,0.071-0.527-0.039c-0.157-0.111-0.23-0.302-0.2-0.487l0.957-5.597l-4.064-3.964
	c-0.137-0.133-0.188-0.331-0.129-0.511c0.06-0.183,0.214-0.313,0.406-0.341l5.618-0.817l2.513-5.091
	c0.172-0.345,0.727-0.345,0.897,0l2.513,5.091l5.618,0.817c0.192,0.027,0.347,0.158,0.406,0.341c0.06,0.182,0.008,0.378-0.129,0.511
	l-4.064,3.964l0.957,5.597c0.032,0.188-0.043,0.376-0.2,0.487c-0.085,0.065-0.188,0.095-0.293,0.095L71.418,327.993z
	 M66.159,324.227c0.077,0,0.161,0.021,0.234,0.058l4.36,2.293l-0.833-4.857c-0.027-0.162,0.024-0.328,0.145-0.441l3.527-3.44
	l-4.877-0.71c-0.165-0.023-0.305-0.124-0.378-0.273l-2.18-4.419l-2.18,4.419c-0.074,0.149-0.214,0.25-0.379,0.273l-4.877,0.71
	l3.527,3.44c0.121,0.113,0.173,0.279,0.145,0.441l-0.833,4.857l4.36-2.293c0.073-0.037,0.157-0.058,0.234-0.058H66.159z"/>
<path fill="#3C251D" d="M579.257,355.918h-9.182c-0.176,0-0.318-0.143-0.318-0.319v-9.181c0-0.177,0.143-0.319,0.318-0.319h9.182
	c0.178,0,0.32,0.143,0.32,0.319v9.181C579.578,355.775,579.435,355.918,579.257,355.918z M570.398,355.28h8.541v-8.542h-8.541
	V355.28z"/>
<path fill="#3C251D" d="M574,353.879c-0.086,0-0.172-0.035-0.23-0.101l-2.512-2.668c-0.121-0.129-0.115-0.331,0.014-0.452
	c0.129-0.12,0.33-0.114,0.453,0.015l2.25,2.392l4.086-5.426c0.107-0.141,0.309-0.169,0.449-0.063
	c0.141,0.106,0.168,0.307,0.063,0.447l-4.314,5.728c-0.057,0.075-0.143,0.121-0.236,0.127h-0.02L574,353.879z"/>
<path fill="#3C251D" d="M405.427,232.671h-15.15c-0.293,0-0.527-0.235-0.527-0.527v-15.15c0-0.291,0.234-0.526,0.527-0.526h15.15
	c0.291,0,0.527,0.235,0.527,0.526v15.15C405.955,232.435,405.718,232.671,405.427,232.671L405.427,232.671z M390.8,231.617h14.1
	v-14.099h-14.1V231.617z"/>
<path fill="#3C251D" d="M396.75,229.303c-0.145,0-0.283-0.059-0.383-0.166l-4.145-4.403c-0.199-0.212-0.189-0.545,0.021-0.745
	c0.213-0.2,0.545-0.19,0.746,0.021l3.715,3.948l6.746-8.954c0.178-0.233,0.508-0.277,0.738-0.103
	c0.23,0.174,0.279,0.505,0.102,0.736l-7.121,9.453c-0.094,0.125-0.236,0.2-0.393,0.208h-0.031L396.75,229.303z"/>
<path fill="#3C251D" d="M139.622,267.758h-13.05c-0.251,0-0.454-0.202-0.454-0.453v-13.051c0-0.251,0.202-0.453,0.454-0.453h13.05
	c0.252,0,0.454,0.202,0.454,0.453v13.051C140.076,267.555,139.874,267.758,139.622,267.758z M127.026,266.85h12.142v-12.143h-12.142
	V266.85z"/>
<path fill="#3C251D" d="M132.151,264.858c-0.125,0-0.244-0.051-0.331-0.143l-3.569-3.793c-0.172-0.183-0.163-0.47,0.02-0.642
	c0.182-0.173,0.469-0.163,0.642,0.02l3.2,3.4l5.809-7.711c0.153-0.202,0.438-0.237,0.636-0.089c0.2,0.15,0.24,0.436,0.089,0.636
	l-6.134,8.142c-0.081,0.106-0.204,0.172-0.337,0.18H132.151z"/>
<path fill="#3C251D" d="M203.976,241.654c-0.103,0-0.202-0.042-0.271-0.117c-1.183-1.256-2.311-2.419-3.357-3.499
	c-4.394-4.534-7.297-7.529-7.351-10.131c-0.032-1.58,0.551-3.078,1.647-4.218c1.092-1.139,2.564-1.785,4.144-1.819h0.125
	c1.875,0,3.595,0.878,4.711,2.377c1.074-1.564,2.836-2.537,4.73-2.576h0.125c3.193,0,5.844,2.596,5.912,5.79
	c0.06,2.826-3.565,6.819-8.151,11.875c-0.646,0.709-1.31,1.442-1.986,2.193c-0.069,0.077-0.168,0.123-0.273,0.125H203.976z
	 M198.912,222.62h-0.109c-1.379,0.029-2.664,0.594-3.619,1.589s-1.464,2.303-1.437,3.683c0.047,2.307,3.02,5.376,7.138,9.625
	c0.967,0.997,2.001,2.064,3.083,3.21c0.584-0.646,1.155-1.278,1.716-1.895c4.475-4.931,8.01-8.824,7.957-11.354
	c-0.06-2.788-2.374-5.057-5.163-5.057h-0.109c-1.825,0.039-3.514,1.074-4.405,2.699c-0.063,0.116-0.187,0.191-0.321,0.193h-0.004
	c-0.135,0-0.255-0.069-0.323-0.18c-0.949-1.574-2.596-2.515-4.404-2.515H198.912z"/>
<path fill="#3C251D" d="M443.859,257.299V613.96c0,0.125-0.102,0.227-0.227,0.227H170.385c-0.125,0-0.226-0.102-0.226-0.227V257.299
	c0-0.125,0.101-0.227,0.226-0.227h273.248C443.757,257.072,443.859,257.174,443.859,257.299z"/>
<path fill="#FFFFFF" d="M177.584,262.205h258.853c1.121,0,2.031,0.91,2.031,2.031v338.943c0,1.121-0.91,2.031-2.031,2.031H177.584
	c-1.122,0-2.031-0.91-2.031-2.031V264.236C175.553,263.115,176.463,262.205,177.584,262.205z"/>
<path fill="#DEE7FA" d="M193.322,274.423h229.643v62.827H193.322V274.423z"/>
<path fill="#DEE7FA" d="M197.656,346.35h222.711v250.441H197.656V346.35z"/>
<path fill="#B6BFF0" d="M193.106,274.141h62.911v63.977h-62.911V274.141z"/>
<path fill="#B6BFF0" d="M328.511,293.923h-48.963c-1.437,0-2.6-1.163-2.6-2.6s1.163-2.601,2.6-2.601h48.963
	c1.436,0,2.6,1.164,2.6,2.601S329.947,293.923,328.511,293.923L328.511,293.923z"/>
<path fill="#B6BFF0" d="M348.441,311.685h-68.893c-1.437,0-2.6-1.163-2.6-2.6c0-1.438,1.163-2.601,2.6-2.601h68.893
	c1.438,0,2.6,1.163,2.6,2.601C351.041,310.522,349.878,311.685,348.441,311.685z"/>
<path fill="#B6BFF0" d="M409.535,311.254h-45.928c-1.436,0-2.6-1.164-2.6-2.601s1.164-2.6,2.6-2.6h45.928c1.438,0,2.6,1.163,2.6,2.6
	S410.972,311.254,409.535,311.254z"/>
<path fill="#B6BFF0" d="M381.371,326.42H281.28c-1.437,0-2.6-1.163-2.6-2.601c0-1.437,1.164-2.6,2.6-2.6h100.091
	c1.436,0,2.6,1.163,2.6,2.6C383.97,325.257,382.806,326.42,381.371,326.42L381.371,326.42z"/>
<path fill="#3C251D" d="M479.531,291.175c-1.707,0-16.973-23.403-16.973-31.519c0-9.357,7.613-16.972,16.973-16.972
	c9.357,0,16.971,7.614,16.971,16.972C496.501,268.19,481.31,291.175,479.531,291.175z M479.531,243.957
	c-8.658,0-15.699,7.043-15.699,15.699c0,7.947,13.17,26.847,15.727,29.979c2.545-2.982,15.672-22.016,15.672-29.979
	C495.23,250.998,488.187,243.957,479.531,243.957L479.531,243.957z"/>
<path fill="#3C251D" d="M479.531,271.777c-6.545,0-11.865-5.323-11.865-11.869s5.322-11.868,11.865-11.868
	c6.541,0,11.867,5.322,11.867,11.868S486.074,271.777,479.531,271.777z M479.531,249.313c-5.844,0-10.594,4.751-10.594,10.597
	c0,5.847,4.75,10.597,10.594,10.597c5.842,0,10.596-4.75,10.596-10.597C490.126,254.064,485.373,249.313,479.531,249.313z"/>
<path opacity="0.37" fill="#3B3348" enable-background="new    " d="M239.502,361.259h136.239c7.004,0,12.68,5.676,12.68,12.68
	v14.328l17.564,9.534l-17.564,11.652v17.085c0,7.004-5.676,12.68-12.68,12.68H239.502c-7.003,0-12.683-5.676-12.683-12.68v-52.6
	C226.819,366.934,232.499,361.259,239.502,361.259L239.502,361.259z"/>
<path fill="#FFFFFF" d="M236.74,358.191h136.24c7.002,0,12.678,5.676,12.678,12.679v14.328l17.564,9.534l-17.564,11.653v17.085
	c0,7.003-5.676,12.679-12.678,12.679H236.74c-7.003,0-12.683-5.676-12.683-12.679V370.87
	C224.057,363.867,229.736,358.191,236.74,358.191z"/>
<path fill="#B6BFF0" d="M239.56,370.373h44.924c0.825,0,1.494,0.669,1.494,1.494v3.508c0,0.825-0.669,1.494-1.494,1.494H239.56
	c-0.825,0-1.494-0.669-1.494-1.494v-3.508C238.066,371.042,238.735,370.373,239.56,370.373z"/>
<path fill="#DEE7FA" d="M239.657,400.011h55.086c0.542,0,0.981,0.439,0.981,0.981v2.301c0,0.542-0.439,0.98-0.981,0.98h-55.086
	c-0.542,0-0.981-0.438-0.981-0.98v-2.301C238.676,400.451,239.115,400.011,239.657,400.011z"/>
<path fill="#DEE7FA" d="M239.657,413.413h55.086c0.542,0,0.981,0.438,0.981,0.98v2.301c0,0.542-0.439,0.981-0.981,0.981h-55.086
	c-0.542,0-0.981-0.439-0.981-0.981v-2.301C238.676,413.851,239.115,413.413,239.657,413.413z"/>
<path fill="#DEE7FA" d="M306.652,400.011h55.088c0.541,0,0.98,0.439,0.98,0.981v2.301c0,0.542-0.439,0.98-0.98,0.98h-55.088
	c-0.541,0-0.98-0.438-0.98-0.98v-2.301C305.671,400.451,306.111,400.011,306.652,400.011z"/>
<path fill="#DEE7FA" d="M239.657,388.238H369.25c0.541,0,0.98,0.439,0.98,0.981v2.301c0,0.542-0.439,0.98-0.98,0.98H239.657
	c-0.542,0-0.981-0.438-0.981-0.98v-2.301C238.676,388.677,239.115,388.238,239.657,388.238z"/>
<path opacity="0.37" fill="#3B3348" enable-background="new    " d="M382.13,464.518H236.118c-7.507,0-13.589,6.082-13.589,13.589
	v15.356l-18.825,10.218l18.825,12.489v18.31c0,7.507,6.082,13.589,13.589,13.589H382.13c7.508,0,13.596-6.082,13.596-13.589v-56.375
	c0-7.507-6.088-13.589-13.596-13.589V464.518z"/>
<path fill="#FFFFFF" d="M385.089,461.23H239.077c-7.507,0-13.589,6.082-13.589,13.589v15.356l-18.825,10.218l18.825,12.489v18.31
	c0,7.507,6.082,13.589,13.589,13.589h146.013c7.508,0,13.596-6.082,13.596-13.589v-56.375c0-7.507-6.088-13.589-13.596-13.589
	V461.23z"/>
<path fill="#B6BFF0" d="M333.814,474.284h48.361c0.824,0,1.494,0.669,1.494,1.494v3.974c0,0.825-0.67,1.494-1.494,1.494h-48.361
	c-0.824,0-1.494-0.669-1.494-1.494v-3.974C332.32,474.953,332.99,474.284,333.814,474.284z"/>
<path fill="#DEE7FA" d="M322.855,506.052h59.18c0.541,0,0.98,0.439,0.98,0.981v2.607c0,0.542-0.439,0.981-0.98,0.981h-59.18
	c-0.541,0-0.98-0.439-0.98-0.981v-2.607C321.875,506.491,322.314,506.052,322.855,506.052z"/>
<path fill="#DEE7FA" d="M322.855,520.414h59.18c0.541,0,0.98,0.438,0.98,0.98v2.608c0,0.541-0.439,0.98-0.98,0.98h-59.18
	c-0.541,0-0.98-0.439-0.98-0.98v-2.608C321.875,520.852,322.314,520.414,322.855,520.414z"/>
<path fill="#DEE7FA" d="M251.052,506.052h59.18c0.541,0,0.98,0.439,0.98,0.981v2.607c0,0.542-0.439,0.981-0.98,0.981h-59.18
	c-0.542,0-0.981-0.439-0.981-0.981v-2.607C250.071,506.491,250.51,506.052,251.052,506.052z"/>
<path fill="#DEE7FA" d="M243.002,493.431h139.034c0.541,0,0.98,0.439,0.98,0.981v2.608c0,0.541-0.439,0.98-0.98,0.98H243.002
	c-0.542,0-0.981-0.439-0.981-0.98v-2.608C242.021,493.871,242.46,493.431,243.002,493.431z"/>
<path fill="#EEC07C" d="M186.201,416.653c0-24.604-19.946-44.55-44.55-44.55c-24.603,0-44.549,19.946-44.549,44.55
	s43.505,84.229,44.549,84.229C143.392,500.882,186.201,441.259,186.201,416.653z"/>
<path opacity="0.53" fill="#E06D6A" enable-background="new    " d="M141.128,372.101c-0.06,0-0.115,0.008-0.115,0.008
	l-0.06,128.634c0.077,0.071,0.148,0.137,0.148,0.137c1.766,0,44.576-59.623,44.576-84.229S165.732,372.101,141.128,372.101z"/>
<circle fill="#FFFFFF" cx="141.649" cy="417.348" r="30.628"/>
<path fill="#AEAF71" d="M138.524,434.925c-1.298,0-2.548-0.529-3.454-1.473l-14.208-14.773c-1.835-1.909-1.775-4.941,0.133-6.776
	c1.905-1.833,4.941-1.779,6.776,0.133l10.226,10.633l14.255-19.776c1.548-2.146,4.542-2.628,6.69-1.084
	c2.146,1.548,2.634,4.542,1.084,6.69l-17.616,24.438c-0.831,1.151-2.132,1.876-3.551,1.978c-0.113,0.008-0.224,0.012-0.337,0.012
	H138.524z"/>
<ellipse fill="#3C251D" cx="66.983" cy="594.539" rx="18.376" ry="20.64"/>
<path fill="#2B2B3A" d="M65.881,573.885h7.624v41.3h-7.624V573.885z"/>
<ellipse fill="#3C251D" cx="73.259" cy="594.539" rx="18.377" ry="20.64"/>
<path fill="#DEE7FA" d="M73.798,610.264c-7.721,0-14.001-7.056-14.001-15.726s6.28-15.726,14.001-15.726
	c7.721,0,14.003,7.056,14.003,15.726S81.521,610.264,73.798,610.264z M73.798,581.433c-6.433,0-11.668,5.878-11.668,13.105
	s5.234,13.105,11.668,13.105c6.435,0,11.668-5.878,11.668-13.105S80.233,581.433,73.798,581.433z"/>
<path fill="#DEE7FA" d="M79.924,594.539c0-3.799-2.743-6.881-6.125-6.881s-6.125,3.08-6.125,6.881s2.743,6.881,6.125,6.881
	S79.924,598.34,79.924,594.539z"/>
<path fill="#DEE7FA" d="M74.349,591.51l1.605-10.307h-5.398l2.626,10.231L74.349,591.51z"/>
<path fill="#DEE7FA" d="M74.349,598.659l1.605,10.601h-5.398l2.626-10.379L74.349,598.659z"/>
<path fill="#DEE7FA" d="M77.6,593.338l8.617-4.417l-3.04-5.008l-6.114,8.25L77.6,593.338z"/>
<path fill="#DEE7FA" d="M77.013,596.433l6.58,7.653l3.19-4.889l-8.963-3.724L77.013,596.433z"/>
<path fill="#DEE7FA" d="M70.443,593.338l-8.617-4.417l3.04-5.008l6.114,8.25L70.443,593.338z"/>
<path fill="#DEE7FA" d="M71.03,596.433l-6.579,7.653l-3.191-4.889l8.963-3.724L71.03,596.433z"/>
<ellipse fill="#3C251D" cx="214.705" cy="594.539" rx="18.376" ry="20.64"/>
<path fill="#3C251D" d="M213.603,573.885h7.624v41.3h-7.624V573.885z"/>
<ellipse fill="#3C251D" cx="220.981" cy="594.539" rx="18.377" ry="20.64"/>
<path fill="#DEE7FA" d="M221.52,610.264c-7.721,0-14.001-7.056-14.001-15.726s6.28-15.726,14.001-15.726
	c7.721,0,14.003,7.056,14.003,15.726S229.243,610.264,221.52,610.264z M221.52,581.433c-6.433,0-11.668,5.878-11.668,13.105
	s5.234,13.105,11.668,13.105c6.435,0,11.668-5.878,11.668-13.105S227.955,581.433,221.52,581.433z"/>
<path fill="#DEE7FA" d="M227.646,594.539c0-3.799-2.743-6.881-6.125-6.881s-6.125,3.08-6.125,6.881s2.743,6.881,6.125,6.881
	S227.646,598.34,227.646,594.539z"/>
<path fill="#DEE7FA" d="M222.071,591.51l1.604-10.307h-5.396l2.626,10.231L222.071,591.51z"/>
<path fill="#DEE7FA" d="M222.071,598.659l1.604,10.601h-5.396l2.626-10.379L222.071,598.659z"/>
<path fill="#DEE7FA" d="M225.321,593.338l8.616-4.417l-3.04-5.008l-6.114,8.25L225.321,593.338z"/>
<path fill="#DEE7FA" d="M224.732,596.433l6.58,7.653l3.192-4.889l-8.963-3.724L224.732,596.433z"/>
<path fill="#DEE7FA" d="M218.165,593.338l-8.617-4.417l3.04-5.008l6.112,8.25L218.165,593.338z"/>
<path fill="#DEE7FA" d="M218.751,596.433l-6.579,7.653l-3.191-4.889l8.961-3.724L218.751,596.433z"/>
<path fill="#3C251D" d="M31.942,590.677l0.359-12.356l9.312,4.299l-3.403,8.774l-5.551-0.539L31.942,590.677z"/>
<path fill="#E06D6A" d="M33.795,598.974H301.58l7.869-16.715l-3.439-18.385c0,0,2.369-10.759,0.264-13.133
	c-0.793-0.896-14.813-5.254-14.813-5.254s-1.191-5.133-2.182-6.387c-0.993-1.255-31.679-30.382-79.562-30.382
	c-47.883,0-72.857,1.365-75.768,1.365c-2.912,0-31.793,16.354-45.021,29.484c0,0-48.783,2.576-53.279,18.335
	s-4.233,22.921-4.233,22.921s6.35,0.24,6.084,4.536c-0.263,4.299-7.408,4.059-7.408,4.059l3.704,9.551V598.974z"/>
<path fill="#DEE7FA" d="M89.05,563.205c0,0,31.373-5.707,39.066-8.928c0,0-1.183,14.309-14.821,16.003
	c-13.639,1.692-22.642-2.749-22.642-2.749l-1.604-4.323V563.205z"/>
<path fill="#684B43" d="M31.415,580.894c0,0,6.35,0.238,6.084,4.536c-0.266,4.299-7.408,4.059-7.408,4.059l3.704,9.55H301.58
	l7.869-16.714l-0.535-2.865H31.448c-0.049,0.959-0.034,1.433-0.034,1.433V580.894z"/>
<path fill="#DEE7FA" d="M44.106,561.909c0,0-3.603-1.204-8.617-2.958c-0.866,3.077-1.548,5.811-2.087,8.228
	c5.279-0.176,8.5-1.217,8.5-1.217l2.202-4.053H44.106z"/>
<path fill="#3C251D" d="M87.992,589.244v-4.478c0,0,24.712-6.268,30.085-5.73s2.802,9.175,0.715,10.564
	c-1.074,0.716-23.101,1.97-30.8-0.358V589.244z"/>
<g>
	<defs>
		<path id="SVGID_1_" d="M185.561,539.76h73.838c0.535,0,1.044-0.214,1.387-0.583l7.336-7.875c0.725-0.779,0.503-1.96-0.474-2.468
			c-7.067-3.664-33.107-16.232-56.611-15.578c-7.075,0.196-22.346,16.363-27.079,24.098c-0.662,1.082,0.23,2.408,1.601,2.408V539.76
			z"/>
	</defs>
	<clipPath id="SVGID_2_">
		<use xlink:href="#SVGID_1_"  overflow="visible"/>
	</clipPath>
	<g clip-path="url(#SVGID_2_)">
		<path fill="#9097CE" d="M182.902,512.181h91.329v33.188h-91.329V512.181z"/>
	</g>
</g>
<path fill="#684B43" d="M261.968,539.022c-0.858,0.921-2.125,1.454-3.46,1.454h-76.862l0.331-0.936
	c2.111-5.951,20.541-26.765,29.037-27.003c27.414-0.716,58.603,16.502,58.908,16.675l0.779,0.436l-8.733,9.374H261.968z
	 M192.016,539.044h65.755c1.333,0,2.6-0.533,3.46-1.454l3.54-3.8c1.851-1.987,1.212-5.008-1.33-6.225
	c-10.16-4.861-32.328-14.151-52.375-13.593c-5.264,0.146-16.249,10.591-22.715,18.603
	C186.178,535.266,188.326,539.044,192.016,539.044L192.016,539.044z"/>
<g>
	<defs>
		<path id="SVGID_3_" d="M90.407,538.804c0,0,46.56-2.866,84.655,0.955c0,0,11.904-17.907,25.132-26.265l-71.426-0.478
			c0,0-24.074,11.7-38.358,25.787H90.407z"/>
	</defs>
	<clipPath id="SVGID_4_">
		<use xlink:href="#SVGID_3_"  overflow="visible"/>
	</clipPath>
	<g clip-path="url(#SVGID_4_)">
		<path fill="#9097CE" d="M88.947,509.317h110.311v33.429H88.947V509.317z"/>
	</g>
</g>
<path fill="#684B43" d="M220.43,513.764c0,0,5.257,10.387,7.142,25.608l5.159,0.179c0,0-0.894-16.207-9.027-25.429L220.43,513.764z"
	/>
<path fill="#63637E" d="M259.913,538.923l-9.126-17.548l-2.083-0.627l9.522,18.981L259.913,538.923z"/>
<path opacity="0.46" fill="#070707" enable-background="new    " d="M269.742,529.533l-0.478,0.573l8.678,5.903
	c-2.045,2.474-15.523,19.041-16.768,27.82c-0.194,1.363-0.394,2.804-0.596,4.274c-1.021,7.37-2.408,17.382-3.433,18.813h-22.215
	c1.917-33.85-3.623-47.742-3.678-47.879l-0.743,0.25c0.056,0.137,5.541,13.932,3.626,47.629h-42.276
	c-0.04-3.446-0.612-30.81-8.761-47.302l-0.726,0.293c8.595,17.394,8.696,47.07,8.696,47.368v0.358h66.433l0.117-0.105
	c1.14-1.028,2.224-8.323,3.75-19.334c0.202-1.468,0.402-2.909,0.597-4.272c1.294-9.11,16.696-27.58,16.853-27.765l0.24-0.285
	l-9.31-6.336L269.742,529.533z"/>
<path fill="#684B43" d="M303.912,598.974c0.242-1.484,0.373-3.017,0.373-4.586c0-12.842-8.463-23.26-18.948-23.431v-0.031h-7.969
	v0.087c-10.069,0.729-18.056,10.899-18.056,23.375c0,1.569,0.127,3.104,0.369,4.586H303.912z"/>
<path fill="#684B43" d="M173.784,598.974c0.242-1.484,0.373-3.017,0.373-4.586c0-12.842-8.462-23.26-18.947-23.431v-0.031h-7.969
	v0.087c-10.069,0.729-18.056,10.899-18.056,23.375c0,1.569,0.126,3.104,0.369,4.586H173.784z"/>
<ellipse fill="#3C251D" cx="151.148" cy="594.539" rx="18.377" ry="20.64"/>
<path fill="#3C251D" d="M150.048,573.885h7.624v41.3h-7.624V573.885z"/>
<ellipse fill="#3C251D" cx="157.424" cy="594.539" rx="18.377" ry="20.64"/>
<path fill="#DEE7FA" d="M157.963,610.264c-7.721,0-14.001-7.056-14.001-15.726s6.28-15.726,14.001-15.726
	s14.003,7.056,14.003,15.726S165.686,610.264,157.963,610.264L157.963,610.264z M157.963,581.433
	c-6.433,0-11.668,5.878-11.668,13.105s5.234,13.105,11.668,13.105s11.668-5.878,11.668-13.105S164.398,581.433,157.963,581.433z"/>
<path fill="#DEE7FA" d="M164.089,594.539c0-3.799-2.743-6.881-6.125-6.881s-6.125,3.08-6.125,6.881s2.743,6.881,6.125,6.881
	S164.089,598.34,164.089,594.539z"/>
<path fill="#DEE7FA" d="M158.514,591.51l1.605-10.307h-5.396l2.624,10.231L158.514,591.51z"/>
<path fill="#DEE7FA" d="M158.514,598.659l1.605,10.601h-5.396l2.624-10.379L158.514,598.659z"/>
<path fill="#DEE7FA" d="M161.764,593.338l8.617-4.417l-3.04-5.008l-6.113,8.25L161.764,593.338z"/>
<path fill="#DEE7FA" d="M161.178,596.433l6.58,7.653l3.19-4.889l-8.963-3.724L161.178,596.433z"/>
<path fill="#DEE7FA" d="M154.608,593.338l-8.617-4.417l3.04-5.008l6.114,8.25L154.608,593.338z"/>
<path fill="#DEE7FA" d="M155.195,596.433l-6.58,7.653l-3.19-4.889l8.963-3.724L155.195,596.433z"/>
<ellipse fill="#3C251D" cx="279.544" cy="594.539" rx="18.376" ry="20.64"/>
<path fill="#3C251D" d="M278.444,573.885h7.624v41.3h-7.624V573.885z"/>
<ellipse fill="#3C251D" cx="285.82" cy="594.539" rx="18.379" ry="20.64"/>
<path fill="#DEE7FA" d="M286.359,610.264c-7.721,0-14.001-7.056-14.001-15.726s6.28-15.726,14.001-15.726
	c7.721,0,14.004,7.056,14.004,15.726S294.082,610.264,286.359,610.264z M286.359,581.433c-6.433,0-11.668,5.878-11.668,13.105
	s5.234,13.105,11.668,13.105c6.435,0,11.668-5.878,11.668-13.105S292.794,581.433,286.359,581.433z"/>
<path fill="#DEE7FA" d="M292.484,594.539c0-3.799-2.743-6.881-6.125-6.881s-6.125,3.08-6.125,6.881s2.743,6.881,6.125,6.881
	S292.484,598.34,292.484,594.539z"/>
<path fill="#DEE7FA" d="M286.91,591.51l1.605-10.307h-5.396l2.624,10.231L286.91,591.51z"/>
<path fill="#DEE7FA" d="M286.91,598.659l1.605,10.601h-5.396l2.624-10.379L286.91,598.659z"/>
<path fill="#DEE7FA" d="M290.16,593.338l8.617-4.417l-3.04-5.008l-6.114,8.25L290.16,593.338z"/>
<path fill="#DEE7FA" d="M289.573,596.433l6.58,7.653l3.19-4.889l-8.963-3.724L289.573,596.433z"/>
<path fill="#DEE7FA" d="M283.004,593.338l-8.617-4.417l3.04-5.008l6.114,8.25L283.004,593.338z"/>
<path fill="#DEE7FA" d="M283.59,596.433l-6.579,7.653l-3.191-4.889l8.964-3.724L283.59,596.433z"/>
<path fill="#3C251D" d="M54.407,561.308H78.22c0.929,0,1.768,0.56,2.125,1.417l3.872,9.32c0.24,0.577,0.234,1.227-0.014,1.8
	l-6.71,15.447c-0.364,0.841-1.193,1.384-2.108,1.384H49.052c-1.098,0-2.043-0.777-2.255-1.854l-3.159-15.948
	c-0.146-0.739,0.077-1.503,0.603-2.046l8.516-8.818c0.434-0.45,1.03-0.702,1.655-0.702H54.407z"/>
<path fill="#684B43" d="M75.382,591.393h-26.33c-1.435,0-2.681-1.022-2.957-2.432l-3.161-15.948
	c-0.192-0.968,0.103-1.971,0.789-2.682l8.514-8.819c0.565-0.584,1.355-0.921,2.17-0.921H78.22c1.223,0,2.314,0.729,2.786,1.858
	l3.871,9.32c0.311,0.753,0.305,1.613-0.018,2.358l-6.71,15.448c-0.479,1.102-1.565,1.814-2.767,1.814V591.393z M54.407,562.026
	c-0.428,0-0.844,0.177-1.14,0.483l-8.514,8.819c-0.359,0.374-0.515,0.899-0.414,1.406l3.161,15.951
	c0.147,0.739,0.799,1.276,1.554,1.276h26.33c0.63,0,1.201-0.374,1.453-0.953l6.71-15.447c0.17-0.393,0.174-0.843,0.01-1.239
	l-3.871-9.32c-0.246-0.592-0.82-0.977-1.462-0.977H54.411H54.407z"/>
<path fill="#684B43" d="M50.432,563.772h30.204v1.234H50.432V563.772z"/>
<path fill="#684B43" d="M47.566,566.713h34.383v1.235H47.566V566.713z"/>
<path fill="#684B43" d="M44.746,569.86h39.173v1.355H44.746V569.86z"/>
<path fill="#684B43" d="M44.074,573.037h39.978v1.355H44.074V573.037z"/>
<path fill="#684B43" d="M44.074,576.62h38.86v1.355h-38.86V576.62z"/>
<path fill="#684B43" d="M45.014,580.022h36.083v1.355H45.014V580.022z"/>
<path fill="#684B43" d="M45.82,583.647h34.025v1.355H45.82V583.647z"/>
<path fill="#684B43" d="M46.089,586.737h32.503v1.355H46.089V586.737z"/>
<path fill="#63637E" d="M250.406,546.683h11.954c0.029,0,0.052,0.023,0.052,0.052v2.882c0,0.028-0.023,0.051-0.052,0.051h-11.954
	c-0.029,0-0.052-0.022-0.052-0.051v-2.882C250.354,546.707,250.377,546.683,250.406,546.683z"/>
<path fill="#3C251D" d="M216.619,546.683h11.954c0.028,0,0.051,0.023,0.051,0.052v2.882c0,0.028-0.023,0.051-0.051,0.051h-11.954
	c-0.028,0-0.051-0.022-0.051-0.051v-2.882C216.568,546.707,216.591,546.683,216.619,546.683z"/>
<path fill="#EAAB72" d="M306.464,560.054h-7.521c0,0-1.611,8.416,7.521,8.058V560.054z"/>
<path fill="#E06D6A" d="M189.483,537.459l-3.402,1.791c0,0-1.254-0.27-1.344-0.984c-0.089-0.716,3.851-2.418,3.851-2.418
	L189.483,537.459z"/>
<path fill="#E06D6A" d="M187.418,530.923h18.306c0.08,0,0.145,0.064,0.145,0.145v8.009c0,0.079-0.065,0.145-0.145,0.145h-18.306
	c-0.08,0-0.145-0.065-0.145-0.145v-8.009C187.273,530.987,187.338,530.923,187.418,530.923z"/>
<path opacity="0.57" fill="#FFFFFF" enable-background="new    " d="M163.467,512.7c-1.389,2.566-3.004,4.984-5.054,7.056
	c-4.027,4.068-10.152,6.575-15.583,4.764c-2.622-0.874-4.863-2.657-7.471-3.573c-2.443-0.857-5.083-0.913-7.673-0.961
	c-4.14-0.075-8.288-0.141-12.429-0.095c-5.375,3.214-11.631,7.281-17.366,11.813c4.055-0.898,8.063-1.994,11.994-3.338
	c2.564-0.878,5.109-1.851,7.768-2.368c2.84-0.551,5.753-0.57,8.645-0.589c3.321-0.02,6.881,0.028,9.614,1.917
	c1.524,1.052,2.665,2.605,4.259,3.547c1.451,0.858,3.17,1.146,4.855,1.193c6.258,0.181,12.214-2.693,17.41-6.186
	c5.196-3.491,9.94-7.677,15.44-10.669c1.692-0.922,3.454-1.707,5.258-2.383l-19.665-0.131V512.7z"/>
<path fill="#684B43" d="M175.48,540.522l-0.507-0.05c-13.115-1.315-28.65-1.981-46.171-1.981c-21.355,0-38.174,1.019-38.343,1.03
	l-1.978,0.121l1.337-1.32c14.213-14.015,38.327-25.815,38.569-25.935l0.18-0.087l74.114,0.495l-2.035,1.286
	c-12.939,8.175-24.788,25.867-24.907,26.046l-0.262,0.395H175.48z M128.804,537.056c17.356,0,32.778,0.651,45.844,1.941
	c1.75-2.546,11.813-16.793,23.165-24.803l-68.848-0.46c-2.144,1.062-23.121,11.613-36.611,24.242
	c5.085-0.266,19.312-0.921,36.448-0.921H128.804z"/>
<path fill="#3C251D" d="M41.244,396.904c-0.137,0-0.27-0.057-0.363-0.16c-0.093-0.101-0.139-0.239-0.125-0.376l0.004-0.036
	c0.006-0.052,0.012-0.104,0.012-0.154c0-1.659-1.958-3.007-4.366-3.007c0,0-0.204,0.008-0.208,0.008
	c-0.123,0.04-0.26-0.045-0.355-0.139c-0.095-0.091-0.148-0.218-0.148-0.351v-16.554c-0.002-0.133,0.051-0.258,0.145-0.351
	c0.093-0.091,0.24-0.117,0.355-0.139l0.208,0.008c2.406,0,4.364-1.35,4.364-3.008c0-0.23-0.043-0.468-0.131-0.708
	c-0.053-0.15-0.032-0.317,0.06-0.447c0.091-0.131,0.242-0.209,0.4-0.209l46.319-0.01c0.159,0,0.307,0.077,0.4,0.206
	s0.115,0.298,0.062,0.448c-0.085,0.244-0.131,0.481-0.131,0.709c0,1.659,1.956,3.007,4.36,3.007c0.178,0,0.351-0.01,0.519-0.021
	c0.133-0.021,0.27,0.033,0.369,0.129c0.101,0.093,0.157,0.224,0.157,0.358l0.004,16.435c0.016,0.048,0.025,0.099,0.025,0.152
	c0,0.275-0.269,0.533-0.501,0.489c-0.02,0-0.036,0-0.054,0c-0.168-0.014-0.337-0.023-0.511-0.023c-2.406,0-4.364,1.35-4.364,3.009
	c0,0.051,0.006,0.103,0.012,0.154c0.014,0.137-0.03,0.293-0.123,0.395c-0.093,0.103-0.222,0.18-0.361,0.18l-46.034,0.01V396.904z
	 M36.674,392.194c2.711,0.099,4.897,1.714,5.065,3.729l45.041-0.01c0.174-2.083,2.499-3.737,5.333-3.737h0.062l-0.004-15.56H92.11
	c-2.947,0-5.343-1.789-5.345-3.987c0-0.126,0.008-0.253,0.026-0.384l-45.073,0.01c0.018,0.129,0.026,0.256,0.026,0.385
	c0,2.132-2.253,3.88-5.073,3.982v15.571H36.674z"/>
<path fill="#3C251D" d="M85.336,394.715H43.099c-0.271,0-0.49-0.22-0.49-0.489v-20.323c0-0.27,0.22-0.489,0.49-0.489h42.237
	c0.271,0,0.49,0.22,0.49,0.489v20.323C85.826,394.495,85.605,394.715,85.336,394.715z M43.588,393.736h41.258v-19.345H43.588
	V393.736z"/>
<path fill="#3C251D" d="M71.107,379.745h-13.33l-0.023,0.025v1.195l0.023,0.023h13.33l0.023-0.025v-1.195L71.107,379.745z"/>
<path fill="#3C251D" d="M71.19,384.094H57.861l-0.024,0.025v1.195l0.024,0.023H71.19l0.024-0.025v-1.195L71.19,384.094z"/>
<path fill="#9097CE" d="M507.16,575.211c0,0,0.279,9.49,1.305,11.687c1.021,2.195,1.887,0.323,1.188,5.993
	c-0.697,5.669-0.713,6.21-0.787,8.92c-0.076,2.707,1.756,14.95,1.756,14.95l-26.08,2.53l-52.596,1.259l-11.289-3.292
	c0,0,0.217-7.852,0.359-12.994c0.143-5.145-0.92-5.985,0.307-11.1c1.225-5.113,3.35-23.209,3.35-23.209L507.16,575.211z"/>
<path fill="#D3DFEB" d="M508.138,598.538h-0.051c-0.748-0.069-18.449-1.783-21.982-15.279c-0.115-0.434,0.145-0.878,0.582-0.993
	c0.436-0.126,0.877,0.146,0.992,0.581c3.246,12.406,20.377,14.057,20.555,14.07c0.443,0.042,0.775,0.435,0.736,0.88
	C508.933,598.227,508.562,598.55,508.138,598.538z"/>
<path fill="#D3DFEB" d="M423.433,595.73c-1.205-0.034-1.959-0.127-1.998-0.131c-0.441-0.063-0.756-0.472-0.691-0.914
	c0.055-0.418,0.414-0.715,0.826-0.703c0,0,0.057,0,0.09,0.006c0.67,0.097,16.813,2.114,19.461-10.985
	c0.088-0.438,0.457-0.743,0.957-0.634c0.436,0.089,0.723,0.516,0.633,0.957c-2.354,11.677-14.447,12.539-19.277,12.406V595.73z"/>
<path fill="#D3DFEB" d="M466.902,620.159c-0.432-0.012-0.781-0.36-0.791-0.797l-0.545-29.276c-0.006-0.448,0.348-0.818,0.797-0.828
	c0.369-0.04,0.822,0.349,0.828,0.797l0.545,29.276c0.008,0.447-0.346,0.818-0.795,0.828H466.902z"/>
<path fill="#D3DFEB" d="M458.242,619.919c-0.432-0.012-0.783-0.36-0.791-0.796l-0.527-29.817c-0.008-0.452,0.352-0.819,0.795-0.829
	c0.367,0.058,0.822,0.347,0.83,0.797l0.527,29.817c0.006,0.452-0.352,0.818-0.795,0.828H458.242z"/>
<path fill="#E89F90" d="M524.628,421.802c0,0-2.58-17.971-1.553-18.393c1.027-0.423,3.527,0.867,3.953,3.648
	c1.154,7.519,5.598,14.671,4.764,16.546c-2.408,5.416-4.904-1.457-4.904-1.457l-2.262-0.345H524.628z"/>
<path fill="#E8A080" d="M452.119,413.171l3.248-2.016l3.703-23.774l23.072,3.381l0.842,23.121l2.881,2.037l-4.43,3.51l-16.738,3.87
	l-6.422-5.347L452.119,413.171z"/>
<path fill="#E8A080" d="M398.013,518.019c-5.416-22.344,4.119-55.497,4.119-55.497l22.064,0.608l-2.598,50.713l-23.584,4.176
	H398.013z"/>
<path fill="#EEC07C" d="M485.052,414.919c0,0,12.02,4.944,17.84,6.781c5.82,1.838,19.529,6.409,24.756,14.519
	c5.225,8.109,24.156,42.604,24.156,42.604s-28.01,20.277-32.199,20.163c0,0-12.357-27.231-12.848-4.646
	c-0.082,3.795,1.35,85.124,1.35,85.124s-1.676-0.046-7.586,1.469c-5.912,1.514-26.391,14.365-43.871,9.69
	c-17.479-4.675-33.982-14.354-33.982-14.354s2.775-53.016,2.699-61.021c-0.039-4.191-2.688-27.776-2.688-27.776
	s-22.033,4.651-29.83-1.433c0,0,12.549-56.125,23.174-61.283c10.625-5.157,36.816-12.4,36.816-12.4s19.309,14.368,32.213,2.566
	V414.919z"/>
<path fill="#E8A080" d="M525.859,431.948c3.783,6.259-2.563,50.626,0.688,62.207s12.445,19.846,12.445,19.846
	s8.363,1.681,10.967-3.086c2.602-4.768,4.785-19.725,2.004-33.375c-2.779-13.647-10.246-30.066-12.998-48.191L525.859,431.948z"/>
<path fill="#BB5151" d="M548.677,504.482c0.02,0.021,0.033,0.048,0.043,0.077c0.775,2.515-1.514,6.246-1.609,6.405
	c-0.064,0.099-0.211,0.133-0.332,0.073c-0.117-0.056-0.166-0.188-0.105-0.289c0.023-0.038,2.301-3.748,1.574-6.104
	c-0.033-0.114,0.041-0.226,0.172-0.249c0.098-0.019,0.199,0.018,0.258,0.085V504.482z"/>
<path fill="#E7E7F2" d="M463.531,580.526c-15.775-0.437-32.625-12.139-32.803-12.264c-0.191-0.133-0.236-0.395-0.102-0.582
	c0.131-0.19,0.395-0.232,0.582-0.104c0.188,0.131,18.74,13.013,34.896,12.075c14.678-0.839,30.596-7.499,33.67-8.843
	c-0.623-0.456-2.322-1.114-6.432,0.071c-5.563,1.602-22.486,6.48-35.801,1.242c-0.217-0.085-0.32-0.328-0.236-0.543
	c0.086-0.216,0.328-0.318,0.543-0.235c13.049,5.133,29.771,0.315,35.264-1.269c6.359-1.831,7.627,0.44,7.75,0.706
	c0.049,0.101,0.053,0.218,0.016,0.322c-0.039,0.105-0.119,0.188-0.221,0.236c-0.178,0.081-18.096,8.216-34.502,9.151
	c-0.869,0.05-1.744,0.06-2.623,0.036L463.531,580.526z"/>
<path fill="#E7E7F2" d="M422.341,481.511c-0.199-0.006-0.371-0.15-0.402-0.353l-2.506-15.581c-0.035-0.228,0.119-0.443,0.348-0.479
	c0.248-0.035,0.443,0.119,0.48,0.347l2.506,15.581c0.035,0.228-0.119,0.444-0.348,0.479
	C422.392,481.51,422.367,481.511,422.341,481.511z"/>
<path fill="#E7E7F2" d="M421.607,477.717c-0.129-0.004-0.254-0.065-0.332-0.181l-5.646-8.121c-0.133-0.19-0.086-0.452,0.105-0.584
	c0.188-0.131,0.451-0.086,0.582,0.104l5.646,8.121c0.133,0.19,0.086,0.452-0.105,0.585
	C421.783,477.695,421.693,477.719,421.607,477.717z"/>
<path fill="#BF635F" d="M482.109,390.76l-23.072-3.379l-1.625,10.909c2.246,3.234,5.951,11.321,14.1,10.755
	c4.465-0.312,9.32-5.975,10.875-9.679l-0.275-8.604L482.109,390.76z"/>
<path fill="#BB5151" d="M470.726,387.755c-0.057,0.002-0.113-0.029-0.152-0.095c-0.295-0.51-0.32-0.934-0.094-1.565
	c0.121-0.339,0.404-0.391,0.633-0.433c0.066-0.012,0.131-0.023,0.191-0.043l0.201-0.063c0.369-0.113,0.719-0.221,1.016-0.462
	c0.307-0.248,0.586-0.728,0.523-1.241c-0.031-0.251-0.141-0.487-0.256-0.736l-0.025-0.056c-1.131-2.462-1.684-5.379-1.559-8.215
	c0.006-0.129,0.094-0.228,0.188-0.214c0.096,0.012,0.17,0.127,0.164,0.256c-0.121,2.74,0.412,5.559,1.504,7.935l0.025,0.056
	c0.129,0.279,0.262,0.568,0.305,0.913c0.092,0.726-0.277,1.382-0.682,1.711c-0.344,0.277-0.734,0.398-1.113,0.515l-0.197,0.062
	c-0.07,0.022-0.148,0.038-0.225,0.052c-0.162,0.03-0.334,0.06-0.373,0.179c-0.168,0.47-0.156,0.709,0.055,1.07
	c0.059,0.104,0.047,0.251-0.029,0.33c-0.027,0.03-0.061,0.044-0.096,0.046H470.726z"/>
<path fill="#563136" d="M456.394,367.969c-0.539,1.08,1.699,0.807,3.08,0.492c1.383-0.315,4.391,0.628,5.543,0.541
	c1.154-0.088,1.59-2.42-0.338-2.85c-1.926-0.431-6.855-1.053-8.285,1.814V367.969z"/>
<path fill="#563136" d="M485.914,368.784c0.477,1.107-1.742,0.713-3.104,0.32c-1.361-0.391-4.418,0.385-5.564,0.234
	c-1.146-0.151-1.453-2.503,0.494-2.826C479.689,366.189,484.644,365.841,485.914,368.784z"/>
<path fill="#242638" d="M481.589,376.225c0.111-2.19-0.51-4.004-1.385-4.049c-0.877-0.046-1.678,1.692-1.791,3.884
	c-0.109,2.19,0.51,4.003,1.387,4.049C480.675,380.155,481.476,378.417,481.589,376.225z"/>
<path fill="#242638" d="M462.578,376.041c0.08-2.192-0.566-3.995-1.443-4.027c-0.879-0.033-1.654,1.719-1.732,3.91
	c-0.08,2.192,0.566,3.995,1.445,4.027C461.724,379.984,462.5,378.232,462.578,376.041z"/>
<path fill="#563136" d="M492.318,376.899c0,0,7.014-23.498-2.037-28.698s-13.83-4.979-13.83-4.979s-22.338-4.151-25.988,6.355
	c-3.648,10.508-0.289,29.695-0.289,29.695l5.846-19.64l29.336-5.578l5.711,23.341l1.25-0.495L492.318,376.899z"/>
<path fill="#E8A080" d="M451.552,376.102c0,0-1.471-6.247-5.537-1.594c-1.615,1.848,0.137,8.881,5.57,7.275
	C451.585,381.784,453.24,380.29,451.552,376.102L451.552,376.102z"/>
<path fill="#BB5151" d="M448.636,380.23c-0.443-0.012-0.877-0.135-1.227-0.44c-0.068-0.062-0.088-0.188-0.043-0.285
	c0.045-0.097,0.139-0.127,0.207-0.063c0.924,0.809,2.607,0.137,3.01-0.192c-0.027-0.031-0.059-0.067-0.086-0.099
	c-0.279-0.323-0.801-0.922-0.588-1.837c0.084-0.365,0.234-0.623,0.445-0.77c0.162-0.112,0.332-0.137,0.473-0.131
	c-0.264-0.761-0.986-2.511-1.941-2.411c-2.662,0.268-2.602,2.776-2.598,2.883c0.004,0.115-0.061,0.212-0.143,0.221
	c-0.096,0.01-0.154-0.078-0.158-0.192c0-0.032-0.029-0.779,0.32-1.565c0.318-0.72,1.021-1.607,2.561-1.762
	c1.447-0.14,2.314,2.887,2.352,3.016c0.023,0.075,0.008,0.161-0.033,0.22c-0.041,0.06-0.102,0.082-0.158,0.056
	c0,0-0.303-0.135-0.545,0.036c-0.133,0.093-0.232,0.27-0.289,0.519c-0.152,0.652,0.238,1.103,0.494,1.397
	c0.121,0.141,0.203,0.234,0.232,0.349c0.016,0.065,0.027,0.194-0.094,0.329c-0.234,0.26-1.236,0.749-2.197,0.722L448.636,380.23z"/>
<path fill="#E8A080" d="M490.015,377.612c0,0,1.814-6.155,5.617-1.284c1.51,1.935-0.627,8.858-5.963,6.956
	C489.669,383.284,488.099,381.703,490.015,377.612z"/>
<path fill="#BB5151" d="M492.699,381.896c0.443,0.013,0.885-0.085,1.248-0.37c0.074-0.058,0.1-0.185,0.061-0.283
	c-0.041-0.1-0.131-0.135-0.207-0.075c-0.967,0.757-2.609-0.006-2.992-0.357c0.027-0.029,0.063-0.063,0.092-0.095
	c0.297-0.308,0.85-0.876,0.688-1.804c-0.066-0.368-0.201-0.634-0.402-0.792c-0.156-0.123-0.326-0.155-0.467-0.157
	c0.307-0.745,1.125-2.451,2.074-2.301c2.643,0.414,2.443,2.917,2.434,3.022c-0.012,0.113,0.047,0.216,0.131,0.228
	c0.094,0.017,0.158-0.069,0.168-0.182c0.004-0.032,0.072-0.777-0.234-1.582c-0.277-0.735-0.932-1.66-2.459-1.9
	c-1.438-0.218-2.471,2.755-2.516,2.882c-0.025,0.073-0.016,0.16,0.023,0.222c0.037,0.062,0.096,0.087,0.154,0.063
	c0,0,0.309-0.119,0.541,0.065c0.129,0.101,0.215,0.281,0.26,0.535c0.117,0.658-0.297,1.086-0.574,1.369
	c-0.127,0.135-0.215,0.222-0.25,0.337c-0.021,0.063-0.039,0.192,0.074,0.333C490.765,381.326,491.738,381.871,492.699,381.896
	L492.699,381.896z"/>
<path fill="#FFFFFF" d="M464.005,389.957c0.863-0.652,2.078-0.335,3.137-0.113c2.055,0.43,4.209,0.377,6.242-0.154
	c1.059-0.275,2.357-0.618,3.105,0.178c0.691,0.737,0.379,1.954-0.16,2.809c-1.752,2.772-5.588,4.007-8.629,2.776
	c-2.193-0.888-3.928-3.141-3.693-5.497L464.005,389.957z"/>
<path fill="#85554A" d="M496.421,350.298c0.477,0.914,1.396,1.698,1.527,2.684c0.133,0.992-0.572,1.906-1.008,2.836
	c-0.434,0.929-0.48,2.186,0.557,2.729c-1.768-0.014-3.301-1.525-2.979-2.94c-0.807,0.01-1.58,0.43-1.9,1.032
	c-0.318,0.601-0.17,1.354,0.369,1.849c-0.998-0.108-2.031-0.393-2.686-1.022c-0.424-0.41-0.648-0.932-0.865-1.437
	c-0.824-1.933-1.646-3.866-2.469-5.799c0.902,3.395-1.52,7.146-5.445,8.435c-1.623,0.533-3.51,0.717-4.762,1.71
	c-0.967,0.767-1.395,1.904-2.383,2.651c-1.424,1.074-3.592,1.072-5.539,1.009c-0.02-0.32,0.553-0.351,0.943-0.38
	c0.877-0.065,1.533-0.731,1.723-1.432c0.191-0.699,0.014-1.431-0.16-2.138c-0.691,1.161-2.432,1.645-4.021,1.683
	c-1.588,0.037-3.184-0.252-4.766-0.125c-2.416,0.192-4.557,1.332-6.93,1.722c-1.412,0.232-2.879,0.198-4.277,0.479
	c-1.553,0.313-2.939,1.003-4.395,1.542c-1.504,0.56-3.33,0.945-4.773,0.264c1.779-0.688,3.469-1.521,5.037-2.489
	c0.748-0.461,1.549-1.177,1.197-1.895c-0.832,1.584-3.307,2.43-5.295,1.81c0.969,0.222,1.984-0.343,2.422-1.072
	c0.439-0.731,0.441-1.581,0.432-2.397c-0.016-1.792-0.031-3.585-0.049-5.377c-0.006-0.622-0.008-1.262,0.256-1.843
	c0.465-1.024,1.695-1.742,2.039-2.798c0.199-0.606,0.078-1.251,0.074-1.881c-0.008-2.103,1.352-4.085,3.229-5.51
	c1.875-1.425,4.232-2.358,6.623-3.127c4.186-1.348,8.695-2.257,13.197-1.91c3.498,0.27,6.846,1.28,10.145,2.285
	c1.561,0.474,3.201,0.994,4.229,2.064c0.867,0.899,1.172,2.063,1.451,3.181c1.486-0.073,2.998-0.145,4.455,0.129
	s2.875,0.943,3.586,2.02c0.699,1.063,0.623,2.354,1.203,3.462L496.421,350.298z"/>
<path opacity="0.3" fill="#FFFFFF" enable-background="new    " d="M451.441,350.805c0.254,0.47,0.871,0.644,1.395,0.537
	c0.523-0.107,0.973-0.431,1.398-0.756c0.664-0.507,1.354-1.102,1.512-1.92c0.049-0.26,0.047-0.541,0.191-0.761
	c0.152-0.234,0.434-0.343,0.695-0.437c0.76-0.275,1.518-0.549,2.275-0.824c0.684-0.248,1.393-0.512,1.891-1.042
	c0.518-0.552,0.732-1.316,0.895-2.056c0.15-0.695,0.129-1.648-0.555-1.853c-0.215-0.063-0.445-0.028-0.664,0.012
	c-1.832,0.337-3.609,0.961-5.25,1.841c-0.246,0.131-0.5,0.279-0.635,0.523c-0.141,0.254-0.127,0.559-0.137,0.849
	c-0.039,1.27-0.621,2.515-1.568,3.362c-0.395,0.353-0.852,0.641-1.18,1.053C451.373,349.747,451.191,350.342,451.441,350.805z"/>
<path opacity="0.3" fill="#FFFFFF" enable-background="new    " d="M471.533,340.777c-0.084-0.428-0.572-0.626-0.992-0.751
	c-0.416-0.123-0.832-0.248-1.248-0.37c-0.93-0.275-1.947-0.549-2.842-0.175c-0.434,0.183-0.836,0.603-0.756,1.066
	c0.1,0.559,0.773,0.767,1.326,0.901c1.262,0.31,2.611,0.816,3.803,0.306C471.224,341.582,471.615,341.206,471.533,340.777
	L471.533,340.777z"/>
<path fill="#E8A080" d="M550.751,398.625l-13.102-0.212c0,0-4.01,14.344-7.969,19.07c-0.658,0.786-1.852-5.313-1.852-5.313
	l-3.531,4.455c0,0,0.477,12.293,2.018,14.84l6.061,9.821l4.369,6.889l1.715-11.562l10.27-20.434
	c0.912-1.813-1.418-3.585-0.752-5.504c1.416-4.074,3.084-10.697,2.77-12.049L550.751,398.625z"/>
<path fill="#FAEFE4" d="M465.593,503.818c10.754,0.356,21.32,2.277,31.535,5.547c-0.064-5.788,0.051-11.587,0.174-17.386
	c-7.088,0.137-14.096-1.401-20.898-2.907c-2.76-0.612-5.52-1.225-8.279-1.727c-6.344-1.149-12.744-1.785-19.26-1.646
	c-4.9,0.046-8.854,0.504-12.332,1.354c-0.119,1.44-0.27,2.878-0.5,4.307c-0.723,4.492-2.082,8.862-2.846,13.351
	c-0.055,0.323-0.078,0.65-0.125,0.976l2.414-0.238c9.844-0.963,20.025-1.95,30.115-1.629H465.593z"/>
<path fill="#FAEFE4" d="M454.861,527.657c8.881-1.12,17.891-0.545,26.598,0.012c5.539,0.353,11.215,0.691,16.83,0.606
	c-0.012-0.096-0.023-0.194-0.035-0.289c-0.609-4.836-0.881-9.691-1.02-14.557c-10.275-3.426-20.922-5.434-31.768-5.788
	c-9.852-0.339-19.895,0.657-29.615,1.613l-3.256,0.318c-0.359,4.212-0.352,8.462-0.332,12.695c0.016,3.276,0.033,6.552,0.051,9.829
	c2.986-0.528,6.008-1.188,9.09-1.876C445.794,529.238,450.339,528.227,454.861,527.657L454.861,527.657z"/>
<path fill="#FAEFE4" d="M477.675,467.096l0.811,0.067c6.283,0.535,12.736,1.048,18.65-0.329c-0.164-2.788-0.395-5.57-0.727-8.347
	c-19.85,0.636-39.727,0.364-59.551-0.813c0.018,2.594,0,5.188,0.004,7.782C450.478,465.435,464.173,465.959,477.675,467.096
	L477.675,467.096z"/>
<path fill="#FAEFE4" d="M481.214,531.483c-8.531-0.549-17.355-1.113-25.877-0.033c-4.342,0.549-8.797,1.542-13.104,2.501
	c-3.268,0.728-6.574,1.46-9.902,2.023c0.002,0.398,0.004,0.796,0.006,1.194c0.016,2.997,0.137,6.288,2.139,8.518
	c2.1,2.339,5.557,2.735,8.689,2.975c8.215,0.629,16.523,1.221,24.652-0.112c3.486-0.573,6.93-1.496,10.459-1.661
	c5.994-0.277,12.926,1.363,17.313-2.725c3.184-2.967,3.469-7.551,3.109-12.069C492.826,532.195,486.947,531.846,481.214,531.483z"/>
<path fill="#FAEFE4" d="M478.166,470.976l-0.811-0.071c-13.396-1.129-26.975-1.654-40.49-1.629c-0.002,2.634,0.02,5.27,0.004,7.903
	c-0.012,1.966-0.041,3.936-0.109,5.901c3.492-0.747,7.383-1.163,12.07-1.204c6.697-0.098,13.391,0.519,19.973,1.706
	c2.809,0.507,5.617,1.132,8.426,1.756c6.92,1.535,13.523,2.992,20.146,2.826c0.107-5.813,0.123-11.619-0.09-17.412
	c-6.238,1.31-12.76,0.761-19.119,0.226V470.976z"/>
<path fill="#E8A080" d="M476.314,520.433c-7.188,1.34-41.596-16.912-53.578-17.945c-11.984-1.03-22.955,4.669-22.955,4.669
	s-4.516,7.238-0.969,11.35c3.547,4.112,16.781,11.419,30.535,13.619c13.752,2.199,32.404-1.019,50.34,2.784L476.314,520.433z"/>
<path fill="#BB5151" d="M405.285,519.569c-0.029,0.01-0.059,0.014-0.088,0.014c-2.627-0.158-5.314-3.614-5.43-3.761
	c-0.072-0.094-0.053-0.244,0.047-0.335c0.094-0.09,0.234-0.09,0.307,0.004c0.027,0.035,2.699,3.472,5.162,3.618
	c0.117,0.008,0.195,0.119,0.174,0.25c-0.018,0.097-0.088,0.179-0.17,0.21H405.285z"/>
<path fill="#E8A080" d="M463.937,518.166l23.391,4.515c0,0,14.719,7.553,14.443,9.655c-0.273,2.101-9.967,14.896-9.967,14.896
	s-7.473-6.783-16.248-14.165c-0.131-0.109-7.857-0.629-7.857-0.629l-3.76-14.271L463.937,518.166z"/>
<path fill="#E8A080" d="M480.351,521.735c0,0,6.545-1.175,16.09-0.287c3.639,0.339,12.385-1.931,12.051,0.46
	c-0.336,2.39-11.508,3.472-11.719,4.215c-0.209,0.745,4.371,4.911,4.371,4.911l-9.807-1.827L480.351,521.735z"/>
<path fill="#E8A080" d="M497.886,529.344c0,0,21.438,9.074,20.986,10.975s-18.131-5.002-18.131-5.002s17.604,10.93,16.859,12.671
	c-0.744,1.742-20.002-8.572-20.002-8.572s14.793,13.705,13.697,15.045s-16.986-11.026-16.986-11.026s9.727,12.919,8.721,14.094
	c-1.008,1.174-11.227-10.297-11.227-10.297l-6.85-7.522l12.93-10.364H497.886z"/>
<path fill="#B0B0B0" d="M529.574,406.039c-2.932-3.808-2.221-9.291,1.588-12.222c3.807-2.932,9.289-2.22,12.221,1.587
	c2.932,3.808,2.219,9.291-1.588,12.222S532.503,409.845,529.574,406.039z M542.351,396.199c-2.494-3.238-7.158-3.845-10.398-1.352
	c-3.238,2.495-3.844,7.158-1.352,10.398c2.496,3.238,7.158,3.845,10.398,1.352C544.238,404.102,544.845,399.439,542.351,396.199z"/>
<path fill="#353535" d="M531.005,422.707l7.023-12.241c0.523-0.913,0.301-2.145-0.572-2.734l-5.928-4.016
	c-0.881-0.599-2.119-0.341-2.768,0.504l-8.598,11.204c-1.982,2.585-1.408,6.346,1.289,8.173l1.465,0.991
	C525.644,426.434,529.369,425.565,531.005,422.707L531.005,422.707z M535.56,409.994c-0.299,0.442-0.898,0.557-1.34,0.258
	l-3.787-2.564c-0.441-0.299-0.557-0.897-0.258-1.34l0.232-0.341c0.299-0.441,0.898-0.557,1.34-0.258l3.787,2.564
	c0.441,0.3,0.557,0.898,0.258,1.34L535.56,409.994z"/>
<path opacity="0.41" fill="#7F7F7F" enable-background="new    " d="M525.796,411.547l6.641,4.497
	c0.029,0.021,0.037,0.062,0.018,0.091l-1.822,2.691c-0.021,0.029-0.061,0.037-0.092,0.018l-6.641-4.498
	c-0.029-0.02-0.037-0.061-0.018-0.091l1.824-2.69C525.726,411.534,525.767,411.526,525.796,411.547z"/>
<path opacity="0.41" fill="#7F7F7F" enable-background="new    " d="M523.603,414.782l6.641,4.497
	c0.029,0.021,0.037,0.062,0.018,0.091l-1.824,2.691c-0.02,0.03-0.061,0.038-0.09,0.018l-6.641-4.498
	c-0.029-0.021-0.037-0.061-0.018-0.091l1.822-2.69C523.533,414.769,523.572,414.761,523.603,414.782z"/>
<path fill="#8BC43F" d="M533.46,413.559c0.227-0.337,0.141-0.795-0.197-1.022c-0.336-0.229-0.795-0.141-1.023,0.196
	s-0.141,0.794,0.195,1.024c0.336,0.228,0.795,0.141,1.025-0.196V413.559z"/>
<path fill="#B0B0B0" d="M530.386,405.749c0.113-0.112,0.223-0.235,0.338-0.356c-0.039-0.05-0.08-0.097-0.121-0.148
	c-0.65-0.847-1.092-1.79-1.326-2.767c-0.176,0.058-0.359,0.075-0.543,0.031c-0.266-0.063-0.545-0.148-0.824-0.237
	c0.236,1.33,0.783,2.624,1.664,3.766c0.078,0.101,0.16,0.199,0.242,0.297c0.189-0.196,0.377-0.393,0.57-0.587V405.749z"/>
<path fill="#B0B0B0" d="M519.761,403.74l-5.555,2.223l0.195,0.484l-2.416,0.967l-0.193-0.483l-0.967,0.388l0.389,0.966l-1.689,0.678
	l-0.389-0.968l-0.725,0.292l0.193,0.481l-2.656,1.064l-0.193-0.483l-1.609,0.646l2.68,2.289l14.098-5.646L519.761,403.74z"/>
<path opacity="0.3" enable-background="new    " d="M520.376,405.273c-1.281,0.489-14.213,5.724-14.813,5.932l1.262,1.076
	l14.096-5.646L520.376,405.273z"/>
<path fill="#4D4D4D" d="M523.849,410.92l7.24-4.313c0.627-0.373,0.857-1.134,0.586-1.81l-2.693-6.724
	c-0.275-0.686-0.893-1.114-1.609-0.934l-8.307,2.085c-0.871,0.216-1.471,1.201-1.137,2.035l3.607,9.013
	c0.34,0.845,1.531,1.114,2.313,0.65V410.92z M529.74,405.067c-0.361,0.145-0.771-0.031-0.916-0.393l-2.086-5.212
	c-0.145-0.36,0.031-0.771,0.393-0.915l0.141-0.056c0.359-0.145,0.77,0.031,0.916,0.393l2.086,5.212
	c0.145,0.36-0.031,0.771-0.393,0.915L529.74,405.067z"/>
<path fill="#B0B0B0" d="M528.673,396.849c-0.428,0.867-0.705,1.799-0.828,2.748c0.426,0.117,0.02,0.82,0.406,0.912
	c0.014,0.004,0.572,1.31,0.82,0.824c-0.049-1.583,0.342-2.988,0.682-3.729c-0.373-0.196-0.73-0.46-1.08-0.757V396.849z"/>
<path fill="#E8A080" d="M550.816,396.786c0,0-10.432-6.744-10.748-5.083c-0.314,1.66,10.111,10.006,10.111,10.006
	s-10.738-4.578-11.014-2.333c-0.273,2.245,9.902,7.522,9.902,7.522s-12.102-1.013-10.992,1.178c0.725,1.435,9.375,3.718,9.375,3.718
	s-10.369-0.955-10.006,0.894s11.371,2.931,11.371,2.931s1.973-1.66,1.188-3.785c-0.279-0.753,1.268-2.289,0.531-3.916
	c0,0,2.668-3.722,0.295-6.408C550.83,401.509,554.5,399.262,550.816,396.786L550.816,396.786z"/>
<path fill="#96965F" d="M543.08,624.525H43.927c-2.874,0-5.2-2.325-5.2-5.2c0-2.876,2.326-5.2,5.2-5.2H543.08
	c2.873,0,5.199,2.324,5.199,5.2C548.279,622.2,545.953,624.525,543.08,624.525z"/>
<path fill="#FFFFFF" d="M225.553,330.432c-12.966-0.002-23.634-10.555-23.773-23.527c-0.067-6.352,2.338-12.352,6.786-16.893
	c4.441-4.538,10.386-7.076,16.742-7.146h0.262c12.971-0.002,23.638,10.553,23.773,23.523c0.067,6.352-2.338,12.352-6.786,16.89
	c-4.441,4.541-10.386,7.079-16.742,7.148h-0.262V330.432z M225.569,284.178h-0.252c-6.002,0.067-11.621,2.466-15.816,6.754
	c-4.202,4.29-6.479,9.96-6.411,15.961c0.133,12.257,10.208,22.229,22.463,22.231h0.252c6.002-0.067,11.621-2.466,15.82-6.756
	c4.195-4.29,6.472-9.956,6.407-15.959C247.903,294.151,237.83,284.178,225.569,284.178L225.569,284.178z"/>
<path fill="#FFFFFF" d="M225.805,326.56c-10.858,0-19.796-8.839-19.915-19.702c-0.117-10.983,8.724-20.014,19.705-20.133h0.214
	c10.862,0,19.802,8.836,19.918,19.702c0.117,10.985-8.724,20.016-19.705,20.133h-0.22H225.805z M225.811,288.037h-0.204
	c-10.253,0.111-18.512,8.548-18.404,18.807c0.113,10.148,8.458,18.407,18.604,18.407h0.21c10.254-0.107,18.512-8.546,18.405-18.808
	c-0.113-10.15-8.462-18.406-18.609-18.406H225.811z"/>
<path fill="#FFFFFF" d="M220.129,301.14l4.11,10.726l4.528-15.589l4.447-0.595l-6.605,21.169l-3.133,0.762l-6.771-14.818"/>
</svg>
