<?xml version="1.0" encoding="utf-8"?>
<!-- Generator: Adobe Illustrator 16.0.0, SVG Export Plug-In . SVG Version: 6.00 Build 0)  -->
<!DOCTYPE svg PUBLIC "-//W3C//DTD SVG 1.1//EN" "http://www.w3.org/Graphics/SVG/1.1/DTD/svg11.dtd">
<svg version="1.1" id="Calque_1" xmlns="http://www.w3.org/2000/svg" xmlns:xlink="http://www.w3.org/1999/xlink" x="0px" y="0px"
	 width="1012.409px" height="569.753px" viewBox="24.39 135.692 1012.409 569.753"
	 enable-background="new 24.39 135.692 1012.409 569.753" xml:space="preserve">
<circle display="none" fill="#000091" cx="532.558" cy="428.556" r="233.473"/>
<path display="none" fill="#FFFFFF" d="M646.962,366.464h-11.65v-26.802c0-56.658-46.096-102.754-102.754-102.754
	c-56.66,0-102.754,46.096-102.754,102.754v26.802h-11.648c-5.59,0-10.119,4.531-10.119,10.121v127.615
	c1.268,18.045,6.342,35.035,14.467,50.156c21.064,39.195,62.445,65.85,110.055,65.85c47.611,0,88.994-26.656,110.059-65.852
	c8.125-15.119,13.199-32.111,14.465-50.154V376.582c0-5.589-4.529-10.12-10.119-10.12V366.464z M555.156,530.23h-45.197
	l12.369-47.027c-8.469-3.883-14.354-12.428-14.354-22.352c0-13.578,11.006-24.584,24.584-24.584s24.582,11.006,24.582,24.584
	c0,9.924-5.885,18.469-14.357,22.352L555.156,530.23z M476.257,348.857h0.021v-5.337c0-31.032,25.244-56.278,56.277-56.278
	c31.031,0,56.277,25.246,56.277,56.278v5.556h-0.123v21.246H476.257V348.857L476.257,348.857z"/>
<circle display="none" fill="#000091" cx="532.532" cy="428.878" r="233.796"/>
<path display="none" fill="#FFFFFF" d="M639.19,343.287c-31.23-26.013-58.934-37.422-91.172-37.422
	c-43.822,0-86.638,26.013-103.261,68.452h171.767l-12.593,33.313H435.184c-0.504,2.282-1.007,7.302-1.007,11.409
	c0,4.564,0.505,8.214,1.007,10.951H595.87l-13.097,33.315H443.244c13.097,39.244,54.903,69.365,98.226,69.365
	c34.756,0,66.993-13.691,97.721-37.879v49.741c-36.267,20.079-64.98,28.294-98.727,28.294c-66.492,0-131.973-42.896-149.101-109.521
	h-37.779l8.563-33.315h22.667c-0.504-2.737-1.007-6.844-1.007-10.496c0-2.281,0.504-8.671,1.007-11.864H354.59l8.563-33.313h28.712
	c19.141-64.803,82.609-108.611,154.643-108.611c36.77,0,62.458,9.582,92.681,26.468v51.11L639.19,343.287z"/>
<circle display="none" fill="#000091" cx="531.753" cy="429.058" r="234.947"/>
<g display="none">
	<path display="inline" fill="#FFFFFF" d="M613.709,464.539v-2.72c0-9.096,7.374-16.471,16.47-16.471h2.719
		c15.968,0,25.949-17.286,17.964-31.114l-1.358-2.355c-4.546-7.876-1.849-17.949,6.028-22.495l2.354-1.359
		c13.83-7.985,13.83-27.944,0-35.932l-2.354-1.358c-7.877-4.547-10.574-14.62-6.028-22.497l1.358-2.354
		c7.985-13.831-1.996-31.117-17.964-31.117h-2.719c-9.096,0-16.47-7.374-16.47-16.47v-2.717c0-15.969-17.287-25.951-31.118-17.967
		l-2.354,1.359c-7.876,4.547-17.947,1.849-22.497-6.028l-1.356-2.354c-7.985-13.83-27.946-13.83-35.933,0l-1.358,2.354
		c-4.549,7.877-14.62,10.575-22.498,6.028l-2.354-1.359c-13.829-7.984-31.116,1.998-31.116,17.967v2.717
		c0,9.096-7.373,16.47-16.471,16.47h-2.718c-15.969,0-25.95,17.286-17.966,31.117l1.358,2.354c4.549,7.877,1.85,17.949-6.027,22.497
		l-2.354,1.358c-13.829,7.984-13.829,27.946,0,35.932l2.354,1.359c7.877,4.546,10.576,14.619,6.027,22.495l-1.358,2.355
		c-7.984,13.828,1.997,31.114,17.966,31.114h2.718c9.098,0,16.471,7.375,16.471,16.471v2.72c0,15.97,17.287,25.95,31.116,17.966
		l2.354-1.357c7.878-4.55,17.949-1.85,22.498,6.026l1.358,2.354c7.983,13.83,27.944,13.83,35.933,0l1.356-2.354
		c4.55-7.876,14.621-10.576,22.497-6.026l2.354,1.357C596.422,490.489,613.709,480.509,613.709,464.539z M538.414,465.726
		c-52.834,0-95.667-42.83-95.667-95.667c0-52.836,42.833-95.667,95.667-95.667c52.84,0,95.668,42.831,95.668,95.667
		C634.082,422.896,591.253,465.726,538.414,465.726z"/>
	<circle display="inline" fill="#FFFFFF" cx="538.416" cy="370.059" r="87.637"/>
	<path display="inline" fill="#FFFFFF" d="M692.18,571.008l-59.197-93.375c-0.93-1.466-3.149-1.165-3.656,0.493l-2.315,7.57
		c-1.576,5.146-5.321,9.353-10.254,11.51l-10.486,4.587c-3.958,1.73-8.401,2.018-12.55,0.813l-9.214-5.364
		c-1.812-1.059-3.842,0.995-2.763,2.797l55.384,92.486c0.662,1.108,2.308,0.974,2.778-0.229l10.521-26.692
		c0.72-1.822,2.702-2.807,4.588-2.274l35.43,10.006C691.818,573.723,692.945,572.214,692.18,571.008L692.18,571.008z"/>
	<path display="inline" fill="#FFFFFF" d="M497.61,499.008l-9.214,5.366c-4.148,1.206-8.588,0.916-12.548-0.813l-10.487-4.588
		c-4.935-2.156-8.679-6.36-10.254-11.509l-2.315-7.571c-0.507-1.657-2.727-1.958-3.656-0.492l-59.198,93.377
		c-0.765,1.204,0.363,2.717,1.735,2.329l35.429-10.005c1.887-0.535,3.867,0.449,4.587,2.271l10.521,26.694
		c0.472,1.201,2.118,1.336,2.779,0.23l55.384-92.488C501.452,500.009,499.423,497.956,497.61,499.008L497.61,499.008z"/>
</g>
<circle fill="#000091" cx="531.082" cy="428.387" r="234.275"/>
<g>
	<path fill="#FFFFFF" d="M679.967,413.978c0,0,16.732-8.483,7.677-29.99c-10.931-25.962-121.214-13.686-121.214-13.686
		s24.778-27.948,24.785-70.327c0.007-59.242-37.27-54.515-48.177-51.39c-4,1.146-6.735,9.413-8.597,19.424
		c-5.354,28.785-19.584,55.177-40.547,75.619c-14.862,14.496-27.187,31.384-36.456,49.961l0.127,162.078l197.397-0.154
		c26.606-9.45,13.039-35.668,13.039-35.668s15.356-2.695,17.032-26.966c1.674-24.275-8.003-24.929-8.003-24.929
		s11.745-0.769,12.528-27.096c0.786-26.326-9.593-26.879-9.593-26.879V413.978z"/>
	<path fill="#FFFFFF" d="M364.952,397.26h72.253v158.456h-72.253V397.26z"/>
</g>
</svg>
