<?xml version="1.0" encoding="UTF-8" standalone="no"?>
<!-- Created with Inkscape (http://www.inkscape.org/) -->

<svg
   xmlns:dc="http://purl.org/dc/elements/1.1/"
   xmlns:cc="http://creativecommons.org/ns#"
   xmlns:rdf="http://www.w3.org/1999/02/22-rdf-syntax-ns#"
   xmlns:svg="http://www.w3.org/2000/svg"
   xmlns="http://www.w3.org/2000/svg"
   xmlns:sodipodi="http://sodipodi.sourceforge.net/DTD/sodipodi-0.dtd"
   xmlns:inkscape="http://www.inkscape.org/namespaces/inkscape"
   width="21.922659mm"
   height="10.645956mm"
   viewBox="0 0 77.678713 37.721891"
   id="svg3370"
   version="1.1"
   inkscape:version="0.91 r13725"
   sodipodi:docname="histovec-logo-droite.svg"
   inkscape:export-filename="/home/antoinefa/src/histovec/poc/frontend/src/assets/img/histovec-logo-droite.png"
   inkscape:export-xdpi="600.49219"
   inkscape:export-ydpi="600.49219">
  <defs
     id="defs3372" />
  <sodipodi:namedview
     id="base"
     pagecolor="#ffffff"
     bordercolor="#666666"
     borderopacity="1.0"
     inkscape:pageopacity="0.0"
     inkscape:pageshadow="2"
     inkscape:zoom="11.2"
     inkscape:cx="-0.48443129"
     inkscape:cy="13.037901"
     inkscape:document-units="px"
     inkscape:current-layer="layer1"
     showgrid="false"
     inkscape:window-width="1920"
     inkscape:window-height="1056"
     inkscape:window-x="0"
     inkscape:window-y="24"
     inkscape:window-maximized="1"
     fit-margin-top="1"
     fit-margin-left="1"
     fit-margin-right="1"
     fit-margin-bottom="1" />
  <metadata
     id="metadata3375">
    <rdf:RDF>
      <cc:Work
         rdf:about="">
        <dc:format>image/svg+xml</dc:format>
        <dc:type
           rdf:resource="http://purl.org/dc/dcmitype/StillImage" />
        <dc:title />
      </cc:Work>
    </rdf:RDF>
  </metadata>
  <g
     inkscape:label="Calque 1"
     inkscape:groupmode="layer"
     id="layer1"
     transform="translate(868.47965,40.784466)">
    <path
       style="display:inline;fill:#b5b5b5;fill-opacity:1;stroke:none"
       d="m 617.53944,195.68414 c -4.84926,0.11383 -9.29439,1.63122 -11.25977,2.48633 -3.37337,1.46771 -5.70279,5.16747 -7.91016,7.06445 -2.20737,1.89698 -7.11915,2.70224 -9.72265,4.75391 -3.70037,2.91605 -3.21824,7.5377 -0.98242,9.22266 0.50021,0.43978 1.61076,0.83124 3.125,1.15625 -0.003,-0.10144 0,-0.19639 0,-0.29883 0,-4.22732 3.39572,-7.66602 7.62304,-7.66602 4.22733,0 7.66407,3.4387 7.66407,7.66602 0,0.56133 -0.0979,1.09965 -0.2129,1.62695 3.10685,0.0769 6.35105,0.11628 9.50586,0.043 -0.24227,-0.7453 -0.38476,-1.53032 -0.38476,-2.35547 0,-4.22731 3.43674,-7.66601 7.66406,-7.66601 4.22731,0 7.66602,3.4387 7.66602,7.66601 0,0.3975 -0.0706,0.77492 -0.12891,1.15625 2.27884,-0.36567 2.50465,-0.79164 3.41992,-1.32812 1.67134,-5.73066 2.55827,-18.65585 -9.39843,-22.61914 -2.1762,-0.72154 -4.46377,-0.95995 -6.66797,-0.90821 z m 5.10937,17.73242 c -3.2525,0 -5.9082,2.61469 -5.9082,5.86719 0,3.25249 2.6557,5.91016 5.9082,5.91016 3.2525,0 5.91016,-2.65767 5.91016,-5.91016 0,-3.2525 -2.65766,-5.86719 -5.91016,-5.86719 z m -24.20508,0.34375 c -3.25249,0 -5.86523,2.61276 -5.86523,5.86524 0,3.2525 2.61274,5.91015 5.86523,5.91015 3.2525,0 5.91016,-2.65765 5.91016,-5.91015 0,-3.25248 -2.65766,-5.86524 -5.91016,-5.86524 z"
       id="path4756-2-3-4-1"
       inkscape:connector-curvature="0"
       transform="matrix(-1.0260208,-1.7432557e-8,-1.7432557e-8,1.0260208,-213.8493,-238.01019)" />
    <path
       style="display:inline;fill:#ffffff;fill-opacity:1;stroke:none"
       d="m 607.28639,195.68414 c -4.84926,0.11383 -9.29439,1.63122 -11.25977,2.48633 -3.37337,1.46771 -5.70279,5.16747 -7.91016,7.06445 -2.20737,1.89698 -7.11915,2.70224 -9.72265,4.75391 -3.70037,2.91605 -3.21824,7.5377 -0.98242,9.22266 0.50021,0.43978 1.61076,0.83124 3.125,1.15625 -0.003,-0.10144 0,-0.19639 0,-0.29883 0,-4.22732 3.39572,-7.66602 7.62304,-7.66602 4.22733,0 7.66407,3.4387 7.66407,7.66602 0,0.56133 -0.0979,1.09965 -0.2129,1.62695 3.10685,0.0769 6.35105,0.11628 9.50586,0.043 -0.24227,-0.7453 -0.38476,-1.53032 -0.38476,-2.35547 0,-4.22731 3.43674,-7.66601 7.66406,-7.66601 4.22731,0 7.66602,3.4387 7.66602,7.66601 0,0.3975 -0.0706,0.77492 -0.12891,1.15625 2.27884,-0.36567 2.50465,-0.79164 3.41992,-1.32812 1.67134,-5.73066 2.55827,-18.65585 -9.39843,-22.61914 -2.1762,-0.72154 -4.46377,-0.95995 -6.66797,-0.90821 z m 5.10937,17.73242 c -3.2525,0 -5.9082,2.61469 -5.9082,5.86719 0,3.25249 2.6557,5.91016 5.9082,5.91016 3.2525,0 5.91016,-2.65767 5.91016,-5.91016 0,-3.2525 -2.65766,-5.86719 -5.91016,-5.86719 z m -24.20508,0.34375 c -3.25249,0 -5.86523,2.61276 -5.86523,5.86524 0,3.2525 2.61274,5.91015 5.86523,5.91015 3.2525,0 5.91016,-2.65765 5.91016,-5.91015 0,-3.25248 -2.65766,-5.86524 -5.91016,-5.86524 z"
       id="path4756-2-9-2"
       inkscape:connector-curvature="0"
       transform="matrix(-1.0260208,-1.7432557e-8,-1.7432557e-8,1.0260208,-213.8493,-238.01019)" />
    <path
       style="display:inline;fill:#00a6a7;fill-opacity:1;stroke:none"
       d="m -826.78074,-37.2342 c 4.9755,0.1168 9.5363,1.67367 11.5528,2.55103 3.4611,1.50591 5.8512,5.30193 8.116,7.24827 2.2648,1.94635 7.3044,2.77256 9.9756,4.87761 3.7967,2.99193 3.302,7.73384 1.008,9.46264 -0.5132,0.45123 -1.6527,0.85287 -3.2063,1.18634 0,-0.10405 1e-4,-0.20146 -10e-5,-0.30664 0,-4.33731 -3.484,-7.8655 -7.8214,-7.86549 -4.3373,0 -7.8635,3.52817 -7.8635,7.86549 10e-5,0.57593 0.1005,1.12828 0.2185,1.6693 -3.1877,0.0789 -6.5163,0.11929 -9.7532,0.0441 0.2486,-0.76468 0.3947,-1.57014 0.3948,-2.41675 -10e-5,-4.33732 -3.5262,-7.86549 -7.8635,-7.8655 -4.3374,10e-6 -7.8655,3.52819 -7.8655,7.8655 0,0.40784 0.072,0.79508 0.1322,1.18633 -2.3381,-0.37519 -2.5698,-0.81224 -3.5089,-1.36267 -1.7148,-5.87979 -2.6248,-19.1413 9.643,-23.20771 2.2328,-0.74032 4.5799,-0.98494 6.8415,-0.93184 z m -5.2423,18.19384 c 3.3372,0 6.062,2.68273 6.062,6.01986 0,3.33711 -2.7248,6.06394 -6.062,6.06394 -3.3371,0 -6.0639,-2.72682 -6.0639,-6.06394 0,-3.33713 2.7268,-6.01986 6.0639,-6.01986 z m 24.8349,0.35268 c 3.3372,2e-5 6.0179,2.68075 6.0179,6.01786 0,3.33713 -2.6807,6.06394 -6.0179,6.06394 -3.3371,0 -6.0639,-2.72679 -6.0639,-6.06394 0,-3.33711 2.7268,-6.01786 6.0639,-6.01786 z"
       id="path4756-4-7"
       inkscape:connector-curvature="0" />
  </g>
</svg>
